<?xml version="1.0" encoding="UTF-8" standalone="no"?>
<!-- Created with Inkscape (http://www.inkscape.org/) -->

<svg
   xmlns:dc="http://purl.org/dc/elements/1.1/"
   xmlns:cc="http://creativecommons.org/ns#"
   xmlns:rdf="http://www.w3.org/1999/02/22-rdf-syntax-ns#"
   xmlns:svg="http://www.w3.org/2000/svg"
   xmlns="http://www.w3.org/2000/svg"
   xmlns:sodipodi="http://sodipodi.sourceforge.net/DTD/sodipodi-0.dtd"
   xmlns:inkscape="http://www.inkscape.org/namespaces/inkscape"
   width="744.09448819"
   height="1052.3622047"
   id="svg2"
   version="1.1"
   inkscape:version="0.48.4 r9939"
   sodipodi:docname="pwned.svg">
  <defs
     id="defs4" />
  <sodipodi:namedview
     id="base"
     pagecolor="#ffffff"
     bordercolor="#666666"
     borderopacity="1.0"
     inkscape:pageopacity="0.0"
     inkscape:pageshadow="2"
     inkscape:zoom="0.98994949"
     inkscape:cx="289.65048"
     inkscape:cy="594.73749"
     inkscape:document-units="px"
     inkscape:current-layer="layer1"
     showgrid="false"
     showguides="true"
     inkscape:guide-bbox="true"
     inkscape:window-width="1920"
     inkscape:window-height="1017"
     inkscape:window-x="-5"
     inkscape:window-y="-5"
     inkscape:window-maximized="1" />
  <metadata
     id="metadata7">
    <rdf:RDF>
      <cc:Work
         rdf:about="">
        <dc:format>image/svg+xml</dc:format>
        <dc:type
           rdf:resource="http://purl.org/dc/dcmitype/StillImage" />
        <dc:title></dc:title>
      </cc:Work>
    </rdf:RDF>
  </metadata>
  <g
     inkscape:label="Layer 1"
     inkscape:groupmode="layer"
     id="layer1">
    <rect
       style="fill:#000000;fill-opacity:1;stroke:none;stroke-width:5.59999990000000030;stroke-linecap:round;stroke-linejoin:miter;stroke-miterlimit:4;stroke-opacity:1;stroke-dasharray:none"
       id="rect2985"
       width="1018.4"
       height="762.39996"
       x="-111.42857"
       y="64.247894"
       ry="4.5314245"
       inkscape:export-filename="C:\Users\tom\Dropbox\starship\engineerconsole\data\pwnedbg.png"
       inkscape:export-xdpi="90.489998"
       inkscape:export-ydpi="90.489998" />
    <path
       style="fill:#ffffff;fill-opacity:1;stroke:none"
       d="m 392.84375,243.0625 c -63.51275,0 -115,64.91871 -115,145 0,38.56164 11.96662,73.61913 31.4375,99.59375 -1.47064,16.19594 0.85159,31.44366 7,45.73484 0.53087,1.23395 1.09327,2.43657 2.43657,2.43657 l 150.43677,0 c 1.3433,0 1.88482,-1.1993 2.40791,-2.43657 6.85924,-16.22411 9.65981,-32.44823 7,-48.67234 18.20576,-25.65207 29.28125,-59.52381 29.28125,-96.65625 0,-80.08129 -51.48725,-145 -115,-145 z"
       id="path2989"
       inkscape:connector-curvature="0"
       sodipodi:nodetypes="sscsssscss"
       inkscape:export-filename="C:\Users\tom\Dropbox\starship\engineerconsole\data\pwnedbg.png"
       inkscape:export-xdpi="90.489998"
       inkscape:export-ydpi="90.489998" />
    <path
       style="fill:#000000;fill-opacity:1;stroke:none"
       d="m 360.39225,405.23305 c -5.13124,7.73356 -13.13532,12.57272 -29.08053,2.1672 -15.9452,-10.40553 -24.71164,-25.11017 -19.5804,-32.84373 5.13125,-7.73356 22.21709,-5.5675 38.1623,4.83802 15.9452,10.40553 15.62988,18.10495 10.49863,25.83851 z"
       id="path2991"
       inkscape:connector-curvature="0"
       sodipodi:nodetypes="sssss"
       inkscape:export-filename="C:\Users\tom\Dropbox\starship\engineerconsole\data\pwnedbg.png"
       inkscape:export-xdpi="90.489998"
       inkscape:export-ydpi="90.489998" />
    <path
       style="fill:#000000;fill-opacity:1;stroke:none"
       d="m 406.17278,385.30389 c 4.95722,12.25039 13.47379,47.67715 63.01531,22.31935 50.66653,-25.93361 32.65354,-46.77618 27.69632,-59.02657 -4.95723,-12.2504 -29.28235,-13.96412 -54.33167,-3.8277 -25.04932,10.13642 -41.33719,28.28451 -36.37996,40.53492 z"
       id="path2993"
       inkscape:connector-curvature="0"
       sodipodi:nodetypes="sssss"
       inkscape:export-filename="C:\Users\tom\Dropbox\starship\engineerconsole\data\pwnedbg.png"
       inkscape:export-xdpi="90.489998"
       inkscape:export-ydpi="90.489998" />
    <path
       style="fill:none;stroke:#000000;stroke-width:15.19999981;stroke-linecap:butt;stroke-linejoin:miter;stroke-miterlimit:4;stroke-opacity:1;stroke-dasharray:none"
       d="m 266.42857,314.50504 c 4.28572,3.57143 62.14286,61.42857 130.71429,60 68.57143,-1.42857 137.14286,-69.28571 137.14286,-69.28571"
       id="path2997"
       inkscape:connector-curvature="0"
       inkscape:export-filename="C:\Users\tom\Dropbox\starship\engineerconsole\data\pwnedbg.png"
       inkscape:export-xdpi="90.489998"
       inkscape:export-ydpi="90.489998" />
    <rect
       style="fill:#000000;fill-opacity:1;stroke:none"
       id="rect3772"
       width="36.42857"
       height="31.428572"
       x="569.09198"
       y="19.543592"
       ry="4.5314245"
       transform="matrix(0.70710678,0.70710678,-0.70710678,0.70710678,0,0)"
       inkscape:export-filename="C:\Users\tom\Dropbox\starship\engineerconsole\data\pwnedbg.png"
       inkscape:export-xdpi="90.489998"
       inkscape:export-ydpi="90.489998" />
    <text
       xml:space="preserve"
       style="font-size:113.00395966px;font-style:normal;font-variant:normal;font-weight:normal;font-stretch:normal;line-height:125%;letter-spacing:0px;word-spacing:0px;fill:#ffffff;fill-opacity:1;stroke:none;font-family:Hanzel Extended;-inkscape-font-specification:Hanzel Extended"
       x="88.776917"
       y="786.64789"
       id="text3774"
       sodipodi:linespacing="125%"
       inkscape:export-filename="C:\Users\tom\Dropbox\starship\engineerconsole\data\pwnedbg.png"
       inkscape:export-xdpi="90.489998"
       inkscape:export-ydpi="90.489998"><tspan
         sodipodi:role="line"
         id="tspan3776"
         x="88.776917"
         y="786.64789">PWNED</tspan></text>
    <g
       id="g3790"
       inkscape:export-filename="C:\Users\tom\Dropbox\starship\engineerconsole\data\pwnedbg.png"
       inkscape:export-xdpi="90.489998"
       inkscape:export-ydpi="90.489998">
      <path
         sodipodi:nodetypes="cscsssssssc"
         inkscape:connector-curvature="0"
         id="path3778"
         d="m 323.21429,247.36218 c 0,0 -34.64286,25 -43.92858,46.42857 -9.28571,21.42857 -15,55.71429 -15,55.71429 0,0 -8.21428,19.28571 -19.28571,-3.92857 -6.62333,-13.88762 -36.42857,-71.78572 -70.71429,-94.64286 C 140,228.07647 73.928572,226.6479 28.571429,245.21932 c -34.689493,14.20357 -66.498027,26.42681 -73.214286,20.00001 -6.971782,-6.67132 44.91099038,-45.07738 62.5,-52.85714 C 55,195.93362 113.334,169.03441 174.64286,168.07646 c 45.71428,-0.71428 78.21428,1.78572 123.21428,37.50001 45,35.71428 25.35715,41.78571 25.35715,41.78571 z"
         style="fill:#ffffff;stroke:#000000;stroke-width:1px;stroke-linecap:butt;stroke-linejoin:miter;stroke-opacity:1" />
      <path
         inkscape:connector-curvature="0"
         id="path3780"
         d="m 225.06828,228.97239 c -10.25584,-5.92121 -21.13766,-8.74467 -31.00304,-8.30116 -9.86537,0.44351 -19.29365,4.48008 -24.1553,12.90071 -4.86166,8.42064 -3.62767,18.57698 0.92093,27.34241 4.54859,8.76542 12.43469,16.77762 22.69054,22.69883 10.25584,5.92122 21.11059,8.72905 30.97597,8.28554 9.86538,-0.44351 19.30509,-4.43739 24.16674,-12.85803 4.86166,-8.42063 3.61623,-18.61967 -0.93237,-27.38509 -4.54859,-8.76542 -12.40762,-16.76199 -22.66347,-22.68321 z m -6.90625,11.96198 c 8.19259,4.72999 14.26149,11.14697 17.34322,17.08565 3.08174,5.93868 3.14018,10.74856 1.1969,14.11442 -1.94328,3.36586 -6.12236,5.69313 -12.80627,5.99361 -6.68392,0.30048 -15.27563,-1.74685 -23.46822,-6.47684 -8.1926,-4.73 -14.26149,-11.14698 -17.34323,-17.08566 -3.08173,-5.93868 -3.18286,-10.73712 -1.23958,-14.10298 1.94328,-3.36586 6.16504,-5.70457 12.84896,-6.00505 6.68391,-0.30048 15.27563,1.74685 23.46822,6.47685 z"
         style="font-size:medium;font-style:normal;font-variant:normal;font-weight:normal;font-stretch:normal;text-indent:0;text-align:start;text-decoration:none;line-height:normal;letter-spacing:normal;word-spacing:normal;text-transform:none;direction:ltr;block-progression:tb;writing-mode:lr-tb;text-anchor:start;baseline-shift:baseline;color:#000000;fill:#000000;fill-opacity:1;stroke:#ffffff;stroke-width:1.29999995;stroke-miterlimit:4;stroke-dasharray:none;marker:none;visibility:visible;display:inline;overflow:visible;enable-background:accumulate;font-family:Sans;-inkscape-font-specification:Sans" />
      <path
         style="font-size:medium;font-style:normal;font-variant:normal;font-weight:normal;font-stretch:normal;text-indent:0;text-align:start;text-decoration:none;line-height:normal;letter-spacing:normal;word-spacing:normal;text-transform:none;direction:ltr;block-progression:tb;writing-mode:lr-tb;text-anchor:start;baseline-shift:baseline;color:#000000;fill:#000000;fill-opacity:1;stroke:#ffffff;stroke-width:1.29999995;stroke-miterlimit:4;stroke-dasharray:none;marker:none;visibility:visible;display:inline;overflow:visible;enable-background:accumulate;font-family:Sans;-inkscape-font-specification:Sans"
         d="m 123.83325,203.31648 c -7.30982,0.36034 -13.9067,2.5321 -18.88107,6.05459 -4.974355,3.52249 -8.517775,8.75778 -8.220785,14.73663 0.296987,5.97886 4.340975,10.82087 9.640125,13.83694 5.29915,3.01607 12.07904,4.52843 19.38886,4.1681 7.30982,-0.36033 13.88741,-2.53114 18.86178,-6.05364 4.97436,-3.52249 8.53802,-8.73952 8.24103,-14.71837 -0.29699,-5.97885 -4.36122,-10.83913 -9.66037,-13.85519 -5.29915,-3.01607 -12.05974,-4.52939 -19.36957,-4.16906 z m 0.42189,8.49329 c 5.83924,-0.28784 11.14095,1.00589 14.73119,3.04931 3.59025,2.04342 5.23229,4.51208 5.351,6.90192 0.11871,2.38984 -1.27161,4.98873 -4.64181,7.37526 -3.37019,2.38653 -8.51779,4.19535 -14.35702,4.4832 -5.83925,0.28783 -11.14096,-1.0059 -14.73121,-3.04932 -3.59024,-2.04342 -5.25061,-4.49192 -5.36932,-6.88176 -0.11871,-2.38984 1.28994,-5.00889 4.66014,-7.39542 3.37019,-2.38653 8.51779,-4.19535 14.35703,-4.48319 z"
         id="path3786"
         inkscape:connector-curvature="0" />
      <path
         inkscape:connector-curvature="0"
         id="path3788"
         d="m 42.96637,214.52743 c -5.519919,1.76296 -10.124843,4.76402 -13.212738,8.46625 -3.087885,3.70223 -4.731484,8.4211 -3.284776,12.92609 1.446709,4.50499 5.528718,7.37924 10.198746,8.60374 4.670028,1.22449 10.166408,0.99937 15.686329,-0.76359 5.519921,-1.76296 10.110278,-4.75937 13.198172,-8.4616 3.087887,-3.70223 4.750699,-8.41128 3.30399,-12.91627 -1.446708,-4.50498 -5.547934,-7.38907 -10.217959,-8.61355 -4.670028,-1.22449 -10.151835,-1.00404 -15.671764,0.75893 z m 2.05513,6.39958 c 4.40943,-1.40829 8.730126,-1.49949 11.894127,-0.66988 3.164009,0.8296 4.923995,2.38045 5.502267,4.18116 0.57827,1.80072 0.04448,4.0682 -2.047608,6.57651 -2.092082,2.5083 -5.662054,4.93724 -10.071475,6.34554 -4.40944,1.40829 -8.730136,1.49949 -11.894145,0.66988 -3.164001,-0.8296 -4.933902,-2.36133 -5.512173,-4.16204 -0.578271,-1.80072 -0.03457,-4.08733 2.057521,-6.59564 2.092083,-2.5083 5.662055,-4.93724 10.071486,-6.34553 z"
         style="font-size:medium;font-style:normal;font-variant:normal;font-weight:normal;font-stretch:normal;text-indent:0;text-align:start;text-decoration:none;line-height:normal;letter-spacing:normal;word-spacing:normal;text-transform:none;direction:ltr;block-progression:tb;writing-mode:lr-tb;text-anchor:start;baseline-shift:baseline;color:#000000;fill:#000000;fill-opacity:1;stroke:#ffffff;stroke-width:1.29999995;stroke-miterlimit:4;stroke-dasharray:none;marker:none;visibility:visible;display:inline;overflow:visible;enable-background:accumulate;font-family:Sans;-inkscape-font-specification:Sans" />
    </g>
    <g
       id="g3796"
       transform="matrix(-1,0,0,1,787.1986,-1.4285714)"
       inkscape:export-filename="C:\Users\tom\Dropbox\starship\engineerconsole\data\pwnedbg.png"
       inkscape:export-xdpi="90.489998"
       inkscape:export-ydpi="90.489998">
      <path
         style="fill:#ffffff;stroke:#000000;stroke-width:1px;stroke-linecap:butt;stroke-linejoin:miter;stroke-opacity:1"
         d="m 323.21429,247.36218 c 0,0 -34.64286,25 -43.92858,46.42857 -9.28571,21.42857 -15,55.71429 -15,55.71429 0,0 -8.21428,19.28571 -19.28571,-3.92857 -6.62333,-13.88762 -36.42857,-71.78572 -70.71429,-94.64286 C 140,228.07647 73.928572,226.6479 28.571429,245.21932 c -34.689493,14.20357 -66.498027,26.42681 -73.214286,20.00001 -6.971782,-6.67132 44.91099038,-45.07738 62.5,-52.85714 C 55,195.93362 113.334,169.03441 174.64286,168.07646 c 45.71428,-0.71428 78.21428,1.78572 123.21428,37.50001 45,35.71428 25.35715,41.78571 25.35715,41.78571 z"
         id="path3798"
         inkscape:connector-curvature="0"
         sodipodi:nodetypes="cscsssssssc" />
      <path
         style="font-size:medium;font-style:normal;font-variant:normal;font-weight:normal;font-stretch:normal;text-indent:0;text-align:start;text-decoration:none;line-height:normal;letter-spacing:normal;word-spacing:normal;text-transform:none;direction:ltr;block-progression:tb;writing-mode:lr-tb;text-anchor:start;baseline-shift:baseline;color:#000000;fill:#000000;fill-opacity:1;stroke:#ffffff;stroke-width:1.29999995;stroke-miterlimit:4;stroke-dasharray:none;marker:none;visibility:visible;display:inline;overflow:visible;enable-background:accumulate;font-family:Sans;-inkscape-font-specification:Sans"
         d="m 225.06828,228.97239 c -10.25584,-5.92121 -21.13766,-8.74467 -31.00304,-8.30116 -9.86537,0.44351 -19.29365,4.48008 -24.1553,12.90071 -4.86166,8.42064 -3.62767,18.57698 0.92093,27.34241 4.54859,8.76542 12.43469,16.77762 22.69054,22.69883 10.25584,5.92122 21.11059,8.72905 30.97597,8.28554 9.86538,-0.44351 19.30509,-4.43739 24.16674,-12.85803 4.86166,-8.42063 3.61623,-18.61967 -0.93237,-27.38509 -4.54859,-8.76542 -12.40762,-16.76199 -22.66347,-22.68321 z m -6.90625,11.96198 c 8.19259,4.72999 14.26149,11.14697 17.34322,17.08565 3.08174,5.93868 3.14018,10.74856 1.1969,14.11442 -1.94328,3.36586 -6.12236,5.69313 -12.80627,5.99361 -6.68392,0.30048 -15.27563,-1.74685 -23.46822,-6.47684 -8.1926,-4.73 -14.26149,-11.14698 -17.34323,-17.08566 -3.08173,-5.93868 -3.18286,-10.73712 -1.23958,-14.10298 1.94328,-3.36586 6.16504,-5.70457 12.84896,-6.00505 6.68391,-0.30048 15.27563,1.74685 23.46822,6.47685 z"
         id="path3800"
         inkscape:connector-curvature="0" />
      <path
         inkscape:connector-curvature="0"
         id="path3802"
         d="m 123.83325,203.31648 c -7.30982,0.36034 -13.9067,2.5321 -18.88107,6.05459 -4.974355,3.52249 -8.517775,8.75778 -8.220785,14.73663 0.296987,5.97886 4.340975,10.82087 9.640125,13.83694 5.29915,3.01607 12.07904,4.52843 19.38886,4.1681 7.30982,-0.36033 13.88741,-2.53114 18.86178,-6.05364 4.97436,-3.52249 8.53802,-8.73952 8.24103,-14.71837 -0.29699,-5.97885 -4.36122,-10.83913 -9.66037,-13.85519 -5.29915,-3.01607 -12.05974,-4.52939 -19.36957,-4.16906 z m 0.42189,8.49329 c 5.83924,-0.28784 11.14095,1.00589 14.73119,3.04931 3.59025,2.04342 5.23229,4.51208 5.351,6.90192 0.11871,2.38984 -1.27161,4.98873 -4.64181,7.37526 -3.37019,2.38653 -8.51779,4.19535 -14.35702,4.4832 -5.83925,0.28783 -11.14096,-1.0059 -14.73121,-3.04932 -3.59024,-2.04342 -5.25061,-4.49192 -5.36932,-6.88176 -0.11871,-2.38984 1.28994,-5.00889 4.66014,-7.39542 3.37019,-2.38653 8.51779,-4.19535 14.35703,-4.48319 z"
         style="font-size:medium;font-style:normal;font-variant:normal;font-weight:normal;font-stretch:normal;text-indent:0;text-align:start;text-decoration:none;line-height:normal;letter-spacing:normal;word-spacing:normal;text-transform:none;direction:ltr;block-progression:tb;writing-mode:lr-tb;text-anchor:start;baseline-shift:baseline;color:#000000;fill:#000000;fill-opacity:1;stroke:#ffffff;stroke-width:1.29999995;stroke-miterlimit:4;stroke-dasharray:none;marker:none;visibility:visible;display:inline;overflow:visible;enable-background:accumulate;font-family:Sans;-inkscape-font-specification:Sans" />
      <path
         style="font-size:medium;font-style:normal;font-variant:normal;font-weight:normal;font-stretch:normal;text-indent:0;text-align:start;text-decoration:none;line-height:normal;letter-spacing:normal;word-spacing:normal;text-transform:none;direction:ltr;block-progression:tb;writing-mode:lr-tb;text-anchor:start;baseline-shift:baseline;color:#000000;fill:#000000;fill-opacity:1;stroke:#ffffff;stroke-width:1.29999995;stroke-miterlimit:4;stroke-dasharray:none;marker:none;visibility:visible;display:inline;overflow:visible;enable-background:accumulate;font-family:Sans;-inkscape-font-specification:Sans"
         d="m 42.96637,214.52743 c -5.519919,1.76296 -10.124843,4.76402 -13.212738,8.46625 -3.087885,3.70223 -4.731484,8.4211 -3.284776,12.92609 1.446709,4.50499 5.528718,7.37924 10.198746,8.60374 4.670028,1.22449 10.166408,0.99937 15.686329,-0.76359 5.519921,-1.76296 10.110278,-4.75937 13.198172,-8.4616 3.087887,-3.70223 4.750699,-8.41128 3.30399,-12.91627 -1.446708,-4.50498 -5.547934,-7.38907 -10.217959,-8.61355 -4.670028,-1.22449 -10.151835,-1.00404 -15.671764,0.75893 z m 2.05513,6.39958 c 4.40943,-1.40829 8.730126,-1.49949 11.894127,-0.66988 3.164009,0.8296 4.923995,2.38045 5.502267,4.18116 0.57827,1.80072 0.04448,4.0682 -2.047608,6.57651 -2.092082,2.5083 -5.662054,4.93724 -10.071475,6.34554 -4.40944,1.40829 -8.730136,1.49949 -11.894145,0.66988 -3.164001,-0.8296 -4.933902,-2.36133 -5.512173,-4.16204 -0.578271,-1.80072 -0.03457,-4.08733 2.057521,-6.59564 2.092083,-2.5083 5.662055,-4.93724 10.071486,-6.34553 z"
         id="path3804"
         inkscape:connector-curvature="0" />
    </g>
    <g
       id="g3806"
       transform="matrix(1,0,0,-1,-20,775.7175)"
       inkscape:export-filename="C:\Users\tom\Dropbox\starship\engineerconsole\data\pwnedbg.png"
       inkscape:export-xdpi="90.489998"
       inkscape:export-ydpi="90.489998">
      <path
         style="fill:#ffffff;stroke:#000000;stroke-width:1px;stroke-linecap:butt;stroke-linejoin:miter;stroke-opacity:1"
         d="m 328.92858,237.36218 c 0,0 -13.21429,28.57143 -15.35716,44.28571 -3.15543,23.13982 -37.85714,72.85715 -37.85714,72.85715 0,0 -13.21428,24.28571 -24.28571,1.07143 C 244.80524,341.68885 208.57143,273.79075 174.28571,250.93361 140,228.07647 73.928572,226.6479 28.571429,245.21932 c -34.689493,14.20357 -66.498027,26.42681 -73.214286,20.00001 -6.971782,-6.67132 44.91099038,-45.07738 62.5,-52.85714 C 55,195.93362 113.334,169.03441 174.64286,168.07646 220.35714,167.36218 230,164.14789 275,199.86218 c 45,35.71428 53.92858,37.5 53.92858,37.5 z"
         id="path3808"
         inkscape:connector-curvature="0"
         sodipodi:nodetypes="cscsssssssc" />
      <path
         style="font-size:medium;font-style:normal;font-variant:normal;font-weight:normal;font-stretch:normal;text-indent:0;text-align:start;text-decoration:none;line-height:normal;letter-spacing:normal;word-spacing:normal;text-transform:none;direction:ltr;block-progression:tb;writing-mode:lr-tb;text-anchor:start;baseline-shift:baseline;color:#000000;fill:#000000;fill-opacity:1;stroke:#ffffff;stroke-width:1.29999995;stroke-miterlimit:4;stroke-dasharray:none;marker:none;visibility:visible;display:inline;overflow:visible;enable-background:accumulate;font-family:Sans;-inkscape-font-specification:Sans"
         d="m 225.06828,228.97239 c -10.25584,-5.92121 -21.13766,-8.74467 -31.00304,-8.30116 -9.86537,0.44351 -19.29365,4.48008 -24.1553,12.90071 -4.86166,8.42064 -3.62767,18.57698 0.92093,27.34241 4.54859,8.76542 12.43469,16.77762 22.69054,22.69883 10.25584,5.92122 21.11059,8.72905 30.97597,8.28554 9.86538,-0.44351 19.30509,-4.43739 24.16674,-12.85803 4.86166,-8.42063 3.61623,-18.61967 -0.93237,-27.38509 -4.54859,-8.76542 -12.40762,-16.76199 -22.66347,-22.68321 z m -6.90625,11.96198 c 8.19259,4.72999 14.26149,11.14697 17.34322,17.08565 3.08174,5.93868 3.14018,10.74856 1.1969,14.11442 -1.94328,3.36586 -6.12236,5.69313 -12.80627,5.99361 -6.68392,0.30048 -15.27563,-1.74685 -23.46822,-6.47684 -8.1926,-4.73 -14.26149,-11.14698 -17.34323,-17.08566 -3.08173,-5.93868 -3.18286,-10.73712 -1.23958,-14.10298 1.94328,-3.36586 6.16504,-5.70457 12.84896,-6.00505 6.68391,-0.30048 15.27563,1.74685 23.46822,6.47685 z"
         id="path3810"
         inkscape:connector-curvature="0" />
      <path
         inkscape:connector-curvature="0"
         id="path3812"
         d="m 123.83325,203.31648 c -7.30982,0.36034 -13.9067,2.5321 -18.88107,6.05459 -4.974355,3.52249 -8.517775,8.75778 -8.220785,14.73663 0.296987,5.97886 4.340975,10.82087 9.640125,13.83694 5.29915,3.01607 12.07904,4.52843 19.38886,4.1681 7.30982,-0.36033 13.88741,-2.53114 18.86178,-6.05364 4.97436,-3.52249 8.53802,-8.73952 8.24103,-14.71837 -0.29699,-5.97885 -4.36122,-10.83913 -9.66037,-13.85519 -5.29915,-3.01607 -12.05974,-4.52939 -19.36957,-4.16906 z m 0.42189,8.49329 c 5.83924,-0.28784 11.14095,1.00589 14.73119,3.04931 3.59025,2.04342 5.23229,4.51208 5.351,6.90192 0.11871,2.38984 -1.27161,4.98873 -4.64181,7.37526 -3.37019,2.38653 -8.51779,4.19535 -14.35702,4.4832 -5.83925,0.28783 -11.14096,-1.0059 -14.73121,-3.04932 -3.59024,-2.04342 -5.25061,-4.49192 -5.36932,-6.88176 -0.11871,-2.38984 1.28994,-5.00889 4.66014,-7.39542 3.37019,-2.38653 8.51779,-4.19535 14.35703,-4.48319 z"
         style="font-size:medium;font-style:normal;font-variant:normal;font-weight:normal;font-stretch:normal;text-indent:0;text-align:start;text-decoration:none;line-height:normal;letter-spacing:normal;word-spacing:normal;text-transform:none;direction:ltr;block-progression:tb;writing-mode:lr-tb;text-anchor:start;baseline-shift:baseline;color:#000000;fill:#000000;fill-opacity:1;stroke:#ffffff;stroke-width:1.29999995;stroke-miterlimit:4;stroke-dasharray:none;marker:none;visibility:visible;display:inline;overflow:visible;enable-background:accumulate;font-family:Sans;-inkscape-font-specification:Sans" />
      <path
         style="font-size:medium;font-style:normal;font-variant:normal;font-weight:normal;font-stretch:normal;text-indent:0;text-align:start;text-decoration:none;line-height:normal;letter-spacing:normal;word-spacing:normal;text-transform:none;direction:ltr;block-progression:tb;writing-mode:lr-tb;text-anchor:start;baseline-shift:baseline;color:#000000;fill:#000000;fill-opacity:1;stroke:#ffffff;stroke-width:1.29999995;stroke-miterlimit:4;stroke-dasharray:none;marker:none;visibility:visible;display:inline;overflow:visible;enable-background:accumulate;font-family:Sans;-inkscape-font-specification:Sans"
         d="m 42.96637,214.52743 c -5.519919,1.76296 -10.124843,4.76402 -13.212738,8.46625 -3.087885,3.70223 -4.731484,8.4211 -3.284776,12.92609 1.446709,4.50499 5.528718,7.37924 10.198746,8.60374 4.670028,1.22449 10.166408,0.99937 15.686329,-0.76359 5.519921,-1.76296 10.110278,-4.75937 13.198172,-8.4616 3.087887,-3.70223 4.750699,-8.41128 3.30399,-12.91627 -1.446708,-4.50498 -5.547934,-7.38907 -10.217959,-8.61355 -4.670028,-1.22449 -10.151835,-1.00404 -15.671764,0.75893 z m 2.05513,6.39958 c 4.40943,-1.40829 8.730126,-1.49949 11.894127,-0.66988 3.164009,0.8296 4.923995,2.38045 5.502267,4.18116 0.57827,1.80072 0.04448,4.0682 -2.047608,6.57651 -2.092082,2.5083 -5.662054,4.93724 -10.071475,6.34554 -4.40944,1.40829 -8.730136,1.49949 -11.894145,0.66988 -3.164001,-0.8296 -4.933902,-2.36133 -5.512173,-4.16204 -0.578271,-1.80072 -0.03457,-4.08733 2.057521,-6.59564 2.092083,-2.5083 5.662055,-4.93724 10.071486,-6.34553 z"
         id="path3814"
         inkscape:connector-curvature="0" />
    </g>
    <g
       transform="matrix(-1,0,0,-1,807.93118,777.14607)"
       id="g3826"
       inkscape:export-filename="C:\Users\tom\Dropbox\starship\engineerconsole\data\pwnedbg.png"
       inkscape:export-xdpi="90.489998"
       inkscape:export-ydpi="90.489998">
      <path
         sodipodi:nodetypes="cscsssssssc"
         inkscape:connector-curvature="0"
         id="path3828"
         d="m 328.92858,237.36218 c 0,0 -13.21429,28.57143 -15.35716,44.28571 -3.15543,23.13982 -37.85714,72.85715 -37.85714,72.85715 0,0 -13.21428,24.28571 -24.28571,1.07143 C 244.80524,341.68885 208.57143,273.79075 174.28571,250.93361 140,228.07647 73.928572,226.6479 28.571429,245.21932 c -34.689493,14.20357 -66.498027,26.42681 -73.214286,20.00001 -6.971782,-6.67132 44.91099038,-45.07738 62.5,-52.85714 C 55,195.93362 113.334,169.03441 174.64286,168.07646 220.35714,167.36218 230,164.14789 275,199.86218 c 45,35.71428 53.92858,37.5 53.92858,37.5 z"
         style="fill:#ffffff;stroke:#000000;stroke-width:1px;stroke-linecap:butt;stroke-linejoin:miter;stroke-opacity:1" />
      <path
         inkscape:connector-curvature="0"
         id="path3830"
         d="m 225.06828,228.97239 c -10.25584,-5.92121 -21.13766,-8.74467 -31.00304,-8.30116 -9.86537,0.44351 -19.29365,4.48008 -24.1553,12.90071 -4.86166,8.42064 -3.62767,18.57698 0.92093,27.34241 4.54859,8.76542 12.43469,16.77762 22.69054,22.69883 10.25584,5.92122 21.11059,8.72905 30.97597,8.28554 9.86538,-0.44351 19.30509,-4.43739 24.16674,-12.85803 4.86166,-8.42063 3.61623,-18.61967 -0.93237,-27.38509 -4.54859,-8.76542 -12.40762,-16.76199 -22.66347,-22.68321 z m -6.90625,11.96198 c 8.19259,4.72999 14.26149,11.14697 17.34322,17.08565 3.08174,5.93868 3.14018,10.74856 1.1969,14.11442 -1.94328,3.36586 -6.12236,5.69313 -12.80627,5.99361 -6.68392,0.30048 -15.27563,-1.74685 -23.46822,-6.47684 -8.1926,-4.73 -14.26149,-11.14698 -17.34323,-17.08566 -3.08173,-5.93868 -3.18286,-10.73712 -1.23958,-14.10298 1.94328,-3.36586 6.16504,-5.70457 12.84896,-6.00505 6.68391,-0.30048 15.27563,1.74685 23.46822,6.47685 z"
         style="font-size:medium;font-style:normal;font-variant:normal;font-weight:normal;font-stretch:normal;text-indent:0;text-align:start;text-decoration:none;line-height:normal;letter-spacing:normal;word-spacing:normal;text-transform:none;direction:ltr;block-progression:tb;writing-mode:lr-tb;text-anchor:start;baseline-shift:baseline;color:#000000;fill:#000000;fill-opacity:1;stroke:#ffffff;stroke-width:1.29999995;stroke-miterlimit:4;stroke-dasharray:none;marker:none;visibility:visible;display:inline;overflow:visible;enable-background:accumulate;font-family:Sans;-inkscape-font-specification:Sans" />
      <path
         style="font-size:medium;font-style:normal;font-variant:normal;font-weight:normal;font-stretch:normal;text-indent:0;text-align:start;text-decoration:none;line-height:normal;letter-spacing:normal;word-spacing:normal;text-transform:none;direction:ltr;block-progression:tb;writing-mode:lr-tb;text-anchor:start;baseline-shift:baseline;color:#000000;fill:#000000;fill-opacity:1;stroke:#ffffff;stroke-width:1.29999995;stroke-miterlimit:4;stroke-dasharray:none;marker:none;visibility:visible;display:inline;overflow:visible;enable-background:accumulate;font-family:Sans;-inkscape-font-specification:Sans"
         d="m 123.83325,203.31648 c -7.30982,0.36034 -13.9067,2.5321 -18.88107,6.05459 -4.974355,3.52249 -8.517775,8.75778 -8.220785,14.73663 0.296987,5.97886 4.340975,10.82087 9.640125,13.83694 5.29915,3.01607 12.07904,4.52843 19.38886,4.1681 7.30982,-0.36033 13.88741,-2.53114 18.86178,-6.05364 4.97436,-3.52249 8.53802,-8.73952 8.24103,-14.71837 -0.29699,-5.97885 -4.36122,-10.83913 -9.66037,-13.85519 -5.29915,-3.01607 -12.05974,-4.52939 -19.36957,-4.16906 z m 0.42189,8.49329 c 5.83924,-0.28784 11.14095,1.00589 14.73119,3.04931 3.59025,2.04342 5.23229,4.51208 5.351,6.90192 0.11871,2.38984 -1.27161,4.98873 -4.64181,7.37526 -3.37019,2.38653 -8.51779,4.19535 -14.35702,4.4832 -5.83925,0.28783 -11.14096,-1.0059 -14.73121,-3.04932 -3.59024,-2.04342 -5.25061,-4.49192 -5.36932,-6.88176 -0.11871,-2.38984 1.28994,-5.00889 4.66014,-7.39542 3.37019,-2.38653 8.51779,-4.19535 14.35703,-4.48319 z"
         id="path3832"
         inkscape:connector-curvature="0" />
      <path
         inkscape:connector-curvature="0"
         id="path3834"
         d="m 42.96637,214.52743 c -5.519919,1.76296 -10.124843,4.76402 -13.212738,8.46625 -3.087885,3.70223 -4.731484,8.4211 -3.284776,12.92609 1.446709,4.50499 5.528718,7.37924 10.198746,8.60374 4.670028,1.22449 10.166408,0.99937 15.686329,-0.76359 5.519921,-1.76296 10.110278,-4.75937 13.198172,-8.4616 3.087887,-3.70223 4.750699,-8.41128 3.30399,-12.91627 -1.446708,-4.50498 -5.547934,-7.38907 -10.217959,-8.61355 -4.670028,-1.22449 -10.151835,-1.00404 -15.671764,0.75893 z m 2.05513,6.39958 c 4.40943,-1.40829 8.730126,-1.49949 11.894127,-0.66988 3.164009,0.8296 4.923995,2.38045 5.502267,4.18116 0.57827,1.80072 0.04448,4.0682 -2.047608,6.57651 -2.092082,2.5083 -5.662054,4.93724 -10.071475,6.34554 -4.40944,1.40829 -8.730136,1.49949 -11.894145,0.66988 -3.164001,-0.8296 -4.933902,-2.36133 -5.512173,-4.16204 -0.578271,-1.80072 -0.03457,-4.08733 2.057521,-6.59564 2.092083,-2.5083 5.662055,-4.93724 10.071486,-6.34553 z"
         style="font-size:medium;font-style:normal;font-variant:normal;font-weight:normal;font-stretch:normal;text-indent:0;text-align:start;text-decoration:none;line-height:normal;letter-spacing:normal;word-spacing:normal;text-transform:none;direction:ltr;block-progression:tb;writing-mode:lr-tb;text-anchor:start;baseline-shift:baseline;color:#000000;fill:#000000;fill-opacity:1;stroke:#ffffff;stroke-width:1.29999995;stroke-miterlimit:4;stroke-dasharray:none;marker:none;visibility:visible;display:inline;overflow:visible;enable-background:accumulate;font-family:Sans;-inkscape-font-specification:Sans" />
    </g>
    <rect
       style="fill:#ffffff;fill-opacity:1;stroke:none"
       id="rect3770"
       width="147.85715"
       height="28.571428"
       x="-288.21429"
       y="508.79074"
       ry="4.5314245"
       inkscape:export-filename="C:\Users\tom\Dropbox\starship\engineerconsole\data\pwnedmouth.png"
       inkscape:export-xdpi="90.489998"
       inkscape:export-ydpi="90.489998" />
  </g>
</svg>
