<?xml version="1.0" encoding="UTF-8" standalone="no"?>
<!-- Created with Inkscape (http://www.inkscape.org/) -->

<svg
   xmlns:dc="http://purl.org/dc/elements/1.1/"
   xmlns:cc="http://creativecommons.org/ns#"
   xmlns:rdf="http://www.w3.org/1999/02/22-rdf-syntax-ns#"
   xmlns:svg="http://www.w3.org/2000/svg"
   xmlns="http://www.w3.org/2000/svg"
   xmlns:sodipodi="http://sodipodi.sourceforge.net/DTD/sodipodi-0.dtd"
   xmlns:inkscape="http://www.inkscape.org/namespaces/inkscape"
   width="800"
   height="600"
   id="svg2"
   version="1.1"
   inkscape:version="0.48.4 r9939"
   sodipodi:docname="warp-new.svg"
   inkscape:export-filename="C:\Users\tom\Documents\Processing\pilotconsole\data\inwarp.png"
   inkscape:export-xdpi="90"
   inkscape:export-ydpi="90">
  <defs
     id="defs4" />
  <sodipodi:namedview
     id="base"
     pagecolor="#000000"
     bordercolor="#666666"
     borderopacity="1.0"
     inkscape:pageopacity="0"
     inkscape:pageshadow="2"
     inkscape:zoom="0.7"
     inkscape:cx="643.27191"
     inkscape:cy="388.28728"
     inkscape:document-units="px"
     inkscape:current-layer="layer1"
     showgrid="false"
     inkscape:window-width="1920"
     inkscape:window-height="1003"
     inkscape:window-x="1911"
     inkscape:window-y="-9"
     inkscape:window-maximized="1" />
  <metadata
     id="metadata7">
    <rdf:RDF>
      <cc:Work
         rdf:about="">
        <dc:format>image/svg+xml</dc:format>
        <dc:type
           rdf:resource="http://purl.org/dc/dcmitype/StillImage" />
        <dc:title></dc:title>
      </cc:Work>
    </rdf:RDF>
  </metadata>
  <g
     inkscape:label="Layer 1"
     inkscape:groupmode="layer"
     id="layer1"
     transform="translate(0,-452.36218)">
    <path
       style="color:#000000;fill:#000000;fill-opacity:1;stroke:none;stroke-width:5;marker:none;visibility:visible;display:inline;overflow:visible;enable-background:accumulate"
       d="M 0 -168.6875 L 0 600.09375 L 1024 600.09375 L 1024 -168.6875 L 0 -168.6875 z M 32.53125 -157.0625 L 987.65625 -157.0625 C 997.79667 -157.0625 1005.9375 -148.92167 1005.9375 -138.78125 L 1005.9375 566.25 C 1005.9375 576.39042 997.79667 584.5625 987.65625 584.5625 L 32.53125 584.5625 C 22.390827 584.5625 14.21875 576.39042 14.21875 566.25 L 14.21875 -138.78125 C 14.21875 -148.92167 22.390827 -157.0625 32.53125 -157.0625 z "
       transform="translate(0,452.36218)"
       id="rect4165"
       inkscape:export-filename="C:\Users\tom\Dropbox\starship\tacticalconsole\data\hyperspace2.png"
       inkscape:export-xdpi="90"
       inkscape:export-ydpi="90" />
    <text
       xml:space="preserve"
       style="font-size:51.22554779px;font-style:normal;font-variant:normal;font-weight:normal;font-stretch:normal;line-height:125%;letter-spacing:0px;word-spacing:0px;fill:#ff0000;fill-opacity:1;stroke:none;font-family:Hanzel Extended;-inkscape-font-specification:Hanzel Extended"
       x="27.481565"
       y="345.10162"
       id="text3790"
       sodipodi:linespacing="125%"
       transform="scale(0.99949884,1.0005014)"
       inkscape:export-filename="C:\Users\tom\Dropbox\starship\tacticalconsole\data\hyperspace2.png"
       inkscape:export-xdpi="90"
       inkscape:export-ydpi="90"><tspan
         sodipodi:role="line"
         id="tspan3792"
         x="27.481565"
         y="345.10162">IN HYPERSPACE</tspan></text>
    <rect
       style="color:#000000;fill:none;stroke:#ffff00;stroke-width:4.96247482;stroke-linecap:butt;stroke-linejoin:miter;stroke-miterlimit:4;stroke-opacity:1;stroke-dasharray:none;stroke-dashoffset:0;marker:none;visibility:visible;display:inline;overflow:visible;enable-background:accumulate"
       id="rect3866"
       width="991.72498"
       height="741.62762"
       x="14.22414"
       y="295.28882"
       ry="18.304012"
       inkscape:export-filename="C:\Users\tom\Dropbox\starship\tacticalconsole\data\hyperspace2.png"
       inkscape:export-xdpi="90"
       inkscape:export-ydpi="90" />
    <path
       style="font-size:medium;font-style:normal;font-variant:normal;font-weight:normal;font-stretch:normal;text-indent:0;text-align:start;text-decoration:none;line-height:normal;letter-spacing:normal;word-spacing:normal;text-transform:none;direction:ltr;block-progression:tb;writing-mode:lr-tb;text-anchor:start;baseline-shift:baseline;color:#000000;fill:#ffff00;fill-opacity:1;stroke:none;stroke-width:3.875;marker:none;visibility:visible;display:inline;overflow:visible;enable-background:accumulate;font-family:Sans;-inkscape-font-specification:Sans"
       d="m 31.80115,292.4246 c -11.461281,0 -20.759951,9.30799 -20.759951,20.78077 l 0,25.21378 c 0,11.47278 9.29867,20.78077 20.759951,20.78077 l 696.55833,0 c 11.46128,0 20.75995,-9.30799 20.75995,-20.78077 l 0,-25.21378 c 0,-11.47278 -9.29867,-20.78077 -20.75995,-20.78077 z m 0,4.96497 696.55833,0 c 8.79924,0 15.79996,7.00773 15.79996,15.8158 l 0,25.21378 c 0,8.80806 -7.00072,15.81581 -15.79996,15.81581 l -696.55833,0 c -8.799242,0 -15.799963,-7.00775 -15.799963,-15.81581 l 0,-25.21378 c 0,-8.80807 7.000721,-15.8158 15.799963,-15.8158 z"
       id="rect3868"
       inkscape:connector-curvature="0"
       sodipodi:nodetypes="ssssssssssssssssss"
       inkscape:export-filename="C:\Users\tom\Dropbox\starship\tacticalconsole\data\hyperspace2.png"
       inkscape:export-xdpi="90"
       inkscape:export-ydpi="90" />
    <path
       style="fill:#000000;fill-opacity:1;stroke:#cdcdcd;stroke-width:4.76922131;stroke-miterlimit:4;stroke-opacity:1"
       d="m -171.70762,716.63808 12.52021,0.22997 15.92307,18.81352 11.85973,0 c 3.63629,0 6.56163,2.92829 6.56163,6.56821 l 0,3.29129 24.22203,0 c 2.515066,0 3.683726,2.23911 5.111446,4.31174 l 17.12916,24.8787 c 3.71023,5.3861 -2.02207,4.54169 -4.53714,4.54169 l -78.926166,0 c -2.51506,0 -4.53714,-2.02408 -4.53714,-4.54169 l 0,-21.63054 -2.02449,0 c -3.63627,0 -6.56161,-2.92828 -6.56161,-6.5682 l 0,-4.28299 c 0,-2.69549 1.61055,-4.9929 3.91973,-6.00768 l -0.66046,-19.60402 z"
       id="rect2985"
       inkscape:connector-curvature="0"
       inkscape:export-filename="C:\Users\tom\Dropbox\starship\tacticalconsole\data\hyperShipIcon.png"
       inkscape:export-xdpi="90"
       inkscape:export-ydpi="90" />
    <text
       sodipodi:linespacing="125%"
       id="text4170"
       y="399.20572"
       x="406.9993"
       style="font-size:25.24231148px;font-style:normal;font-variant:normal;font-weight:normal;font-stretch:normal;line-height:125%;letter-spacing:0px;word-spacing:0px;fill:#ffff00;fill-opacity:1;stroke:none;font-family:Hanzel Extended;-inkscape-font-specification:Hanzel Extended"
       xml:space="preserve"
       transform="scale(0.99949885,1.0005014)"
       inkscape:export-filename="C:\Users\tom\Dropbox\starship\tacticalconsole\data\hyperspace2.png"
       inkscape:export-xdpi="90"
       inkscape:export-ydpi="90"><tspan
         y="399.20572"
         x="406.9993"
         id="tspan4172"
         sodipodi:role="line">TIME REMAINING:</tspan></text>
  </g>
</svg>
