<?xml version="1.0" encoding="UTF-8" standalone="no"?>
<!-- Created with Inkscape (http://www.inkscape.org/) -->

<svg
   xmlns:dc="http://purl.org/dc/elements/1.1/"
   xmlns:cc="http://creativecommons.org/ns#"
   xmlns:rdf="http://www.w3.org/1999/02/22-rdf-syntax-ns#"
   xmlns:svg="http://www.w3.org/2000/svg"
   xmlns="http://www.w3.org/2000/svg"
   xmlns:sodipodi="http://sodipodi.sourceforge.net/DTD/sodipodi-0.dtd"
   xmlns:inkscape="http://www.inkscape.org/namespaces/inkscape"
   width="744.09448819"
   height="1052.3622047"
   id="svg2"
   version="1.1"
   inkscape:version="0.48.5 r10040"
   sodipodi:docname="panel2.svg">
  <defs
     id="defs4">
    <marker
       inkscape:stockid="Arrow2Lend"
       orient="auto"
       refY="0.0"
       refX="0.0"
       id="Arrow2Lend"
       style="overflow:visible;">
      <path
         id="path6124"
         style="fill-rule:evenodd;stroke-width:0.62500000;stroke-linejoin:round;"
         d="M 8.7185878,4.0337352 L -2.2072895,0.016013256 L 8.7185884,-4.0017078 C 6.9730900,-1.6296469 6.9831476,1.6157441 8.7185878,4.0337352 z "
         transform="scale(1.1) rotate(180) translate(1,0)" />
    </marker>
    <marker
       inkscape:stockid="Arrow1Lend"
       orient="auto"
       refY="0.0"
       refX="0.0"
       id="Arrow1Lend"
       style="overflow:visible;">
      <path
         id="path6106"
         d="M 0.0,0.0 L 5.0,-5.0 L -12.5,0.0 L 5.0,5.0 L 0.0,0.0 z "
         style="fill-rule:evenodd;stroke:#000000;stroke-width:1.0pt;"
         transform="scale(0.8) rotate(180) translate(12.5,0)" />
    </marker>
    <marker
       inkscape:stockid="Arrow2Lend"
       orient="auto"
       refY="0"
       refX="0"
       id="Arrow2Lend-1"
       style="overflow:visible">
      <path
         inkscape:connector-curvature="0"
         id="path6124-7"
         style="fill-rule:evenodd;stroke-width:0.625;stroke-linejoin:round"
         d="M 8.7185878,4.0337352 -2.2072895,0.01601326 8.7185884,-4.0017078 c -1.7454984,2.3720609 -1.7354408,5.6174519 -6e-7,8.035443 z"
         transform="matrix(-1.1,0,0,-1.1,-1.1,0)" />
    </marker>
    <marker
       inkscape:stockid="Arrow2Lend"
       orient="auto"
       refY="0"
       refX="0"
       id="marker6811"
       style="overflow:visible">
      <path
         inkscape:connector-curvature="0"
         id="path6813"
         style="fill-rule:evenodd;stroke-width:0.625;stroke-linejoin:round"
         d="M 8.7185878,4.0337352 -2.2072895,0.01601326 8.7185884,-4.0017078 c -1.7454984,2.3720609 -1.7354408,5.6174519 -6e-7,8.035443 z"
         transform="matrix(-1.1,0,0,-1.1,-1.1,0)" />
    </marker>
    <marker
       inkscape:stockid="Arrow2Lend"
       orient="auto"
       refY="0"
       refX="0"
       id="Arrow2Lend-17"
       style="overflow:visible">
      <path
         inkscape:connector-curvature="0"
         id="path6124-4"
         style="fill-rule:evenodd;stroke-width:0.625;stroke-linejoin:round"
         d="M 8.7185878,4.0337352 -2.2072895,0.01601326 8.7185884,-4.0017078 c -1.7454984,2.3720609 -1.7354408,5.6174519 -6e-7,8.035443 z"
         transform="matrix(-1.1,0,0,-1.1,-1.1,0)" />
    </marker>
    <marker
       inkscape:stockid="Arrow2Lend"
       orient="auto"
       refY="0"
       refX="0"
       id="marker4935"
       style="overflow:visible">
      <path
         inkscape:connector-curvature="0"
         id="path4937"
         style="fill-rule:evenodd;stroke-width:0.625;stroke-linejoin:round"
         d="M 8.7185878,4.0337352 -2.2072895,0.01601326 8.7185884,-4.0017078 c -1.7454984,2.3720609 -1.7354408,5.6174519 -6e-7,8.035443 z"
         transform="matrix(-1.1,0,0,-1.1,-1.1,0)" />
    </marker>
    <marker
       inkscape:stockid="Arrow2Lend"
       orient="auto"
       refY="0"
       refX="0"
       id="Arrow2Lend-8"
       style="overflow:visible">
      <path
         inkscape:connector-curvature="0"
         id="path6124-8"
         style="fill-rule:evenodd;stroke-width:0.625;stroke-linejoin:round"
         d="M 8.7185878,4.0337352 -2.2072895,0.01601326 8.7185884,-4.0017078 c -1.7454984,2.3720609 -1.7354408,5.6174519 -6e-7,8.035443 z"
         transform="matrix(-1.1,0,0,-1.1,-1.1,0)" />
    </marker>
    <marker
       inkscape:stockid="Arrow2Lend"
       orient="auto"
       refY="0"
       refX="0"
       id="marker4935-2"
       style="overflow:visible">
      <path
         inkscape:connector-curvature="0"
         id="path4937-4"
         style="fill-rule:evenodd;stroke-width:0.625;stroke-linejoin:round"
         d="M 8.7185878,4.0337352 -2.2072895,0.01601326 8.7185884,-4.0017078 c -1.7454984,2.3720609 -1.7354408,5.6174519 -6e-7,8.035443 z"
         transform="matrix(-1.1,0,0,-1.1,-1.1,0)" />
    </marker>
    <marker
       inkscape:stockid="Arrow2Lend"
       orient="auto"
       refY="0"
       refX="0"
       id="Arrow2Lend-7"
       style="overflow:visible">
      <path
         inkscape:connector-curvature="0"
         id="path6124-1"
         style="fill-rule:evenodd;stroke-width:0.625;stroke-linejoin:round"
         d="M 8.7185878,4.0337352 -2.2072895,0.01601326 8.7185884,-4.0017078 c -1.7454984,2.3720609 -1.7354408,5.6174519 -6e-7,8.035443 z"
         transform="matrix(-1.1,0,0,-1.1,-1.1,0)" />
    </marker>
    <marker
       inkscape:stockid="Arrow2Lend"
       orient="auto"
       refY="0"
       refX="0"
       id="marker4935-1"
       style="overflow:visible">
      <path
         inkscape:connector-curvature="0"
         id="path4937-5"
         style="fill-rule:evenodd;stroke-width:0.625;stroke-linejoin:round"
         d="M 8.7185878,4.0337352 -2.2072895,0.01601326 8.7185884,-4.0017078 c -1.7454984,2.3720609 -1.7354408,5.6174519 -6e-7,8.035443 z"
         transform="matrix(-1.1,0,0,-1.1,-1.1,0)" />
    </marker>
  </defs>
  <sodipodi:namedview
     id="base"
     pagecolor="#ffffff"
     bordercolor="#666666"
     borderopacity="1.0"
     inkscape:pageopacity="0.0"
     inkscape:pageshadow="2"
     inkscape:zoom="0.51720994"
     inkscape:cx="573.60445"
     inkscape:cy="376.75344"
     inkscape:document-units="px"
     inkscape:current-layer="layer1"
     showgrid="false"
     inkscape:window-width="1024"
     inkscape:window-height="712"
     inkscape:window-x="-4"
     inkscape:window-y="-4"
     inkscape:window-maximized="1" />
  <metadata
     id="metadata7">
    <rdf:RDF>
      <cc:Work
         rdf:about="">
        <dc:format>image/svg+xml</dc:format>
        <dc:type
           rdf:resource="http://purl.org/dc/dcmitype/StillImage" />
        <dc:title></dc:title>
      </cc:Work>
    </rdf:RDF>
  </metadata>
  <g
     inkscape:label="Layer 1"
     inkscape:groupmode="layer"
     id="layer1">
    <path
       style="fill:none;stroke:#000000;stroke-width:1.25;stroke-miterlimit:4;stroke-opacity:1;stroke-dasharray:none"
       d="m 82.334044,175.54977 783.366766,0 91.92388,91.92389 0,268.70057 -91.92388,91.92388 -783.366766,0 -91.9238814,-91.92388 0,-268.70057 z"
       id="rect5956"
       inkscape:connector-curvature="0"
       sodipodi:nodetypes="ccccccccc" />
    <path
       style="font-size:medium;font-style:normal;font-variant:normal;font-weight:normal;font-stretch:normal;text-indent:0;text-align:start;text-decoration:none;line-height:normal;letter-spacing:normal;word-spacing:normal;text-transform:none;direction:ltr;block-progression:tb;writing-mode:lr-tb;text-anchor:start;baseline-shift:baseline;color:#000000;fill:#ffffff;fill-opacity:1;stroke:#000000;stroke-width:1.25;stroke-miterlimit:4;stroke-opacity:1;stroke-dasharray:none;marker:none;visibility:visible;display:inline;overflow:visible;enable-background:accumulate;font-family:Sans;-inkscape-font-specification:Sans"
       d="m 86.348419,259.34375 0,3.1875 0,287.90625 0,3.1875 3.1875,0 60.625001,0 3.21875,0 0,-3.1875 0,-287.90625 0,-3.1875 -3.21875,0 -60.625001,0 -3.1875,0 z m 6.40625,6.40625 54.218751,0 0,281.46875 -54.218751,0 0,-281.46875 z"
       id="rect2985"
       inkscape:connector-curvature="0" />
    <path
       style="fill:#ffffff;stroke:#000000;stroke-width:1.25;stroke-linecap:butt;stroke-linejoin:miter;stroke-miterlimit:4;stroke-opacity:1;stroke-dasharray:none"
       d="m 121.45189,543.09782 0,-266.67404 -26.305891,0 z"
       id="path2987"
       inkscape:connector-curvature="0" />
    <g
       transform="matrix(0,-1,1,0,42.535919,0)"
       style="font-size:27.48906708px;font-style:normal;font-variant:normal;font-weight:normal;font-stretch:normal;line-height:125%;letter-spacing:0px;word-spacing:0px;fill:#ffffff;fill-opacity:1;stroke:#000000;stroke-width:1.25;stroke-miterlimit:4;stroke-opacity:1;stroke-dasharray:none;font-family:Hanzel Extended;-inkscape-font-specification:Hanzel Extended"
       id="text3757">
      <path
         d="m -503.07526,85.317087 -9.27488,0 0,-3.369021 24.88512,0 0,3.369021 -9.35541,0 0,15.945803 -6.25483,0 z"
         style="stroke:#000000;stroke-width:1.25;stroke-miterlimit:4;stroke-opacity:1;stroke-dasharray:none"
         id="path5995"
         inkscape:connector-curvature="0" />
      <path
         d="m -478.49885,81.907799 0,7.865524 11.10032,0 0,-7.865524 6.02665,0 0,19.355091 -6.02665,0 0,-8.080279 -11.10032,0 0,8.080279 -6.02666,0 0,-19.355091 z"
         style="stroke:#000000;stroke-width:1.25;stroke-miterlimit:4;stroke-opacity:1;stroke-dasharray:none"
         id="path5997"
         inkscape:connector-curvature="0" />
      <path
         d="m -441.97651,85.384199 -7.42259,0 0,4.858908 7.42259,0 c 1.96859,1.1e-5 3.36452,-0.183429 4.18778,-0.550319 0.77848,-0.411608 1.16773,-1.046934 1.16775,-1.90598 -2e-5,-0.876915 -0.3848,-1.498819 -1.15432,-1.865713 -0.78747,-0.357915 -2.18787,-0.53688 -4.20121,-0.536896 z m -13.44925,-3.4764 14.89886,0 c 3.44506,1.9e-5 5.97518,0.476514 7.59037,1.429485 1.61513,0.953007 2.42271,2.418284 2.42274,4.395834 -3e-5,1.449631 -0.49665,2.648698 -1.48988,3.597203 -0.98434,0.957473 -2.42053,1.574902 -4.30859,1.85229 l 7.16756,8.080279 -6.81858,0 -6.29511,-7.58365 -7.14071,0 0,7.58365 -6.02666,0 z"
         style="stroke:#000000;stroke-width:1.25;stroke-miterlimit:4;stroke-opacity:1;stroke-dasharray:none"
         id="path5999"
         inkscape:connector-curvature="0" />
      <path
         d="m -427.25214,91.397433 c 0,-3.319793 1.17222,-5.793986 3.51667,-7.422585 2.35338,-1.619617 5.964,-2.429434 10.83187,-2.429454 4.85889,2e-5 8.46056,0.827733 10.80503,2.483143 2.32652,1.646496 3.48979,4.16543 3.48982,7.556809 -3e-5,3.409295 -1.17225,5.937177 -3.51667,7.583654 -2.34447,1.66438 -5.93719,2.49657 -10.77818,2.49657 -4.9663,0 -8.59482,-0.83219 -10.88556,-2.49657 -2.30866,-1.646477 -3.46298,-4.236997 -3.46298,-7.771567 z m 14.34854,-6.55013 c -2.55922,1.7e-5 -4.50994,0.541386 -5.85217,1.62411 -1.26171,1.118547 -1.89256,2.7695 -1.89255,4.952864 -10e-6,2.380246 0.62189,4.120682 1.86571,5.221312 1.2259,1.118537 3.18557,1.677803 5.87901,1.6778 1.34222,3e-6 2.4876,-0.138695 3.43613,-0.416094 0.93955,-0.259496 1.727,-0.671116 2.36234,-1.234861 1.29748,-1.100631 1.94623,-2.796325 1.94625,-5.087088 -2e-5,-2.290743 -0.63087,-3.986438 -1.89256,-5.087088 -1.27962,-1.100621 -3.23034,-1.650938 -5.85216,-1.650955 z"
         style="stroke:#000000;stroke-width:1.25;stroke-miterlimit:4;stroke-opacity:1;stroke-dasharray:none"
         id="path6001"
         inkscape:connector-curvature="0" />
      <path
         d="m -388.23324,85.317087 -9.27487,0 0,-3.369021 24.88512,0 0,3.369021 -9.35541,0 0,15.945803 -6.25484,0 z"
         style="stroke:#000000;stroke-width:1.25;stroke-miterlimit:4;stroke-opacity:1;stroke-dasharray:none"
         id="path6003"
         inkscape:connector-curvature="0" />
      <path
         d="m -363.42866,85.317087 -9.27487,0 0,-3.369021 24.88512,0 0,3.369021 -9.35541,0 0,15.945803 -6.25484,0 z"
         style="stroke:#000000;stroke-width:1.25;stroke-miterlimit:4;stroke-opacity:1;stroke-dasharray:none"
         id="path6005"
         inkscape:connector-curvature="0" />
      <path
         d="m -333.4967,101.26289 c -2.69344,0 -4.67996,-0.15659 -5.95955,-0.46978 -1.30645,-0.29529 -2.46078,-0.818765 -3.46298,-1.570421 -0.93957,-0.635324 -1.61069,-1.378029 -2.01336,-2.228117 -0.42057,-0.841132 -0.63085,-2.03125 -0.63085,-3.570358 l 0,-11.516415 6.0535,0 0,11.382191 c -1e-5,1.17223 0.0805,1.977573 0.24161,2.416032 0.17,0.456366 0.39818,0.805348 0.68454,1.046947 0.29528,0.241607 0.63531,0.442943 1.0201,0.604007 0.36687,0.161073 0.75164,0.299771 1.15433,0.416095 0.92165,0.187917 2.07598,0.281873 3.46297,0.28187 l 7.10045,0 0,3.207949 z"
         style="stroke:#000000;stroke-width:1.25;stroke-miterlimit:4;stroke-opacity:1;stroke-dasharray:none"
         id="path6007"
         inkscape:connector-curvature="0" />
      <path
         d="m -310.74575,85.290242 c -2.16549,1.6e-5 -3.80526,0.366895 -4.9193,1.100637 -1.11407,0.733772 -1.74716,1.861252 -1.89927,3.382444 l 16.73772,0.02684 0,3.355599 -16.76457,0 c -1e-5,1.700177 0.53241,2.908191 1.59727,3.624047 1.04693,0.733762 2.79632,1.10064 5.24815,1.100637 l 9.91915,0 0,3.382444 -10.21444,0 c -1.19908,0 -2.21023,-0.0268 -3.03346,-0.0805 -0.82325,-0.0626 -1.58385,-0.16554 -2.28181,-0.30872 -1.24381,-0.2416 -2.45183,-0.68006 -3.62404,-1.315395 -1.44963,-0.769548 -2.5525,-1.79636 -3.30863,-3.08044 -0.75613,-1.284069 -1.13419,-2.798561 -1.13419,-4.543481 0,-3.382431 1.10287,-5.899127 3.30862,-7.550097 2.20574,-1.650937 5.61727,-2.476413 10.23458,-2.476432 l 10.05337,0 0,3.382443 z"
         style="stroke:#000000;stroke-width:1.25;stroke-miterlimit:4;stroke-opacity:1;stroke-dasharray:none"
         id="path6009"
         inkscape:connector-curvature="0" />
    </g>
    <path
       style="fill:none;fill-opacity:1;stroke:#000000;stroke-width:1.25;stroke-miterlimit:4;stroke-opacity:1;stroke-dasharray:none"
       d="M 660.84375 245.34375 L 618.6875 246.1875 L 565.09375 313.1875 L 525.15625 313.1875 C 512.91413 313.1875 503.0625 323.626 503.0625 336.59375 L 503.0625 348.3125 L 421.53125 348.3125 C 413.06385 348.3125 409.11919 356.30349 404.3125 363.6875 L 388.96875 387.25 L 373.21875 371.46875 L 373.21875 289.75 L 389.96875 273 L 415.1875 273 L 415.1875 268 L 388.90625 268 L 387.875 268 L 387.15625 268.75 L 368.96875 286.90625 L 368.21875 287.65625 L 368.21875 288.6875 L 368.21875 372.53125 L 368.21875 373.5625 L 368.96875 374.3125 L 386.1875 391.53125 L 346.65625 452.3125 C 334.1651 471.50124 353.4701 468.5 361.9375 468.5 L 387.59375 468.5 L 387.59375 489.53125 L 372.09375 489.53125 L 356 473.4375 L 353.90625 471.34375 L 351.8125 473.4375 L 341.84375 483.40625 L 339.59375 485.65625 L 342 487.75 L 365.0625 507.5 L 365.90625 508.21875 L 367 508.21875 L 429.09375 508.09375 L 432.03125 508.0625 L 432.03125 505.125 L 432.03125 501.0625 L 443.1875 512.21875 L 443.9375 512.9375 L 444.96875 512.9375 L 485.84375 512.9375 L 485.84375 541 L 397.25 541 L 397.25 546 L 488.34375 546 L 490.84375 546 L 490.84375 543.5 L 490.84375 512.9375 L 537.65625 512.9375 L 538.6875 512.9375 L 539.40625 512.21875 L 553.78125 497.21875 L 565.78125 507.5 L 566.625 508.21875 L 567.71875 508.21875 L 629.8125 508.09375 L 632.75 508.0625 L 632.75 505.125 L 632.75 492.46875 L 632.75 489.53125 L 629.8125 489.53125 L 607.59375 489.53125 L 607.59375 468.5 L 627.65625 468.5 C 636.12366 468.5 642.90625 461.28181 642.90625 452.3125 L 642.90625 375.25 L 649.71875 375.25 C 661.96087 375.25 671.8125 364.84273 671.8125 351.875 L 671.8125 342.6875 L 715.6875 341.6875 L 751.3125 377.09375 L 751.3125 444.25 L 751.3125 445.28125 L 752.03125 446 L 779.5625 474.03125 L 783.125 470.53125 L 756.3125 443.1875 L 756.3125 376.0625 L 756.3125 375.03125 L 755.59375 374.28125 L 720 338.9375 L 778.34375 280.59375 L 782.875 280.59375 L 782.875 275.59375 L 777.3125 275.59375 L 776.28125 275.59375 L 775.53125 276.3125 L 715.15625 336.71875 L 671.8125 337.6875 L 671.8125 336.59375 C 671.8125 326.9907 666.39927 318.8028 658.625 315.1875 L 660.84375 245.34375 z M 393.5 468.5 L 400.96875 468.5 L 400.96875 492.46875 L 400.96875 495.4375 L 403.9375 495.4375 L 426.125 495.4375 L 426.125 502.1875 L 368.09375 502.3125 L 348.28125 485.34375 L 353.90625 479.71875 L 368.75 494.5625 L 369.625 495.4375 L 370.84375 495.4375 L 390.5625 495.4375 L 393.5 495.4375 L 393.5 492.46875 L 393.5 468.5 z M 406.875 468.5 L 588.3125 468.5 L 588.3125 489.53125 L 572.8125 489.53125 L 556.71875 473.4375 L 554.625 471.34375 L 552.53125 473.4375 L 542.5625 483.40625 L 540.3125 485.65625 L 542.71875 487.75 L 549.96875 493.96875 L 536.625 507.9375 L 445.96875 507.9375 L 432.03125 494 L 432.03125 492.46875 L 432.03125 489.53125 L 429.09375 489.53125 L 406.875 489.53125 L 406.875 468.5 z M 594.21875 468.5 L 601.6875 468.5 L 601.6875 492.46875 L 601.6875 495.4375 L 604.65625 495.4375 L 626.84375 495.4375 L 626.84375 502.1875 L 568.8125 502.3125 L 549 485.34375 L 554.625 479.71875 L 569.46875 494.5625 L 570.34375 495.4375 L 571.5625 495.4375 L 591.28125 495.4375 L 594.21875 495.4375 L 594.21875 492.46875 L 594.21875 468.5 z "
       id="path4816" />
    <g
       style="font-size:16.70097923000000200px;font-style:normal;font-variant:normal;font-weight:normal;font-stretch:normal;line-height:125%;letter-spacing:0px;word-spacing:0px;fill:#ffffff;fill-opacity:1;stroke:#000000;font-family:Hanzel Extended;-inkscape-font-specification:Hanzel Extended;stroke-opacity:1;stroke-width:1.25;stroke-miterlimit:4;stroke-dasharray:none"
       id="text6091">
      <path
         d="m 462.15065,254.35459 0,2.69923 5.39846,0 c 0.44578,1e-5 0.81275,-0.0217 1.1009,-0.0652 0.27725,-0.0489 0.51102,-0.13319 0.70131,-0.2528 0.39685,-0.22289 0.59528,-0.56811 0.59529,-1.03566 -1e-5,-0.45666 -0.19844,-0.80188 -0.59529,-1.03566 -0.40232,-0.20657 -1.00577,-0.30987 -1.81036,-0.30988 z m 5.44739,7.54317 c 0.82634,0 1.42707,-0.10601 1.8022,-0.31804 0.37511,-0.21202 0.56267,-0.56267 0.56268,-1.05196 -10e-6,-0.47841 -0.18757,-0.82907 -0.56268,-1.05197 -0.39144,-0.22289 -0.99217,-0.33434 -1.8022,-0.33434 l -5.44739,0 0,2.75631 z m 0.49744,2.08762 -9.60632,0 0,-11.75918 8.97025,0 c 0.57082,1e-5 1.07234,0.0109 1.50455,0.0326 0.43219,0.0218 0.84945,0.0544 1.25176,0.0979 0.73392,0.0924 1.30203,0.23378 1.70435,0.42405 0.63606,0.25553 1.1267,0.60211 1.47194,1.03974 0.3452,0.43764 0.51781,0.93101 0.51783,1.48009 -2e-5,0.65782 -0.21205,1.20963 -0.63608,1.65542 -0.42406,0.45667 -1.08188,0.83994 -1.97345,1.14982 0.91332,0.26639 1.58201,0.61161 2.00607,1.03566 0.41316,0.42405 0.61975,0.97042 0.61977,1.63911 -2e-5,1.09817 -0.473,1.90278 -1.41894,2.41381 -0.95684,0.52734 -2.42741,0.79101 -4.41173,0.79101 z"
         style="stroke:#000000;stroke-opacity:1;stroke-width:1.25;stroke-miterlimit:4;stroke-dasharray:none"
         id="path6095" />
      <path
         d="m 483.73634,263.98538 c -1.6364,0 -2.8433,-0.0951 -3.62072,-0.28542 -0.79374,-0.1794 -1.49505,-0.49744 -2.10393,-0.9541 -0.57084,-0.38599 -0.97858,-0.83723 -1.22322,-1.3537 -0.25552,-0.51103 -0.38327,-1.23408 -0.38327,-2.16917 l 0,-6.99679 3.6778,0 0,6.91525 c -1e-5,0.71218 0.0489,1.20147 0.14679,1.46786 0.10328,0.27726 0.24192,0.48928 0.41589,0.63607 0.1794,0.14679 0.38599,0.26911 0.61976,0.36696 0.22289,0.0979 0.45666,0.18213 0.70131,0.2528 0.55996,0.11417 1.26127,0.17125 2.10393,0.17125 l 4.31388,0 0,1.94899 z"
         style="stroke:#000000;stroke-opacity:1;stroke-width:1.25;stroke-miterlimit:4;stroke-dasharray:none"
         id="path6097" />
      <path
         d="m 497.1591,254.58293 -2.54429,4.50959 5.20275,0 z m -1.80221,-2.35673 3.90614,0 7.429,11.75918 -4.06923,0 -1.60649,-2.78893 -7.60025,0 -1.54941,2.78893 -3.89798,0 z"
         style="stroke:#000000;stroke-opacity:1;stroke-width:1.25;stroke-miterlimit:4;stroke-dasharray:none"
         id="path6099" />
      <path
         d="m 522.70801,254.33828 -9.06811,0 c -0.98945,1e-5 -1.70707,0.11418 -2.15286,0.3425 -0.45668,0.24466 -0.68501,0.6388 -0.685,1.18245 -10e-6,0.41318 0.19299,0.73122 0.57898,0.9541 0.42405,0.21204 0.9976,0.31805 1.72066,0.31804 l 4.86025,0 c 2.01693,10e-6 3.44809,0.25552 4.29349,0.76655 0.84536,0.51104 1.26805,1.37001 1.26806,2.57691 -10e-6,1.21234 -0.48386,2.09578 -1.45155,2.6503 -0.96771,0.57084 -2.50896,0.85625 -4.62375,0.85625 l -9.77758,0 0,-2.08762 9.18228,0 c 1.06011,0 1.79404,-0.10601 2.20179,-0.31804 0.43491,-0.20115 0.65237,-0.54093 0.65238,-1.01934 -10e-6,-0.46754 -0.19573,-0.81819 -0.58714,-1.05197 -0.40232,-0.20115 -1.07101,-0.30172 -2.00608,-0.30173 l -4.33018,0 c -2.00065,10e-6 -3.47938,-0.26638 -4.4362,-0.79916 -0.91877,-0.55996 -1.37816,-1.41893 -1.37816,-2.57691 0,-1.23408 0.49201,-2.14742 1.47602,-2.74001 0.97857,-0.57626 2.52525,-0.86439 4.64006,-0.8644 l 9.62264,0 z"
         style="stroke:#000000;stroke-opacity:1;stroke-width:1.25;stroke-miterlimit:4;stroke-dasharray:none"
         id="path6101" />
      <path
         d="m 530.07177,254.29751 -5.63495,0 0,-2.04685 15.11895,0 0,2.04685 -5.68388,0 0,9.68787 -3.80012,0 z"
         style="stroke:#000000;stroke-opacity:1;stroke-width:1.25;stroke-miterlimit:4;stroke-dasharray:none"
         id="path6103" />
      <path
         d="m 473.25745,275.21451 -9.06811,0 c -0.98945,10e-6 -1.70707,0.11417 -2.15286,0.3425 -0.45667,0.24465 -0.685,0.6388 -0.685,1.18244 0,0.41318 0.19299,0.73122 0.57899,0.95411 0.42404,0.21203 0.9976,0.31804 1.72066,0.31804 l 4.86024,0 c 2.01694,0 3.4481,0.25552 4.29349,0.76654 0.84536,0.51104 1.26805,1.37001 1.26807,2.57691 -2e-5,1.21235 -0.48387,2.09578 -1.45155,2.6503 -0.96771,0.57084 -2.50896,0.85626 -4.62376,0.85626 l -9.77757,0 0,-2.08763 9.18228,0 c 1.0601,1e-5 1.79403,-0.10601 2.20178,-0.31803 0.43491,-0.20115 0.65237,-0.54093 0.65239,-1.01935 -2e-5,-0.46754 -0.19573,-0.81819 -0.58715,-1.05197 -0.40231,-0.20114 -1.071,-0.30172 -2.00607,-0.30172 l -4.33019,0 c -2.00064,0 -3.47937,-0.26639 -4.4362,-0.79917 -0.91877,-0.55996 -1.37815,-1.41892 -1.37815,-2.57691 0,-1.23408 0.492,-2.14741 1.47601,-2.74 0.97857,-0.57626 2.52526,-0.8644 4.64007,-0.86441 l 9.62263,0 z"
         style="stroke:#000000;stroke-opacity:1;stroke-width:1.25;stroke-miterlimit:4;stroke-dasharray:none"
         id="path6105" />
      <path
         d="m 480.48258,273.10242 0,4.7787 6.744,0 0,-4.7787 3.6615,0 0,11.75919 -3.6615,0 0,-4.90918 -6.744,0 0,4.90918 -3.66149,0 0,-11.75919 z"
         style="stroke:#000000;stroke-opacity:1;stroke-width:1.25;stroke-miterlimit:4;stroke-dasharray:none"
         id="path6107" />
      <path
         d="m 498.36601,284.86161 -3.83275,0 0,-11.75919 3.83275,0 z"
         style="stroke:#000000;stroke-opacity:1;stroke-width:1.25;stroke-miterlimit:4;stroke-dasharray:none"
         id="path6109" />
      <path
         d="m 509.2037,275.15742 c -1.31564,10e-6 -2.31189,0.22291 -2.98872,0.6687 -0.67686,0.4458 -1.06149,1.1308 -1.15391,2.055 l 10.16901,0.0163 0,2.03869 -10.18532,0 c 0,1.03294 0.32347,1.76687 0.97042,2.20179 0.63607,0.4458 1.69891,0.66869 3.18852,0.66869 l 6.02638,0 0,2.05501 -6.20578,0 c -0.72851,0 -1.34283,-0.0163 -1.84298,-0.0489 -0.50017,-0.0381 -0.96227,-0.10058 -1.38632,-0.18756 -0.75568,-0.14679 -1.48961,-0.41318 -2.20179,-0.79917 -0.88071,-0.46754 -1.55076,-1.09138 -2.01015,-1.87152 -0.45938,-0.78014 -0.68908,-1.70027 -0.68908,-2.76039 0,-2.055 0.67005,-3.58402 2.01016,-4.58706 1.34009,-1.00303 3.41276,-1.50455 6.21801,-1.50456 l 6.10793,0 0,2.055 z"
         style="stroke:#000000;stroke-opacity:1;stroke-width:1.25;stroke-miterlimit:4;stroke-dasharray:none"
         id="path6111" />
      <path
         d="m 525.32569,284.86161 c -1.6364,0 -2.8433,-0.0951 -3.62072,-0.28542 -0.79373,-0.17941 -1.49504,-0.49744 -2.10393,-0.95411 -0.57084,-0.38599 -0.97857,-0.83722 -1.22322,-1.35369 -0.25551,-0.51103 -0.38327,-1.23409 -0.38327,-2.16917 l 0,-6.9968 3.6778,0 0,6.91525 c 0,0.71219 0.0489,1.20147 0.14679,1.46786 0.10329,0.27726 0.24192,0.48929 0.41589,0.63607 0.1794,0.14679 0.38599,0.26911 0.61977,0.36697 0.22289,0.0979 0.45666,0.18212 0.70131,0.25279 0.55995,0.11417 1.26126,0.17126 2.10393,0.17125 l 4.31387,0 0,1.949 z"
         style="stroke:#000000;stroke-opacity:1;stroke-width:1.25;stroke-miterlimit:4;stroke-dasharray:none"
         id="path6113" />
      <path
         d="m 539.86566,275.15742 -4.2568,0 0,7.64918 4.26495,0 c 1.62551,0 2.74815,-0.27998 3.36792,-0.83994 0.60888,-0.54365 0.91332,-1.53853 0.91334,-2.98465 -2e-5,-1.42436 -0.30446,-2.42196 -0.91334,-2.9928 -0.62521,-0.55451 -1.75057,-0.83178 -3.37607,-0.83179 z m -7.91829,-2.055 7.99983,0 c 2.78349,1e-5 4.84936,0.49609 6.19763,1.48825 1.34824,0.99217 2.02237,2.52663 2.02239,4.60337 -2e-5,1.06012 -0.22835,1.98433 -0.685,2.77262 -0.46756,0.79373 -1.13625,1.4135 -2.00608,1.85929 -0.7122,0.37512 -1.457,0.64151 -2.23441,0.79917 -0.77743,0.15766 -1.84027,0.23649 -3.18851,0.23649 l -8.10585,0 z"
         style="stroke:#000000;stroke-opacity:1;stroke-width:1.25;stroke-miterlimit:4;stroke-dasharray:none"
         id="path6115" />
    </g>
    <path
       style="fill:#ffffff;fill-opacity:1;stroke:#000000;stroke-width:1.39339101;stroke-miterlimit:4;stroke-dashoffset:0;stroke-opacity:1;stroke-dasharray:none"
       d="m 184.85792,362.93307 c 0,10.8789 -8.81909,19.69798 -19.69798,19.69798 -10.87889,0 -19.69797,-8.81908 -19.69797,-19.69798 0,-10.87889 8.81908,-19.69797 19.69797,-19.69797 10.87889,0 19.69798,8.81908 19.69798,19.69797 z"
       id="path6733"
       transform="matrix(0.89709205,0,0,0.89709205,93.884703,214.27321)" />
    <g
       style="font-size:16.70097923000000200px;font-style:normal;font-variant:normal;font-weight:normal;font-stretch:normal;line-height:125%;letter-spacing:0px;word-spacing:0px;fill:#ffffff;fill-opacity:1;stroke:#000000;font-family:Hanzel Extended;-inkscape-font-specification:Hanzel Extended;stroke-opacity:1;stroke-width:1.25;stroke-miterlimit:4;stroke-dasharray:none"
       id="text6735">
      <path
         d="m 266.68292,523.79831 0,7.04573 c -1e-5,1.08187 0.29356,1.84026 0.88071,2.27518 0.59257,0.44579 1.60648,0.66869 3.04173,0.66869 1.43523,0 2.45458,-0.21746 3.05804,-0.65238 0.58713,-0.42405 0.88071,-1.18788 0.88072,-2.29149 l 0,-7.04573 3.66149,0 0,7.11096 c -10e-6,0.41318 -0.0218,0.78287 -0.0652,1.10905 -0.0435,0.32076 -0.10331,0.61433 -0.1794,0.88072 -0.16311,0.51103 -0.42678,0.89974 -0.79101,1.16613 -0.65784,0.53822 -1.52224,0.94052 -2.59322,1.20691 -1.07644,0.27726 -2.40024,0.41589 -3.97138,0.41589 -1.54941,0 -2.85282,-0.12776 -3.91021,-0.38327 -1.05741,-0.25552 -1.94764,-0.66869 -2.67069,-1.23953 -0.33163,-0.28813 -0.58171,-0.66597 -0.75024,-1.13351 -0.15766,-0.50016 -0.23649,-1.17429 -0.23649,-2.02239 l 0,-7.11096 z"
         style="stroke:#000000;stroke-opacity:1;stroke-width:1.25;stroke-miterlimit:4;stroke-dasharray:none"
         id="path6118" />
      <path
         d="m 281.7774,523.79831 4.64823,0 7.13542,8.44835 -0.17125,-8.44835 3.75935,0 0,11.75919 -4.25679,0 -7.5187,-8.88871 0.1631,8.88871 -3.75936,0 z"
         style="stroke:#000000;stroke-opacity:1;stroke-width:1.25;stroke-miterlimit:4;stroke-dasharray:none"
         id="path6120" />
      <path
         d="m 308.58215,525.85331 -4.25679,0 0,7.64918 4.26494,0 c 1.62551,0 2.74815,-0.27998 3.36792,-0.83994 0.60888,-0.54365 0.91333,-1.53853 0.91334,-2.98465 -10e-6,-1.42436 -0.30446,-2.42196 -0.91334,-2.9928 -0.62521,-0.55452 -1.75056,-0.83178 -3.37607,-0.83179 z m -7.91829,-2.055 7.99984,0 c 2.78348,10e-6 4.84935,0.49609 6.19762,1.48825 1.34824,0.99217 2.02237,2.52662 2.02239,4.60337 -2e-5,1.06012 -0.22835,1.98433 -0.685,2.77262 -0.46756,0.79373 -1.13625,1.4135 -2.00608,1.85929 -0.7122,0.37512 -1.457,0.64151 -2.23441,0.79917 -0.77743,0.15766 -1.84027,0.23649 -3.18851,0.23649 l -8.10585,0 z"
         style="stroke:#000000;stroke-opacity:1;stroke-width:1.25;stroke-miterlimit:4;stroke-dasharray:none"
         id="path6122" />
      <path
         d="m 326.62051,525.85331 c -1.31564,1e-5 -2.31188,0.22291 -2.98872,0.66869 -0.67685,0.44581 -1.06149,1.13081 -1.1539,2.05501 l 10.169,0.0163 0,2.03869 -10.18531,0 c -1e-5,1.03294 0.32347,1.76687 0.97042,2.20179 0.63606,0.4458 1.6989,0.66869 3.18851,0.66869 l 6.02638,0 0,2.05501 -6.20578,0 c -0.7285,0 -1.34283,-0.0163 -1.84298,-0.0489 -0.50017,-0.0381 -0.96227,-0.10058 -1.38631,-0.18756 -0.75568,-0.14679 -1.48961,-0.41318 -2.20179,-0.79917 -0.88072,-0.46754 -1.55077,-1.09138 -2.01015,-1.87152 -0.45939,-0.78014 -0.68908,-1.70027 -0.68908,-2.76039 0,-2.055 0.67005,-3.58402 2.01015,-4.58706 1.3401,-1.00303 3.41277,-1.50455 6.21802,-1.50456 l 6.10792,0 0,2.055 z"
         style="stroke:#000000;stroke-opacity:1;stroke-width:1.25;stroke-miterlimit:4;stroke-dasharray:none"
         id="path6125" />
      <path
         d="m 343.99834,525.9104 -4.50959,0 0,2.95202 4.50959,0 c 1.19602,10e-6 2.04412,-0.11144 2.54429,-0.33434 0.47296,-0.25007 0.70945,-0.63607 0.70946,-1.15798 -1e-5,-0.53277 -0.23378,-0.91061 -0.70131,-1.13351 -0.47842,-0.21745 -1.32924,-0.32618 -2.55244,-0.32619 z m -8.17109,-2.11209 9.0518,0 c 2.09305,10e-6 3.63022,0.28951 4.61153,0.86848 0.98127,0.579 1.47192,1.46923 1.47194,2.67069 -2e-5,0.88072 -0.30175,1.60922 -0.90519,2.18548 -0.59803,0.58171 -1.47059,0.95683 -2.61768,1.12536 l 4.35465,4.90918 -4.14262,0 -3.82459,-4.60745 -4.33834,0 0,4.60745 -3.6615,0 z"
         style="stroke:#000000;stroke-opacity:1;stroke-width:1.25;stroke-miterlimit:4;stroke-dasharray:none"
         id="path6127" />
      <path
         d="m 352.85442,530.11826 8.17109,0 0,2.03054 -8.17109,0 z"
         style="stroke:#000000;stroke-opacity:1;stroke-width:1.25;stroke-miterlimit:4;stroke-dasharray:none"
         id="path6129" />
      <path
         d="m 270.28733,546.69692 c -1.51136,10e-6 -2.60138,0.32348 -3.27007,0.97042 -0.67957,0.65239 -1.01935,1.72066 -1.01935,3.20482 0,1.27759 0.31804,2.18005 0.95411,2.70739 0.61976,0.53278 1.73153,0.79917 3.33531,0.79917 l 6.02637,0 0,2.055 -6.20578,0 c -0.7285,0 -1.34283,-0.0163 -1.84298,-0.0489 -0.50016,-0.0381 -0.96227,-0.10057 -1.38631,-0.18756 -0.75568,-0.14678 -1.48961,-0.41317 -2.20179,-0.79917 -0.88072,-0.46754 -1.54941,-1.09138 -2.00607,-1.87152 -0.45667,-0.78013 -0.68501,-1.70026 -0.68501,-2.76039 0,-2.055 0.6687,-3.58401 2.00608,-4.58706 1.33738,-1.00303 3.40869,-1.50454 6.21394,-1.50456 l 6.10792,0 0,2.02239 z"
         style="stroke:#000000;stroke-opacity:1;stroke-width:1.25;stroke-miterlimit:4;stroke-dasharray:none"
         id="path6131" />
      <path
         d="m 285.80586,547.03126 -2.54429,4.50959 5.20275,0 z m -1.8022,-2.35673 3.90613,0 7.429,11.75919 -4.06923,0 -1.60649,-2.78893 -7.60025,0 -1.54941,2.78893 -3.89798,0 z"
         style="stroke:#000000;stroke-opacity:1;stroke-width:1.25;stroke-miterlimit:4;stroke-dasharray:none"
         id="path6133" />
      <path
         d="m 304.75756,546.78662 -4.50959,0 0,2.95203 4.50959,0 c 1.19602,10e-6 2.04412,-0.11144 2.54429,-0.33435 0.47296,-0.25007 0.70945,-0.63606 0.70947,-1.15797 -2e-5,-0.53277 -0.23379,-0.91061 -0.70131,-1.13352 -0.47843,-0.21745 -1.32924,-0.32618 -2.55245,-0.32619 z m -8.17108,-2.11209 9.0518,0 c 2.09304,2e-5 3.63022,0.28951 4.61152,0.86849 0.98128,0.579 1.47192,1.46923 1.47194,2.67069 -2e-5,0.88072 -0.30174,1.60921 -0.90518,2.18548 -0.59803,0.58171 -1.47059,0.95683 -2.61768,1.12535 l 4.35465,4.90918 -4.14263,0 -3.82459,-4.60745 -4.33834,0 0,4.60745 -3.66149,0 z"
         style="stroke:#000000;stroke-opacity:1;stroke-width:1.25;stroke-miterlimit:4;stroke-dasharray:none"
         id="path6135" />
      <path
         d="m 322.99164,546.78662 -4.50959,0 0,2.95203 4.50959,0 c 1.19602,10e-6 2.04412,-0.11144 2.54429,-0.33435 0.47296,-0.25007 0.70945,-0.63606 0.70946,-1.15797 -10e-6,-0.53277 -0.23378,-0.91061 -0.70131,-1.13352 -0.47842,-0.21745 -1.32924,-0.32618 -2.55244,-0.32619 z m -8.17109,-2.11209 9.0518,0 c 2.09305,2e-5 3.63022,0.28951 4.61153,0.86849 0.98127,0.579 1.47192,1.46923 1.47194,2.67069 -2e-5,0.88072 -0.30175,1.60921 -0.90518,2.18548 -0.59804,0.58171 -1.4706,0.95683 -2.61769,1.12535 l 4.35465,4.90918 -4.14262,0 -3.82459,-4.60745 -4.33834,0 0,4.60745 -3.6615,0 z"
         style="stroke:#000000;stroke-opacity:1;stroke-width:1.25;stroke-miterlimit:4;stroke-dasharray:none"
         id="path6137" />
      <path
         d="m 336.91999,556.43372 -3.83274,0 0,-11.75919 3.83274,0 z"
         style="stroke:#000000;stroke-opacity:1;stroke-width:1.25;stroke-miterlimit:4;stroke-dasharray:none"
         id="path6139" />
      <path
         d="m 347.35811,547.03126 -2.54429,4.50959 5.20275,0 z m -1.80221,-2.35673 3.90614,0 7.429,11.75919 -4.06923,0 -1.60649,-2.78893 -7.60025,0 -1.54941,2.78893 -3.89798,0 z"
         style="stroke:#000000;stroke-opacity:1;stroke-width:1.25;stroke-miterlimit:4;stroke-dasharray:none"
         id="path6141" />
      <path
         d="m 364.49129,551.54085 0,-2.07131 8.66853,0 0,6.96418 -7.90198,0 c -1.40263,0 -2.49265,-0.0788 -3.27006,-0.23649 -0.7883,-0.15766 -1.54126,-0.42405 -2.25888,-0.79917 -0.88071,-0.46754 -1.55076,-1.09138 -2.01015,-1.87152 -0.45938,-0.78013 -0.68908,-1.70026 -0.68908,-2.76039 0,-2.055 0.67549,-3.58401 2.02646,-4.58706 1.35098,-1.00303 3.41821,-1.50454 6.20171,-1.50456 l 7.90198,0 0,2.02239 -7.90198,0 c -1.40263,10e-6 -2.43828,0.30989 -3.10697,0.92964 -0.67957,0.62521 -1.01935,1.63368 -1.01934,3.02542 -10e-6,1.28303 0.3289,2.21403 0.98672,2.79301 0.65781,0.579 1.70434,0.86849 3.13959,0.86849 l 4.13447,0 0,-2.77263 z"
         style="stroke:#000000;stroke-opacity:1;stroke-width:1.25;stroke-miterlimit:4;stroke-dasharray:none"
         id="path6143" />
      <path
         d="m 383.37775,546.72954 c -1.31565,10e-6 -2.31189,0.2229 -2.98873,0.66869 -0.67685,0.4458 -1.06148,1.1308 -1.1539,2.055 l 10.16901,0.0163 0,2.0387 -10.18532,0 c 0,1.03294 0.32347,1.76687 0.97042,2.20178 0.63607,0.4458 1.69891,0.6687 3.18852,0.6687 l 6.02638,0 0,2.055 -6.20579,0 c -0.7285,0 -1.34282,-0.0163 -1.84297,-0.0489 -0.50017,-0.0381 -0.96227,-0.10057 -1.38632,-0.18756 -0.75568,-0.14678 -1.48961,-0.41317 -2.20179,-0.79917 -0.88071,-0.46754 -1.55076,-1.09138 -2.01015,-1.87152 -0.45938,-0.78013 -0.68908,-1.70026 -0.68908,-2.76039 0,-2.055 0.67005,-3.58401 2.01016,-4.58706 1.34009,-1.00303 3.41276,-1.50454 6.21801,-1.50456 l 6.10793,0 0,2.05501 z"
         style="stroke:#000000;stroke-opacity:1;stroke-width:1.25;stroke-miterlimit:4;stroke-dasharray:none"
         id="path6145" />
    </g>
    <g
       id="g5867"
       style="fill:#ffffff;stroke:#000000;stroke-opacity:1;stroke-width:1.25;stroke-miterlimit:4;stroke-dasharray:none">
      <path
         style="font-size:medium;font-style:normal;font-variant:normal;font-weight:normal;font-stretch:normal;text-indent:0;text-align:start;text-decoration:none;line-height:normal;letter-spacing:normal;word-spacing:normal;text-transform:none;direction:ltr;block-progression:tb;writing-mode:lr-tb;text-anchor:start;baseline-shift:baseline;color:#000000;fill:#ffffff;fill-opacity:1;stroke:#000000;stroke-width:1.25;marker:none;visibility:visible;display:inline;overflow:visible;enable-background:accumulate;font-family:Sans;-inkscape-font-specification:Sans;stroke-opacity:1;stroke-miterlimit:4;stroke-dasharray:none"
         d="M 241.34375 481.78125 L 240.53125 484.03125 L 233.8125 502.21875 C 235.83484 500.76728 238.17445 499.96809 240.53125 499.8125 L 240.53125 521.40625 L 242.21875 521.40625 L 242.21875 499.8125 C 244.56224 499.96838 246.86737 500.76442 248.84375 502.21875 L 242.21875 484.15625 L 242.21875 484.03125 L 242.15625 484.03125 L 241.34375 481.78125 z "
         id="path6741" />
    </g>
    <g
       id="g5859"
       style="fill:#ffffff;stroke:#000000;stroke-opacity:1;stroke-width:1.25;stroke-miterlimit:4;stroke-dasharray:none">
      <path
         style="font-size:medium;font-style:normal;font-variant:normal;font-weight:normal;font-stretch:normal;text-indent:0;text-align:start;text-decoration:none;line-height:normal;letter-spacing:normal;word-spacing:normal;text-transform:none;direction:ltr;block-progression:tb;writing-mode:lr-tb;text-anchor:start;baseline-shift:baseline;color:#000000;fill:#ffffff;fill-opacity:1;stroke:#000000;stroke-width:1.25;marker:none;visibility:visible;display:inline;overflow:visible;enable-background:accumulate;font-family:Sans;-inkscape-font-specification:Sans;stroke-opacity:1;stroke-miterlimit:4;stroke-dasharray:none"
         d="M 240.53125 557.28125 L 240.53125 578.875 C 238.1785 578.72348 235.85892 577.92863 233.875 576.46875 L 240.53125 594.53125 L 240.53125 594.65625 L 240.5625 594.65625 L 241.40625 596.90625 L 242.21875 594.65625 L 248.90625 576.46875 C 246.8916 577.9147 244.5664 578.71508 242.21875 578.875 L 242.21875 557.28125 L 240.53125 557.28125 z "
         id="path6743" />
    </g>
    <g
       style="font-size:16.70097923000000200px;font-style:normal;font-variant:normal;font-weight:normal;font-stretch:normal;line-height:125%;letter-spacing:0px;word-spacing:0px;fill:#ffffff;fill-opacity:1;stroke:#000000;font-family:Hanzel Extended;-inkscape-font-specification:Hanzel Extended;stroke-opacity:1;stroke-width:1.25;stroke-miterlimit:4;stroke-dasharray:none"
       id="text6757">
      <path
         d="m 831.2179,271.76402 c -1.31565,10e-6 -2.31189,0.22291 -2.98873,0.66869 -0.67685,0.4458 -1.06148,1.1308 -1.1539,2.055 l 10.16901,0.0163 0,2.0387 -10.18532,0 c 0,1.03294 0.32347,1.76687 0.97042,2.20179 0.63607,0.44579 1.69891,0.66869 3.18852,0.66869 l 6.02638,0 0,2.055 -6.20579,0 c -0.7285,0 -1.34282,-0.0163 -1.84298,-0.0489 -0.50016,-0.038 -0.96227,-0.10057 -1.38631,-0.18756 -0.75568,-0.14678 -1.48961,-0.41317 -2.20179,-0.79917 -0.88071,-0.46753 -1.55076,-1.09137 -2.01015,-1.87152 -0.45939,-0.78013 -0.68908,-1.70026 -0.68908,-2.76039 0,-2.05499 0.67005,-3.58401 2.01015,-4.58706 1.3401,-1.00302 3.41277,-1.50454 6.21802,-1.50455 l 6.10793,0 0,2.055 z"
         style="stroke:#000000;stroke-opacity:1;stroke-width:1.25;stroke-miterlimit:4;stroke-dasharray:none"
         id="path6080" />
      <path
         d="m 840.42464,269.70902 4.64822,0 7.13543,8.44834 -0.17125,-8.44834 3.75935,0 0,11.75918 -4.25679,0 -7.5187,-8.8887 0.16309,8.8887 -3.75935,0 z"
         style="stroke:#000000;stroke-opacity:1;stroke-width:1.25;stroke-miterlimit:4;stroke-dasharray:none"
         id="path6082" />
      <path
         d="m 865.66367,276.57534 0,-2.07132 8.66853,0 0,6.96418 -7.90198,0 c -1.40263,0 -2.49265,-0.0788 -3.27007,-0.23649 -0.78829,-0.15766 -1.54125,-0.42405 -2.25887,-0.79917 -0.88072,-0.46753 -1.55077,-1.09137 -2.01015,-1.87152 -0.45939,-0.78013 -0.68908,-1.70026 -0.68908,-2.76039 0,-2.05499 0.67549,-3.58401 2.02646,-4.58706 1.35097,-1.00302 3.41821,-1.50454 6.20171,-1.50455 l 7.90198,0 0,2.02238 -7.90198,0 c -1.40263,10e-6 -2.43828,0.30989 -3.10697,0.92964 -0.67957,0.62521 -1.01935,1.63368 -1.01935,3.02543 0,1.28302 0.32891,2.21402 0.98673,2.79301 0.65781,0.57899 1.70434,0.86848 3.13959,0.86848 l 4.13447,0 0,-2.77262 z"
         style="stroke:#000000;stroke-opacity:1;stroke-width:1.25;stroke-miterlimit:4;stroke-dasharray:none"
         id="path6084" />
      <path
         d="m 881.21483,281.4682 -3.83275,0 0,-11.75918 3.83275,0 z"
         style="stroke:#000000;stroke-opacity:1;stroke-width:1.25;stroke-miterlimit:4;stroke-dasharray:none"
         id="path6086" />
      <path
         d="m 884.85185,269.70902 4.64823,0 7.13542,8.44834 -0.17125,-8.44834 3.75935,0 0,11.75918 -4.25679,0 -7.5187,-8.8887 0.16309,8.8887 -3.75935,0 z"
         style="stroke:#000000;stroke-opacity:1;stroke-width:1.25;stroke-miterlimit:4;stroke-dasharray:none"
         id="path6088" />
      <path
         d="m 910.93898,271.76402 c -1.31564,10e-6 -2.31188,0.22291 -2.98872,0.66869 -0.67685,0.4458 -1.06149,1.1308 -1.1539,2.055 l 10.169,0.0163 0,2.0387 -10.18531,0 c -10e-6,1.03294 0.32347,1.76687 0.97042,2.20179 0.63606,0.44579 1.6989,0.66869 3.18851,0.66869 l 6.02638,0 0,2.055 -6.20578,0 c -0.7285,0 -1.34283,-0.0163 -1.84298,-0.0489 -0.50017,-0.038 -0.96227,-0.10057 -1.38631,-0.18756 -0.75568,-0.14678 -1.48961,-0.41317 -2.20179,-0.79917 -0.88072,-0.46753 -1.55077,-1.09137 -2.01015,-1.87152 -0.45939,-0.78013 -0.68908,-1.70026 -0.68908,-2.76039 0,-2.05499 0.67005,-3.58401 2.01015,-4.58706 1.3401,-1.00302 3.41277,-1.50454 6.21802,-1.50455 l 6.10792,0 0,2.055 z"
         style="stroke:#000000;stroke-opacity:1;stroke-width:1.25;stroke-miterlimit:4;stroke-dasharray:none"
         id="path6090" />
      <path
         d="m 934.91402,271.8211 -9.06811,0 c -0.98946,10e-6 -1.70708,0.11418 -2.15286,0.3425 -0.45668,0.24465 -0.68501,0.6388 -0.68501,1.18244 0,0.41319 0.193,0.73122 0.57899,0.95411 0.42405,0.21203 0.9976,0.31805 1.72066,0.31804 l 4.86025,0 c 2.01693,10e-6 3.44809,0.25552 4.29349,0.76655 0.84536,0.51104 1.26805,1.37001 1.26806,2.57691 -1e-5,1.21234 -0.48386,2.09578 -1.45155,2.6503 -0.96771,0.57083 -2.50896,0.85625 -4.62375,0.85625 l -9.77758,0 0,-2.08762 9.18228,0 c 1.06011,0 1.79404,-0.10601 2.20179,-0.31804 0.43491,-0.20115 0.65237,-0.54093 0.65238,-1.01934 -10e-6,-0.46754 -0.19573,-0.8182 -0.58714,-1.05197 -0.40232,-0.20115 -1.07101,-0.30172 -2.00608,-0.30173 l -4.33018,0 c -2.00065,10e-6 -3.47938,-0.26638 -4.4362,-0.79917 -0.91878,-0.55995 -1.37816,-1.41892 -1.37816,-2.5769 0,-1.23408 0.492,-2.14742 1.47601,-2.74001 0.97857,-0.57626 2.52526,-0.86439 4.64007,-0.8644 l 9.62264,0 z"
         style="stroke:#000000;stroke-opacity:1;stroke-width:1.25;stroke-miterlimit:4;stroke-dasharray:none"
         id="path6092" />
    </g>
    <g
       transform="matrix(0.41345112,0,0,0.41345112,539.65537,77.147495)"
       style="font-size:40px;font-style:normal;font-variant:normal;font-weight:normal;font-stretch:normal;line-height:125%;letter-spacing:0px;word-spacing:0px;fill:#ffffff;fill-opacity:1;stroke:#000000;font-family:Hanzel Extended;-inkscape-font-specification:Hanzel Extended;stroke-opacity:1;stroke-width:3.023332;stroke-miterlimit:4;stroke-dasharray:none"
       id="flowRoot6777">
      <path
         d="m 570.35937,328.12111 c 0,-4.83071 1.70573,-8.43097 5.11719,-10.80078 3.42447,-2.35674 8.67837,-3.53513 15.76172,-3.53516 7.07028,3e-5 12.31116,1.20446 15.72266,3.61328 3.38537,2.39586 5.07808,6.06122 5.07812,10.9961 -4e-5,4.96094 -1.70577,8.63933 -5.11719,11.03515 -3.41149,2.42188 -8.63935,3.63282 -15.68359,3.63282 -7.22658,0 -12.50652,-1.21094 -15.83984,-3.63282 -3.35938,-2.39582 -5.03907,-6.16535 -5.03907,-11.30859 z m 20.87891,-9.53125 c -3.72398,2e-5 -6.56251,0.78778 -8.51562,2.36328 -1.83595,1.62763 -2.75392,4.02997 -2.75391,7.20703 -10e-6,3.46356 0.90494,5.99611 2.71484,7.59766 1.78384,1.62761 4.6354,2.44141 8.55469,2.44141 1.9531,0 3.61977,-0.20182 5,-0.60547 1.36716,-0.3776 2.51299,-0.97656 3.4375,-1.79688 1.88799,-1.60155 2.832,-4.069 2.83203,-7.40234 -3e-5,-3.33332 -0.918,-5.80076 -2.7539,-7.40235 -1.86201,-1.60154 -4.70055,-2.40232 -8.51563,-2.40234 z"
         style="stroke:#000000;stroke-opacity:1;stroke-width:3.023332;stroke-miterlimit:4;stroke-dasharray:none"
         id="path6073" />
      <path
         d="m 617.76172,329.54689 c -10e-6,-3.6979 0.319,-6.33461 0.95703,-7.91015 0.58593,-1.67967 1.67968,-3.05337 3.28125,-4.1211 0.80728,-0.50779 1.7578,-0.97653 2.85156,-1.40625 1.0677,-0.40362 2.23957,-0.73565 3.51563,-0.99609 2.72133,-0.53383 6.02862,-0.80075 9.92187,-0.80078 l 13.35938,0 0,4.92187 -14.08203,0 c -3.76304,3e-5 -6.53648,0.5469 -8.32032,1.64063 -1.80991,1.09377 -2.71485,2.83205 -2.71484,5.21484 l 25.11719,0 0,4.86328 -25.11719,0 0,11.52344 -8.76953,0 z"
         style="stroke:#000000;stroke-opacity:1;stroke-width:3.023332;stroke-miterlimit:4;stroke-dasharray:none"
         id="path6075" />
      <path
         d="m 657.29297,329.54689 c -10e-6,-3.6979 0.319,-6.33461 0.95703,-7.91015 0.58593,-1.67967 1.67968,-3.05337 3.28125,-4.1211 0.80728,-0.50779 1.7578,-0.97653 2.85156,-1.40625 1.0677,-0.40362 2.23957,-0.73565 3.51563,-0.99609 2.72133,-0.53383 6.02862,-0.80075 9.92187,-0.80078 l 13.35938,0 0,4.92187 -14.08203,0 c -3.76304,3e-5 -6.53648,0.5469 -8.32032,1.64063 -1.80991,1.09377 -2.71485,2.83205 -2.71484,5.21484 l 25.11719,0 0,4.86328 -25.11719,0 0,11.52344 -8.76953,0 z"
         style="stroke:#000000;stroke-opacity:1;stroke-width:3.023332;stroke-miterlimit:4;stroke-dasharray:none"
         id="path6077" />
    </g>
    <g
       transform="matrix(0.41345112,0,0,0.41345112,545.66552,206.2737)"
       style="font-size:40px;font-style:normal;font-variant:normal;font-weight:normal;font-stretch:normal;line-height:125%;letter-spacing:0px;word-spacing:0px;fill:#ffffff;fill-opacity:1;stroke:#000000;font-family:Hanzel Extended;-inkscape-font-specification:Hanzel Extended;stroke-opacity:1;stroke-width:3.023332;stroke-miterlimit:4;stroke-dasharray:none"
       id="flowRoot6785">
      <path
         d="m 570.35937,328.12111 c 0,-4.83071 1.70573,-8.43097 5.11719,-10.80078 3.42447,-2.35674 8.67837,-3.53513 15.76172,-3.53516 7.07028,3e-5 12.31116,1.20446 15.72266,3.61328 3.38537,2.39586 5.07808,6.06122 5.07812,10.9961 -4e-5,4.96094 -1.70577,8.63933 -5.11719,11.03515 -3.41149,2.42188 -8.63935,3.63282 -15.68359,3.63282 -7.22658,0 -12.50652,-1.21094 -15.83984,-3.63282 -3.35938,-2.39582 -5.03907,-6.16535 -5.03907,-11.30859 z m 20.87891,-9.53125 c -3.72398,2e-5 -6.56251,0.78778 -8.51562,2.36328 -1.83595,1.62763 -2.75392,4.02997 -2.75391,7.20703 -10e-6,3.46356 0.90494,5.99611 2.71484,7.59766 1.78384,1.62761 4.6354,2.44141 8.55469,2.44141 1.9531,0 3.61977,-0.20182 5,-0.60547 1.36716,-0.3776 2.51299,-0.97656 3.4375,-1.79688 1.88799,-1.60155 2.832,-4.069 2.83203,-7.40234 -3e-5,-3.33332 -0.918,-5.80076 -2.7539,-7.40235 -1.86201,-1.60154 -4.70055,-2.40232 -8.51563,-2.40234 z"
         style="stroke:#000000;stroke-opacity:1;stroke-width:3.023332;stroke-miterlimit:4;stroke-dasharray:none"
         id="path6068" />
      <path
         d="m 618.03516,314.31252 11.13281,0 17.08984,20.23437 -0.41015,-20.23437 9.0039,0 0,28.16406 -10.19531,0 -18.00781,-21.28906 0.39062,21.28906 -9.0039,0 z"
         style="stroke:#000000;stroke-opacity:1;stroke-width:3.023332;stroke-miterlimit:4;stroke-dasharray:none"
         id="path6070" />
    </g>
    <rect
       style="fill:#ffffff;fill-opacity:1;stroke:#000000;stroke-width:1.25;stroke-miterlimit:4;stroke-opacity:1;stroke-dasharray:none;stroke-dashoffset:0"
       id="rect6793"
       width="26.09882"
       height="282.84271"
       x="42.535915"
       y="265.45334" />
    <g
       style="font-size:16.70097923px;font-style:normal;font-variant:normal;font-weight:normal;font-stretch:normal;text-align:end;line-height:125%;letter-spacing:0px;word-spacing:0px;text-anchor:end;fill:#ffffff;fill-opacity:1;stroke:#000000;stroke-width:1.25;stroke-miterlimit:4;stroke-opacity:1;stroke-dasharray:none;font-family:Hanzel Extended;-inkscape-font-specification:Hanzel Extended"
       id="text6091-0"
       transform="translate(26.101586,0)">
      <path
         d="m 174.03619,274.54121 -4.25679,0 0,7.64918 4.26494,0 c 1.62551,0 2.74815,-0.27998 3.36793,-0.83994 0.60887,-0.54365 0.91332,-1.53853 0.91333,-2.98465 -1e-5,-1.42436 -0.30446,-2.42196 -0.91333,-2.9928 -0.62522,-0.55452 -1.75057,-0.83178 -3.37608,-0.83179 z m -7.91829,-2.055 7.99984,0 c 2.78348,10e-6 4.84936,0.49609 6.19763,1.48824 1.34824,0.99218 2.02236,2.52663 2.02238,4.60337 -2e-5,1.06013 -0.22835,1.98434 -0.685,2.77263 -0.46756,0.79373 -1.13625,1.41349 -2.00608,1.85929 -0.71219,0.37512 -1.457,0.6415 -2.2344,0.79916 -0.77744,0.15766 -1.84028,0.23649 -3.18852,0.23649 l -8.10585,0 z"
         style="stroke:#000000;stroke-width:1.25;stroke-miterlimit:4;stroke-opacity:1;stroke-dasharray:none"
         id="path6160"
         inkscape:connector-curvature="0" />
      <path
         d="m 183.75668,278.25163 c 0,-2.01694 0.71218,-3.52013 2.13655,-4.50959 1.4298,-0.984 3.62344,-1.476 6.58091,-1.47601 2.95201,10e-6 5.14021,0.50289 6.56459,1.50863 1.41348,1.00033 2.12022,2.53071 2.12024,4.59114 -2e-5,2.07132 -0.7122,3.60713 -2.13655,4.60745 -1.42438,1.01119 -3.60714,1.51678 -6.54828,1.51679 -3.01728,-1e-5 -5.22178,-0.5056 -6.61353,-1.51679 -1.40262,-1.00032 -2.10393,-2.57419 -2.10393,-4.72162 z m 8.71746,-3.97953 c -1.55485,10e-6 -2.74001,0.32892 -3.55549,0.98673 -0.76655,0.67957 -1.14982,1.68261 -1.14982,3.00911 0,1.44612 0.37783,2.50352 1.13352,3.17221 0.74479,0.67957 1.93539,1.01935 3.57179,1.01935 0.81546,0 1.51134,-0.0843 2.08762,-0.2528 0.57082,-0.15766 1.04923,-0.40774 1.43524,-0.75024 0.78828,-0.66869 1.18243,-1.69891 1.18244,-3.09066 -1e-5,-1.39174 -0.38329,-2.42196 -1.14982,-3.09066 -0.77744,-0.66868 -1.96259,-1.00303 -3.55548,-1.00304 z"
         style="stroke:#000000;stroke-width:1.25;stroke-miterlimit:4;stroke-opacity:1;stroke-dasharray:none"
         id="path6162"
         inkscape:connector-curvature="0" />
      <path
         d="m 210.86316,274.50859 c -1.51136,10e-6 -2.60138,0.32348 -3.27007,0.97042 -0.67957,0.65239 -1.01935,1.72066 -1.01935,3.20483 0,1.27758 0.31804,2.18004 0.95411,2.70738 0.61976,0.53278 1.73153,0.79917 3.33531,0.79917 l 6.02637,0 0,2.055 -6.20578,0 c -0.7285,0 -1.34283,-0.0163 -1.84298,-0.0489 -0.50016,-0.038 -0.96227,-0.10057 -1.38631,-0.18756 -0.75568,-0.14678 -1.48961,-0.41317 -2.20179,-0.79916 -0.88072,-0.46754 -1.54941,-1.09138 -2.00607,-1.87153 -0.45667,-0.78013 -0.68501,-1.70026 -0.68501,-2.76039 0,-2.05499 0.66869,-3.58401 2.00608,-4.58706 1.33738,-1.00302 3.40869,-1.50454 6.21394,-1.50455 l 6.10792,0 0,2.02238 z"
         style="stroke:#000000;stroke-width:1.25;stroke-miterlimit:4;stroke-opacity:1;stroke-dasharray:none"
         id="path6164"
         inkscape:connector-curvature="0" />
      <path
         d="m 219.58061,272.48621 3.66149,0 0,5.6431 6.89894,-5.6431 4.37096,0 -6.98049,5.74096 7.07019,6.01822 -4.69715,0 -6.66245,-5.84697 0,5.84697 -3.66149,0 z"
         style="stroke:#000000;stroke-width:1.25;stroke-miterlimit:4;stroke-opacity:1;stroke-dasharray:none"
         id="path6166"
         inkscape:connector-curvature="0" />
      <path
         d="m 239.75552,284.24539 -3.83274,0 0,-11.75918 3.83274,0 z"
         style="stroke:#000000;stroke-width:1.25;stroke-miterlimit:4;stroke-opacity:1;stroke-dasharray:none"
         id="path6168"
         inkscape:connector-curvature="0" />
      <path
         d="m 243.39255,272.48621 4.64823,0 7.13542,8.44834 -0.17125,-8.44834 3.75935,0 0,11.75918 -4.25679,0 -7.5187,-8.8887 0.1631,8.8887 -3.75936,0 z"
         style="stroke:#000000;stroke-width:1.25;stroke-miterlimit:4;stroke-opacity:1;stroke-dasharray:none"
         id="path6170"
         inkscape:connector-curvature="0" />
      <path
         d="m 268.63158,279.35253 0,-2.07132 8.66853,0 0,6.96418 -7.90198,0 c -1.40263,0 -2.49265,-0.0788 -3.27006,-0.23649 -0.7883,-0.15766 -1.54126,-0.42404 -2.25888,-0.79916 -0.88071,-0.46754 -1.55076,-1.09138 -2.01015,-1.87153 -0.45938,-0.78013 -0.68908,-1.70026 -0.68908,-2.76039 0,-2.05499 0.67549,-3.58401 2.02647,-4.58706 1.35097,-1.00302 3.4182,-1.50454 6.2017,-1.50455 l 7.90198,0 0,2.02238 -7.90198,0 c -1.40263,10e-6 -2.43828,0.30989 -3.10697,0.92964 -0.67957,0.62521 -1.01935,1.63369 -1.01934,3.02543 -10e-6,1.28302 0.3289,2.21402 0.98672,2.79301 0.65782,0.57899 1.70434,0.86848 3.13959,0.86848 l 4.13447,0 0,-2.77262 z"
         style="stroke:#000000;stroke-width:1.25;stroke-miterlimit:4;stroke-opacity:1;stroke-dasharray:none"
         id="path6172"
         inkscape:connector-curvature="0" />
      <path
         d="m 143.11328,295.38481 c -1.51136,10e-6 -2.60138,0.32349 -3.27006,0.97042 -0.67957,0.65239 -1.01935,1.72067 -1.01935,3.20483 0,1.27759 0.31803,2.18005 0.95411,2.70738 0.61976,0.53279 1.73152,0.79917 3.3353,0.79917 l 6.02638,0 0,2.05501 -6.20578,0 c -0.7285,0 -1.34283,-0.0163 -1.84298,-0.0489 -0.50017,-0.0381 -0.96227,-0.10058 -1.38631,-0.18756 -0.75568,-0.14679 -1.48961,-0.41318 -2.20179,-0.79917 -0.88072,-0.46754 -1.54941,-1.09138 -2.00608,-1.87152 -0.45667,-0.78014 -0.685,-1.70027 -0.685,-2.76039 0,-2.055 0.66869,-3.58402 2.00608,-4.58706 1.33738,-1.00303 3.40869,-1.50455 6.21394,-1.50456 l 6.10792,0 0,2.02238 z"
         style="stroke:#000000;stroke-width:1.25;stroke-miterlimit:4;stroke-opacity:1;stroke-dasharray:none"
         id="path6174"
         inkscape:connector-curvature="0" />
      <path
         d="m 150.71353,299.12786 c 0,-2.01694 0.71219,-3.52014 2.13655,-4.50959 1.4298,-0.984 3.62344,-1.47601 6.58091,-1.47602 2.95201,1e-5 5.14021,0.50289 6.56459,1.50863 1.41348,1.00033 2.12022,2.53071 2.12024,4.59114 -2e-5,2.07132 -0.7122,3.60713 -2.13655,4.60745 -1.42438,1.01119 -3.60714,1.51679 -6.54828,1.51679 -3.01728,0 -5.22178,-0.5056 -6.61353,-1.51679 -1.40262,-1.00032 -2.10393,-2.57419 -2.10393,-4.72161 z m 8.71746,-3.97953 c -1.55485,1e-5 -2.74001,0.32891 -3.55548,0.98672 -0.76656,0.67958 -1.14983,1.68261 -1.14983,3.00912 0,1.44611 0.37783,2.50352 1.13352,3.1722 0.74479,0.67957 1.93539,1.01935 3.57179,1.01935 0.81546,0 1.51134,-0.0843 2.08762,-0.2528 0.57082,-0.15765 1.04923,-0.40773 1.43524,-0.75024 0.78828,-0.66869 1.18243,-1.6989 1.18244,-3.09066 -1e-5,-1.39174 -0.38329,-2.42196 -1.14982,-3.09066 -0.77743,-0.66868 -1.96259,-1.00302 -3.55548,-1.00303 z"
         style="stroke:#000000;stroke-width:1.25;stroke-miterlimit:4;stroke-opacity:1;stroke-dasharray:none"
         id="path6176"
         inkscape:connector-curvature="0" />
      <path
         d="m 170.61934,293.36243 5.39846,0 4.46066,9.01918 4.41989,-9.01918 5.36584,0 0,11.75919 -3.57179,0 0.30173,-9.15782 -4.49328,9.15782 -3.88168,0 -4.60744,-9.25567 0.35065,9.25567 -3.74304,0 z"
         style="stroke:#000000;stroke-width:1.25;stroke-miterlimit:4;stroke-opacity:1;stroke-dasharray:none"
         id="path6178"
         inkscape:connector-curvature="0" />
      <path
         d="m 193.87675,293.36243 7.96722,0 c 1.33737,10e-6 2.41924,0.0489 3.2456,0.14679 0.8209,0.11417 1.44338,0.2664 1.86744,0.45666 0.79916,0.33164 1.40261,0.76928 1.81036,1.31292 0.39685,0.5491 0.59529,1.19061 0.5953,1.92453 -1e-5,0.71219 -0.15496,1.31292 -0.46482,1.8022 -0.17942,0.24465 -0.39145,0.47299 -0.63607,0.68501 -0.25553,0.21203 -0.55454,0.4023 -0.89703,0.57083 -0.59259,0.27727 -1.25041,0.47026 -1.97345,0.57899 -0.33164,0.0489 -0.79918,0.0897 -1.40262,0.12232 -0.60347,0.0326 -1.26672,0.0489 -1.98977,0.0489 l -4.46066,0 0,4.11001 -3.6615,0 z m 7.91829,2.11209 -4.25679,0 0,3.44947 4.49328,0 c 1.13622,0 1.96801,-0.14406 2.49536,-0.43221 0.51646,-0.28269 0.77469,-0.71217 0.7747,-1.28845 -1e-5,-0.62519 -0.26096,-1.07099 -0.78285,-1.33738 -0.53279,-0.26095 -1.44069,-0.39142 -2.7237,-0.39143 z"
         style="stroke:#000000;stroke-width:1.25;stroke-miterlimit:4;stroke-opacity:1;stroke-dasharray:none"
         id="path6180"
         inkscape:connector-curvature="0" />
      <path
         d="m 215.51137,293.36243 0,7.04573 c 0,1.08187 0.29357,1.84026 0.88072,2.27518 0.59257,0.44579 1.60648,0.66869 3.04173,0.66869 1.43523,0 2.45458,-0.21746 3.05804,-0.65238 0.58713,-0.42405 0.8807,-1.18788 0.88072,-2.29149 l 0,-7.04573 3.66149,0 0,7.11096 c -2e-5,0.41318 -0.0218,0.78287 -0.0652,1.10905 -0.0435,0.32076 -0.10331,0.61433 -0.1794,0.88072 -0.16311,0.51103 -0.42678,0.89974 -0.79101,1.16613 -0.65784,0.53822 -1.52224,0.94052 -2.59322,1.20691 -1.07645,0.27726 -2.40024,0.41589 -3.97138,0.41589 -1.54941,0 -2.85282,-0.12776 -3.91021,-0.38327 -1.05741,-0.25552 -1.94764,-0.66869 -2.67069,-1.23953 -0.33163,-0.28813 -0.58171,-0.66597 -0.75024,-1.13351 -0.15766,-0.50016 -0.23649,-1.17429 -0.23649,-2.02239 l 0,-7.11096 z"
         style="stroke:#000000;stroke-width:1.25;stroke-miterlimit:4;stroke-opacity:1;stroke-dasharray:none"
         id="path6182"
         inkscape:connector-curvature="0" />
      <path
         d="m 234.40599,295.43374 -5.63495,0 0,-2.04685 15.11895,0 0,2.04685 -5.68388,0 0,9.68788 -3.80012,0 z"
         style="stroke:#000000;stroke-width:1.25;stroke-miterlimit:4;stroke-opacity:1;stroke-dasharray:none"
         id="path6184"
         inkscape:connector-curvature="0" />
      <path
         d="m 252.87655,295.41743 c -1.31564,10e-6 -2.31189,0.22291 -2.98872,0.6687 -0.67686,0.4458 -1.06149,1.1308 -1.15391,2.055 l 10.16901,0.0163 0,2.03869 -10.18531,0 c -1e-5,1.03294 0.32346,1.76687 0.97041,2.20179 0.63607,0.4458 1.69891,0.66869 3.18852,0.66869 l 6.02638,0 0,2.05501 -6.20578,0 c -0.72851,0 -1.34283,-0.0163 -1.84298,-0.0489 -0.50017,-0.0381 -0.96227,-0.10058 -1.38632,-0.18756 -0.75568,-0.14679 -1.48961,-0.41318 -2.20178,-0.79917 -0.88072,-0.46754 -1.55077,-1.09138 -2.01016,-1.87152 -0.45938,-0.78014 -0.68908,-1.70027 -0.68908,-2.76039 0,-2.055 0.67005,-3.58402 2.01016,-4.58706 1.34009,-1.00303 3.41276,-1.50455 6.21801,-1.50456 l 6.10793,0 0,2.055 z"
         style="stroke:#000000;stroke-width:1.25;stroke-miterlimit:4;stroke-opacity:1;stroke-dasharray:none"
         id="path6186"
         inkscape:connector-curvature="0" />
      <path
         d="m 270.25438,295.47452 -4.50959,0 0,2.95203 4.50959,0 c 1.19602,0 2.04412,-0.11145 2.54429,-0.33435 0.47296,-0.25007 0.70945,-0.63606 0.70946,-1.15798 -10e-6,-0.53277 -0.23378,-0.91061 -0.70131,-1.13351 -0.47842,-0.21745 -1.32924,-0.32618 -2.55244,-0.32619 z m -8.17109,-2.11209 9.0518,0 c 2.09305,10e-6 3.63022,0.28951 4.61153,0.86848 0.98127,0.579 1.47192,1.46923 1.47194,2.67069 -2e-5,0.88073 -0.30175,1.60922 -0.90518,2.18548 -0.59804,0.58172 -1.4706,0.95683 -2.61769,1.12536 l 4.35465,4.90918 -4.14262,0 -3.82459,-4.60745 -4.33834,0 0,4.60745 -3.6615,0 z"
         style="stroke:#000000;stroke-width:1.25;stroke-miterlimit:4;stroke-opacity:1;stroke-dasharray:none"
         id="path6188"
         inkscape:connector-curvature="0" />
    </g>
    <g
       transform="matrix(0.32984328,0,0,0.32984328,118.41795,117.69785)"
       style="font-size:40px;font-style:normal;font-variant:normal;font-weight:normal;font-stretch:normal;line-height:125%;letter-spacing:0px;word-spacing:0px;fill:#ffffff;fill-opacity:1;stroke:#000000;stroke-width:3.78967857;stroke-miterlimit:4;stroke-opacity:1;stroke-dasharray:none;font-family:Hanzel Extended;-inkscape-font-specification:Hanzel Extended"
       id="flowRoot6850">
      <path
         d="m 570.35937,328.12111 c 0,-4.83071 1.70573,-8.43097 5.11719,-10.80078 3.42447,-2.35674 8.67837,-3.53513 15.76172,-3.53516 7.07028,3e-5 12.31116,1.20446 15.72266,3.61328 3.38537,2.39586 5.07808,6.06122 5.07812,10.9961 -4e-5,4.96094 -1.70577,8.63933 -5.11719,11.03515 -3.41149,2.42188 -8.63935,3.63282 -15.68359,3.63282 -7.22658,0 -12.50652,-1.21094 -15.83984,-3.63282 -3.35938,-2.39582 -5.03907,-6.16535 -5.03907,-11.30859 z m 20.87891,-9.53125 c -3.72398,2e-5 -6.56251,0.78778 -8.51562,2.36328 -1.83595,1.62763 -2.75392,4.02997 -2.75391,7.20703 -10e-6,3.46356 0.90494,5.99611 2.71484,7.59766 1.78384,1.62761 4.6354,2.44141 8.55469,2.44141 1.9531,0 3.61977,-0.20182 5,-0.60547 1.36716,-0.3776 2.51299,-0.97656 3.4375,-1.79688 1.88799,-1.60155 2.832,-4.069 2.83203,-7.40234 -3e-5,-3.33332 -0.918,-5.80076 -2.7539,-7.40235 -1.86201,-1.60154 -4.70055,-2.40232 -8.51563,-2.40234 z"
         style="stroke:#000000;stroke-width:3.78967857;stroke-miterlimit:4;stroke-opacity:1;stroke-dasharray:none"
         id="path6153"
         inkscape:connector-curvature="0" />
      <path
         d="m 617.76172,329.54689 c -10e-6,-3.6979 0.319,-6.33461 0.95703,-7.91015 0.58593,-1.67967 1.67968,-3.05337 3.28125,-4.1211 0.80728,-0.50779 1.7578,-0.97653 2.85156,-1.40625 1.0677,-0.40362 2.23957,-0.73565 3.51563,-0.99609 2.72133,-0.53383 6.02862,-0.80075 9.92187,-0.80078 l 13.35938,0 0,4.92187 -14.08203,0 c -3.76304,3e-5 -6.53648,0.5469 -8.32032,1.64063 -1.80991,1.09377 -2.71485,2.83205 -2.71484,5.21484 l 25.11719,0 0,4.86328 -25.11719,0 0,11.52344 -8.76953,0 z"
         style="stroke:#000000;stroke-width:3.78967857;stroke-miterlimit:4;stroke-opacity:1;stroke-dasharray:none"
         id="path6155"
         inkscape:connector-curvature="0" />
      <path
         d="m 657.29297,329.54689 c -10e-6,-3.6979 0.319,-6.33461 0.95703,-7.91015 0.58593,-1.67967 1.67968,-3.05337 3.28125,-4.1211 0.80728,-0.50779 1.7578,-0.97653 2.85156,-1.40625 1.0677,-0.40362 2.23957,-0.73565 3.51563,-0.99609 2.72133,-0.53383 6.02862,-0.80075 9.92187,-0.80078 l 13.35938,0 0,4.92187 -14.08203,0 c -3.76304,3e-5 -6.53648,0.5469 -8.32032,1.64063 -1.80991,1.09377 -2.71485,2.83205 -2.71484,5.21484 l 25.11719,0 0,4.86328 -25.11719,0 0,11.52344 -8.76953,0 z"
         style="stroke:#000000;stroke-width:3.78967857;stroke-miterlimit:4;stroke-opacity:1;stroke-dasharray:none"
         id="path6157"
         inkscape:connector-curvature="0" />
    </g>
    <g
       transform="matrix(0.27543962,0,0,0.27543962,156.51867,263.7218)"
       style="font-size:40px;font-style:normal;font-variant:normal;font-weight:normal;font-stretch:normal;line-height:125%;letter-spacing:0px;word-spacing:0px;fill:#ffffff;fill-opacity:1;stroke:#000000;stroke-width:4.5381999;stroke-miterlimit:4;stroke-opacity:1;stroke-dasharray:none;font-family:Hanzel Extended;-inkscape-font-specification:Hanzel Extended"
       id="flowRoot6858">
      <path
         d="m 570.35937,328.12111 c 0,-4.83071 1.70573,-8.43097 5.11719,-10.80078 3.42447,-2.35674 8.67837,-3.53513 15.76172,-3.53516 7.07028,3e-5 12.31116,1.20446 15.72266,3.61328 3.38537,2.39586 5.07808,6.06122 5.07812,10.9961 -4e-5,4.96094 -1.70577,8.63933 -5.11719,11.03515 -3.41149,2.42188 -8.63935,3.63282 -15.68359,3.63282 -7.22658,0 -12.50652,-1.21094 -15.83984,-3.63282 -3.35938,-2.39582 -5.03907,-6.16535 -5.03907,-11.30859 z m 20.87891,-9.53125 c -3.72398,2e-5 -6.56251,0.78778 -8.51562,2.36328 -1.83595,1.62763 -2.75392,4.02997 -2.75391,7.20703 -10e-6,3.46356 0.90494,5.99611 2.71484,7.59766 1.78384,1.62761 4.6354,2.44141 8.55469,2.44141 1.9531,0 3.61977,-0.20182 5,-0.60547 1.36716,-0.3776 2.51299,-0.97656 3.4375,-1.79688 1.88799,-1.60155 2.832,-4.069 2.83203,-7.40234 -3e-5,-3.33332 -0.918,-5.80076 -2.7539,-7.40235 -1.86201,-1.60154 -4.70055,-2.40232 -8.51563,-2.40234 z"
         style="stroke:#000000;stroke-width:4.5381999;stroke-miterlimit:4;stroke-opacity:1;stroke-dasharray:none"
         id="path6148"
         inkscape:connector-curvature="0" />
      <path
         d="m 618.03516,314.31252 11.13281,0 17.08984,20.23437 -0.41015,-20.23437 9.0039,0 0,28.16406 -10.19531,0 -18.00781,-21.28906 0.39062,21.28906 -9.0039,0 z"
         style="stroke:#000000;stroke-width:4.5381999;stroke-miterlimit:4;stroke-opacity:1;stroke-dasharray:none"
         id="path6150"
         inkscape:connector-curvature="0" />
    </g>
    <path
       style="fill:#ffffff;fill-opacity:1;stroke:#000000;stroke-width:1.25;stroke-miterlimit:4;stroke-opacity:1;stroke-dasharray:none;stroke-dashoffset:0"
       d="m 343.98786,291.62738 c 0,9.75937 -7.91154,17.6709 -17.6709,17.6709 -9.75937,0 -17.6709,-7.91153 -17.6709,-17.6709 0,-9.75937 7.91153,-17.67089 17.6709,-17.67089 9.75936,0 17.6709,7.91152 17.6709,17.67089 z"
       id="path6733-0"
       inkscape:connector-curvature="0" />
    <g
       id="g5883"
       style="fill:#ffffff;stroke:#000000;stroke-width:1.25;stroke-miterlimit:4;stroke-opacity:1;stroke-dasharray:none"
       transform="translate(26.101586,0)">
      <path
         style="font-size:medium;font-style:normal;font-variant:normal;font-weight:normal;font-stretch:normal;text-indent:0;text-align:start;text-decoration:none;line-height:normal;letter-spacing:normal;word-spacing:normal;text-transform:none;direction:ltr;block-progression:tb;writing-mode:lr-tb;text-anchor:start;baseline-shift:baseline;color:#000000;fill:#ffffff;fill-opacity:1;stroke:#000000;stroke-width:1.25;stroke-miterlimit:4;stroke-opacity:1;stroke-dasharray:none;marker:none;visibility:visible;display:inline;overflow:visible;enable-background:accumulate;font-family:Sans;-inkscape-font-specification:Sans"
         d="m 299.5,233.5625 -0.8125,2.25 L 292,253.96875 c 2.01465,-1.44595 4.33985,-2.24633 6.6875,-2.40625 l 0,21.625 1.6875,0 0,-21.625 c 2.35275,0.15152 4.67233,0.94637 6.65625,2.40625 l -6.65625,-18.03125 0,-0.125 -0.0312,0 -0.84375,-2.25 z"
         id="path6741-9"
         inkscape:connector-curvature="0" />
    </g>
    <g
       id="g5875"
       style="fill:#ffffff;stroke:#000000;stroke-width:1.25;stroke-miterlimit:4;stroke-opacity:1;stroke-dasharray:none"
       transform="translate(26.101586,0)">
      <path
         style="font-size:medium;font-style:normal;font-variant:normal;font-weight:normal;font-stretch:normal;text-indent:0;text-align:start;text-decoration:none;line-height:normal;letter-spacing:normal;word-spacing:normal;text-transform:none;direction:ltr;block-progression:tb;writing-mode:lr-tb;text-anchor:start;baseline-shift:baseline;color:#000000;fill:#ffffff;fill-opacity:1;stroke:#000000;stroke-width:1.25;stroke-miterlimit:4;stroke-opacity:1;stroke-dasharray:none;marker:none;visibility:visible;display:inline;overflow:visible;enable-background:accumulate;font-family:Sans;-inkscape-font-specification:Sans"
         d="m 298.6875,309.03125 0,21.625 c -2.35275,-0.15152 -4.64108,-0.94637 -6.625,-2.40625 l 6.625,18.0625 0,0.0937 0.0312,0 0.84375,2.28125 7.53125,-20.4375 c -2.02234,1.45147 -4.36195,2.25066 -6.71875,2.40625 l 0,-21.625 -1.6875,0 z"
         id="path6743-4"
         inkscape:connector-curvature="0" />
    </g>
    <path
       transform="matrix(0.89709205,0,0,0.89709205,286.12205,-55.562484)"
       style="fill:#ffffff;fill-opacity:1;stroke:#000000;stroke-width:1.39339101;stroke-miterlimit:4;stroke-dashoffset:0;stroke-opacity:1;stroke-dasharray:none"
       d="m 184.85792,362.93307 c 0,10.8789 -8.81909,19.69798 -19.69798,19.69798 -10.87889,0 -19.69797,-8.81908 -19.69797,-19.69798 0,-10.87889 8.81908,-19.69797 19.69797,-19.69797 10.87889,0 19.69798,8.81908 19.69798,19.69797 z"
       id="path6733-5" />
    <g
       id="g5935"
       style="fill:#ffffff;stroke:#000000;stroke-opacity:1;stroke-width:1.25;stroke-miterlimit:4;stroke-dasharray:none">
      <path
         style="font-size:medium;font-style:normal;font-variant:normal;font-weight:normal;font-stretch:normal;text-indent:0;text-align:start;text-decoration:none;line-height:normal;letter-spacing:normal;word-spacing:normal;text-transform:none;direction:ltr;block-progression:tb;writing-mode:lr-tb;text-anchor:start;baseline-shift:baseline;color:#000000;fill:#ffffff;fill-opacity:1;stroke:#000000;stroke-width:1.25;marker:none;visibility:visible;display:inline;overflow:visible;enable-background:accumulate;font-family:Sans;-inkscape-font-specification:Sans;stroke-opacity:1;stroke-miterlimit:4;stroke-dasharray:none"
         d="M 433.5625 211.9375 L 432.75 214.1875 L 426.0625 232.375 C 428.07715 230.92905 430.40235 230.12867 432.75 229.96875 L 432.75 251.5625 L 434.46875 251.5625 L 434.46875 229.96875 C 436.81087 230.12527 439.11849 230.92149 441.09375 232.375 L 434.46875 214.40625 L 434.46875 214.1875 L 434.40625 214.1875 L 433.5625 211.9375 z "
         id="path6741-5" />
    </g>
    <g
       id="g5943"
       style="fill:#ffffff;stroke:#000000;stroke-opacity:1;stroke-width:1.25;stroke-miterlimit:4;stroke-dasharray:none">
      <path
         style="font-size:medium;font-style:normal;font-variant:normal;font-weight:normal;font-stretch:normal;text-indent:0;text-align:start;text-decoration:none;line-height:normal;letter-spacing:normal;word-spacing:normal;text-transform:none;direction:ltr;block-progression:tb;writing-mode:lr-tb;text-anchor:start;baseline-shift:baseline;color:#000000;fill:#ffffff;fill-opacity:1;stroke:#000000;stroke-width:1.25;marker:none;visibility:visible;display:inline;overflow:visible;enable-background:accumulate;font-family:Sans;-inkscape-font-specification:Sans;stroke-opacity:1;stroke-miterlimit:4;stroke-dasharray:none"
         d="M 432.75 287.4375 L 432.75 309.03125 C 430.40651 308.87537 428.10138 308.07933 426.125 306.625 L 432.75 324.6875 L 432.75 324.8125 L 432.8125 324.8125 L 433.625 327.0625 L 434.46875 324.8125 L 434.46875 324.78125 L 441.15625 306.625 C 439.14274 308.07013 436.81505 308.87069 434.46875 309.03125 L 434.46875 287.4375 L 432.75 287.4375 z "
         id="path6743-1" />
    </g>
    <path
       transform="matrix(0.89709205,0,0,0.89709205,653.2613,-48.610361)"
       style="fill:#ffffff;fill-opacity:1;stroke:#000000;stroke-width:1.39339101;stroke-miterlimit:4;stroke-dashoffset:0;stroke-opacity:1;stroke-dasharray:none"
       d="m 184.85792,362.93307 c 0,10.8789 -8.81909,19.69798 -19.69798,19.69798 -10.87889,0 -19.69797,-8.81908 -19.69797,-19.69798 0,-10.87889 8.81908,-19.69797 19.69797,-19.69797 10.87889,0 19.69798,8.81908 19.69798,19.69797 z"
       id="path6733-2" />
    <g
       id="g5907"
       style="fill:#ffffff;stroke:#000000;stroke-opacity:1;stroke-width:1.25;stroke-miterlimit:4;stroke-dasharray:none">
      <path
         style="font-size:medium;font-style:normal;font-variant:normal;font-weight:normal;font-stretch:normal;text-indent:0;text-align:start;text-decoration:none;line-height:normal;letter-spacing:normal;word-spacing:normal;text-transform:none;direction:ltr;block-progression:tb;writing-mode:lr-tb;text-anchor:start;baseline-shift:baseline;color:#000000;fill:#ffffff;fill-opacity:1;stroke:#000000;stroke-width:1.25;marker:none;visibility:visible;display:inline;overflow:visible;enable-background:accumulate;font-family:Sans;-inkscape-font-specification:Sans;stroke-opacity:1;stroke-miterlimit:4;stroke-dasharray:none"
         d="M 800.71875 218.90625 L 799.90625 221.15625 L 793.1875 239.3125 C 795.20971 237.86113 797.5496 237.09316 799.90625 236.9375 L 799.90625 258.53125 L 801.59375 258.53125 L 801.59375 236.90625 C 803.9465 237.05777 806.23483 237.85262 808.21875 239.3125 L 801.59375 221.28125 L 801.59375 221.15625 L 801.53125 221.15625 L 800.71875 218.90625 z "
         id="path6741-7" />
    </g>
    <g
       id="g5891"
       style="fill:#ffffff;stroke:#000000;stroke-opacity:1;stroke-width:1.25;stroke-miterlimit:4;stroke-dasharray:none">
      <path
         style="font-size:medium;font-style:normal;font-variant:normal;font-weight:normal;font-stretch:normal;text-indent:0;text-align:start;text-decoration:none;line-height:normal;letter-spacing:normal;word-spacing:normal;text-transform:none;direction:ltr;block-progression:tb;writing-mode:lr-tb;text-anchor:start;baseline-shift:baseline;color:#000000;fill:#ffffff;fill-opacity:1;stroke:#000000;stroke-width:1.25;marker:none;visibility:visible;display:inline;overflow:visible;enable-background:accumulate;font-family:Sans;-inkscape-font-specification:Sans;stroke-opacity:1;stroke-miterlimit:4;stroke-dasharray:none"
         d="M 799.90625 294.375 L 799.90625 316 C 797.5535 315.84848 795.23392 315.05363 793.25 313.59375 L 799.90625 331.65625 L 799.90625 331.75 L 799.9375 331.75 L 800.78125 334.03125 L 808.28125 313.59375 C 806.2666 315.0397 803.9414 315.84008 801.59375 316 L 801.59375 294.375 L 799.90625 294.375 z "
         id="path6743-6" />
    </g>
    <g
       style="font-size:16.70097923000000200px;font-style:normal;font-variant:normal;font-weight:normal;font-stretch:normal;line-height:125%;letter-spacing:0px;word-spacing:0px;fill:#ffffff;fill-opacity:1;stroke:#000000;font-family:Hanzel Extended;-inkscape-font-specification:Hanzel Extended;stroke-opacity:1;stroke-width:1.25;stroke-miterlimit:4;stroke-dasharray:none"
       id="text5829">
      <path
         d="m 824.7869,460.67886 -5.63495,0 0,-2.04685 15.11895,0 0,2.04685 -5.68387,0 0,9.68787 -3.80013,0 z"
         style="stroke:#000000;stroke-opacity:1;stroke-width:1.25;stroke-miterlimit:4;stroke-dasharray:none"
         id="path6041" />
      <path
         d="m 839.71829,458.60754 0,4.7787 6.744,0 0,-4.7787 3.6615,0 0,11.75919 -3.6615,0 0,-4.90917 -6.744,0 0,4.90917 -3.66149,0 0,-11.75919 z"
         style="stroke:#000000;stroke-opacity:1;stroke-width:1.25;stroke-miterlimit:4;stroke-dasharray:none"
         id="path6043" />
      <path
         d="m 861.90744,460.71963 -4.50959,0 0,2.95203 4.50959,0 c 1.19602,1e-5 2.04411,-0.11144 2.54429,-0.33435 0.47296,-0.25007 0.70945,-0.63606 0.70946,-1.15797 -1e-5,-0.53277 -0.23378,-0.91061 -0.70131,-1.13352 -0.47842,-0.21745 -1.32924,-0.32618 -2.55244,-0.32619 z m -8.17109,-2.11209 9.0518,0 c 2.09305,2e-5 3.63022,0.28951 4.61153,0.86849 0.98127,0.579 1.47192,1.46923 1.47193,2.67069 -1e-5,0.88072 -0.30174,1.60921 -0.90518,2.18548 -0.59803,0.58171 -1.47059,0.95683 -2.61768,1.12536 l 4.35465,4.90917 -4.14262,0 -3.82459,-4.60745 -4.33834,0 0,4.60745 -3.6615,0 z"
         style="stroke:#000000;stroke-opacity:1;stroke-width:1.25;stroke-miterlimit:4;stroke-dasharray:none"
         id="path6045" />
      <path
         d="m 875.56669,458.60754 0,7.04573 c -10e-6,1.08187 0.29356,1.84026 0.88071,2.27518 0.59257,0.4458 1.60648,0.6687 3.04173,0.66869 1.43523,10e-6 2.45458,-0.21746 3.05804,-0.65238 0.58713,-0.42404 0.88071,-1.18787 0.88072,-2.29149 l 0,-7.04573 3.66149,0 0,7.11097 c -10e-6,0.41318 -0.0218,0.78286 -0.0652,1.10905 -0.0435,0.32076 -0.10331,0.61433 -0.1794,0.88071 -0.16311,0.51104 -0.42678,0.89975 -0.79101,1.16614 -0.65784,0.53821 -1.52224,0.94051 -2.59322,1.2069 -1.07644,0.27726 -2.40024,0.4159 -3.97138,0.4159 -1.54941,0 -2.85282,-0.12776 -3.91021,-0.38328 -1.05741,-0.25551 -1.94764,-0.66869 -2.67069,-1.23952 -0.33163,-0.28814 -0.58171,-0.66598 -0.75024,-1.13352 -0.15766,-0.50015 -0.23649,-1.17428 -0.23649,-2.02238 l 0,-7.11097 z"
         style="stroke:#000000;stroke-opacity:1;stroke-width:1.25;stroke-miterlimit:4;stroke-dasharray:none"
         id="path6047" />
      <path
         d="m 905.42947,460.71963 -9.06811,0 c -0.98945,1e-5 -1.70707,0.11418 -2.15286,0.3425 -0.45667,0.24465 -0.685,0.6388 -0.685,1.18244 0,0.41319 0.19299,0.73122 0.57899,0.95411 0.42404,0.21203 0.9976,0.31805 1.72066,0.31804 l 4.86024,0 c 2.01694,10e-6 3.4481,0.25552 4.29349,0.76655 0.84536,0.51104 1.26805,1.37 1.26807,2.57691 -2e-5,1.21234 -0.48387,2.09578 -1.45155,2.6503 -0.96771,0.57083 -2.50896,0.85625 -4.62376,0.85625 l -9.77757,0 0,-2.08762 9.18228,0 c 1.0601,0 1.79403,-0.10601 2.20178,-0.31804 0.43491,-0.20115 0.65237,-0.54093 0.65239,-1.01935 -2e-5,-0.46753 -0.19573,-0.81819 -0.58715,-1.05196 -0.40231,-0.20115 -1.071,-0.30172 -2.00607,-0.30173 l -4.33019,0 c -2.00064,10e-6 -3.47937,-0.26638 -4.4362,-0.79917 -0.91877,-0.55995 -1.37815,-1.41892 -1.37815,-2.57691 0,-1.23408 0.492,-2.14741 1.47601,-2.74 0.97857,-0.57626 2.52526,-0.86439 4.64007,-0.86441 l 9.62263,0 z"
         style="stroke:#000000;stroke-opacity:1;stroke-width:1.25;stroke-miterlimit:4;stroke-dasharray:none"
         id="path6049" />
      <path
         d="m 912.79323,460.67886 -5.63495,0 0,-2.04685 15.11896,0 0,2.04685 -5.68388,0 0,9.68787 -3.80013,0 z"
         style="stroke:#000000;stroke-opacity:1;stroke-width:1.25;stroke-miterlimit:4;stroke-dasharray:none"
         id="path6051" />
      <path
         d="m 829.15786,481.59585 -4.50959,0 0,2.95203 4.50959,0 c 1.19602,10e-6 2.04412,-0.11144 2.54429,-0.33434 0.47296,-0.25007 0.70945,-0.63607 0.70947,-1.15798 -2e-5,-0.53277 -0.23379,-0.91061 -0.70132,-1.13351 -0.47842,-0.21746 -1.32923,-0.32619 -2.55244,-0.3262 z m -8.17108,-2.11208 9.0518,0 c 2.09304,1e-5 3.63022,0.2895 4.61152,0.86848 0.98128,0.579 1.47192,1.46923 1.47194,2.67069 -2e-5,0.88072 -0.30175,1.60922 -0.90518,2.18548 -0.59803,0.58171 -1.47059,0.95683 -2.61768,1.12536 l 4.35465,4.90917 -4.14263,0 -3.82459,-4.60744 -4.33834,0 0,4.60744 -3.66149,0 z"
         style="stroke:#000000;stroke-opacity:1;stroke-width:1.25;stroke-miterlimit:4;stroke-dasharray:none"
         id="path6053" />
      <path
         d="m 846.42152,481.53877 c -1.31565,10e-6 -2.31189,0.22291 -2.98873,0.66869 -0.67685,0.44581 -1.06148,1.13081 -1.1539,2.05501 l 10.16901,0.0163 0,2.03869 -10.18532,0 c 0,1.03294 0.32347,1.76687 0.97042,2.20179 0.63607,0.4458 1.69891,0.66869 3.18852,0.66869 l 6.02638,0 0,2.055 -6.20579,0 c -0.7285,0 -1.34282,-0.0163 -1.84297,-0.0489 -0.50017,-0.0381 -0.96227,-0.10058 -1.38632,-0.18756 -0.75568,-0.14679 -1.48961,-0.41318 -2.20179,-0.79917 -0.88071,-0.46754 -1.55076,-1.09138 -2.01015,-1.87152 -0.45938,-0.78014 -0.68908,-1.70027 -0.68908,-2.76039 0,-2.055 0.67005,-3.58402 2.01016,-4.58707 1.34009,-1.00302 3.41276,-1.50454 6.21801,-1.50455 l 6.10793,0 0,2.055 z"
         style="stroke:#000000;stroke-opacity:1;stroke-width:1.25;stroke-miterlimit:4;stroke-dasharray:none"
         id="path6055" />
      <path
         d="m 860.64345,491.24295 -7.60841,-11.75918 4.1834,0 5.22721,8.76638 5.39847,-8.76638 3.90613,0 -7.29852,11.75918 z"
         style="stroke:#000000;stroke-opacity:1;stroke-width:1.25;stroke-miterlimit:4;stroke-dasharray:none"
         id="path6057" />
      <path
         d="m 879.8561,481.53877 c -1.31565,10e-6 -2.31189,0.22291 -2.98873,0.66869 -0.67685,0.44581 -1.06148,1.13081 -1.1539,2.05501 l 10.16901,0.0163 0,2.03869 -10.18532,0 c 0,1.03294 0.32347,1.76687 0.97042,2.20179 0.63607,0.4458 1.6989,0.66869 3.18852,0.66869 l 6.02638,0 0,2.055 -6.20579,0 c -0.7285,0 -1.34282,-0.0163 -1.84298,-0.0489 -0.50016,-0.0381 -0.96227,-0.10058 -1.38631,-0.18756 -0.75568,-0.14679 -1.48961,-0.41318 -2.20179,-0.79917 -0.88072,-0.46754 -1.55077,-1.09138 -2.01015,-1.87152 -0.45939,-0.78014 -0.68908,-1.70027 -0.68908,-2.76039 0,-2.055 0.67005,-3.58402 2.01015,-4.58707 1.3401,-1.00302 3.41277,-1.50454 6.21802,-1.50455 l 6.10793,0 0,2.055 z"
         style="stroke:#000000;stroke-opacity:1;stroke-width:1.25;stroke-miterlimit:4;stroke-dasharray:none"
         id="path6059" />
      <path
         d="m 897.23393,481.59585 -4.5096,0 0,2.95203 4.5096,0 c 1.19602,10e-6 2.04411,-0.11144 2.54429,-0.33434 0.47296,-0.25007 0.70945,-0.63607 0.70946,-1.15798 -10e-6,-0.53277 -0.23378,-0.91061 -0.70131,-1.13351 -0.47843,-0.21746 -1.32924,-0.32619 -2.55244,-0.3262 z m -8.17109,-2.11208 9.0518,0 c 2.09305,1e-5 3.63022,0.2895 4.61153,0.86848 0.98127,0.579 1.47192,1.46923 1.47193,2.67069 -10e-6,0.88072 -0.30174,1.60922 -0.90518,2.18548 -0.59803,0.58171 -1.47059,0.95683 -2.61768,1.12536 l 4.35465,4.90917 -4.14263,0 -3.82459,-4.60744 -4.33834,0 0,4.60744 -3.66149,0 z"
         style="stroke:#000000;stroke-opacity:1;stroke-width:1.25;stroke-miterlimit:4;stroke-dasharray:none"
         id="path6061" />
      <path
         d="m 922.06522,481.59585 -9.06811,0 c -0.98946,1e-5 -1.70708,0.11418 -2.15286,0.34251 -0.45668,0.24465 -0.68501,0.63879 -0.68501,1.18244 0,0.41318 0.193,0.73122 0.57899,0.95411 0.42405,0.21203 0.9976,0.31804 1.72066,0.31803 l 4.86025,0 c 2.01693,10e-6 3.44809,0.25553 4.29349,0.76655 0.84536,0.51104 1.26805,1.37001 1.26806,2.57691 -10e-6,1.21235 -0.48386,2.09578 -1.45155,2.6503 -0.96771,0.57084 -2.50896,0.85625 -4.62375,0.85625 l -9.77758,0 0,-2.08762 9.18228,0 c 1.06011,0 1.79404,-0.10601 2.20179,-0.31803 0.4349,-0.20115 0.65236,-0.54094 0.65238,-1.01935 -2e-5,-0.46754 -0.19573,-0.81819 -0.58715,-1.05197 -0.40231,-0.20114 -1.071,-0.30172 -2.00607,-0.30172 l -4.33019,0 c -2.00064,0 -3.47937,-0.26639 -4.43619,-0.79917 -0.91878,-0.55996 -1.37816,-1.41893 -1.37816,-2.57691 0,-1.23408 0.492,-2.14742 1.47601,-2.74001 0.97857,-0.57625 2.52526,-0.86439 4.64007,-0.8644 l 9.62264,0 z"
         style="stroke:#000000;stroke-opacity:1;stroke-width:1.25;stroke-miterlimit:4;stroke-dasharray:none"
         id="path6063" />
      <path
         d="m 932.82952,481.53877 c -1.31565,10e-6 -2.31189,0.22291 -2.98873,0.66869 -0.67685,0.44581 -1.06148,1.13081 -1.1539,2.05501 l 10.16901,0.0163 0,2.03869 -10.18532,0 c 0,1.03294 0.32347,1.76687 0.97042,2.20179 0.63607,0.4458 1.6989,0.66869 3.18852,0.66869 l 6.02638,0 0,2.055 -6.20579,0 c -0.7285,0 -1.34283,-0.0163 -1.84298,-0.0489 -0.50016,-0.0381 -0.96227,-0.10058 -1.38631,-0.18756 -0.75568,-0.14679 -1.48961,-0.41318 -2.20179,-0.79917 -0.88072,-0.46754 -1.55077,-1.09138 -2.01015,-1.87152 -0.45939,-0.78014 -0.68908,-1.70027 -0.68908,-2.76039 0,-2.055 0.67005,-3.58402 2.01015,-4.58707 1.3401,-1.00302 3.41277,-1.50454 6.21802,-1.50455 l 6.10793,0 0,2.055 z"
         style="stroke:#000000;stroke-opacity:1;stroke-width:1.25;stroke-miterlimit:4;stroke-dasharray:none"
         id="path6065" />
    </g>
    <g
       transform="matrix(0.41345112,0,0,0.41345112,536.62491,276.14754)"
       style="font-size:40px;font-style:normal;font-variant:normal;font-weight:normal;font-stretch:normal;line-height:125%;letter-spacing:0px;word-spacing:0px;fill:#ffffff;fill-opacity:1;stroke:#000000;font-family:Hanzel Extended;-inkscape-font-specification:Hanzel Extended;stroke-opacity:1;stroke-width:3.023332;stroke-miterlimit:4;stroke-dasharray:none"
       id="flowRoot5833">
      <path
         d="m 570.35937,328.12111 c 0,-4.83071 1.70573,-8.43097 5.11719,-10.80078 3.42447,-2.35674 8.67837,-3.53513 15.76172,-3.53516 7.07028,3e-5 12.31116,1.20446 15.72266,3.61328 3.38537,2.39586 5.07808,6.06122 5.07812,10.9961 -4e-5,4.96094 -1.70577,8.63933 -5.11719,11.03515 -3.41149,2.42188 -8.63935,3.63282 -15.68359,3.63282 -7.22658,0 -12.50652,-1.21094 -15.83984,-3.63282 -3.35938,-2.39582 -5.03907,-6.16535 -5.03907,-11.30859 z m 20.87891,-9.53125 c -3.72398,2e-5 -6.56251,0.78778 -8.51562,2.36328 -1.83595,1.62763 -2.75392,4.02997 -2.75391,7.20703 -10e-6,3.46356 0.90494,5.99611 2.71484,7.59766 1.78384,1.62761 4.6354,2.44141 8.55469,2.44141 1.9531,0 3.61977,-0.20182 5,-0.60547 1.36716,-0.3776 2.51299,-0.97656 3.4375,-1.79688 1.88799,-1.60155 2.832,-4.069 2.83203,-7.40234 -3e-5,-3.33332 -0.918,-5.80076 -2.7539,-7.40235 -1.86201,-1.60154 -4.70055,-2.40232 -8.51563,-2.40234 z"
         style="stroke:#000000;stroke-opacity:1;stroke-width:3.023332;stroke-miterlimit:4;stroke-dasharray:none"
         id="path6029" />
      <path
         d="m 617.76172,329.54689 c -10e-6,-3.6979 0.319,-6.33461 0.95703,-7.91015 0.58593,-1.67967 1.67968,-3.05337 3.28125,-4.1211 0.80728,-0.50779 1.7578,-0.97653 2.85156,-1.40625 1.0677,-0.40362 2.23957,-0.73565 3.51563,-0.99609 2.72133,-0.53383 6.02862,-0.80075 9.92187,-0.80078 l 13.35938,0 0,4.92187 -14.08203,0 c -3.76304,3e-5 -6.53648,0.5469 -8.32032,1.64063 -1.80991,1.09377 -2.71485,2.83205 -2.71484,5.21484 l 25.11719,0 0,4.86328 -25.11719,0 0,11.52344 -8.76953,0 z"
         style="stroke:#000000;stroke-opacity:1;stroke-width:3.023332;stroke-miterlimit:4;stroke-dasharray:none"
         id="path6031" />
      <path
         d="m 657.29297,329.54689 c -10e-6,-3.6979 0.319,-6.33461 0.95703,-7.91015 0.58593,-1.67967 1.67968,-3.05337 3.28125,-4.1211 0.80728,-0.50779 1.7578,-0.97653 2.85156,-1.40625 1.0677,-0.40362 2.23957,-0.73565 3.51563,-0.99609 2.72133,-0.53383 6.02862,-0.80075 9.92187,-0.80078 l 13.35938,0 0,4.92187 -14.08203,0 c -3.76304,3e-5 -6.53648,0.5469 -8.32032,1.64063 -1.80991,1.09377 -2.71485,2.83205 -2.71484,5.21484 l 25.11719,0 0,4.86328 -25.11719,0 0,11.52344 -8.76953,0 z"
         style="stroke:#000000;stroke-opacity:1;stroke-width:3.023332;stroke-miterlimit:4;stroke-dasharray:none"
         id="path6033" />
    </g>
    <g
       transform="matrix(0.41345112,0,0,0.41345112,542.63506,405.27375)"
       style="font-size:40px;font-style:normal;font-variant:normal;font-weight:normal;font-stretch:normal;line-height:125%;letter-spacing:0px;word-spacing:0px;fill:#ffffff;fill-opacity:1;stroke:#000000;font-family:Hanzel Extended;-inkscape-font-specification:Hanzel Extended;stroke-opacity:1;stroke-width:3.023332;stroke-miterlimit:4;stroke-dasharray:none"
       id="flowRoot5841">
      <path
         d="m 570.35937,328.12111 c 0,-4.83071 1.70573,-8.43097 5.11719,-10.80078 3.42447,-2.35674 8.67837,-3.53513 15.76172,-3.53516 7.07028,3e-5 12.31116,1.20446 15.72266,3.61328 3.38537,2.39586 5.07808,6.06122 5.07812,10.9961 -4e-5,4.96094 -1.70577,8.63933 -5.11719,11.03515 -3.41149,2.42188 -8.63935,3.63282 -15.68359,3.63282 -7.22658,0 -12.50652,-1.21094 -15.83984,-3.63282 -3.35938,-2.39582 -5.03907,-6.16535 -5.03907,-11.30859 z m 20.87891,-9.53125 c -3.72398,2e-5 -6.56251,0.78778 -8.51562,2.36328 -1.83595,1.62763 -2.75392,4.02997 -2.75391,7.20703 -10e-6,3.46356 0.90494,5.99611 2.71484,7.59766 1.78384,1.62761 4.6354,2.44141 8.55469,2.44141 1.9531,0 3.61977,-0.20182 5,-0.60547 1.36716,-0.3776 2.51299,-0.97656 3.4375,-1.79688 1.88799,-1.60155 2.832,-4.069 2.83203,-7.40234 -3e-5,-3.33332 -0.918,-5.80076 -2.7539,-7.40235 -1.86201,-1.60154 -4.70055,-2.40232 -8.51563,-2.40234 z"
         style="stroke:#000000;stroke-opacity:1;stroke-width:3.023332;stroke-miterlimit:4;stroke-dasharray:none"
         id="path6036" />
      <path
         d="m 618.03516,314.31252 11.13281,0 17.08984,20.23437 -0.41015,-20.23437 9.0039,0 0,28.16406 -10.19531,0 -18.00781,-21.28906 0.39062,21.28906 -9.0039,0 z"
         style="stroke:#000000;stroke-opacity:1;stroke-width:3.023332;stroke-miterlimit:4;stroke-dasharray:none"
         id="path6038" />
    </g>
    <path
       transform="matrix(0.89709205,0,0,0.89709205,650.23084,150.38969)"
       style="fill:#ffffff;fill-opacity:1;stroke:#000000;stroke-width:1.39339101;stroke-miterlimit:4;stroke-dashoffset:0;stroke-opacity:1;stroke-dasharray:none"
       d="m 184.85792,362.93307 c 0,10.8789 -8.81909,19.69798 -19.69798,19.69798 -10.87889,0 -19.69797,-8.81908 -19.69797,-19.69798 0,-10.87889 8.81908,-19.69797 19.69797,-19.69797 10.87889,0 19.69798,8.81908 19.69798,19.69797 z"
       id="path5849" />
    <g
       id="g5899"
       style="fill:#ffffff;stroke:#000000;stroke-opacity:1;stroke-width:1.25;stroke-miterlimit:4;stroke-dasharray:none">
      <path
         style="font-size:medium;font-style:normal;font-variant:normal;font-weight:normal;font-stretch:normal;text-indent:0;text-align:start;text-decoration:none;line-height:normal;letter-spacing:normal;word-spacing:normal;text-transform:none;direction:ltr;block-progression:tb;writing-mode:lr-tb;text-anchor:start;baseline-shift:baseline;color:#000000;fill:#ffffff;fill-opacity:1;stroke:#000000;stroke-width:1.25;marker:none;visibility:visible;display:inline;overflow:visible;enable-background:accumulate;font-family:Sans;-inkscape-font-specification:Sans;stroke-opacity:1;stroke-miterlimit:4;stroke-dasharray:none"
         d="M 797.6875 417.90625 L 796.875 420.15625 L 790.15625 438.3125 C 792.17846 436.86113 794.51835 436.09316 796.875 435.9375 L 796.875 457.53125 L 798.5625 457.53125 L 798.5625 435.90625 C 800.91525 436.05777 803.20358 436.85262 805.1875 438.3125 L 798.5625 420.28125 L 798.5625 420.15625 L 798.5 420.15625 L 797.6875 417.90625 z "
         id="path5851" />
    </g>
    <g
       id="g5964"
       style="fill:#ffffff;stroke:#000000;stroke-opacity:1;stroke-width:1.25;stroke-miterlimit:4;stroke-dasharray:none">
      <path
         style="font-size:medium;font-style:normal;font-variant:normal;font-weight:normal;font-stretch:normal;text-indent:0;text-align:start;text-decoration:none;line-height:normal;letter-spacing:normal;word-spacing:normal;text-transform:none;direction:ltr;block-progression:tb;writing-mode:lr-tb;text-anchor:start;baseline-shift:baseline;color:#000000;fill:#ffffff;fill-opacity:1;fill-rule:nonzero;stroke:#000000;stroke-width:1.25;marker:none;visibility:visible;display:inline;overflow:visible;enable-background:accumulate;font-family:Sans;-inkscape-font-specification:Sans;stroke-opacity:1;stroke-miterlimit:4;stroke-dasharray:none"
         d="M 796.875 493.375 L 796.875 515 C 794.52225 514.84848 792.20267 514.05363 790.21875 512.59375 L 796.875 530.65625 L 796.875 530.75 L 796.90625 530.75 L 797.75 533.03125 L 805.25 512.59375 C 803.23535 514.0397 800.91015 514.84008 798.5625 515 L 798.5625 493.375 L 796.875 493.375 z "
         id="path5853" />
    </g>
    <g
       transform="matrix(0.31447567,0,0,0.31447567,381.98748,237.5115)"
       style="font-size:40px;font-style:normal;font-variant:normal;font-weight:normal;font-stretch:normal;line-height:125%;letter-spacing:0px;word-spacing:0px;fill:none;fill-opacity:1;stroke:#000000;font-family:Hanzel Extended;-inkscape-font-specification:Hanzel Extended;stroke-opacity:1;stroke-width:3.97487030000000010;stroke-miterlimit:4;stroke-dasharray:none"
       id="flowRoot5972">
      <path
         d="m 589.59766,342.47658 c -3.91929,0 -6.80991,-0.22786 -8.67188,-0.68359 -1.90105,-0.42969 -3.58074,-1.19141 -5.03906,-2.28516 -1.36719,-0.92448 -2.34376,-2.0052 -2.92969,-3.24219 -0.61198,-1.22395 -0.91797,-2.95572 -0.91797,-5.19531 l 0,-16.75781 8.8086,0 0,16.5625 c -2e-5,1.70574 0.11717,2.87761 0.35156,3.51562 0.24738,0.66407 0.57941,1.17188 0.99609,1.52344 0.42968,0.35157 0.92447,0.64454 1.48438,0.87891 0.53384,0.23438 1.09373,0.4362 1.67968,0.60546 1.34113,0.27345 3.02082,0.41017 5.03907,0.41016 l 10.33203,0 0,4.66797 z"
         style="stroke:#000000;stroke-opacity:1;stroke-width:3.97487030000000010;stroke-miterlimit:4;stroke-dasharray:none;fill:none"
         id="path6012" />
      <path
         d="m 614.22656,314.31252 0,11.44531 16.15235,0 0,-11.44531 8.76953,0 0,28.16406 -8.76953,0 0,-11.75781 -16.15235,0 0,11.75781 -8.76953,0 0,-28.16406 z"
         style="stroke:#000000;stroke-opacity:1;stroke-width:3.97487030000000010;stroke-miterlimit:4;stroke-dasharray:none;fill:none"
         id="path6014" />
      <path
         d="m 683.17187,319.37111 -21.71875,0 c -2.3698,2e-5 -4.08855,0.27346 -5.15625,0.82031 -1.09376,0.58596 -1.64063,1.52997 -1.64062,2.83203 -10e-6,0.98961 0.46223,1.75132 1.38672,2.28516 1.01561,0.50783 2.38931,0.76174 4.12109,0.76172 l 11.64063,0 c 4.83069,2e-5 8.25842,0.61199 10.2832,1.83594 2.0247,1.22397 3.03707,3.28126 3.03711,6.17187 -4e-5,2.90365 -1.15889,5.01954 -3.47656,6.34766 -2.31775,1.36719 -6.00915,2.05078 -11.07422,2.05078 l -23.41797,0 0,-5 21.99219,0 c 2.53903,0 4.29684,-0.2539 5.27343,-0.76172 1.04164,-0.48176 1.56247,-1.29557 1.5625,-2.44141 -3e-5,-1.11978 -0.46878,-1.95962 -1.40625,-2.51953 -0.96357,-0.48176 -2.56513,-0.72264 -4.80468,-0.72265 l -10.3711,0 c -4.79167,10e-6 -8.33334,-0.63801 -10.625,-1.91407 -2.20052,-1.34113 -3.30078,-3.39842 -3.30078,-6.17187 0,-2.95571 1.17838,-5.14321 3.53516,-6.5625 2.34374,-1.38018 6.04816,-2.07028 11.11328,-2.07031 l 23.04687,0 z"
         style="stroke:#000000;stroke-opacity:1;stroke-width:3.97487030000000010;stroke-miterlimit:4;stroke-dasharray:none;fill:none"
         id="path6016" />
      <path
         d="m 700.47656,319.41017 0,6.46485 12.92969,0 c 1.06768,10e-6 1.94659,-0.0521 2.63672,-0.15625 0.66403,-0.11717 1.22393,-0.319 1.67969,-0.60547 0.95049,-0.53384 1.42575,-1.36066 1.42578,-2.48047 -3e-5,-1.09373 -0.47529,-1.92055 -1.42578,-2.48047 -0.96357,-0.49477 -2.40889,-0.74216 -4.33594,-0.74219 z m 13.04688,18.06641 c 1.97914,0 3.41794,-0.2539 4.3164,-0.76172 0.89841,-0.50781 1.34763,-1.34765 1.34766,-2.51953 -3e-5,-1.14582 -0.44925,-1.98567 -1.34766,-2.51953 -0.93753,-0.53384 -2.37633,-0.80077 -4.3164,-0.80078 l -13.04688,0 0,6.60156 z m 1.1914,5 -23.00781,0 0,-28.16406 21.48438,0 c 1.36716,3e-5 2.56833,0.0261 3.60351,0.0781 1.03513,0.0521 2.03448,0.13024 2.99805,0.23438 1.75778,0.22138 3.11845,0.55992 4.08203,1.01562 1.5234,0.61201 2.69853,1.44208 3.52539,2.49024 0.82678,1.0482 1.24019,2.22984 1.24023,3.54492 -4e-5,1.57554 -0.50785,2.89715 -1.52343,3.96484 -1.01567,1.09377 -2.59119,2.01174 -4.72657,2.75391 2.18747,0.63803 3.78903,1.46485 4.80469,2.48047 0.98955,1.01563 1.48434,2.32422 1.48438,3.92578 -4e-5,2.63021 -1.13286,4.55729 -3.39844,5.78125 -2.2917,1.26302 -5.81383,1.89453 -10.56641,1.89453 z"
         style="stroke:#000000;stroke-opacity:1;stroke-width:3.97487030000000010;stroke-miterlimit:4;stroke-dasharray:none;fill:none"
         id="path6018" />
      <path
         d="m 732.72266,329.44924 19.57031,0 0,4.86328 -19.57031,0 z"
         style="stroke:#000000;stroke-opacity:1;stroke-width:3.97487030000000010;stroke-miterlimit:4;stroke-dasharray:none;fill:none"
         id="path6020" />
      <path
         d="m 776.31641,342.8672 c -7.05731,0 -12.29819,-1.17187 -15.72266,-3.51562 -3.45052,-2.34375 -5.17578,-5.98306 -5.17578,-10.91797 0,-4.88279 1.71224,-8.50909 5.13672,-10.87891 3.3854,-2.36976 8.63931,-3.55465 15.76172,-3.55468 7.12236,3e-5 12.38928,1.18492 15.80078,3.55468 3.38537,2.36982 5.07808,5.99612 5.07812,10.87891 -4e-5,4.85678 -1.70577,8.47006 -5.11719,10.83984 -3.41149,2.39584 -8.66539,3.59375 -15.76171,3.59375 z m 0,-4.66796 c 3.94528,0 6.86846,-0.80078 8.76953,-2.40235 1.84892,-1.60155 2.7734,-4.05598 2.77343,-7.36328 -3e-5,-3.3854 -0.93753,-5.86586 -2.8125,-7.44141 -1.90107,-1.57549 -4.81122,-2.36325 -8.73046,-2.36328 -3.99742,3e-5 -6.9271,0.78779 -8.78907,2.36328 -1.87501,1.60159 -2.81251,4.08205 -2.8125,7.44141 -10e-6,3.35939 0.95051,5.82683 2.85157,7.40234 1.86196,1.57553 4.77862,2.36329 8.75,2.36329 z"
         style="stroke:#000000;stroke-opacity:1;stroke-width:3.97487030000000010;stroke-miterlimit:4;stroke-dasharray:none;fill:none"
         id="path6022" />
      <path
         d="m 821.31641,342.8672 c -7.05731,0 -12.29819,-1.17187 -15.72266,-3.51562 -3.45052,-2.34375 -5.17578,-5.98306 -5.17578,-10.91797 0,-4.88279 1.71224,-8.50909 5.13672,-10.87891 3.3854,-2.36976 8.63931,-3.55465 15.76172,-3.55468 7.12236,3e-5 12.38928,1.18492 15.80078,3.55468 3.38537,2.36982 5.07808,5.99612 5.07812,10.87891 -4e-5,4.85678 -1.70577,8.47006 -5.11719,10.83984 -3.41149,2.39584 -8.66539,3.59375 -15.76171,3.59375 z m 0,-4.66796 c 3.94528,0 6.86846,-0.80078 8.76953,-2.40235 1.84892,-1.60155 2.7734,-4.05598 2.77343,-7.36328 -3e-5,-3.3854 -0.93753,-5.86586 -2.8125,-7.44141 -1.90107,-1.57549 -4.81122,-2.36325 -8.73046,-2.36328 -3.99742,3e-5 -6.9271,0.78779 -8.78907,2.36328 -1.87501,1.60159 -2.81251,4.08205 -2.8125,7.44141 -10e-6,3.35939 0.95051,5.82683 2.85157,7.40234 1.86196,1.57553 4.77862,2.36329 8.75,2.36329 z"
         style="stroke:#000000;stroke-opacity:1;stroke-width:3.97487030000000010;stroke-miterlimit:4;stroke-dasharray:none;fill:none"
         id="path6024" />
      <path
         d="m 846.90234,314.31252 9.21875,0 0,28.16406 -9.21875,0 z"
         style="stroke:#000000;stroke-opacity:1;stroke-width:3.97487030000000010;stroke-miterlimit:4;stroke-dasharray:none;fill:none"
         id="path6026" />
    </g>
    <path
       style="font-size:medium;font-style:normal;font-variant:normal;font-weight:normal;font-stretch:normal;text-indent:0;text-align:start;text-decoration:none;line-height:normal;letter-spacing:normal;word-spacing:normal;text-transform:none;direction:ltr;block-progression:tb;writing-mode:lr-tb;text-anchor:start;baseline-shift:baseline;color:#000000;fill:none;stroke:#000000;stroke-width:1.25;stroke-miterlimit:4;stroke-opacity:1;stroke-dasharray:none;marker:none;visibility:visible;display:inline;overflow:visible;enable-background:accumulate;font-family:Sans;-inkscape-font-specification:Sans"
       d="m 91.616378,179.46875 -1.21875,1.1875 -87.15625,87.15625 -1.1875,1.21875 0,1.6875 0,262.21875 0,1.6875 1.1875,1.21875 87.15625,87.15625 1.21875,1.1875 1.6875,0 769.133622,0 1.6875,0 1.21875,-1.1875 87.1875,-87.15625 1.1875,-1.21875 0,-1.6875 0,-262.21875 0,-1.6875 -1.1875,-1.21875 -87.1875,-87.15625 -1.21875,-1.1875 -1.6875,0 -769.133622,0 z m 3.40625,8.1875 765.696122,0 84.8125,84.78125 0,258.78125 -84.8125,84.78125 -765.696122,0 -84.78125,-84.78125 0,-258.78125 z"
       id="path5980"
       inkscape:connector-curvature="0"
       sodipodi:nodetypes="cccccccccccccccccccccccccccccccccc" />
  </g>
</svg>
