<?xml version="1.0" encoding="UTF-8" standalone="no"?>
<!-- Created with Inkscape (http://www.inkscape.org/) -->

<svg
   xmlns:dc="http://purl.org/dc/elements/1.1/"
   xmlns:cc="http://creativecommons.org/ns#"
   xmlns:rdf="http://www.w3.org/1999/02/22-rdf-syntax-ns#"
   xmlns:svg="http://www.w3.org/2000/svg"
   xmlns="http://www.w3.org/2000/svg"
   xmlns:sodipodi="http://sodipodi.sourceforge.net/DTD/sodipodi-0.dtd"
   xmlns:inkscape="http://www.inkscape.org/namespaces/inkscape"
   width="744.09448819"
   height="1052.3622047"
   id="svg2"
   version="1.1"
   inkscape:version="0.48.4 r9939"
   sodipodi:docname="panel.svg">
  <defs
     id="defs4">
    <marker
       inkscape:stockid="Arrow2Lend"
       orient="auto"
       refY="0.0"
       refX="0.0"
       id="Arrow2Lend"
       style="overflow:visible;">
      <path
         id="path6124"
         style="fill-rule:evenodd;stroke-width:0.62500000;stroke-linejoin:round;"
         d="M 8.7185878,4.0337352 L -2.2072895,0.016013256 L 8.7185884,-4.0017078 C 6.9730900,-1.6296469 6.9831476,1.6157441 8.7185878,4.0337352 z "
         transform="scale(1.1) rotate(180) translate(1,0)" />
    </marker>
    <marker
       inkscape:stockid="Arrow1Lend"
       orient="auto"
       refY="0.0"
       refX="0.0"
       id="Arrow1Lend"
       style="overflow:visible;">
      <path
         id="path6106"
         d="M 0.0,0.0 L 5.0,-5.0 L -12.5,0.0 L 5.0,5.0 L 0.0,0.0 z "
         style="fill-rule:evenodd;stroke:#000000;stroke-width:1.0pt;"
         transform="scale(0.8) rotate(180) translate(12.5,0)" />
    </marker>
    <marker
       inkscape:stockid="Arrow2Lend"
       orient="auto"
       refY="0"
       refX="0"
       id="Arrow2Lend-1"
       style="overflow:visible">
      <path
         inkscape:connector-curvature="0"
         id="path6124-7"
         style="fill-rule:evenodd;stroke-width:0.625;stroke-linejoin:round"
         d="M 8.7185878,4.0337352 -2.2072895,0.01601326 8.7185884,-4.0017078 c -1.7454984,2.3720609 -1.7354408,5.6174519 -6e-7,8.035443 z"
         transform="matrix(-1.1,0,0,-1.1,-1.1,0)" />
    </marker>
    <marker
       inkscape:stockid="Arrow2Lend"
       orient="auto"
       refY="0"
       refX="0"
       id="marker6811"
       style="overflow:visible">
      <path
         inkscape:connector-curvature="0"
         id="path6813"
         style="fill-rule:evenodd;stroke-width:0.625;stroke-linejoin:round"
         d="M 8.7185878,4.0337352 -2.2072895,0.01601326 8.7185884,-4.0017078 c -1.7454984,2.3720609 -1.7354408,5.6174519 -6e-7,8.035443 z"
         transform="matrix(-1.1,0,0,-1.1,-1.1,0)" />
    </marker>
    <marker
       inkscape:stockid="Arrow2Lend"
       orient="auto"
       refY="0"
       refX="0"
       id="Arrow2Lend-17"
       style="overflow:visible">
      <path
         inkscape:connector-curvature="0"
         id="path6124-4"
         style="fill-rule:evenodd;stroke-width:0.625;stroke-linejoin:round"
         d="M 8.7185878,4.0337352 -2.2072895,0.01601326 8.7185884,-4.0017078 c -1.7454984,2.3720609 -1.7354408,5.6174519 -6e-7,8.035443 z"
         transform="matrix(-1.1,0,0,-1.1,-1.1,0)" />
    </marker>
    <marker
       inkscape:stockid="Arrow2Lend"
       orient="auto"
       refY="0"
       refX="0"
       id="marker4935"
       style="overflow:visible">
      <path
         inkscape:connector-curvature="0"
         id="path4937"
         style="fill-rule:evenodd;stroke-width:0.625;stroke-linejoin:round"
         d="M 8.7185878,4.0337352 -2.2072895,0.01601326 8.7185884,-4.0017078 c -1.7454984,2.3720609 -1.7354408,5.6174519 -6e-7,8.035443 z"
         transform="matrix(-1.1,0,0,-1.1,-1.1,0)" />
    </marker>
    <marker
       inkscape:stockid="Arrow2Lend"
       orient="auto"
       refY="0"
       refX="0"
       id="Arrow2Lend-8"
       style="overflow:visible">
      <path
         inkscape:connector-curvature="0"
         id="path6124-8"
         style="fill-rule:evenodd;stroke-width:0.625;stroke-linejoin:round"
         d="M 8.7185878,4.0337352 -2.2072895,0.01601326 8.7185884,-4.0017078 c -1.7454984,2.3720609 -1.7354408,5.6174519 -6e-7,8.035443 z"
         transform="matrix(-1.1,0,0,-1.1,-1.1,0)" />
    </marker>
    <marker
       inkscape:stockid="Arrow2Lend"
       orient="auto"
       refY="0"
       refX="0"
       id="marker4935-2"
       style="overflow:visible">
      <path
         inkscape:connector-curvature="0"
         id="path4937-4"
         style="fill-rule:evenodd;stroke-width:0.625;stroke-linejoin:round"
         d="M 8.7185878,4.0337352 -2.2072895,0.01601326 8.7185884,-4.0017078 c -1.7454984,2.3720609 -1.7354408,5.6174519 -6e-7,8.035443 z"
         transform="matrix(-1.1,0,0,-1.1,-1.1,0)" />
    </marker>
    <marker
       inkscape:stockid="Arrow2Lend"
       orient="auto"
       refY="0"
       refX="0"
       id="Arrow2Lend-7"
       style="overflow:visible">
      <path
         inkscape:connector-curvature="0"
         id="path6124-1"
         style="fill-rule:evenodd;stroke-width:0.625;stroke-linejoin:round"
         d="M 8.7185878,4.0337352 -2.2072895,0.01601326 8.7185884,-4.0017078 c -1.7454984,2.3720609 -1.7354408,5.6174519 -6e-7,8.035443 z"
         transform="matrix(-1.1,0,0,-1.1,-1.1,0)" />
    </marker>
    <marker
       inkscape:stockid="Arrow2Lend"
       orient="auto"
       refY="0"
       refX="0"
       id="marker4935-1"
       style="overflow:visible">
      <path
         inkscape:connector-curvature="0"
         id="path4937-5"
         style="fill-rule:evenodd;stroke-width:0.625;stroke-linejoin:round"
         d="M 8.7185878,4.0337352 -2.2072895,0.01601326 8.7185884,-4.0017078 c -1.7454984,2.3720609 -1.7354408,5.6174519 -6e-7,8.035443 z"
         transform="matrix(-1.1,0,0,-1.1,-1.1,0)" />
    </marker>
  </defs>
  <sodipodi:namedview
     id="base"
     pagecolor="#ffffff"
     bordercolor="#666666"
     borderopacity="1.0"
     inkscape:pageopacity="0.0"
     inkscape:pageshadow="2"
     inkscape:zoom="0.98994949"
     inkscape:cx="425.90704"
     inkscape:cy="617.01598"
     inkscape:document-units="px"
     inkscape:current-layer="layer1"
     showgrid="false"
     inkscape:window-width="1920"
     inkscape:window-height="1057"
     inkscape:window-x="-8"
     inkscape:window-y="-8"
     inkscape:window-maximized="1" />
  <metadata
     id="metadata7">
    <rdf:RDF>
      <cc:Work
         rdf:about="">
        <dc:format>image/svg+xml</dc:format>
        <dc:type
           rdf:resource="http://purl.org/dc/dcmitype/StillImage" />
        <dc:title />
      </cc:Work>
    </rdf:RDF>
  </metadata>
  <g
     inkscape:label="Layer 1"
     inkscape:groupmode="layer"
     id="layer1">
    <rect
       style="fill:none;stroke:#000000;stroke-width:6.40558672;stroke-miterlimit:4;stroke-opacity:1;stroke-dasharray:none;stroke-dashoffset:0"
       id="rect2985"
       width="60.624329"
       height="287.88177"
       x="68.215851"
       y="262.54507" />
    <path
       style="fill:#000000;stroke:#000000;stroke-width:0.70268357px;stroke-linecap:butt;stroke-linejoin:miter;stroke-opacity:1"
       d="m 100.12918,543.09782 0,-266.67404 -26.305896,0 z"
       id="path2987"
       inkscape:connector-curvature="0" />
    <text
       xml:space="preserve"
       style="font-size:27.48906708px;font-style:normal;font-variant:normal;font-weight:normal;font-stretch:normal;line-height:125%;letter-spacing:0px;word-spacing:0px;fill:#000000;fill-opacity:1;stroke:none;font-family:Hanzel Extended;-inkscape-font-specification:Hanzel Extended"
       x="-512.29645"
       y="122.4761"
       id="text3757"
       sodipodi:linespacing="125%"
       transform="matrix(0,-1,1,0,0,0)"><tspan
         sodipodi:role="line"
         id="tspan3759"
         x="-512.29645"
         y="122.4761">THROTTLE</tspan></text>
    <rect
       style="fill:none;stroke:#000000;stroke-width:6.65399981;stroke-miterlimit:4;stroke-opacity:1;stroke-dasharray:none;stroke-dashoffset:0"
       id="rect3761"
       width="1133.8585"
       height="542.55859"
       x="-125.25891"
       y="129.20966" />
    <path
       inkscape:connector-curvature="0"
       id="path4816"
       d="m 660.85145,245.35671 -42.15145,0.81926 -53.60769,67.02582 -39.92784,0 c -12.24212,0 -22.09079,10.43242 -22.09079,23.40017 l 0,11.72569 -81.54756,0 c -8.4674,0 -12.40192,7.97712 -17.20861,15.36113 l -57.66813,88.63382 c -12.49115,19.18874 6.80763,16.18039 15.27503,16.18039 l 265.71828,0 c 8.46741,0 15.27507,-7.21108 15.27507,-16.18039 l 0,-77.06176 6.8158,0 c 12.24212,0 22.09079,-10.43242 22.09079,-23.40015 l 0,-15.25873 c 0,-9.60305 -5.4222,-17.78791 -13.19647,-21.40321 l 2.22357,-69.84204 z"
       style="fill:#ffffff;fill-opacity:1;stroke:#000000;stroke-width:6.55728149;stroke-miterlimit:4;stroke-opacity:1;stroke-dasharray:none"
       inkscape:export-filename="C:\Users\tom\Dropbox\starship\engineerconsole\data\hulldamageoverlay.png"
       inkscape:export-xdpi="90"
       inkscape:export-ydpi="90" />
    <path
       style="fill:#ffffff;stroke:#000000;stroke-width:5.90941858;stroke-miterlimit:4;stroke-opacity:1;stroke-dasharray:none;stroke-dashoffset:0"
       d="m 390.5565,434.78284 0,57.6875 -19.71875,0 -16.9375,-16.9375 -9.96875,9.96875 23.0625,19.75 62.09375,-0.125 0,-12.65625 -25.15625,0 0,-57.6875 -13.375,0 z"
       id="rect6079"
       inkscape:connector-curvature="0" />
    <path
       id="path6087"
       d="m 591.27079,434.78284 0,57.6875 -19.71875,0 -16.9375,-16.9375 -9.96875,9.96875 23.0625,19.75 62.09375,-0.125 0,-12.65625 -25.15625,0 0,-57.6875 -13.375,0 z"
       style="fill:#ffffff;stroke:#000000;stroke-width:5.90941858;stroke-miterlimit:4;stroke-opacity:1;stroke-dasharray:none;stroke-dashoffset:0"
       inkscape:connector-curvature="0" />
    <text
       xml:space="preserve"
       style="font-size:16.70097923px;font-style:normal;font-variant:normal;font-weight:normal;font-stretch:normal;line-height:125%;letter-spacing:0px;word-spacing:0px;fill:#000000;fill-opacity:1;stroke:none;font-family:Hanzel Extended;-inkscape-font-specification:Hanzel Extended"
       x="456.68695"
       y="263.98538"
       id="text6091"
       sodipodi:linespacing="125%"><tspan
         sodipodi:role="line"
         id="tspan6093"
         x="456.68695"
         y="263.98538">BLAST</tspan><tspan
         sodipodi:role="line"
         x="456.68695"
         y="284.8616"
         id="tspan6095">SHIELD</tspan></text>
    <path
       transform="matrix(0.89709205,0,0,0.89709205,93.884703,214.27321)"
       d="m 184.85792,362.93307 a 19.697975,19.697975 0 1 1 -39.39595,0 19.697975,19.697975 0 1 1 39.39595,0 z"
       sodipodi:ry="19.697975"
       sodipodi:rx="19.697975"
       sodipodi:cy="362.93307"
       sodipodi:cx="165.15994"
       id="path6733"
       style="fill:#ffffff;fill-opacity:1;stroke:#000000;stroke-width:2.86658669;stroke-miterlimit:4;stroke-opacity:1;stroke-dasharray:none;stroke-dashoffset:0"
       sodipodi:type="arc" />
    <text
       sodipodi:linespacing="125%"
       id="text6735"
       y="535.5575"
       x="261.28445"
       style="font-size:16.70097923px;font-style:normal;font-variant:normal;font-weight:normal;font-stretch:normal;line-height:125%;letter-spacing:0px;word-spacing:0px;fill:#000000;fill-opacity:1;stroke:none;font-family:Hanzel Extended;-inkscape-font-specification:Hanzel Extended"
       xml:space="preserve"><tspan
         y="535.5575"
         x="261.28445"
         sodipodi:role="line"
         id="tspan6747">UNDER-</tspan><tspan
         y="556.43372"
         x="261.28445"
         sodipodi:role="line"
         id="tspan4921">CARRIAGE</tspan></text>
    <path
       inkscape:connector-curvature="0"
       id="path6741"
       d="m 241.36847,521.41094 0,-37.37565"
       style="fill:none;stroke:#000000;stroke-width:1.70000005;stroke-linecap:butt;stroke-linejoin:miter;stroke-miterlimit:4;stroke-opacity:1;stroke-dasharray:none;marker-end:url(#Arrow2Lend)" />
    <path
       style="fill:none;stroke:#000000;stroke-width:1.70000005;stroke-linecap:butt;stroke-linejoin:miter;stroke-miterlimit:4;stroke-opacity:1;stroke-dasharray:none;marker-end:url(#Arrow2Lend)"
       d="m 241.36847,557.27052 0,37.37565"
       id="path6743"
       inkscape:connector-curvature="0" />
    <path
       style="fill:none;stroke:#000000;stroke-width:5;stroke-linecap:butt;stroke-linejoin:miter;stroke-miterlimit:4;stroke-opacity:1;stroke-dasharray:none"
       d="m 397.24226,543.48618 91.11528,0 0,-33.21428"
       id="path6751"
       inkscape:connector-curvature="0"
       sodipodi:nodetypes="ccc" />
    <path
       style="fill:none;stroke:#000000;stroke-width:5;stroke-linecap:butt;stroke-linejoin:miter;stroke-opacity:1;stroke-miterlimit:4;stroke-dasharray:none"
       d="m 432.64326,498.12904 12.32142,12.32143 92.67858,0 13.66071,-13.66072"
       id="path6753"
       inkscape:connector-curvature="0" />
    <text
       xml:space="preserve"
       style="font-size:16.70097923px;font-style:normal;font-variant:normal;font-weight:normal;font-stretch:normal;line-height:125%;letter-spacing:0px;word-spacing:0px;fill:#000000;fill-opacity:1;stroke:none;font-family:Hanzel Extended;-inkscape-font-specification:Hanzel Extended"
       x="751.50433"
       y="343.08749"
       id="text6757"
       sodipodi:linespacing="125%"><tspan
         id="tspan6761"
         sodipodi:role="line"
         x="751.50433"
         y="343.08749">ENGINES</tspan></text>
    <flowRoot
       xml:space="preserve"
       id="flowRoot6769"
       style="font-size:40px;font-style:normal;font-weight:normal;line-height:125%;letter-spacing:0px;word-spacing:0px;fill:#000000;fill-opacity:1;stroke:none;font-family:Hanzel Extended;-inkscape-font-specification:Hanzel Extended;font-stretch:normal;font-variant:normal"><flowRegion
         id="flowRegion6771"><rect
           id="rect6773"
           width="105.05586"
           height="41.416256"
           x="554.57373"
           y="306.8696"
           style="-inkscape-font-specification:Hanzel Extended;font-family:Hanzel Extended;font-weight:normal;font-style:normal;font-stretch:normal;font-variant:normal" /></flowRegion><flowPara
         id="flowPara6775">OFF</flowPara></flowRoot>    <flowRoot
       xml:space="preserve"
       id="flowRoot6777"
       style="font-size:40px;font-style:normal;font-variant:normal;font-weight:normal;font-stretch:normal;line-height:125%;letter-spacing:0px;word-spacing:0px;fill:#000000;fill-opacity:1;stroke:none;font-family:Hanzel Extended;-inkscape-font-specification:Hanzel Extended"
       transform="matrix(0.41345112,0,0,0.41345112,468.94469,138.7668)"><flowRegion
         id="flowRegion6779"><rect
           id="rect6781"
           width="142.4315"
           height="60.609154"
           x="568.71588"
           y="302.82898"
           style="font-style:normal;font-variant:normal;font-weight:normal;font-stretch:normal;font-family:Hanzel Extended;-inkscape-font-specification:Hanzel Extended" /></flowRegion><flowPara
         id="flowPara6783">OFF</flowPara></flowRoot>    <flowRoot
       transform="matrix(0.41345112,0,0,0.41345112,474.95484,267.89301)"
       style="font-size:40px;font-style:normal;font-variant:normal;font-weight:normal;font-stretch:normal;line-height:125%;letter-spacing:0px;word-spacing:0px;fill:#000000;fill-opacity:1;stroke:none;font-family:Hanzel Extended;-inkscape-font-specification:Hanzel Extended"
       id="flowRoot6785"
       xml:space="preserve"><flowRegion
         id="flowRegion6787"><rect
           style="font-style:normal;font-variant:normal;font-weight:normal;font-stretch:normal;font-family:Hanzel Extended;-inkscape-font-specification:Hanzel Extended"
           y="302.82898"
           x="568.71588"
           height="60.609154"
           width="142.4315"
           id="rect6789" /></flowRegion><flowPara
         id="flowPara6791">ON</flowPara></flowRoot>    <rect
       style="fill:#ffffff;fill-opacity:1;stroke:#000000;stroke-width:2.39999986;stroke-miterlimit:4;stroke-opacity:1;stroke-dasharray:none;stroke-dashoffset:0"
       id="rect6793"
       width="26.09882"
       height="282.84271"
       x="21.213202"
       y="265.45334" />
    <path
       style="fill:none;stroke:#000000;stroke-width:5;stroke-linecap:butt;stroke-linejoin:miter;stroke-opacity:1;stroke-miterlimit:4;stroke-dasharray:none"
       d="m 669.73113,340.20463 46.46702,-1.01015"
       id="path6795"
       inkscape:connector-curvature="0" />
    <path
       style="fill:none;stroke:#000000;stroke-width:5;stroke-linecap:butt;stroke-linejoin:miter;stroke-opacity:1;stroke-miterlimit:4;stroke-dasharray:none"
       d="m 415.17269,270.50411 -26.26396,0 -18.18275,18.18275 0,83.84266 17.67767,17.67767"
       id="path6797"
       inkscape:connector-curvature="0"
       sodipodi:nodetypes="ccccc" />
    <text
       xml:space="preserve"
       style="font-size:16.70097923px;font-style:normal;font-variant:normal;font-weight:normal;font-stretch:normal;text-align:end;line-height:125%;letter-spacing:0px;word-spacing:0px;text-anchor:end;fill:#000000;fill-opacity:1;stroke:none;font-family:Hanzel Extended;-inkscape-font-specification:Hanzel Extended"
       x="299.72836"
       y="351.9256"
       id="text6091-0"
       sodipodi:linespacing="125%"><tspan
         sodipodi:role="line"
         x="299.72836"
         y="351.9256"
         id="tspan6095-4">DOCKING</tspan><tspan
         sodipodi:role="line"
         x="299.72836"
         y="372.80182"
         id="tspan6848">COMPUTER</tspan></text>
    <flowRoot
       transform="matrix(0.32984328,0,0,0.32984328,113.52957,185.37807)"
       style="font-size:40px;font-style:normal;font-variant:normal;font-weight:normal;font-stretch:normal;line-height:125%;letter-spacing:0px;word-spacing:0px;fill:#000000;fill-opacity:1;stroke:none;font-family:Hanzel Extended;-inkscape-font-specification:Hanzel Extended"
       id="flowRoot6850"
       xml:space="preserve"><flowRegion
         id="flowRegion6852"><rect
           style="font-style:normal;font-variant:normal;font-weight:normal;font-stretch:normal;font-family:Hanzel Extended;-inkscape-font-specification:Hanzel Extended"
           y="302.82898"
           x="568.71588"
           height="60.609154"
           width="142.4315"
           id="rect6854" /></flowRegion><flowPara
         id="flowPara6856">OFF</flowPara></flowRoot>    <flowRoot
       xml:space="preserve"
       id="flowRoot6858"
       style="font-size:40px;font-style:normal;font-variant:normal;font-weight:normal;font-stretch:normal;line-height:125%;letter-spacing:0px;word-spacing:0px;fill:#000000;fill-opacity:1;stroke:none;font-family:Hanzel Extended;-inkscape-font-specification:Hanzel Extended"
       transform="matrix(0.27543962,0,0,0.27543962,151.63028,331.40202)"><flowRegion
         id="flowRegion6860"><rect
           id="rect6862"
           width="142.4315"
           height="60.609154"
           x="568.71588"
           y="302.82898"
           style="font-style:normal;font-variant:normal;font-weight:normal;font-stretch:normal;font-family:Hanzel Extended;-inkscape-font-specification:Hanzel Extended" /></flowRegion><flowPara
         id="flowPara6864">ON</flowPara></flowRoot>    <path
       transform="matrix(0.89709205,0,0,0.89709205,173.2649,33.723228)"
       d="m 184.85792,362.93307 a 19.697975,19.697975 0 1 1 -39.39595,0 19.697975,19.697975 0 1 1 39.39595,0 z"
       sodipodi:ry="19.697975"
       sodipodi:rx="19.697975"
       sodipodi:cy="362.93307"
       sodipodi:cx="165.15994"
       id="path6733-0"
       style="fill:#ffffff;fill-opacity:1;stroke:#000000;stroke-width:2.86658669;stroke-miterlimit:4;stroke-opacity:1;stroke-dasharray:none;stroke-dashoffset:0"
       sodipodi:type="arc" />
    <path
       inkscape:connector-curvature="0"
       id="path6741-9"
       d="m 320.74867,340.86096 0,-37.37565"
       style="fill:none;stroke:#000000;stroke-width:1.70000005;stroke-linecap:butt;stroke-linejoin:miter;stroke-miterlimit:4;stroke-opacity:1;stroke-dasharray:none;marker-end:url(#Arrow2Lend)" />
    <path
       style="fill:none;stroke:#000000;stroke-width:1.70000005;stroke-linecap:butt;stroke-linejoin:miter;stroke-miterlimit:4;stroke-opacity:1;stroke-dasharray:none;marker-end:url(#Arrow2Lend)"
       d="m 320.74867,376.72054 0,37.37565"
       id="path6743-4"
       inkscape:connector-curvature="0" />
    <path
       transform="matrix(0.89709205,0,0,0.89709205,286.12205,-55.562484)"
       d="m 184.85792,362.93307 a 19.697975,19.697975 0 1 1 -39.39595,0 19.697975,19.697975 0 1 1 39.39595,0 z"
       sodipodi:ry="19.697975"
       sodipodi:rx="19.697975"
       sodipodi:cy="362.93307"
       sodipodi:cx="165.15994"
       id="path6733-5"
       style="fill:#ffffff;fill-opacity:1;stroke:#000000;stroke-width:2.86658669;stroke-miterlimit:4;stroke-opacity:1;stroke-dasharray:none;stroke-dashoffset:0"
       sodipodi:type="arc" />
    <path
       inkscape:connector-curvature="0"
       id="path6741-5"
       d="m 433.60582,251.57524 0,-37.37565"
       style="fill:none;stroke:#000000;stroke-width:1.70000005;stroke-linecap:butt;stroke-linejoin:miter;stroke-miterlimit:4;stroke-opacity:1;stroke-dasharray:none;marker-end:url(#Arrow2Lend)" />
    <path
       style="fill:none;stroke:#000000;stroke-width:1.70000005;stroke-linecap:butt;stroke-linejoin:miter;stroke-miterlimit:4;stroke-opacity:1;stroke-dasharray:none;marker-end:url(#Arrow2Lend)"
       d="m 433.60582,287.43482 0,37.37565"
       id="path6743-1"
       inkscape:connector-curvature="0" />
    <path
       transform="matrix(0.89709205,0,0,0.89709205,582.55062,13.008944)"
       d="m 184.85792,362.93307 a 19.697975,19.697975 0 1 1 -39.39595,0 19.697975,19.697975 0 1 1 39.39595,0 z"
       sodipodi:ry="19.697975"
       sodipodi:rx="19.697975"
       sodipodi:cy="362.93307"
       sodipodi:cx="165.15994"
       id="path6733-2"
       style="fill:#ffffff;fill-opacity:1;stroke:#000000;stroke-width:2.86658669;stroke-miterlimit:4;stroke-opacity:1;stroke-dasharray:none;stroke-dashoffset:0"
       sodipodi:type="arc" />
    <path
       inkscape:connector-curvature="0"
       id="path6741-7"
       d="m 730.03439,320.14668 0,-37.37565"
       style="fill:none;stroke:#000000;stroke-width:1.70000005;stroke-linecap:butt;stroke-linejoin:miter;stroke-miterlimit:4;stroke-opacity:1;stroke-dasharray:none;marker-end:url(#Arrow2Lend)" />
    <path
       style="fill:none;stroke:#000000;stroke-width:1.70000005;stroke-linecap:butt;stroke-linejoin:miter;stroke-miterlimit:4;stroke-opacity:1;stroke-dasharray:none;marker-end:url(#Arrow2Lend)"
       d="m 730.03439,356.00626 0,37.37565"
       id="path6743-6"
       inkscape:connector-curvature="0" />
    <path
       style="fill:none;stroke:#000000;stroke-width:8.69999981;stroke-linecap:butt;stroke-linejoin:miter;stroke-miterlimit:4;stroke-opacity:1;stroke-dasharray:none"
       d="m 301.42858,384.50503 0,48.57144 -31.92834,37.98099 -39.50024,0 -21.36664,21.36665 0,87.79521 23.18332,23.18333 260.32618,0 78.37737,-78.37738 73.76549,0 29.54583,-29.54583 0,-54.54583 19.86994,-19.86994 55.58423,0 24.35074,-24.35075 0,-20.77931 18.53891,-18.53891 84.96749,0 0,-37.17537 -86.42857,0 -22.14286,-22.14286 0,-35.71429 -20.71428,-20.71429 -53.57143,0 -18.57143,-18.57142 -207.85715,0 -23.21428,-23.21429 -36.78572,0 -79.10714,79.10714 -31.60714,0 -47.41072,47.41072 -99.73214,0 0,58.83928 z"
       id="path4999"
       inkscape:connector-curvature="0"
       sodipodi:nodetypes="cccccccccccccccccccccccccccccccccc" />
  </g>
</svg>
