<?xml version="1.0" encoding="UTF-8" standalone="no"?>
<!-- Created with Inkscape (http://www.inkscape.org/) -->

<svg
   xmlns:dc="http://purl.org/dc/elements/1.1/"
   xmlns:cc="http://creativecommons.org/ns#"
   xmlns:rdf="http://www.w3.org/1999/02/22-rdf-syntax-ns#"
   xmlns:svg="http://www.w3.org/2000/svg"
   xmlns="http://www.w3.org/2000/svg"
   xmlns:sodipodi="http://sodipodi.sourceforge.net/DTD/sodipodi-0.dtd"
   xmlns:inkscape="http://www.inkscape.org/namespaces/inkscape"
   width="800"
   height="600"
   id="svg2"
   version="1.1"
   inkscape:version="0.48.2 r9819"
   sodipodi:docname="warp.svg"
   inkscape:export-filename="C:\Users\tom\Documents\Processing\pilotconsole\data\inwarp.png"
   inkscape:export-xdpi="90"
   inkscape:export-ydpi="90">
  <defs
     id="defs4" />
  <sodipodi:namedview
     id="base"
     pagecolor="#000000"
     bordercolor="#666666"
     borderopacity="1.0"
     inkscape:pageopacity="0"
     inkscape:pageshadow="2"
     inkscape:zoom="0.7"
     inkscape:cx="643.27191"
     inkscape:cy="388.28728"
     inkscape:document-units="px"
     inkscape:current-layer="layer1"
     showgrid="false"
     inkscape:window-width="1307"
     inkscape:window-height="749"
     inkscape:window-x="55"
     inkscape:window-y="-4"
     inkscape:window-maximized="1" />
  <metadata
     id="metadata7">
    <rdf:RDF>
      <cc:Work
         rdf:about="">
        <dc:format>image/svg+xml</dc:format>
        <dc:type
           rdf:resource="http://purl.org/dc/dcmitype/StillImage" />
        <dc:title />
      </cc:Work>
    </rdf:RDF>
  </metadata>
  <g
     inkscape:label="Layer 1"
     inkscape:groupmode="layer"
     id="layer1"
     transform="translate(0,-452.36218)">
    <path
       style="color:#000000;fill:#000000;fill-opacity:1;stroke:none;stroke-width:5;marker:none;visibility:visible;display:inline;overflow:visible;enable-background:accumulate"
       d="m 0.00122554,283.67944 0,768.76856 1023.99757446,0 0,-768.76856 -1023.99757446,0 z M 214.44072,489.40511 c 2.09493,-0.0746 4.25678,0.17657 6.43998,0.84083 210.45275,64.03278 429.11047,83.67311 651.71843,82.00198 10.12998,-0.0759 18.27996,8.19791 18.27996,18.33833 l 0,78.19818 0,5.72572 0,78.19817 c 0,10.14042 -8.14998,18.37428 -18.27996,18.2983 -222.60796,-1.67114 -441.26568,17.96919 -651.71843,82.00197 -17.46559,5.31412 -32.95993,-14.68007 -32.95993,-32.95294 l 0,-145.5455 0,-5.72572 0,-145.5455 c 0,-15.98876 11.85545,-33.31118 26.51995,-33.83382 z"
       id="rect4165"
       inkscape:connector-curvature="0" />
    <text
       xml:space="preserve"
       style="font-size:51.22554779px;font-style:normal;font-variant:normal;font-weight:normal;font-stretch:normal;line-height:125%;letter-spacing:0px;word-spacing:0px;fill:#ff0000;fill-opacity:1;stroke:none;font-family:Hanzel Extended;-inkscape-font-specification:Hanzel Extended"
       x="27.481565"
       y="345.10162"
       id="text3790"
       sodipodi:linespacing="125%"
       transform="scale(0.99949884,1.0005014)"><tspan
         sodipodi:role="line"
         id="tspan3792"
         x="27.481565"
         y="345.10162">IN HYPERSPACE</tspan></text>
    <rect
       style="color:#000000;fill:none;stroke:#ffff00;stroke-width:4.96247482;stroke-linecap:butt;stroke-linejoin:miter;stroke-miterlimit:4;stroke-opacity:1;stroke-dasharray:none;stroke-dashoffset:0;marker:none;visibility:visible;display:inline;overflow:visible;enable-background:accumulate"
       id="rect3866"
       width="991.72498"
       height="741.62762"
       x="14.22414"
       y="295.28882"
       ry="18.304012" />
    <path
       style="font-size:medium;font-style:normal;font-variant:normal;font-weight:normal;font-stretch:normal;text-indent:0;text-align:start;text-decoration:none;line-height:normal;letter-spacing:normal;word-spacing:normal;text-transform:none;direction:ltr;block-progression:tb;writing-mode:lr-tb;text-anchor:start;baseline-shift:baseline;color:#000000;fill:#ffff00;fill-opacity:1;stroke:none;stroke-width:3.875;marker:none;visibility:visible;display:inline;overflow:visible;enable-background:accumulate;font-family:Sans;-inkscape-font-specification:Sans"
       d="m 31.80115,292.4246 c -11.461281,0 -20.759951,9.30799 -20.759951,20.78077 l 0,25.21378 c 0,11.47278 9.29867,20.78077 20.759951,20.78077 l 696.55833,0 c 11.46128,0 20.75995,-9.30799 20.75995,-20.78077 l 0,-25.21378 c 0,-11.47278 -9.29867,-20.78077 -20.75995,-20.78077 z m 0,4.96497 696.55833,0 c 8.79924,0 15.79996,7.00773 15.79996,15.8158 l 0,25.21378 c 0,8.80806 -7.00072,15.81581 -15.79996,15.81581 l -696.55833,0 c -8.799242,0 -15.799963,-7.00775 -15.799963,-15.81581 l 0,-25.21378 c 0,-8.80807 7.000721,-15.8158 15.799963,-15.8158 z"
       id="rect3868"
       inkscape:connector-curvature="0"
       sodipodi:nodetypes="ssssssssssssssssss" />
    <path
       style="color:#000000;fill:none;stroke:#ff0000;stroke-width:4.96247482;stroke-linecap:butt;stroke-linejoin:miter;stroke-miterlimit:4;stroke-opacity:1;stroke-dashoffset:0;marker:none;visibility:visible;display:inline;overflow:visible;enable-background:accumulate"
       d="m 214.44072,489.40511 c -14.6645,0.52264 -26.51995,17.84506 -26.51995,33.83382 l 0,145.5455 0,5.72572 0,145.5455 c 0,18.27287 15.49434,38.26706 32.95993,32.95294 210.45275,-64.03278 429.11047,-83.67311 651.71843,-82.00197 10.12998,0.0759 18.27996,-8.15788 18.27996,-18.2983 l 0,-78.19817 0,-5.72572 0,-78.19818 c 0,-10.14042 -8.14998,-18.41431 -18.27996,-18.33833 -222.60796,1.67113 -441.26568,-17.9692 -651.71843,-82.00198 -2.1832,-0.66426 -4.34505,-0.9155 -6.43998,-0.84083 z"
       id="rect3067"
       inkscape:connector-curvature="0" />
    <path
       style="font-size:medium;font-style:normal;font-variant:normal;font-weight:normal;font-stretch:normal;text-indent:0;text-align:start;text-decoration:none;line-height:normal;letter-spacing:normal;word-spacing:normal;text-transform:none;direction:ltr;block-progression:tb;writing-mode:lr-tb;text-anchor:start;baseline-shift:baseline;color:#000000;fill:#ff1212;fill-opacity:1;stroke:none;stroke-width:1.10000002;marker:none;visibility:visible;display:inline;overflow:visible;enable-background:accumulate;font-family:Sans;-inkscape-font-specification:Sans"
       d="m 215.96071,489.40511 0,364.44432 c 0.34484,-0.015 0.69258,-0.0462 1.04,-0.08 l 0,-364.28417 c -0.34741,-0.0324 -0.69535,-0.0663 -1.04,-0.08 z m 31.71993,8.76876 0,346.9068 c 0.34558,-0.0988 0.69436,-0.1818 1.03999,-0.28028 l 0,-346.34624 c -0.34563,-0.0985 -0.69441,-0.18157 -1.03999,-0.28028 z m 31.71992,8.68869 0,329.52941 c 0.34714,-0.0917 0.69279,-0.18872 1.03999,-0.28027 l 0,-328.96887 c -0.3472,-0.0916 -0.69285,-0.18849 -1.03999,-0.28027 z m 31.71992,8.04804 0,313.43333 c 0.34523,-0.0843 0.69472,-0.15624 1.04,-0.24024 l 0,-312.95284 c -0.34528,-0.084 -0.69477,-0.15604 -1.04,-0.24025 z m 31.71992,7.40741 0,298.61853 c 0.34697,-0.0779 0.69299,-0.16267 1.04001,-0.24025 l 0,-298.13805 c -0.34702,-0.0776 -0.69304,-0.16245 -1.04001,-0.24023 z m 31.71993,6.84684 0,284.92483 c 0.34546,-0.0709 0.6945,-0.1295 1.04,-0.20019 l 0,-284.52444 c -0.3455,-0.0707 -0.69454,-0.12929 -1.04,-0.2002 z m 31.71993,6.2062 0,272.51243 c 0.34513,-0.0645 0.69482,-0.0958 1.03999,-0.16015 l 0,-272.19211 c -0.34517,-0.0644 -0.69486,-0.0957 -1.03999,-0.16017 z m 31.71991,5.64565 0,261.22113 c 0.34784,-0.059 0.69212,-0.14143 1.04,-0.20019 l 0,-260.82073 c -0.34788,-0.0587 -0.69216,-0.14124 -1.04,-0.20021 z m 31.71993,5.12512 0,250.97089 c 0.34656,-0.053 0.69341,-0.10748 1.04,-0.16015 l 0,-250.65057 c -0.34659,-0.0527 -0.69344,-0.10722 -1.04,-0.16017 z m 31.71993,4.60461 0,241.76168 c 0.34547,-0.0472 0.6945,-0.0731 1.04,-0.12017 l 0,-241.52145 c -0.3455,-0.0469 -0.69453,-0.073 -1.04,-0.12017 z m 31.71992,4.04405 0,233.67359 c 0.34613,-0.0419 0.69383,-0.0784 1.03999,-0.12018 l 0,-233.43335 c -0.34616,-0.0417 -0.69386,-0.0782 -1.03999,-0.12005 z m 31.71993,3.6036 0,226.46639 c 0.34705,-0.0368 0.69291,-0.0834 1.03999,-0.12018 l 0,-226.22615 c -0.34708,-0.0367 -0.69294,-0.0832 -1.03999,-0.12005 z m 31.71991,3.16315 0,220.14007 c 0.34633,-0.0318 0.69367,-0.0484 1.04001,-0.08 l 0,-219.97992 c -0.34634,-0.0317 -0.69368,-0.0482 -1.04001,-0.08 z m 31.71993,2.68269 0,214.7747 c 0.34639,-0.0272 0.69357,-0.0531 1.04,-0.08 l 0,-214.61454 c -0.34643,-0.0269 -0.69361,-0.053 -1.04,-0.08 z m 31.71993,2.28228 0,210.21014 c 0.34672,-0.0227 0.69324,-0.0576 1.03999,-0.08 l 0,-210.04999 c -0.34675,-0.0226 -0.69327,-0.0575 -1.03999,-0.08 z m 31.71992,1.88187 0,206.44639 c 0.34643,-0.0183 0.69354,-0.0218 1.03999,-0.04 l 0,-206.3663 c -0.34645,-0.0182 -0.69356,-0.0217 -1.03999,-0.04 z m 31.71992,1.48148 0,203.48343 c 0.34664,-0.0142 0.69335,-0.0259 1.04,-0.04 l 0,-203.40334 c -0.34665,-0.0141 -0.69336,-0.0258 -1.04,-0.04 z m 31.71993,1.12113 0,201.24117 c 0.34688,-0.0103 0.69309,-0.0299 1.04,-0.04 l 0,-201.1611 c -0.34691,-0.0103 -0.69312,-0.0298 -1.04,-0.04 z m 31.71992,0.8008 0,199.63957 c 0.34661,-0.006 0.69336,0.006 1.04,0 l 0,-199.63957 c -0.34664,-0.006 -0.69339,0.006 -1.04,0 z m 31.71993,0.4004 0,198.83877 c 0.34609,-0.003 0.69388,0.003 1.03999,0 l 0,-198.83877 c -0.34611,-0.003 -0.6939,0.003 -1.03999,0 z m 31.71992,0.12018 0,198.59853 c 0.34674,3.5e-4 0.69324,-4.6e-4 1.04,0 l 0,-198.59853 c -0.34676,4.6e-4 -0.69326,-3.5e-4 -1.04,0 z"
       id="use4113"
       inkscape:connector-curvature="0" />
    <path
       style="fill:#000000;fill-opacity:1;stroke:#cdcdcd;stroke-width:7.42616749;stroke-miterlimit:4;stroke-opacity:1"
       d="m 829.28902,617.74901 -19.49526,0.35808 -24.79385,29.29459 -18.46683,0 c -5.66207,0 -10.21713,4.55964 -10.21713,10.22737 l 0,5.12488 -37.71618,0 c -3.91622,0 -5.73595,3.48653 -7.95906,6.71382 l -26.67186,38.73869 c -5.77721,8.38672 3.14858,7.07189 7.0648,7.07189 l 122.89615,0 c 3.91621,0 7.06479,-3.15171 7.06479,-7.07189 l 0,-33.68096 3.15234,0 c 5.66205,0 10.21711,-4.55964 10.21711,-10.22737 l 0,-6.66906 c 0,-4.19715 -2.5078,-7.77445 -6.10343,-9.35457 l 1.02841,-30.52547 z"
       id="rect2985"
       inkscape:connector-curvature="0" />
    <text
       sodipodi:linespacing="125%"
       id="text4170"
       y="419.19571"
       x="186.88898"
       style="font-size:25.24231148px;font-style:normal;font-variant:normal;font-weight:normal;font-stretch:normal;line-height:125%;letter-spacing:0px;word-spacing:0px;fill:#ffff00;fill-opacity:1;stroke:none;font-family:Hanzel Extended;-inkscape-font-specification:Hanzel Extended"
       xml:space="preserve"
       transform="scale(0.99949884,1.0005014)"><tspan
         y="419.19571"
         x="186.88898"
         id="tspan4172"
         sodipodi:role="line">TIME REMAINING:</tspan></text>
  </g>
</svg>
