<?xml version="1.0" encoding="UTF-8" standalone="no"?>
<!-- Created with Inkscape (http://www.inkscape.org/) -->

<svg
   xmlns:dc="http://purl.org/dc/elements/1.1/"
   xmlns:cc="http://creativecommons.org/ns#"
   xmlns:rdf="http://www.w3.org/1999/02/22-rdf-syntax-ns#"
   xmlns:svg="http://www.w3.org/2000/svg"
   xmlns="http://www.w3.org/2000/svg"
   xmlns:xlink="http://www.w3.org/1999/xlink"
   xmlns:sodipodi="http://sodipodi.sourceforge.net/DTD/sodipodi-0.dtd"
   xmlns:inkscape="http://www.inkscape.org/namespaces/inkscape"
   width="210mm"
   height="297mm"
   id="svg4278"
   version="1.1"
   inkscape:version="0.48.4 r9939"
   sodipodi:docname="manua-tef.svg">
  <defs
     id="defs3">
    <inkscape:perspective
       sodipodi:type="inkscape:persp3d"
       inkscape:vp_x="967.39874 : 821.72956 : 1"
       inkscape:vp_y="0 : 752.33817 : 0"
       inkscape:vp_z="598.04788 : -24.434936 : 0"
       inkscape:persp3d-origin="364.37498 : 395.54263 : 1"
       id="perspective3810" />
  </defs>
  <sodipodi:namedview
     inkscape:document-units="mm"
     id="base"
     pagecolor="#33c078"
     bordercolor="#666666"
     borderopacity="1.0"
     inkscape:pageopacity="1"
     inkscape:pageshadow="2"
     inkscape:zoom="0.73491386"
     inkscape:cx="372.04724"
     inkscape:cy="526.18109"
     inkscape:current-layer="layer1"
     showgrid="false"
     units="mm"
     inkscape:window-width="933"
     inkscape:window-height="976"
     inkscape:window-x="0"
     inkscape:window-y="5"
     inkscape:window-maximized="0"
     showguides="true"
     inkscape:guide-bbox="true">
    <inkscape:grid
       type="xygrid"
       id="grid4307" />
  </sodipodi:namedview>
  <metadata
     id="metadata4">
    <rdf:RDF>
      <cc:Work
         rdf:about="">
        <dc:format>image/svg+xml</dc:format>
        <dc:type
           rdf:resource="http://purl.org/dc/dcmitype/StillImage" />
        <dc:title></dc:title>
      </cc:Work>
    </rdf:RDF>
  </metadata>
  <g
     inkscape:groupmode="layer"
     id="layer3"
     inkscape:label="background"
     style="display:none">
    <rect
       style="fill:#33c078;fill-opacity:1;stroke:none;display:inline"
       id="rect6037"
       width="758.25012"
       height="1090.7671"
       x="-7.6520739"
       y="-6.4053755" />
  </g>
  <g
     inkscape:label="text"
     inkscape:groupmode="layer"
     id="layer1"
     style="display:inline">
    <flowRoot
       xml:space="preserve"
       id="flowRoot4802"
       style="font-size:40px;font-style:normal;font-variant:normal;font-weight:bold;font-stretch:normal;line-height:125%;letter-spacing:0px;word-spacing:0px;fill:#fffc0e;fill-opacity:1;stroke:none;font-family:Alte Haas Grotesk;-inkscape-font-specification:Alte Haas Grotesk Bold"
       transform="matrix(2.7545958,0,0,2.7545958,-163.41173,-147.95853)"><flowRegion
         id="flowRegion4804"><rect
           id="rect4806"
           width="542.14288"
           height="81.428566"
           x="64.285713"
           y="55.933609"
           style="font-style:normal;font-variant:normal;font-weight:bold;font-stretch:normal;fill:#fffc0e;fill-opacity:1;font-family:Alte Haas Grotesk;-inkscape-font-specification:Alte Haas Grotesk Bold" /></flowRegion><flowPara
         id="flowPara4808">LHS</flowPara></flowRoot>    <flowRoot
       xml:space="preserve"
       id="flowRoot4810"
       style="font-size:40px;font-style:normal;font-weight:normal;line-height:125%;letter-spacing:0px;word-spacing:0px;fill:#000000;fill-opacity:1;stroke:none;font-family:Sans"><flowRegion
         id="flowRegion4812"><rect
           id="rect4814"
           width="336.42856"
           height="93.571426"
           x="62.857143"
           y="162.36218" /></flowRegion><flowPara
         id="flowPara4816" /></flowRoot>    <flowRoot
       transform="matrix(1.3388387,0,0,1.3388387,-158.63419,192.81665)"
       style="font-size:41.08037949px;font-style:normal;font-variant:normal;font-weight:bold;font-stretch:normal;text-align:center;line-height:125%;letter-spacing:0px;word-spacing:0px;writing-mode:lr-tb;text-anchor:middle;fill:#fffc0e;fill-opacity:1;stroke:none;font-family:Alte Haas Grotesk;-inkscape-font-specification:Alte Haas Grotesk Bold"
       id="flowRoot4818"
       xml:space="preserve"><flowRegion
         id="flowRegion4820"><rect
           style="font-size:41.08037949px;font-style:normal;font-variant:normal;font-weight:bold;font-stretch:normal;text-align:center;line-height:125%;writing-mode:lr-tb;text-anchor:middle;fill:#fffc0e;fill-opacity:1;font-family:Alte Haas Grotesk;-inkscape-font-specification:Alte Haas Grotesk Bold"
           y="55.933609"
           x="64.285713"
           height="86.278374"
           width="665.00458"
           id="rect4822" /></flowRegion><flowPara
         id="flowPara4824">Owners’ Workshop Manual</flowPara></flowRoot>    <flowRoot
       transform="matrix(2.5182588,0,0,2.5182588,-147.5674,-30.632003)"
       style="font-size:40px;font-style:normal;font-variant:normal;font-weight:bold;font-stretch:normal;line-height:125%;letter-spacing:0px;word-spacing:0px;fill:#ffffff;fill-opacity:1;stroke:none;font-family:Alte Haas Grotesk;-inkscape-font-specification:Alte Haas Grotesk Bold"
       id="flowRoot3007"
       xml:space="preserve"><flowRegion
         id="flowRegion3009"><rect
           style="font-style:normal;font-variant:normal;font-weight:bold;font-stretch:normal;fill:#ffffff;fill-opacity:1;stroke:none;font-family:Alte Haas Grotesk;-inkscape-font-specification:Alte Haas Grotesk Bold"
           y="55.933609"
           x="64.285713"
           height="81.428566"
           width="542.14288"
           id="rect3011" /></flowRegion><flowPara
         id="flowPara3013">BIKESHED</flowPara></flowRoot>    <flowRoot
       transform="matrix(0.76762983,0,0,0.76762983,-28.759974,179.41528)"
       style="font-size:40px;font-style:normal;font-variant:normal;font-weight:normal;font-stretch:normal;text-align:start;line-height:125%;letter-spacing:0px;word-spacing:0px;writing-mode:lr-tb;text-anchor:start;fill:#ffffff;fill-opacity:1;stroke:none;font-family:Alte Haas Grotesk;-inkscape-font-specification:Alte Haas Grotesk"
       id="flowRoot3015"
       xml:space="preserve"><flowRegion
         id="flowRegion3017"><rect
           style="font-size:40px;font-style:normal;font-variant:normal;font-weight:normal;font-stretch:normal;text-align:start;line-height:125%;writing-mode:lr-tb;text-anchor:start;fill:#ffffff;fill-opacity:1;font-family:Alte Haas Grotesk;-inkscape-font-specification:Alte Haas Grotesk"
           y="55.933609"
           x="64.285713"
           height="46.985798"
           width="922.14032"
           id="rect3019" /></flowRegion><flowPara
         id="flowPara3023">2048 - 2049  (all models 01/02)</flowPara></flowRoot>    <flowRoot
       transform="matrix(0.76762983,0,0,0.76762983,67.688874,954.83889)"
       style="font-size:28.65964699px;font-style:normal;font-variant:normal;font-weight:normal;font-stretch:normal;text-align:start;line-height:125%;letter-spacing:0px;word-spacing:0px;writing-mode:lr-tb;text-anchor:start;fill:#ffffff;fill-opacity:1;stroke:none;display:inline;font-family:Alte Haas Grotesk;-inkscape-font-specification:Alte Haas Grotesk"
       id="flowRoot3015-1"
       xml:space="preserve"><flowRegion
         id="flowRegion3017-7"><rect
           style="font-size:28.65964699px;font-style:normal;font-variant:normal;font-weight:normal;font-stretch:normal;text-align:start;line-height:125%;writing-mode:lr-tb;text-anchor:start;fill:#ffffff;fill-opacity:1;font-family:Alte Haas Grotesk;-inkscape-font-specification:Alte Haas Grotesk"
           y="55.933609"
           x="64.285713"
           height="46.985798"
           width="922.14032"
           id="rect3019-4" /></flowRegion><flowPara
         id="flowPara4394">The best selling spaceship manual in the Milky Way!</flowPara></flowRoot>  </g>
  <g
     inkscape:groupmode="layer"
     id="layer4"
     inkscape:label="Logo">
    <rect
       ry="0"
       rx="0"
       y="31.74509"
       x="551.31995"
       height="176.41194"
       width="177.03804"
       id="rect4798"
       style="fill:#eaef00;fill-opacity:1;stroke:#ffeaea;stroke-width:3.22644567;stroke-miterlimit:4;stroke-opacity:1;stroke-dasharray:none;display:inline" />
    <rect
       style="fill:#ef0000;fill-opacity:1;stroke:none;display:inline"
       id="rect4800"
       width="77.445923"
       height="173.23659"
       x="600.87183"
       y="33.355141"
       rx="0"
       ry="0" />
    <g
       id="g4507"
       transform="translate(2,0)">
      <path
         transform="matrix(1.1627782,0,0,1.1627782,-146.5216,18.436963)"
         d="m 731.08853,84.76149 c 0,19.48301 -25.55539,35.27711 -57.07956,35.27711 -31.52417,0 -57.07956,-15.7941 -57.07956,-35.27711 0,-19.483008 25.55539,-35.277107 57.07956,-35.277107 31.52417,0 57.07956,15.794099 57.07956,35.277107 z"
         sodipodi:ry="35.277107"
         sodipodi:rx="57.079559"
         sodipodi:cy="84.76149"
         sodipodi:cx="674.00897"
         id="path4223"
         style="fill:#ffffff;fill-opacity:1;stroke:#000000;stroke-width:3.83385825;stroke-linecap:butt;stroke-linejoin:miter;stroke-miterlimit:4;stroke-opacity:1;stroke-dasharray:none;stroke-dashoffset:0;display:inline"
         sodipodi:type="arc" />
      <text
         sodipodi:linespacing="125%"
         id="text4225"
         y="123.28543"
         x="593.1889"
         style="font-size:27.60299873px;font-style:normal;font-variant:normal;font-weight:bold;font-stretch:normal;line-height:125%;letter-spacing:0px;word-spacing:0px;fill:#000000;fill-opacity:1;stroke:#000000;stroke-opacity:1;display:inline;font-family:Alte Haas Grotesk;-inkscape-font-specification:Alte Haas Grotesk Bold"
         xml:space="preserve"><tspan
           y="123.28543"
           x="593.1889"
           id="tspan4227"
           sodipodi:role="line">Jaynes</tspan></text>
      <path
         id="path4263"
         d="m 585.45121,96.873882 c 0.78393,-0.669047 1.24479,-1.408294 1.07109,-2.11259 -0.29644,-1.20215 -2.38504,-1.950135 -4.41925,-1.998353 0.54896,-1.963284 0.42789,-4.189859 -0.63831,-4.824259 -1.42488,-0.847849 -4.04236,1.466707 -5.30165,3.583067 -1.25928,2.116356 -0.66346,3.237477 0.7614,4.08531 0.26265,0.156303 0.52985,0.268173 0.80818,0.372478 0.0186,0.299088 0.0587,0.597239 0.13264,0.896495 0.39695,1.609797 1.29646,2.505808 3.68752,1.916197 1.34494,-0.331648 2.89059,-1.058146 3.8985,-1.918365 z"
         style="fill:#ffffff;fill-opacity:1;stroke:#000000;stroke-width:1.05356669;stroke-linecap:butt;stroke-linejoin:miter;stroke-miterlimit:4;stroke-opacity:1;stroke-dashoffset:0"
         inkscape:connector-curvature="0" />
      <path
         inkscape:connector-curvature="0"
         style="fill:#ffffff;fill-opacity:1;stroke:#000000;stroke-width:1.27789593;stroke-linecap:butt;stroke-linejoin:miter;stroke-miterlimit:4;stroke-opacity:1;stroke-dashoffset:0"
         d="m 583.09054,100.47351 c 0.70842,-1.029949 1.01629,-2.040722 0.59169,-2.811344 -0.7247,-1.315369 -3.40651,-1.536035 -5.80491,-0.953932 0.0268,-2.472505 -0.81401,-5.043137 -2.26231,-5.451691 -1.93555,-0.546023 -4.27557,2.987397 -5.08656,5.862235 -0.81099,2.874836 0.23902,4.001292 2.17454,4.547302 0.3568,0.10067 0.70495,0.14786 1.06379,0.18268 0.11564,0.34459 0.25626,0.6813 0.43678,1.00871 0.97043,1.76141 2.30557,2.52879 4.92182,1.08739 1.47163,-0.81078 3.05442,-2.14716 3.96524,-3.47139 z"
         id="path4261" />
      <path
         id="path4259"
         d="m 581.81715,103.88297 c 0.14185,-1.3948 -0.1,-2.5549 -0.93282,-3.08412 -1.42158,-0.903333 -4.17837,0.32466 -6.22383,2.18956 -1.30587,-2.44646 -3.51806,-4.521917 -5.16279,-4.143382 -2.19805,0.505847 -2.59582,5.242262 -1.84447,8.506982 0.75135,3.26473 2.39113,3.80696 4.58914,3.30111 0.4052,-0.0932 0.77308,-0.23439 1.14481,-0.39352 0.29937,0.27665 0.61915,0.53207 0.97313,0.75684 1.90364,1.20966 3.63039,1.24506 5.42711,-1.58244 1.01066,-1.59046 1.84744,-3.7578 2.0298,-5.55112 z"
         style="fill:#ffffff;fill-opacity:1;stroke:#000000;stroke-width:1.43320656;stroke-linecap:butt;stroke-linejoin:miter;stroke-miterlimit:4;stroke-opacity:1;stroke-dashoffset:0"
         inkscape:connector-curvature="0" />
      <path
         inkscape:connector-curvature="0"
         style="fill:#ffffff;fill-opacity:1;stroke:#000000;stroke-width:1.62780952;stroke-linecap:butt;stroke-linejoin:miter;stroke-miterlimit:4;stroke-opacity:1;stroke-dashoffset:0"
         d="m 581.93292,109.76468 c -0.24441,-1.57348 -0.84308,-2.77895 -1.91019,-3.12152 -1.82145,-0.58473 -4.49856,1.55589 -6.21118,4.19229 -2.13714,-2.31373 -5.1638,-3.95965 -6.86261,-3.07166 -2.2703,1.18668 -1.34818,6.50581 0.41441,9.87789 1.76259,3.37207 3.72019,3.49736 5.9905,2.31068 0.41851,-0.21876 0.78228,-0.47944 1.14511,-0.76098 0.40839,0.2181 0.83309,0.40702 1.28661,0.55243 2.43911,0.78302 4.34684,0.32639 5.50985,-3.29645 0.65422,-2.03784 0.9518,-4.65974 0.63755,-6.6828 z"
         id="path4257" />
      <path
         id="path4255"
         d="m 584.49467,115.20421 c -0.78085,-1.76796 -1.8614,-2.99317 -3.22009,-3.05957 -2.31914,-0.11333 -4.78529,3.23729 -5.96494,6.86616 -3.2324,-2.04121 -7.29785,-3.02007 -9.01055,-1.44535 -2.2889,2.10445 0.46314,8.05085 3.58887,11.45053 3.12575,3.39967 5.46017,2.9316 7.74907,0.82716 0.42192,-0.38794 0.76652,-0.80783 1.10346,-1.25189 0.54731,0.1274 1.10456,0.21547 1.68194,0.24349 3.10557,0.15178 5.19871,-0.98287 5.42413,-5.59559 0.1268,-2.59464 -0.34793,-5.76201 -1.35188,-8.0351 z"
         style="fill:#ffffff;fill-opacity:1;stroke:#000000;stroke-width:1.97574484;stroke-linecap:butt;stroke-linejoin:miter;stroke-miterlimit:4;stroke-opacity:1;stroke-dashoffset:0"
         inkscape:connector-curvature="0" />
      <path
         inkscape:connector-curvature="0"
         style="fill:#ffffff;fill-opacity:1;stroke:#000000;stroke-width:2.35218978;stroke-linecap:butt;stroke-linejoin:miter;stroke-miterlimit:4;stroke-opacity:1;stroke-dashoffset:0"
         d="m 589.88991,123.1852 c -1.22799,-1.94588 -2.71426,-3.20031 -4.32594,-3.0415 -2.751,0.27108 -5.07087,4.64724 -5.8271,9.12668 -4.16281,-1.84005 -9.12138,-2.28366 -10.86373,-0.13036 -2.32847,2.87764 1.94983,9.40056 6.22399,12.85906 4.27416,3.45847 6.94174,2.50003 9.27023,-0.37761 0.42924,-0.53046 0.76181,-1.08507 1.08117,-1.66681 0.66677,0.0546 1.3384,0.0611 2.02325,-0.007 3.68386,-0.36298 5.95101,-2.06437 5.41185,-7.53602 -0.30327,-3.07779 -1.41488,-6.72513 -2.99373,-9.22698 z"
         id="path4253" />
      <path
         id="path4251"
         d="m 596.34627,131.23233 c -1.73615,-1.51002 -3.52061,-2.28352 -5.01836,-1.66749 -2.55652,1.05152 -3.51846,5.91024 -2.95323,10.41777 -4.51629,-0.56385 -9.39266,0.43868 -10.44142,3.00239 -1.40156,3.42612 4.57335,8.44138 9.66217,10.52312 5.08881,2.08172 7.36757,0.39596 8.76914,-3.03016 0.25837,-0.63156 0.41721,-1.25844 0.55559,-1.90749 0.65427,-0.13963 1.29933,-0.32683 1.93575,-0.5886 3.42345,-1.40807 5.10486,-3.69005 3.01346,-8.77489 -1.17642,-2.86022 -3.29091,-6.03319 -5.52311,-7.97466 z"
         style="fill:#ffffff;fill-opacity:1;stroke:#000000;stroke-width:2.35218978;stroke-linecap:butt;stroke-linejoin:miter;stroke-miterlimit:4;stroke-opacity:1;stroke-dashoffset:0"
         inkscape:connector-curvature="0" />
      <path
         inkscape:connector-curvature="0"
         style="fill:#ffffff;fill-opacity:1;stroke:#000000;stroke-width:2.35218978;stroke-linecap:butt;stroke-linejoin:miter;stroke-miterlimit:4;stroke-opacity:1;stroke-dashoffset:0"
         d="m 603.08347,138.1224 c -2.14865,-0.82322 -4.09015,-0.93798 -5.2859,0.15425 -2.04101,1.86431 -1.27872,6.75834 0.79774,10.79883 -4.43586,1.01884 -8.6729,3.63256 -8.77906,6.40044 -0.14188,3.699 7.19043,6.36163 12.68454,6.57237 5.4941,0.21074 7.05674,-2.15415 7.19863,-5.85315 0.0262,-0.68187 -0.0396,-1.32521 -0.1321,-1.98236 0.56673,-0.3555 1.10849,-0.75253 1.61658,-1.21663 2.73315,-2.49652 3.53022,-5.21667 -0.17786,-9.27621 -2.08578,-2.28348 -5.16001,-4.53912 -7.92258,-5.59754 z"
         id="path4249" />
      <path
         inkscape:connector-curvature="0"
         id="path4243"
         d="m 613.27712,142.37022 c -2.29347,-0.18543 -4.18882,0.25069 -5.02896,1.63522 -1.43404,2.36326 0.67442,6.84512 3.80382,10.13816 -3.97003,2.22573 -7.30052,5.92598 -6.62364,8.61193 0.90459,3.58949 8.68984,4.08157 14.0213,2.73801 5.33146,-1.34357 6.1656,-4.05259 5.26103,-7.64208 -0.16676,-0.66169 -0.41087,-1.26054 -0.6845,-1.86511 0.44382,-0.50059 0.85198,-1.03401 1.20897,-1.62232 1.92033,-3.16466 1.91988,-5.99919 -2.78057,-8.85144 -2.64401,-1.6044 -6.22868,-2.90396 -9.17745,-3.14237 z"
         style="fill:#ffffff;fill-opacity:1;stroke:#000000;stroke-width:2.35218978;stroke-linecap:butt;stroke-linejoin:miter;stroke-miterlimit:4;stroke-opacity:1;stroke-dashoffset:0" />
      <path
         style="fill:#ffffff;fill-opacity:1;stroke:#000000;stroke-width:1.09938884px;stroke-linecap:butt;stroke-linejoin:miter;stroke-opacity:1;display:inline"
         d="m 632.83786,151.66613 c -0.94638,0 -15.56264,-5.34134 -18.1162,-5.00223 -4.92099,0.99216 -4.18102,3.33262 -4.07655,5.02771 0.34759,5.63999 10.2985,5.14002 10.2985,5.14002 -4.14845,1.09725 -10.26517,0.0106 -9.88775,5.80048 -0.0894,3.1479 5.28815,4.17591 6.09932,4.17591 0.81118,0 15.81787,-5.13742 15.68268,-5.67821 -0.13521,-0.54078 0,-9.46368 0,-9.46368 z"
         id="path4311"
         inkscape:connector-curvature="0"
         sodipodi:nodetypes="ccsccscc" />
      <path
         inkscape:connector-curvature="0"
         style="fill:#ffffff;fill-opacity:1;stroke:#000000;stroke-width:1.05356669;stroke-linecap:butt;stroke-linejoin:miter;stroke-miterlimit:4;stroke-opacity:1;stroke-dashoffset:0"
         d="m 691.20516,99.486191 c -0.78393,-0.669048 -1.2448,-1.408295 -1.0711,-2.112591 0.29645,-1.20215 2.38505,-1.950134 4.41925,-1.998353 -0.54895,-1.963282 -0.42788,-4.189857 0.63831,-4.824259 1.42488,-0.847848 4.04236,1.466708 5.30166,3.583068 1.25927,2.116355 0.66345,3.237477 -0.7614,4.08531 -0.26266,0.156302 -0.52985,0.268173 -0.80819,0.372478 -0.0186,0.299088 -0.0587,0.597238 -0.13263,0.896495 -0.39695,1.609801 -1.29647,2.505811 -3.68753,1.916191 -1.34494,-0.33164 -2.89059,-1.05814 -3.89849,-1.918359 z"
         id="path4289" />
      <path
         id="path4291"
         d="m 693.56582,103.08582 c -0.70842,-1.02995 -1.01628,-2.04072 -0.59169,-2.81134 0.7247,-1.315375 3.40651,-1.536039 5.80491,-0.953937 -0.0268,-2.472505 0.81402,-5.043138 2.26232,-5.451692 1.93554,-0.546023 4.27557,2.987397 5.08655,5.862236 0.81099,2.874833 -0.23902,4.001293 -2.17454,4.547303 -0.3568,0.10067 -0.70494,0.14786 -1.06379,0.18268 -0.11564,0.34458 -0.25626,0.6813 -0.43678,1.00871 -0.97043,1.76141 -2.30557,2.52879 -4.92182,1.08739 -1.47163,-0.81078 -3.05442,-2.14716 -3.96524,-3.4714 z"
         style="fill:#ffffff;fill-opacity:1;stroke:#000000;stroke-width:1.27789593;stroke-linecap:butt;stroke-linejoin:miter;stroke-miterlimit:4;stroke-opacity:1;stroke-dashoffset:0"
         inkscape:connector-curvature="0" />
      <path
         inkscape:connector-curvature="0"
         style="fill:#ffffff;fill-opacity:1;stroke:#000000;stroke-width:1.43320656;stroke-linecap:butt;stroke-linejoin:miter;stroke-miterlimit:4;stroke-opacity:1;stroke-dashoffset:0"
         d="m 694.83922,106.49528 c -0.14185,-1.3948 0.1,-2.5549 0.93281,-3.08412 1.42159,-0.90333 4.17837,0.32466 6.22384,2.18956 1.30586,-2.44646 3.51806,-4.52192 5.16279,-4.14338 2.19804,0.50584 2.59581,5.24226 1.84446,8.50698 -0.75134,3.26473 -2.39112,3.80695 -4.58914,3.30111 -0.40519,-0.0932 -0.77308,-0.23439 -1.1448,-0.39352 -0.29938,0.27665 -0.61915,0.53207 -0.97314,0.75684 -1.90364,1.20966 -3.63038,1.24506 -5.42711,-1.58244 -1.01065,-1.59046 -1.84744,-3.7578 -2.02979,-5.55112 z"
         id="path4293" />
      <path
         id="path4295"
         d="m 694.72344,112.37699 c 0.24442,-1.57348 0.84308,-2.77895 1.91019,-3.12152 1.82146,-0.58473 4.49857,1.55589 6.21118,4.19228 2.13714,-2.31372 5.1638,-3.95964 6.86261,-3.07165 2.27031,1.18668 1.34818,6.50581 -0.41441,9.87789 -1.76259,3.37207 -3.72019,3.49736 -5.99049,2.31068 -0.41852,-0.21876 -0.78229,-0.47944 -1.14512,-0.76098 -0.40839,0.2181 -0.83309,0.40701 -1.28661,0.55243 -2.43911,0.78302 -4.34684,0.32638 -5.50985,-3.29645 -0.65421,-2.03784 -0.9518,-4.65974 -0.63755,-6.6828 z"
         style="fill:#ffffff;fill-opacity:1;stroke:#000000;stroke-width:1.62780952;stroke-linecap:butt;stroke-linejoin:miter;stroke-miterlimit:4;stroke-opacity:1;stroke-dashoffset:0"
         inkscape:connector-curvature="0" />
      <path
         inkscape:connector-curvature="0"
         style="fill:#ffffff;fill-opacity:1;stroke:#000000;stroke-width:1.97574484;stroke-linecap:butt;stroke-linejoin:miter;stroke-miterlimit:4;stroke-opacity:1;stroke-dashoffset:0"
         d="m 692.1617,117.81652 c 0.78084,-1.76796 1.86139,-2.99317 3.22009,-3.05957 2.31914,-0.11333 4.78529,3.23729 5.96493,6.86616 3.2324,-2.04121 7.29785,-3.02007 9.01056,-1.44535 2.28889,2.10445 -0.46315,8.05085 -3.58888,11.45053 -3.12575,3.39967 -5.46017,2.93159 -7.74906,0.82715 -0.42193,-0.38793 -0.76652,-0.80782 -1.10346,-1.25188 -0.54731,0.12746 -1.10457,0.21547 -1.68195,0.24348 -3.10556,0.15179 -5.1987,-0.98286 -5.42413,-5.59558 -0.12679,-2.59465 0.34793,-5.76201 1.35188,-8.0351 z"
         id="path4297" />
      <path
         id="path4299"
         d="m 686.76645,125.79751 c 1.22799,-1.94588 2.71426,-3.20031 4.32595,-3.0415 2.75099,0.27108 5.07086,4.64724 5.82709,9.12669 4.16281,-1.84006 9.12138,-2.28367 10.86373,-0.13038 2.32848,2.87763 -1.94983,9.40055 -6.22399,12.85905 -4.27416,3.45847 -6.94174,2.50003 -9.27022,-0.37761 -0.42924,-0.53046 -0.76181,-1.08507 -1.08117,-1.66681 -0.66678,0.0546 -1.33841,0.0611 -2.02325,-0.007 -3.68387,-0.36298 -5.95101,-2.06437 -5.41186,-7.53602 0.30327,-3.07778 1.41489,-6.72513 2.99374,-9.22698 z"
         style="fill:#ffffff;fill-opacity:1;stroke:#000000;stroke-width:2.35218978;stroke-linecap:butt;stroke-linejoin:miter;stroke-miterlimit:4;stroke-opacity:1;stroke-dashoffset:0"
         inkscape:connector-curvature="0" />
      <path
         inkscape:connector-curvature="0"
         style="fill:#ffffff;fill-opacity:1;stroke:#000000;stroke-width:2.35218978;stroke-linecap:butt;stroke-linejoin:miter;stroke-miterlimit:4;stroke-opacity:1;stroke-dashoffset:0"
         d="m 680.31009,133.84464 c 1.73615,-1.51003 3.52061,-2.28352 5.01837,-1.66749 2.55651,1.05151 3.51846,5.91024 2.95322,10.41776 4.51629,-0.56385 9.39267,0.43868 10.44143,3.00239 1.40155,3.42612 -4.57336,8.44138 -9.66217,10.52312 -5.08882,2.08172 -7.36758,0.39597 -8.76915,-3.03015 -0.25836,-0.63157 -0.41721,-1.25844 -0.55559,-1.90749 -0.65427,-0.13964 -1.29932,-0.32684 -1.93574,-0.5886 -3.42346,-1.40808 -5.10487,-3.69005 -3.01347,-8.7749 1.17642,-2.86022 3.29091,-6.03319 5.52311,-7.97466 z"
         id="path4301" />
      <path
         id="path4303"
         d="m 673.57289,140.7347 c 2.14866,-0.82321 4.09015,-0.93798 5.2859,0.15425 2.04102,1.86432 1.27873,6.75835 -0.79774,10.79884 4.43586,1.01883 8.6729,3.63256 8.77906,6.40044 0.14188,3.699 -7.19042,6.36162 -12.68454,6.57236 -5.4941,0.21075 -7.05674,-2.15415 -7.19863,-5.85314 -0.0262,-0.68187 0.0396,-1.32521 0.13211,-1.98236 -0.56674,-0.3555 -1.1085,-0.75253 -1.61659,-1.21664 -2.73315,-2.49651 -3.53022,-5.21667 0.17786,-9.27621 2.08579,-2.28348 5.16002,-4.53911 7.92259,-5.59754 z"
         style="fill:#ffffff;fill-opacity:1;stroke:#000000;stroke-width:2.35218978;stroke-linecap:butt;stroke-linejoin:miter;stroke-miterlimit:4;stroke-opacity:1;stroke-dashoffset:0"
         inkscape:connector-curvature="0" />
      <path
         style="fill:#ffffff;fill-opacity:1;stroke:#000000;stroke-width:2.35218978;stroke-linecap:butt;stroke-linejoin:miter;stroke-miterlimit:4;stroke-opacity:1;stroke-dashoffset:0"
         d="m 663.37924,144.98252 c 2.29348,-0.18542 4.18882,0.25069 5.02896,1.63523 1.43405,2.36325 -0.67442,6.84512 -3.80381,10.13815 3.97003,2.22574 7.30051,5.92598 6.62363,8.61193 -0.90458,3.5895 -8.68984,4.08157 -14.0213,2.73801 -5.33146,-1.34357 -6.1656,-4.05258 -5.26102,-7.64207 0.16675,-0.66169 0.41086,-1.26054 0.6845,-1.86511 -0.44382,-0.50059 -0.85199,-1.03402 -1.20898,-1.62232 -1.92033,-3.16466 -1.91988,-5.99919 2.78058,-8.85145 2.64401,-1.6044 6.22868,-2.90396 9.17744,-3.14237 z"
         id="path4305"
         inkscape:connector-curvature="0" />
      <path
         sodipodi:nodetypes="ccsccscc"
         inkscape:connector-curvature="0"
         id="path4309"
         d="m 646.22061,151.50287 c 0.94638,0 15.56264,-5.34134 18.1162,-5.00224 4.92099,0.99216 4.18102,3.33263 4.07655,5.02772 -0.34759,5.63998 -10.2985,5.14002 -10.2985,5.14002 4.14845,1.09725 10.26517,0.0106 9.88775,5.80047 0.0893,3.14791 -5.28815,4.17592 -6.09932,4.17592 -0.81118,0 -15.81787,-5.13742 -15.68268,-5.67821 0.13521,-0.54078 0,-9.46368 0,-9.46368 z"
         style="fill:#ffffff;fill-opacity:1;stroke:#000000;stroke-width:1.09938884px;stroke-linecap:butt;stroke-linejoin:miter;stroke-opacity:1;display:inline" />
      <rect
         ry="4.1810942"
         rx="4.1810942"
         y="147.8506"
         x="630.57941"
         height="18.286163"
         width="15.347316"
         id="rect4307"
         style="fill:#ffffff;fill-opacity:1;stroke:#000000;stroke-width:2.35218978;stroke-linecap:butt;stroke-linejoin:miter;stroke-miterlimit:4;stroke-opacity:1;stroke-dasharray:none;stroke-dashoffset:0;display:inline" />
    </g>
  </g>
  <g
     inkscape:groupmode="layer"
     id="layer2"
     inkscape:label="van"
     style="display:inline">
    <g
       id="g4123"
       transform="matrix(1.2576114,0,0,1.2362957,-103.23986,-196.02352)">
      <rect
         ry="0"
         rx="0"
         y="451.41046"
         x="137.35588"
         height="470.49292"
         width="470.49292"
         id="rect4288"
         style="fill:#c3efd9;fill-opacity:1;stroke:none;display:inline" />
      <g
         id="g4083">
        <path
           sodipodi:nodetypes="ccccccccc"
           inkscape:connector-curvature="0"
           id="path4142"
           d="m 640.57316,700.753 2.18261,9.90849 -58.92202,64.23297 -14.77866,1.45461 -34.87438,-13.99687 0.47639,-9.62843 5.98966,2.35147 66.05939,-63.58879 z"
           style="fill:#ffffff;fill-opacity:1;stroke:#000000;stroke-width:3.70000005;stroke-miterlimit:4;stroke-opacity:1;stroke-dasharray:none" />
        <path
           style="fill:#ffffff;fill-opacity:1;stroke:#000000;stroke-width:3.70000005;stroke-miterlimit:4;stroke-opacity:1;stroke-dasharray:none"
           d="m 156.64931,600.00274 184.04277,-62.74681 c 0,0 12.85933,-3.29368 27.83519,-4.42867 14.97584,-1.135 98.35491,-1.5954 98.35491,-1.5954 0,0 -7.01909,-25.29537 5.44225,-31.58591 12.46132,-6.29053 16.34695,-10.10027 16.34695,-10.10027 l 41.2426,-63.29995 24.33914,3.23294 -0.11636,55.15433 c 0,0 21.24952,13.0364 21.16519,21.58681 -0.0843,8.5504 -1.03211,17.94741 -7.94833,25.57531 -6.91621,7.6279 51.67513,6.06791 51.67513,6.06791 0,0 13.65535,2.70005 13.15616,9.96367 -0.49921,7.26362 -11.89805,122.59286 -11.89805,122.59286 L 359.63621,914.1246 c 0,0 -29.22313,15.10402 -34.75138,12.05657 -5.52825,-3.04745 -144.25895,-69.40496 -144.25895,-69.40496 0,0 -48.51131,-66.75048 -54.43757,-72.79479 -5.92625,-6.04431 -12.96221,-29.62958 -12.96221,-29.62958 0,0 -1.71177,-43.20061 7.53177,-70.04584 9.24354,-26.84523 17.25933,-59.26086 20.73851,-65.21241 3.47919,-5.95155 15.15293,-19.09085 15.15293,-19.09085 z"
           id="path3019"
           inkscape:connector-curvature="0"
           sodipodi:nodetypes="ccscsccccsscsccscscssc" />
        <path
           style="fill:#ffffff;fill-opacity:1;stroke:#000000;stroke-width:3.70000005;stroke-miterlimit:4;stroke-opacity:1;stroke-dasharray:none"
           d="m 519.81447,551.18565 c 33.40464,-10.99626 31.55123,-11.95982 59.01896,-12.86389 31.90927,-1.05025 43.58692,-1.88507 51.30911,5.99094 5.92625,6.04431 -2.31545,55.20599 -5.74236,99.21104 -2.62326,33.68529 -7.60094,33.70241 -7.60094,33.70241 L 495.54038,790.18929 368.21191,911.6438 c 0,0 -6.4676,5.49452 -18.07389,11.79348 -7.90007,4.04864 -15.16301,3.98397 -23.14246,3.94579 -2.66482,-1.17128 -32.10203,-10.0978 -22.42259,-65.96402 5.21372,-30.09169 6.56694,-34.95458 15.31782,-76.87622"
           id="path3021"
           inkscape:connector-curvature="0"
           sodipodi:nodetypes="cssscccccsc" />
        <path
           style="fill:#e9e9e9;fill-opacity:1;stroke:#000000;stroke-width:3.70000005;stroke-miterlimit:4;stroke-opacity:1;stroke-dasharray:none"
           d="m 128.76861,739.11289 c 0,0 40.14642,47.85525 44.39633,50.46255 4.2499,2.60728 83.09237,28.61095 88.23947,26.95147 5.1471,-1.65949 10.71752,-2.88725 10.00582,-17.43136 -0.71169,-14.54412 19.19709,-82.33009 19.19709,-82.33009 0,0 1.80283,-9.38858 -10.97218,-14.6453 -12.77501,-5.25674 -82.7028,-24.75905 -82.7028,-24.75905 0,0 -32.76305,-16.1429 -35.33659,-15.31315 -2.57357,0.82974 -17.95584,-0.17708 -17.95584,-0.17708 0,0 -13.29783,47.75577 -12.5018,53.74948 z"
           id="path3023"
           inkscape:connector-curvature="0"
           sodipodi:nodetypes="cssscscsccc" />
        <path
           sodipodi:nodetypes="sssss"
           inkscape:connector-curvature="0"
           id="path3334"
           d="m 512.86656,517.96545 c -2.48157,11.90451 -5.66547,21.52986 -21.34311,19.18907 -14.12891,-2.10955 -22.72662,-1.55049 -26.99577,-12.93688 -4.26915,-11.38639 6.42963,-32.23 20.64323,-30.79834 17.27896,1.74039 30.63241,10.45802 27.69565,24.54615 z"
           style="fill:#ffffff;fill-opacity:1;stroke:#000000;stroke-width:3.70000005;stroke-miterlimit:4;stroke-opacity:1;stroke-dasharray:none" />
        <g
           transform="matrix(0.57384878,-0.21515548,0.21515548,0.57384878,261.77349,456.21341)"
           id="g4144"
           style="fill:#ffffff;fill-opacity:1;stroke:#000000;stroke-width:2.12121081;stroke-miterlimit:4;stroke-opacity:1;stroke-dasharray:none">
          <path
             sodipodi:nodetypes="ccccccc"
             inkscape:connector-curvature="0"
             id="path4146"
             d="m 373.03571,548.07648 6.42858,15.71428 -19.28572,40.71428 -14.28571,6.42858 -10.35714,-8.21429 23.21428,-48.75 z"
             style="fill:#ffffff;fill-opacity:1;stroke:#000000;stroke-width:2.12121081;stroke-miterlimit:4;stroke-opacity:1;stroke-dasharray:none" />
          <path
             sodipodi:nodetypes="ccccc"
             inkscape:connector-curvature="0"
             id="path4148"
             d="m 358.75,554.14791 5.89286,14.82142 -19.10714,42.32143 -10,-8.75 z"
             style="fill:#ffffff;fill-opacity:1;stroke:#000000;stroke-width:2.12121081;stroke-miterlimit:4;stroke-opacity:1;stroke-dasharray:none" />
        </g>
        <path
           style="fill:#ffffff;fill-opacity:1;stroke:#000000;stroke-width:3.70000005;stroke-miterlimit:4;stroke-opacity:1;stroke-dasharray:none"
           d="m 479.60839,864.347 2.75918,12.52594 -74.48701,81.20091 -18.68263,1.83886 -44.08688,-17.69432 0.60224,-12.1719 7.5719,2.97264 83.5098,-80.38656 z"
           id="path4116"
           inkscape:connector-curvature="0"
           sodipodi:nodetypes="ccccccccc" />
        <g
           id="g4111"
           transform="matrix(0.7254381,-0.27199149,0.27199149,0.7254381,0.74405651,555.20922)"
           style="fill:#ffffff;fill-opacity:1;stroke:#000000;stroke-width:1.67795753;stroke-miterlimit:4;stroke-opacity:1;stroke-dasharray:none">
          <path
             style="fill:#ffffff;fill-opacity:1;stroke:#000000;stroke-width:1.67795753;stroke-miterlimit:4;stroke-opacity:1;stroke-dasharray:none"
             d="m 373.03571,548.07648 6.42858,15.71428 -19.28572,40.71428 -14.28571,6.42858 -10.35714,-8.21429 23.21428,-48.75 z"
             id="path4107"
             inkscape:connector-curvature="0"
             sodipodi:nodetypes="ccccccc" />
          <path
             style="fill:#ffffff;fill-opacity:1;stroke:#000000;stroke-width:1.67795753;stroke-miterlimit:4;stroke-opacity:1;stroke-dasharray:none"
             d="m 358.75,554.14791 5.89286,14.82142 -19.10714,42.32143 -10,-8.75 z"
             id="path4109"
             inkscape:connector-curvature="0"
             sodipodi:nodetypes="ccccc" />
        </g>
        <path
           style="fill:#ffffff;fill-opacity:1;stroke:#000000;stroke-width:1.79999995;stroke-miterlimit:4;stroke-opacity:1;stroke-dasharray:none"
           d="m 422.11523,776.45101 19.5305,21.0897 -6.37344,76.00346 -18.82511,18.68143 -21.30049,-6.86564 7.82501,-91.07677 z"
           id="path3326"
           inkscape:connector-curvature="0"
           sodipodi:nodetypes="ccccccc" />
        <path
           style="fill:#ffffff;fill-opacity:1;stroke:#000000;stroke-width:1.79999995;stroke-miterlimit:4;stroke-opacity:1;stroke-dasharray:none"
           d="m 403.07785,794.56629 18.1506,19.99272 -5.13515,78.445 -21.05275,-7.92712 z"
           id="path3328"
           inkscape:connector-curvature="0"
           sodipodi:nodetypes="ccccc" />
        <use
           x="0"
           y="0"
           xlink:href="#path3326"
           id="use3330"
           transform="matrix(0.72834313,0,0,0.72834313,292.33574,65.779623)"
           width="744.09448"
           height="1052.3622"
           style="fill:#ffffff;fill-opacity:1;stroke:#000000;stroke-width:2.47136259;stroke-miterlimit:4;stroke-opacity:1;stroke-dasharray:none" />
        <path
           inkscape:connector-curvature="0"
           id="path4150"
           d="m 640.4892,700.5291 -61.27317,64.09288 -9.88041,0.8951 -0.22452,10.30019 14.72265,-0.92279 58.92204,-64.23299 z"
           style="fill:#ffffff;fill-opacity:1;stroke:#000000;stroke-width:3.70000005;stroke-miterlimit:4;stroke-opacity:1;stroke-dasharray:none" />
        <use
           x="0"
           y="0"
           xlink:href="#path3328"
           id="use3332"
           transform="matrix(0.72834313,0,0,0.72834313,292.33574,65.779623)"
           width="744.09448"
           height="1052.3622"
           style="fill:#ffffff;fill-opacity:1;stroke:#000000;stroke-width:2.47136259;stroke-miterlimit:4;stroke-opacity:1;stroke-dasharray:none" />
        <path
           inkscape:connector-curvature="0"
           id="path4313"
           d="m 410.39942,770.2497 c 0,0 111.06323,-71.86444 118.19028,-84.33678 7.12705,-12.47234 23.16292,-39.79271 14.25411,-57.61034 -8.90882,-17.81763 -10.69058,-38.60486 -12.47234,-47.51368 -1.78177,-8.90881 -1.18785,-21.97508 -6.53314,-26.13252 -5.34528,-4.15745 -13.06626,-10.69058 -29.69605,-11.87842 -16.62978,-1.18785 -32.07173,-1.18785 -32.07173,-1.18785 0,0 -5.93921,-4.15744 -33.25958,-1.78176 -27.32036,2.37568 -21.97508,0 -40.98055,7.12705 -19.00547,7.12705 -44.54407,14.84803 -59.98602,20.78724 -15.44195,5.93921 -29.10213,6.53313 -41.57447,16.62979 -12.47234,10.09665 -26.13253,10.69057 -34.44742,21.38115 -8.31489,10.69058 -19.59939,33.25958 -17.81763,37.41703 1.78176,4.15744 -1.18784,11.87842 15.44195,23.75684 16.62978,11.87842 26.72644,10.09665 40.38662,25.5386 13.66019,15.44195 17.81763,12.47234 19.5994,30.88389 1.78176,18.41156 1.18784,31.47782 3.56352,40.38663 2.37569,8.90882 1.18785,17.81763 8.3149,21.97508 7.12705,4.15745 24.35076,11.87842 35.04134,8.90882 10.69058,-2.96961 54.04681,-24.35077 54.04681,-24.35077 z"
           style="fill:#ebebeb;fill-opacity:1;stroke:#000000;stroke-width:3.83385825;stroke-linecap:butt;stroke-linejoin:miter;stroke-miterlimit:4;stroke-opacity:1;stroke-dasharray:none" />
        <path
           inkscape:connector-curvature="0"
           id="path4152"
           d="m 534.43318,752.80774 34.5106,12.34545 0.4192,11.33585 -35.60215,-13.21319 z"
           style="fill:#ffffff;fill-opacity:1;stroke:#000000;stroke-width:3.70000005;stroke-miterlimit:4;stroke-opacity:1;stroke-dasharray:none" />
        <path
           style="fill:#ffffff;fill-opacity:1;stroke:#000000;stroke-width:3.70000005;stroke-miterlimit:4;stroke-opacity:1;stroke-dasharray:none"
           d="m 479.50226,864.06395 -77.45924,81.02381 -12.49045,1.13156 -0.28383,13.02111 18.61182,-1.16656 74.48704,-81.20093 z"
           id="path4118"
           inkscape:connector-curvature="0" />
        <path
           style="fill:#ffffff;fill-opacity:1;stroke:#000000;stroke-width:3.70000005;stroke-miterlimit:4;stroke-opacity:1;stroke-dasharray:none"
           d="m 345.43022,930.15264 43.627,15.60666 0.52994,14.33036 -45.00691,-16.70362 z"
           id="path4120"
           inkscape:connector-curvature="0" />
        <path
           style="fill:none;stroke:#000000;stroke-width:1px;stroke-linecap:butt;stroke-linejoin:miter;stroke-opacity:1"
           d="m 513.5939,699.29479 -29.79355,-6.00318 4.18837,-150.78166"
           id="path4195"
           inkscape:connector-curvature="0" />
        <path
           style="fill:none;stroke:#000000;stroke-width:1px;stroke-linecap:butt;stroke-linejoin:miter;stroke-opacity:1"
           d="m 503.53873,544.6238 -4.19966,139.00861 26.42987,5.56418"
           id="path4168"
           inkscape:connector-curvature="0"
           sodipodi:nodetypes="ccc" />
        <path
           style="fill:none;stroke:#000000;stroke-width:1px;stroke-linecap:butt;stroke-linejoin:miter;stroke-opacity:1"
           d="m 416.18589,541.68404 -0.41997,24.358 -59.21514,18.47849 2.51979,102.4716 57.11532,-24.77797 0.41996,66.35456 -17.63855,12.59897 -0.41997,-52.07573 -26.03786,11.33907 1.25989,51.2358 -15.95869,10.07917 -35.27711,-15.53872 -1.158,-130.65363"
           id="path4170"
           inkscape:connector-curvature="0"
           sodipodi:nodetypes="ccccccccccccc" />
        <path
           style="fill:#ffffff;fill-opacity:1;stroke:#000000;stroke-width:1px;stroke-linecap:butt;stroke-linejoin:miter;stroke-opacity:1"
           d="m 420.8055,764.68576 4.19966,-26.03787 c -0.9507,-8.80467 -1.46551,-17.39138 -5.45955,-27.71772 -2.83408,-7.80995 -8.84397,-12.89777 -17.21858,-15.95869 -10.48384,-2.71012 -17.3428,2.55451 -23.93804,8.39931 -6.77995,7.09404 -11.49957,15.73332 -15.11876,25.19793 l -10.91911,61.31498"
           id="path4178"
           inkscape:connector-curvature="0"
           sodipodi:nodetypes="ccccccc" />
        <path
           style="fill:none;stroke:#000000;stroke-width:1px;stroke-linecap:butt;stroke-linejoin:miter;stroke-opacity:1"
           d="m 415.76592,661.37423 -34.43718,-15.11876 -1.25989,-61.31498 35.69707,-19.31841"
           id="path4172"
           inkscape:connector-curvature="0"
           sodipodi:nodetypes="cccc" />
        <path
           style="fill:none;stroke:#000000;stroke-width:1px;stroke-linecap:butt;stroke-linejoin:miter;stroke-opacity:1"
           d="m 381.74871,645.41554 -23.14469,10.32518"
           id="path4174"
           inkscape:connector-curvature="0"
           sodipodi:nodetypes="cc" />
        <path
           style="fill:none;stroke:#000000;stroke-width:1px;stroke-linecap:butt;stroke-linejoin:miter;stroke-opacity:1"
           d="m 483.38038,692.87165 -67.19449,-5.03959"
           id="path4176"
           inkscape:connector-curvature="0" />
        <path
           style="fill:#ffffff;fill-opacity:1;stroke:#000000;stroke-width:1px;stroke-linecap:butt;stroke-linejoin:miter;stroke-opacity:1"
           d="m 310.0625,732.84375 c 0.31359,4.89629 0.71478,10.24103 0.9375,14.25 0.1856,3.34081 0.38126,6.39081 0.6875,9.15625 0.30624,2.76544 0.71858,5.24155 1.3125,7.46875 0.59392,2.22721 0.94717,4.44079 1.28125,6.59375 0.33408,2.15296 0.64831,4.25726 1.09375,6.1875 0.44544,1.93024 1.04075,3.69096 1.96875,5.25 0.32321,0.54299 0.74415,1.01418 1.15625,1.5 l 1.59375,1.5 c 0.40057,0.31359 0.74947,0.66375 1.21875,0.9375 1.78176,1.03936 4.18475,2.30042 6.96875,3.5625 2.784,1.26208 5.95218,2.52314 9.21875,3.5625 1.63328,0.51968 3.28102,0.99452 4.9375,1.375 1.65648,0.38048 3.32278,0.65815 4.9375,0.84375 1.61472,0.1856 3.1795,0.28371 4.6875,0.21875 1.508,-0.065 2.94493,-0.28505 4.28125,-0.65625 2.67264,-0.7424 7.40074,-2.64041 12.96875,-5.0625 5.56801,-2.42209 11.97481,-5.3605 18.0625,-8.21875 9.83084,-4.6157 15.50769,-7.42422 18.59375,-8.9375 L 310.0625,732.84375 z"
           id="path4180"
           inkscape:connector-curvature="0" />
        <path
           style="fill:none;stroke:#000000;stroke-width:1px;stroke-linecap:butt;stroke-linejoin:miter;stroke-opacity:1"
           d="m 345.63167,560.58249 3.35972,188.56455"
           id="path4211"
           inkscape:connector-curvature="0" />
        <path
           style="fill:none;stroke:#000000;stroke-width:1px;stroke-linecap:butt;stroke-linejoin:miter;stroke-opacity:1"
           d="m 233.41096,643.1506 88.19727,-27.32036 24.35076,-17.81763 -108.39058,32.36869"
           id="path4213"
           inkscape:connector-curvature="0" />
        <path
           style="fill:none;stroke:#000000;stroke-width:1px;stroke-linecap:butt;stroke-linejoin:miter;stroke-opacity:1"
           d="m 323.68695,569.5044 0.59392,20.78723 -5.64225,7.72098 -59.3921,16.62978 -6.83009,-4.75136 -0.29696,-5.04833"
           id="path4215"
           inkscape:connector-curvature="0" />
        <path
           style="fill:none;stroke:#000000;stroke-width:1px;stroke-linecap:butt;stroke-linejoin:miter;stroke-opacity:1"
           d="m 244.69546,663.64088 51.96809,-17.81763 9.20577,5.93921 1.18785,26.72644 -5.34529,7.12706 -13.66019,5.9392"
           id="path4217"
           inkscape:connector-curvature="0"
           sodipodi:nodetypes="cccccc" />
        <path
           sodipodi:nodetypes="cccccccccc"
           inkscape:connector-curvature="0"
           id="path4219"
           d="m 324.88725,738.25627 7.76319,-40.29197 c -0.9507,-8.80467 -1.46551,-17.39138 -5.45955,-27.71772 -2.83408,-7.80995 -8.84397,-12.89777 -17.21858,-15.95869 -10.48384,-2.71012 -17.3428,2.55451 -23.93804,8.39931 -6.77995,7.09404 -7.04516,8.01235 -10.66435,17.47696 l 15.33069,13.04735 14.8388,15.01492 6.23067,25.34468 z"
           style="fill:#ffffff;fill-opacity:1;stroke:#000000;stroke-width:1px;stroke-linecap:butt;stroke-linejoin:miter;stroke-opacity:1" />
        <path
           style="fill:#cdcdcd;fill-opacity:1;stroke:none"
           d="m 442.03125,538.8478 c -3.721,0.0565 -8.09618,0.27331 -13.21875,0.71875 -27.32036,2.37568 -21.96328,-0.002 -40.96875,7.125 -19.00547,7.12705 -44.55805,14.84204 -60,20.78125 -15.44195,5.93921 -29.09016,6.52834 -41.5625,16.625 -12.47234,10.09665 -26.15386,10.68442 -34.46875,21.375 -8.31489,10.69058 -19.59426,33.28005 -17.8125,37.4375 1.78176,4.15744 -1.19229,11.87158 15.4375,23.75 16.62978,11.87842 26.74607,10.0893 40.40625,25.53125 13.66019,15.44195 17.81198,12.4947 19.59375,30.90625 1.78176,18.41156 1.18682,31.46619 3.5625,40.375 2.37569,8.90882 1.18545,17.8113 8.3125,21.96875 7.12705,4.15745 24.34067,11.87585 35.03125,8.90625 10.69058,-2.96961 54.0625,-24.34375 54.0625,-24.34375 0,0 111.06045,-71.87141 118.1875,-84.34375 7.12705,-12.47234 23.15881,-39.77612 14.25,-57.59375 -8.90882,-17.81763 -10.68699,-38.62243 -12.46875,-47.53125 -1.78177,-8.90881 -1.18596,-21.96756 -6.53125,-26.125 -5.34528,-4.15745 -13.05771,-10.68716 -29.6875,-11.875 -16.62978,-1.18785 -32.09375,-1.1875 -32.09375,-1.1875 0,0 -3.90693,-2.74505 -20.03125,-2.5 z m 1.09375,7.96875 c 9.03774,-0.23411 17.71759,2.57085 26.71875,2.8125 16.49194,0.74576 36.00278,-1.62026 48.59375,11.125 4.21039,14.64488 4.98257,30.29677 8.34375,45.25 1.48553,12.05294 9.58397,22.05897 10.71875,34.09375 -1.05427,15.02504 -7.93506,28.98127 -16.03125,41.3125 -24.04751,22.23997 -52.0993,39.55983 -79.28125,57.90625 -22.24201,16.31012 -46.21181,30.09026 -71.6875,40.71875 -8.25672,3.986 -17.26132,8.70356 -26.75,6.09375 -6.59941,-2.46683 -14.58677,-3.49128 -19.46875,-9 -6.80375,-19.56189 -4.60171,-41.09869 -7.625,-61.46875 C 314.87948,702.57472 303.16087,695.04075 295,685.87905 c -12.17342,-15.04221 -33.58829,-17.2757 -46.96875,-30.78125 -6.63513,-5.59006 -6.92073,-15.44309 -3,-22.65625 5.9118,-10.62248 10.45428,-23.04769 21.90625,-28.84375 11.38217,-4.15173 21.15646,-11.21189 31.34375,-17.6875 28.31582,-10.36033 57.4346,-19.05363 85.78125,-29.40625 18.36553,-8.81784 39.0374,-8.58635 59.0625,-9.6875 z"
           id="path4164"
           inkscape:connector-curvature="0" />
        <path
           style="fill:none;stroke:#000000;stroke-width:0.99921262;stroke-linecap:butt;stroke-linejoin:miter;stroke-miterlimit:4;stroke-opacity:1;stroke-dasharray:none"
           d="m 443.125,547.0625 c -20.0251,1.10115 -40.70859,0.88177 -59.07412,9.69961 -28.34665,10.35262 -57.45381,19.03381 -85.76963,29.39414 -10.18729,6.47561 -19.96158,13.53577 -31.34375,17.6875 -11.45197,5.79606 -15.99445,18.22127 -21.90625,28.84375 -3.92073,7.21316 -3.63513,17.06619 3,22.65625 13.38046,13.50555 34.79533,15.73904 46.96875,30.78125 8.16087,9.1617 19.87948,16.69567 21.65625,29.78125 3.02329,20.37006 0.82125,41.90686 7.625,61.46875 4.88198,5.50872 12.86934,6.53317 19.46875,9 9.48868,2.60981 18.50586,-2.09616 26.76258,-6.08216 25.47569,-10.62849 49.42194,-24.41133 71.66395,-40.72145 27.18195,-18.34642 55.24471,-35.67517 79.29222,-57.91514 8.09619,-12.33123 14.97698,-26.28746 16.03125,-41.3125 -1.13478,-12.03478 -9.22622,-22.04938 -10.71175,-34.10232 C 523.42707,591.2882 522.64789,575.64488 518.4375,561 c -12.59097,-12.74526 -32.10181,-10.37924 -48.59375,-11.125 -9.00116,-0.24165 -17.68101,-3.04661 -26.71875,-2.8125 z"
           id="path4313-7"
           inkscape:connector-curvature="0" />
        <path
           style="fill:#e3e3e3;fill-opacity:1;stroke:#000000;stroke-width:0.71929133;stroke-miterlimit:4;stroke-opacity:1;stroke-dasharray:none"
           d="m 504.87324,517.13571 c -1.66998,8.01118 -3.81259,14.48858 -14.36291,12.91334 -9.50809,-1.41962 -15.29394,-1.0434 -18.16688,-8.70591 -2.87293,-7.6625 4.32684,-21.68927 13.89192,-20.72583 11.62793,1.1712 20.61417,7.03776 18.63787,16.5184 z"
           id="path4388"
           inkscape:connector-curvature="0"
           sodipodi:nodetypes="sssss" />
        <path
           style="fill:none;stroke:#000000;stroke-width:1px;stroke-linecap:butt;stroke-linejoin:miter;stroke-opacity:1"
           d="m 629.13164,545.712 c 0,0 -72.80022,8.85408 -98.87057,23.11899"
           id="path4390"
           inkscape:connector-curvature="0" />
      </g>
    </g>
    <rect
       style="fill:#ffffff;fill-opacity:1;stroke:none"
       id="rect4337"
       width="708.83008"
       height="1.7583665"
       x="21.259842"
       y="264.50623" />
  </g>
</svg>
