  0
SECTION
  2
HEADER
  9
$ACADVER
  1
AC1014
  9
$HANDSEED
  5
FFFF
  9
$MEASUREMENT
 70
     1
  0
ENDSEC
  0
SECTION
  2
TABLES
  0
TABLE
  2
VPORT
  5
8
330
0
100
AcDbSymbolTable
 70
     4
  0
VPORT
  5
2E
330
8
100
AcDbSymbolTableRecord
100
AcDbViewportTableRecord
  2
*ACTIVE
 70
     0
 10
0.0
 20
0.0
 11
1.0
 21
1.0
 12
210.0
 22
148.5
 13
0.0
 23
0.0
 14
10.0
 24
10.0
 15
10.0
 25
10.0
 16
0.0
 26
0.0
 36
1.0
 17
0.0
 27
0.0
 37
0.0
 40
341.0
 41
1.24
 42
50.0
 43
0.0
 44
0.0
 50
0.0
 51
0.0
 71
     0
 72
   100
 73
     1
 74
     3
 75
     0
 76
     0
 77
     0
 78
     0
  0
ENDTAB
  0
TABLE
  2
LTYPE
  5
5
330
0
100
AcDbSymbolTable
 70
     1
  0
LTYPE
  5
14
330
5
100
AcDbSymbolTableRecord
100
AcDbLinetypeTableRecord
  2
BYBLOCK
 70
     0
  3

 72
    65
 73
     0
 40
0.0
  0
LTYPE
  5
15
330
5
100
AcDbSymbolTableRecord
100
AcDbLinetypeTableRecord
  2
BYLAYER
 70
     0
  3

 72
    65
 73
     0
 40
0.0
  0
LTYPE
  5
16
330
5
100
AcDbSymbolTableRecord
100
AcDbLinetypeTableRecord
  2
CONTINUOUS
 70
     0
  3
Solid line
 72
    65
 73
     0
 40
0.0
  0
ENDTAB
  0
TABLE
  2
LAYER
  5
2
100
AcDbSymbolTable
 70
2
  0
LAYER
  5
50
100
AcDbSymbolTableRecord
100
AcDbLayerTableRecord
  2
0
 70
0
  6
CONTINUOUS
  0
LAYER
  5
51
100
AcDbSymbolTableRecord
100
AcDbLayerTableRecord
  2
Layer_1
 70
0
  6
CONTINUOUS
  0
ENDTAB
  0
TABLE
  2
STYLE
  5
3
330
0
100
AcDbSymbolTable
 70
     1
  0
STYLE
  5
11
330
3
100
AcDbSymbolTableRecord
100
AcDbTextStyleTableRecord
  2
STANDARD
 70
     0
 40
0.0
 41
1.0
 50
0.0
 71
     0
 42
2.5
  3
txt
  4

  0
ENDTAB
  0
TABLE
  2
VIEW
  5
6
330
0
100
AcDbSymbolTable
 70
     0
  0
ENDTAB
  0
TABLE
  2
UCS
  5
7
330
0
100
AcDbSymbolTable
 70
     0
  0
ENDTAB
  0
TABLE
  2
APPID
  5
9
330
0
100
AcDbSymbolTable
 70
     2
  0
APPID
  5
12
330
9
100
AcDbSymbolTableRecord
100
AcDbRegAppTableRecord
  2
ACAD
 70
     0
  0
ENDTAB
  0
TABLE
  2
DIMSTYLE
  5
A
330
0
100
AcDbSymbolTable
 70
     1
  0
DIMSTYLE
105
27
330
A
100
AcDbSymbolTableRecord
100
AcDbDimStyleTableRecord
  2
ISO-25
 70
     0
  3

  4

  5

  6

  7

 40
1.0
 41
2.5
 42
0.625
 43
3.75
 44
1.25
 45
0.0
 46
0.0
 47
0.0
 48
0.0
140
2.5
141
2.5
142
0.0
143
0.03937007874016
144
1.0
145
0.0
146
1.0
147
0.625
 71
     0
 72
     0
 73
     0
 74
     0
 75
     0
 76
     0
 77
     1
 78
     8
170
     0
171
     3
172
     1
173
     0
174
     0
175
     0
176
     0
177
     0
178
     0
270
     2
271
     2
272
     2
273
     2
274
     3
340
11
275
     0
280
     0
281
     0
282
     0
283
     0
284
     8
285
     0
286
     0
287
     3
288
     0
  0
ENDTAB
  0
TABLE
  2
BLOCK_RECORD
  5
1
330
0
100
AcDbSymbolTable
 70
     1
  0
BLOCK_RECORD
  5
1F
330
1
100
AcDbSymbolTableRecord
100
AcDbBlockTableRecord
  2
*MODEL_SPACE
  0
BLOCK_RECORD
  5
1B
330
1
100
AcDbSymbolTableRecord
100
AcDbBlockTableRecord
  2
*PAPER_SPACE
  0
ENDTAB
  0
ENDSEC
  0
SECTION
  2
BLOCKS
  0
BLOCK
  5
20
330
1F
100
AcDbEntity
  8
0
100
AcDbBlockBegin
  2
*MODEL_SPACE
 70
     0
 10
0.0
 20
0.0
 30
0.0
  3
*MODEL_SPACE
  1

  0
ENDBLK
  5
21
330
1F
100
AcDbEntity
  8
0
100
AcDbBlockEnd
  0
BLOCK
  5
1C
330
1B
100
AcDbEntity
 67
     1
  8
0
100
AcDbBlockBegin
  2
*PAPER_SPACE
  1

  0
ENDBLK
  5
1D
330
1B
100
AcDbEntity
 67
     1
  8
0
100
AcDbBlockEnd
  0
ENDSEC
  0
SECTION
  2
ENTITIES
  0
LWPOLYLINE
  5
100
100
AcDbEntity
  8
Layer_1
 62
5
100
AcDbPolyline
 90
9
 70
0
 10
516.167608
 20
751.157668
 30
0.0
 10
516.167608
 20
70.842708
 30
0.0
 10
601.206968
 20
-42.543116
 30
0.0
 10
757.112480
 20
-42.543116
 30
0.0
 10
842.151840
 20
70.842708
 30
0.0
 10
842.151840
 20
751.157668
 30
0.0
 10
757.112480
 20
864.543505
 30
0.0
 10
601.206968
 20
864.543505
 30
0.0
 10
516.167608
 20
751.157668
 30
0.0
  0
LWPOLYLINE
  5
101
100
AcDbEntity
  8
Layer_1
 62
5
100
AcDbPolyline
 90
25
 70
0
 10
683.414952
 20
107.837748
 30
0.0
 10
679.159728
 20
107.277540
 30
0.0
 10
674.904496
 20
107.837748
 30
0.0
 10
670.939256
 20
109.480204
 30
0.0
 10
667.534224
 20
112.092980
 30
0.0
 10
664.921448
 20
115.498012
 30
0.0
 10
663.278992
 20
119.463252
 30
0.0
 10
662.718784
 20
123.718484
 30
0.0
 10
663.278992
 20
127.973708
 30
0.0
 10
664.921448
 20
131.938956
 30
0.0
 10
667.534224
 20
135.343988
 30
0.0
 10
670.939256
 20
137.956764
 30
0.0
 10
674.904496
 20
139.599220
 30
0.0
 10
679.159728
 20
140.159428
 30
0.0
 10
683.414952
 20
139.599220
 30
0.0
 10
687.380200
 20
137.956764
 30
0.0
 10
690.785224
 20
135.343988
 30
0.0
 10
693.398000
 20
131.938956
 30
0.0
 10
695.040456
 20
127.973708
 30
0.0
 10
695.600672
 20
123.718484
 30
0.0
 10
695.040456
 20
119.463252
 30
0.0
 10
693.398000
 20
115.498012
 30
0.0
 10
690.785224
 20
112.092980
 30
0.0
 10
687.380200
 20
109.480204
 30
0.0
 10
683.414952
 20
107.837748
 30
0.0
  0
LWPOLYLINE
  5
102
100
AcDbEntity
  8
Layer_1
 62
5
100
AcDbPolyline
 90
25
 70
0
 10
662.718784
 20
313.639740
 30
0.0
 10
663.278992
 20
317.894964
 30
0.0
 10
664.921448
 20
321.860212
 30
0.0
 10
667.534224
 20
325.265244
 30
0.0
 10
670.939256
 20
327.878020
 30
0.0
 10
674.904496
 20
329.520476
 30
0.0
 10
679.159728
 20
330.080684
 30
0.0
 10
683.414952
 20
329.520476
 30
0.0
 10
687.380200
 20
327.878020
 30
0.0
 10
690.785224
 20
325.265244
 30
0.0
 10
693.398000
 20
321.860212
 30
0.0
 10
695.040456
 20
317.894964
 30
0.0
 10
695.600672
 20
313.639740
 30
0.0
 10
695.040456
 20
309.384508
 30
0.0
 10
693.398000
 20
305.419268
 30
0.0
 10
690.785224
 20
302.014236
 30
0.0
 10
687.380200
 20
299.401452
 30
0.0
 10
683.414952
 20
297.759004
 30
0.0
 10
679.159728
 20
297.198796
 30
0.0
 10
674.904496
 20
297.759004
 30
0.0
 10
670.939256
 20
299.401452
 30
0.0
 10
667.534224
 20
302.014236
 30
0.0
 10
664.921448
 20
305.419268
 30
0.0
 10
663.278992
 20
309.384508
 30
0.0
 10
662.718784
 20
313.639740
 30
0.0
  0
LWPOLYLINE
  5
103
100
AcDbEntity
  8
Layer_1
 62
5
100
AcDbPolyline
 90
25
 70
0
 10
674.904496
 20
487.680228
 30
0.0
 10
670.939256
 20
489.322708
 30
0.0
 10
667.534224
 20
491.935508
 30
0.0
 10
664.921448
 20
495.340548
 30
0.0
 10
663.278992
 20
499.305748
 30
0.0
 10
662.718784
 20
503.561028
 30
0.0
 10
663.278992
 20
507.816228
 30
0.0
 10
664.921448
 20
511.781428
 30
0.0
 10
667.534224
 20
515.186468
 30
0.0
 10
670.939256
 20
517.799268
 30
0.0
 10
674.904496
 20
519.441748
 30
0.0
 10
679.159728
 20
520.001908
 30
0.0
 10
683.414952
 20
519.441748
 30
0.0
 10
687.380200
 20
517.799268
 30
0.0
 10
690.785224
 20
515.186468
 30
0.0
 10
693.398000
 20
511.781428
 30
0.0
 10
695.040456
 20
507.816228
 30
0.0
 10
695.600672
 20
503.561028
 30
0.0
 10
695.040456
 20
499.305748
 30
0.0
 10
693.398000
 20
495.340548
 30
0.0
 10
690.785224
 20
491.935508
 30
0.0
 10
687.380200
 20
489.322708
 30
0.0
 10
683.414952
 20
487.680228
 30
0.0
 10
679.159728
 20
487.120068
 30
0.0
 10
674.904496
 20
487.680228
 30
0.0
  0
LWPOLYLINE
  5
104
100
AcDbEntity
  8
Layer_1
 62
5
100
AcDbPolyline
 90
25
 70
0
 10
674.904496
 20
677.438068
 30
0.0
 10
670.939256
 20
679.080468
 30
0.0
 10
667.534224
 20
681.693268
 30
0.0
 10
664.921448
 20
685.098308
 30
0.0
 10
663.278992
 20
689.063508
 30
0.0
 10
662.718784
 20
693.318788
 30
0.0
 10
663.278992
 20
697.573988
 30
0.0
 10
664.921448
 20
701.539268
 30
0.0
 10
667.534224
 20
704.944308
 30
0.0
 10
670.939256
 20
707.557028
 30
0.0
 10
674.904496
 20
709.199508
 30
0.0
 10
679.159728
 20
709.759748
 30
0.0
 10
683.414952
 20
709.199508
 30
0.0
 10
687.380200
 20
707.557028
 30
0.0
 10
690.785224
 20
704.944308
 30
0.0
 10
693.398000
 20
701.539268
 30
0.0
 10
695.040456
 20
697.573988
 30
0.0
 10
695.600672
 20
693.318788
 30
0.0
 10
695.040456
 20
689.063508
 30
0.0
 10
693.398000
 20
685.098308
 30
0.0
 10
690.785224
 20
681.693268
 30
0.0
 10
687.380200
 20
679.080468
 30
0.0
 10
683.414952
 20
677.438068
 30
0.0
 10
679.159728
 20
676.877828
 30
0.0
 10
674.904496
 20
677.438068
 30
0.0
  0
LWPOLYLINE
  5
105
100
AcDbEntity
  8
Layer_1
 62
5
100
AcDbPolyline
 90
40
 70
0
 10
59.560414
 20
750.023316
 30
0.0
 10
71.349206
 20
760.373796
 30
0.0
 10
71.349206
 20
783.467873
 30
0.0
 10
40.894822
 20
783.467873
 30
0.0
 10
40.894822
 20
67.152996
 30
0.0
 10
69.886022
 20
67.152996
 30
0.0
 10
69.886022
 20
95.772596
 30
0.0
 10
59.413838
 20
106.334996
 30
0.0
 10
52.032222
 20
119.247876
 30
0.0
 10
48.244238
 20
133.631236
 30
0.0
 10
48.307998
 20
148.504916
 30
0.0
 10
52.219190
 20
162.855316
 30
0.0
 10
59.711262
 20
175.704356
 30
0.0
 10
69.684142
 20
185.592116
 30
0.0
 10
69.684142
 20
286.894036
 30
0.0
 10
60.704470
 20
295.523076
 30
0.0
 10
53.089118
 20
308.126836
 30
0.0
 10
48.995350
 20
322.272196
 30
0.0
 10
48.702158
 20
336.995076
 30
0.0
 10
52.229526
 20
351.292196
 30
0.0
 10
59.337070
 20
364.189236
 30
0.0
 10
69.540422
 20
374.807236
 30
0.0
 10
69.684134
 20
374.893956
 30
0.0
 10
69.684134
 20
477.356836
 30
0.0
 10
61.915942
 20
484.417476
 30
0.0
 10
53.993558
 20
496.742676
 30
0.0
 10
49.531134
 20
510.698436
 30
0.0
 10
48.832774
 20
525.333636
 30
0.0
 10
51.946062
 20
539.650836
 30
0.0
 10
58.658854
 20
552.674436
 30
0.0
 10
68.513662
 20
563.516916
 30
0.0
 10
69.684134
 20
564.269236
 30
0.0
 10
69.684134
 20
662.207716
 30
0.0
 10
65.167374
 20
665.221956
 30
0.0
 10
54.816926
 20
677.010756
 30
0.0
 10
47.870318
 20
691.076756
 30
0.0
 10
44.800966
 20
706.461316
 30
0.0
 10
45.818030
 20
722.116196
 30
0.0
 10
50.852198
 20
736.974276
 30
0.0
 10
59.560398
 20
750.023236
 30
0.0
  0
LWPOLYLINE
  5
106
100
AcDbEntity
  8
Layer_1
 62
5
100
AcDbPolyline
 90
45
 70
0
 10
162.847264
 20
783.467873
 30
0.0
 10
119.469936
 20
783.467873
 30
0.0
 10
119.469936
 20
764.338513
 30
0.0
 10
132.518864
 20
755.630276
 30
0.0
 10
142.869312
 20
743.841476
 30
0.0
 10
149.815920
 20
729.775476
 30
0.0
 10
152.885272
 20
714.390916
 30
0.0
 10
151.868208
 20
698.736116
 30
0.0
 10
146.834040
 20
683.877956
 30
0.0
 10
138.125832
 20
670.828996
 30
0.0
 10
126.337048
 20
660.478596
 30
0.0
 10
120.956168
 20
657.821156
 30
0.0
 10
120.956168
 20
568.821236
 30
0.0
 10
124.927856
 20
566.774036
 30
0.0
 10
135.770296
 20
556.919236
 30
0.0
 10
143.692680
 20
544.593956
 30
0.0
 10
148.155104
 20
530.638276
 30
0.0
 10
148.853464
 20
516.003076
 30
0.0
 10
145.740176
 20
501.685876
 30
0.0
 10
139.027384
 20
488.662276
 30
0.0
 10
129.172576
 20
477.819796
 30
0.0
 10
120.956168
 20
472.538516
 30
0.0
 10
120.956168
 20
379.154756
 30
0.0
 10
126.363784
 20
376.174596
 30
0.0
 10
136.981768
 20
365.971236
 30
0.0
 10
144.597128
 20
353.367476
 30
0.0
 10
148.690888
 20
339.222116
 30
0.0
 10
148.984080
 20
324.499156
 30
0.0
 10
145.456712
 20
310.202036
 30
0.0
 10
138.349168
 20
297.305076
 30
0.0
 10
128.145816
 20
286.687076
 30
0.0
 10
120.956168
 20
282.342996
 30
0.0
 10
120.956168
 20
189.869796
 30
0.0
 10
127.800224
 20
185.879156
 30
0.0
 10
138.272416
 20
175.316756
 30
0.0
 10
145.654024
 20
162.403876
 30
0.0
 10
149.442016
 20
148.020516
 30
0.0
 10
149.378256
 20
133.146836
 30
0.0
 10
145.467064
 20
118.796436
 30
0.0
 10
137.975000
 20
105.947316
 30
0.0
 10
127.412616
 20
95.475156
 30
0.0
 10
120.956184
 20
91.784356
 30
0.0
 10
120.956184
 20
67.152996
 30
0.0
 10
162.847280
 20
67.152996
 30
0.0
 10
162.847280
 20
783.467873
 30
0.0
  0
LWPOLYLINE
  5
107
100
AcDbEntity
  8
Layer_1
 62
5
100
AcDbPolyline
 90
9
 70
0
 10
1178.404080
 20
-37.969276
 30
0.0
 10
1263.443440
 20
75.416540
 30
0.0
 10
1263.443440
 20
755.731508
 30
0.0
 10
1178.404080
 20
869.117349
 30
0.0
 10
1022.498560
 20
869.117349
 30
0.0
 10
937.459200
 20
755.731508
 30
0.0
 10
937.459200
 20
75.416540
 30
0.0
 10
1022.498560
 20
-37.969276
 30
0.0
 10
1178.404080
 20
-37.969276
 30
0.0
  0
LWPOLYLINE
  5
108
100
AcDbEntity
  8
Layer_1
 62
5
100
AcDbPolyline
 90
25
 70
0
 10
1156.033920
 20
333.106940
 30
0.0
 10
1157.994640
 20
318.213580
 30
0.0
 10
1156.033920
 20
303.320300
 30
0.0
 10
1150.285280
 20
289.441980
 30
0.0
 10
1141.140560
 20
277.524300
 30
0.0
 10
1129.222960
 20
268.379660
 30
0.0
 10
1115.344640
 20
262.631020
 30
0.0
 10
1100.451360
 20
260.670300
 30
0.0
 10
1085.558000
 20
262.631020
 30
0.0
 10
1071.679680
 20
268.379660
 30
0.0
 10
1059.762080
 20
277.524300
 30
0.0
 10
1050.617360
 20
289.441980
 30
0.0
 10
1044.868800
 20
303.320300
 30
0.0
 10
1042.908000
 20
318.213580
 30
0.0
 10
1044.868800
 20
333.106940
 30
0.0
 10
1050.617360
 20
346.985260
 30
0.0
 10
1059.762080
 20
358.902860
 30
0.0
 10
1071.679680
 20
368.047580
 30
0.0
 10
1085.558000
 20
373.796140
 30
0.0
 10
1100.451360
 20
375.756940
 30
0.0
 10
1115.344640
 20
373.796140
 30
0.0
 10
1129.222960
 20
368.047580
 30
0.0
 10
1141.140560
 20
358.902860
 30
0.0
 10
1150.285280
 20
346.985260
 30
0.0
 10
1156.033920
 20
333.106940
 30
0.0
  0
LWPOLYLINE
  5
109
100
AcDbEntity
  8
Layer_1
 62
5
100
AcDbPolyline
 90
25
 70
0
 10
1129.222960
 20
648.058628
 30
0.0
 10
1115.344640
 20
642.310068
 30
0.0
 10
1100.451360
 20
640.349348
 30
0.0
 10
1085.558000
 20
642.310068
 30
0.0
 10
1071.679680
 20
648.058628
 30
0.0
 10
1059.762080
 20
657.203348
 30
0.0
 10
1050.617360
 20
669.120948
 30
0.0
 10
1044.868800
 20
682.999348
 30
0.0
 10
1042.908000
 20
697.892628
 30
0.0
 10
1044.868800
 20
712.785988
 30
0.0
 10
1050.617360
 20
726.664308
 30
0.0
 10
1059.762080
 20
738.581908
 30
0.0
 10
1071.679680
 20
747.726628
 30
0.0
 10
1085.558000
 20
753.475188
 30
0.0
 10
1100.451360
 20
755.435908
 30
0.0
 10
1115.344640
 20
753.475188
 30
0.0
 10
1129.222960
 20
747.726628
 30
0.0
 10
1141.140560
 20
738.581908
 30
0.0
 10
1150.285280
 20
726.664308
 30
0.0
 10
1156.033920
 20
712.785988
 30
0.0
 10
1157.994640
 20
697.892628
 30
0.0
 10
1156.033920
 20
682.999348
 30
0.0
 10
1150.285280
 20
669.120948
 30
0.0
 10
1141.140560
 20
657.203348
 30
0.0
 10
1129.222960
 20
648.058628
 30
0.0
  0
LWPOLYLINE
  5
10a
100
AcDbEntity
  8
Layer_1
 62
5
100
AcDbPolyline
 90
25
 70
0
 10
1115.344640
 20
452.552300
 30
0.0
 10
1100.451360
 20
450.591580
 30
0.0
 10
1085.558000
 20
452.552300
 30
0.0
 10
1071.679680
 20
458.300940
 30
0.0
 10
1059.762080
 20
467.445580
 30
0.0
 10
1050.617360
 20
479.363180
 30
0.0
 10
1044.868800
 20
493.241580
 30
0.0
 10
1042.908000
 20
508.134860
 30
0.0
 10
1044.868800
 20
523.028140
 30
0.0
 10
1050.617360
 20
536.906540
 30
0.0
 10
1059.762080
 20
548.824140
 30
0.0
 10
1071.679680
 20
557.968860
 30
0.0
 10
1085.558000
 20
563.717428
 30
0.0
 10
1100.451360
 20
565.678148
 30
0.0
 10
1115.344640
 20
563.717428
 30
0.0
 10
1129.222960
 20
557.968860
 30
0.0
 10
1141.140560
 20
548.824140
 30
0.0
 10
1150.285280
 20
536.906540
 30
0.0
 10
1156.033920
 20
523.028140
 30
0.0
 10
1157.994640
 20
508.134860
 30
0.0
 10
1156.033920
 20
493.241580
 30
0.0
 10
1150.285280
 20
479.363180
 30
0.0
 10
1141.140560
 20
467.445580
 30
0.0
 10
1129.222960
 20
458.300940
 30
0.0
 10
1115.344640
 20
452.552300
 30
0.0
  0
LWPOLYLINE
  5
10b
100
AcDbEntity
  8
Layer_1
 62
5
100
AcDbPolyline
 90
25
 70
0
 10
1156.033920
 20
113.399020
 30
0.0
 10
1150.285280
 20
99.520700
 30
0.0
 10
1141.140560
 20
87.603100
 30
0.0
 10
1129.222960
 20
78.458380
 30
0.0
 10
1115.344640
 20
72.709820
 30
0.0
 10
1100.451360
 20
70.749020
 30
0.0
 10
1085.558000
 20
72.709820
 30
0.0
 10
1071.679680
 20
78.458380
 30
0.0
 10
1059.762080
 20
87.603100
 30
0.0
 10
1050.617360
 20
99.520700
 30
0.0
 10
1044.868800
 20
113.399020
 30
0.0
 10
1042.908000
 20
128.292380
 30
0.0
 10
1044.868800
 20
143.185660
 30
0.0
 10
1050.617360
 20
157.063980
 30
0.0
 10
1059.762080
 20
168.981580
 30
0.0
 10
1071.679680
 20
178.126300
 30
0.0
 10
1085.558000
 20
183.874940
 30
0.0
 10
1100.451360
 20
185.835660
 30
0.0
 10
1115.344640
 20
183.874940
 30
0.0
 10
1129.222960
 20
178.126300
 30
0.0
 10
1141.140560
 20
168.981580
 30
0.0
 10
1150.285280
 20
157.063980
 30
0.0
 10
1156.033920
 20
143.185660
 30
0.0
 10
1157.994640
 20
128.292380
 30
0.0
 10
1156.033920
 20
113.399020
 30
0.0
  0
LWPOLYLINE
  5
10c
100
AcDbEntity
  8
Layer_1
 62
5
100
AcDbPolyline
 90
25
 70
0
 10
267.696304
 20
115.479948
 30
0.0
 10
276.841008
 20
103.562348
 30
0.0
 10
288.758616
 20
94.417628
 30
0.0
 10
302.636968
 20
88.669068
 30
0.0
 10
317.530272
 20
86.708268
 30
0.0
 10
332.423576
 20
88.669068
 30
0.0
 10
346.301920
 20
94.417628
 30
0.0
 10
358.219528
 20
103.562348
 30
0.0
 10
367.364232
 20
115.479948
 30
0.0
 10
373.112832
 20
129.358268
 30
0.0
 10
375.073576
 20
144.251548
 30
0.0
 10
373.112832
 20
159.144908
 30
0.0
 10
367.364232
 20
173.023228
 30
0.0
 10
358.219528
 20
184.940828
 30
0.0
 10
346.301920
 20
194.085548
 30
0.0
 10
332.423576
 20
199.834108
 30
0.0
 10
317.530272
 20
201.794908
 30
0.0
 10
302.636968
 20
199.834108
 30
0.0
 10
288.758616
 20
194.085548
 30
0.0
 10
276.841008
 20
184.940828
 30
0.0
 10
267.696304
 20
173.023228
 30
0.0
 10
261.947704
 20
159.144908
 30
0.0
 10
259.986968
 20
144.251548
 30
0.0
 10
261.947704
 20
129.358268
 30
0.0
 10
267.696304
 20
115.479948
 30
0.0
  0
LWPOLYLINE
  5
10d
100
AcDbEntity
  8
Layer_1
 62
5
100
AcDbPolyline
 90
25
 70
0
 10
301.259984
 20
141.888828
 30
0.0
 10
301.202864
 20
146.180428
 30
0.0
 10
302.258424
 20
150.340508
 30
0.0
 10
304.354728
 20
154.085708
 30
0.0
 10
307.348928
 20
157.160668
 30
0.0
 10
311.036968
 20
159.355948
 30
0.0
 10
315.167520
 20
160.521868
 30
0.0
 10
319.459088
 20
160.579468
 30
0.0
 10
323.619208
 20
159.523868
 30
0.0
 10
327.364384
 20
157.427548
 30
0.0
 10
330.439376
 20
154.433388
 30
0.0
 10
332.634640
 20
150.745308
 30
0.0
 10
333.800560
 20
146.614748
 30
0.0
 10
333.857680
 20
142.323228
 30
0.0
 10
332.802120
 20
138.163068
 30
0.0
 10
330.705816
 20
134.417948
 30
0.0
 10
327.711616
 20
131.342908
 30
0.0
 10
324.023576
 20
129.147628
 30
0.0
 10
319.893032
 20
127.981708
 30
0.0
 10
315.601456
 20
127.924108
 30
0.0
 10
311.441336
 20
128.979628
 30
0.0
 10
307.696168
 20
131.075948
 30
0.0
 10
304.621168
 20
134.070188
 30
0.0
 10
302.425912
 20
137.758188
 30
0.0
 10
301.259984
 20
141.888748
 30
0.0
  0
LWPOLYLINE
  5
10e
100
AcDbEntity
  8
Layer_1
 62
5
100
AcDbPolyline
 90
25
 70
0
 10
249.932072
 20
272.397300
 30
0.0
 10
259.076776
 20
260.479700
 30
0.0
 10
270.994384
 20
251.334980
 30
0.0
 10
284.872736
 20
245.586420
 30
0.0
 10
299.766040
 20
243.625620
 30
0.0
 10
314.659344
 20
245.586420
 30
0.0
 10
328.537688
 20
251.334980
 30
0.0
 10
340.455296
 20
260.479700
 30
0.0
 10
349.600000
 20
272.397300
 30
0.0
 10
355.348600
 20
286.275620
 30
0.0
 10
357.309344
 20
301.168900
 30
0.0
 10
355.348600
 20
316.062260
 30
0.0
 10
349.600000
 20
329.940580
 30
0.0
 10
340.455296
 20
341.858180
 30
0.0
 10
328.537688
 20
351.002900
 30
0.0
 10
314.659344
 20
356.751460
 30
0.0
 10
299.766040
 20
358.712260
 30
0.0
 10
284.872736
 20
356.751460
 30
0.0
 10
270.994384
 20
351.002900
 30
0.0
 10
259.076776
 20
341.858180
 30
0.0
 10
249.932072
 20
329.940580
 30
0.0
 10
244.183472
 20
316.062260
 30
0.0
 10
242.222736
 20
301.168900
 30
0.0
 10
244.183472
 20
286.275620
 30
0.0
 10
249.932072
 20
272.397300
 30
0.0
  0
LWPOLYLINE
  5
10f
100
AcDbEntity
  8
Layer_1
 62
5
100
AcDbPolyline
 90
25
 70
0
 10
283.495752
 20
298.806180
 30
0.0
 10
283.438632
 20
303.097780
 30
0.0
 10
284.494192
 20
307.257860
 30
0.0
 10
286.590496
 20
311.003060
 30
0.0
 10
289.584696
 20
314.078020
 30
0.0
 10
293.272736
 20
316.273300
 30
0.0
 10
297.403288
 20
317.439220
 30
0.0
 10
301.694856
 20
317.496820
 30
0.0
 10
305.854976
 20
316.441220
 30
0.0
 10
309.600152
 20
314.344900
 30
0.0
 10
312.675144
 20
311.350740
 30
0.0
 10
314.870408
 20
307.662660
 30
0.0
 10
316.036328
 20
303.532100
 30
0.0
 10
316.093448
 20
299.240580
 30
0.0
 10
315.037888
 20
295.080420
 30
0.0
 10
312.941584
 20
291.335300
 30
0.0
 10
309.947384
 20
288.260260
 30
0.0
 10
306.259344
 20
286.064980
 30
0.0
 10
302.128800
 20
284.899060
 30
0.0
 10
297.837224
 20
284.841460
 30
0.0
 10
293.677104
 20
285.896980
 30
0.0
 10
289.931936
 20
287.993300
 30
0.0
 10
286.856936
 20
290.987540
 30
0.0
 10
284.661680
 20
294.675540
 30
0.0
 10
283.495752
 20
298.806100
 30
0.0
  0
LWPOLYLINE
  5
110
100
AcDbEntity
  8
Layer_1
 62
5
100
AcDbPolyline
 90
25
 70
0
 10
249.932072
 20
420.432532
 30
0.0
 10
259.076776
 20
408.514932
 30
0.0
 10
270.994384
 20
399.370212
 30
0.0
 10
284.872736
 20
393.621652
 30
0.0
 10
299.766040
 20
391.660852
 30
0.0
 10
314.659344
 20
393.621652
 30
0.0
 10
328.537688
 20
399.370212
 30
0.0
 10
340.455296
 20
408.514932
 30
0.0
 10
349.600000
 20
420.432532
 30
0.0
 10
355.348600
 20
434.310852
 30
0.0
 10
357.309344
 20
449.204132
 30
0.0
 10
355.348600
 20
464.097492
 30
0.0
 10
349.600000
 20
477.975812
 30
0.0
 10
340.455296
 20
489.893412
 30
0.0
 10
328.537688
 20
499.038132
 30
0.0
 10
314.659344
 20
504.786692
 30
0.0
 10
299.766040
 20
506.747492
 30
0.0
 10
284.872736
 20
504.786692
 30
0.0
 10
270.994384
 20
499.038132
 30
0.0
 10
259.076776
 20
489.893412
 30
0.0
 10
249.932072
 20
477.975812
 30
0.0
 10
244.183472
 20
464.097492
 30
0.0
 10
242.222736
 20
449.204132
 30
0.0
 10
244.183472
 20
434.310852
 30
0.0
 10
249.932072
 20
420.432532
 30
0.0
  0
LWPOLYLINE
  5
111
100
AcDbEntity
  8
Layer_1
 62
5
100
AcDbPolyline
 90
25
 70
0
 10
283.495752
 20
446.841412
 30
0.0
 10
283.438632
 20
451.133012
 30
0.0
 10
284.494192
 20
455.293092
 30
0.0
 10
286.590496
 20
459.038292
 30
0.0
 10
289.584696
 20
462.113252
 30
0.0
 10
293.272736
 20
464.308532
 30
0.0
 10
297.403288
 20
465.474452
 30
0.0
 10
301.694856
 20
465.532052
 30
0.0
 10
305.854976
 20
464.476452
 30
0.0
 10
309.600152
 20
462.380132
 30
0.0
 10
312.675144
 20
459.385972
 30
0.0
 10
314.870408
 20
455.697892
 30
0.0
 10
316.036328
 20
451.567332
 30
0.0
 10
316.093448
 20
447.275812
 30
0.0
 10
315.037888
 20
443.115652
 30
0.0
 10
312.941584
 20
439.370532
 30
0.0
 10
309.947384
 20
436.295492
 30
0.0
 10
306.259344
 20
434.100212
 30
0.0
 10
302.128800
 20
432.934292
 30
0.0
 10
297.837224
 20
432.876692
 30
0.0
 10
293.677104
 20
433.932212
 30
0.0
 10
289.931936
 20
436.028532
 30
0.0
 10
286.856936
 20
439.022772
 30
0.0
 10
284.661680
 20
442.710772
 30
0.0
 10
283.495752
 20
446.841332
 30
0.0
  0
LWPOLYLINE
  5
112
100
AcDbEntity
  8
Layer_1
 62
5
100
AcDbPolyline
 90
25
 70
0
 10
232.167840
 20
568.467764
 30
0.0
 10
241.312544
 20
556.550164
 30
0.0
 10
253.230152
 20
547.405444
 30
0.0
 10
267.108504
 20
541.656884
 30
0.0
 10
282.001808
 20
539.696084
 30
0.0
 10
296.895112
 20
541.656884
 30
0.0
 10
310.773456
 20
547.405444
 30
0.0
 10
322.691064
 20
556.550164
 30
0.0
 10
331.835768
 20
568.467764
 30
0.0
 10
337.584368
 20
582.346084
 30
0.0
 10
339.545112
 20
597.239364
 30
0.0
 10
337.584368
 20
612.132724
 30
0.0
 10
331.835768
 20
626.011044
 30
0.0
 10
322.691064
 20
637.928644
 30
0.0
 10
310.773456
 20
647.073364
 30
0.0
 10
296.895112
 20
652.821924
 30
0.0
 10
282.001808
 20
654.782724
 30
0.0
 10
267.108504
 20
652.821924
 30
0.0
 10
253.230152
 20
647.073364
 30
0.0
 10
241.312544
 20
637.928644
 30
0.0
 10
232.167840
 20
626.011044
 30
0.0
 10
226.419240
 20
612.132724
 30
0.0
 10
224.458504
 20
597.239364
 30
0.0
 10
226.419240
 20
582.346084
 30
0.0
 10
232.167840
 20
568.467764
 30
0.0
  0
LWPOLYLINE
  5
113
100
AcDbEntity
  8
Layer_1
 62
5
100
AcDbPolyline
 90
25
 70
0
 10
265.731520
 20
594.876644
 30
0.0
 10
265.674400
 20
599.168244
 30
0.0
 10
266.729960
 20
603.328324
 30
0.0
 10
268.826264
 20
607.073524
 30
0.0
 10
271.820464
 20
610.148484
 30
0.0
 10
275.508504
 20
612.343764
 30
0.0
 10
279.639056
 20
613.509684
 30
0.0
 10
283.930624
 20
613.567284
 30
0.0
 10
288.090744
 20
612.511684
 30
0.0
 10
291.835920
 20
610.415364
 30
0.0
 10
294.910912
 20
607.421204
 30
0.0
 10
297.106176
 20
603.733124
 30
0.0
 10
298.272096
 20
599.602564
 30
0.0
 10
298.329216
 20
595.311044
 30
0.0
 10
297.273656
 20
591.150884
 30
0.0
 10
295.177352
 20
587.405764
 30
0.0
 10
292.183152
 20
584.330724
 30
0.0
 10
288.495112
 20
582.135444
 30
0.0
 10
284.364568
 20
580.969524
 30
0.0
 10
280.072992
 20
580.911924
 30
0.0
 10
275.912872
 20
581.967444
 30
0.0
 10
272.167704
 20
584.063764
 30
0.0
 10
269.092704
 20
587.058004
 30
0.0
 10
266.897448
 20
590.746004
 30
0.0
 10
265.731520
 20
594.876564
 30
0.0
  0
ENDSEC
  0
SECTION
  2
OBJECTS
  0
DICTIONARY
  5
C
330
0
100
AcDbDictionary
  3
ACAD_GROUP
350
D
  3
ACAD_MLINESTYLE
350
17
  0
DICTIONARY
  5
D
330
C
100
AcDbDictionary
  0
DICTIONARY
  5
1A
330
C
100
AcDbDictionary
  0
DICTIONARY
  5
17
330
C
100
AcDbDictionary
  3
STANDARD
350
18
  0
DICTIONARY
  5
19
330
C
100
AcDbDictionary
  0
ENDSEC
  0
EOF
