<?xml version="1.0" encoding="UTF-8" standalone="no"?>
<!-- Created with Inkscape (http://www.inkscape.org/) -->

<svg
   xmlns:dc="http://purl.org/dc/elements/1.1/"
   xmlns:cc="http://creativecommons.org/ns#"
   xmlns:rdf="http://www.w3.org/1999/02/22-rdf-syntax-ns#"
   xmlns:svg="http://www.w3.org/2000/svg"
   xmlns="http://www.w3.org/2000/svg"
   xmlns:sodipodi="http://sodipodi.sourceforge.net/DTD/sodipodi-0.dtd"
   xmlns:inkscape="http://www.inkscape.org/namespaces/inkscape"
   width="744.09448819"
   height="1052.3622047"
   id="svg2"
   version="1.1"
   inkscape:version="0.48.4 r9939"
   sodipodi:docname="New document 1">
  <defs
     id="defs4" />
  <sodipodi:namedview
     id="base"
     pagecolor="#ffffff"
     bordercolor="#666666"
     borderopacity="1.0"
     inkscape:pageopacity="0.0"
     inkscape:pageshadow="2"
     inkscape:zoom="1.2167969"
     inkscape:cx="246.79454"
     inkscape:cy="520"
     inkscape:document-units="px"
     inkscape:current-layer="layer1"
     showgrid="false"
     showguides="true"
     inkscape:guide-bbox="true"
     inkscape:window-width="1920"
     inkscape:window-height="1057"
     inkscape:window-x="-8"
     inkscape:window-y="-8"
     inkscape:window-maximized="1" />
  <metadata
     id="metadata7">
    <rdf:RDF>
      <cc:Work
         rdf:about="">
        <dc:format>image/svg+xml</dc:format>
        <dc:type
           rdf:resource="http://purl.org/dc/dcmitype/StillImage" />
        <dc:title></dc:title>
      </cc:Work>
    </rdf:RDF>
  </metadata>
  <g
     inkscape:label="Layer 1"
     inkscape:groupmode="layer"
     id="layer1">
    <path
       style="font-size:medium;font-style:normal;font-variant:normal;font-weight:normal;font-stretch:normal;text-indent:0;text-align:start;text-decoration:none;line-height:normal;letter-spacing:normal;word-spacing:normal;text-transform:none;direction:ltr;block-progression:tb;writing-mode:lr-tb;text-anchor:start;baseline-shift:baseline;color:#000000;fill:none;fill-opacity:1;stroke:#000000;stroke-width:1.25;marker:none;visibility:visible;display:inline;overflow:visible;enable-background:accumulate;font-family:Sans;-inkscape-font-specification:Sans;stroke-opacity:1;stroke-miterlimit:4;stroke-dasharray:none"
       d="m 58.28125,300.65625 0,6.3125 0,77.78125 0,6.3125 6.28125,0 211.21875,0 6.3125,0 0,-6.3125 0,-77.78125 0,-6.3125 -6.3125,0 -211.21875,0 -6.28125,0 z M 70.875,313.25 l 198.59375,0 0,65.1875 -198.59375,0 0,-65.1875 z"
       id="rect3013"
       inkscape:connector-curvature="0" />
    <path
       inkscape:connector-curvature="0"
       id="path3843"
       style="font-size:14px;font-style:normal;font-variant:normal;font-weight:normal;font-stretch:normal;line-height:125%;letter-spacing:0px;word-spacing:0px;fill:none;fill-opacity:1;stroke:#000000;font-family:Hanzel Extended;-inkscape-font-specification:Hanzel Extended;stroke-opacity:1"
       d="m 81.870835,317.54532 0,4.88616 6.895652,0 0,-4.88616 3.74383,0 0,12.02361 -3.74383,0 0,-5.01956 -6.895652,0 0,5.01956 -3.74383,0 0,-12.02361 z" />
    <path
       inkscape:connector-curvature="0"
       id="path3845"
       style="font-size:14px;font-style:normal;font-variant:normal;font-weight:normal;font-stretch:normal;line-height:125%;letter-spacing:0px;word-spacing:0px;fill:none;fill-opacity:1;stroke:#000000;font-family:Hanzel Extended;-inkscape-font-specification:Hanzel Extended;stroke-opacity:1"
       d="m 93.335794,317.54532 4.235781,0 4.410885,4.59432 4.45257,-4.59432 4.35252,0 -6.89566,6.71221 0,5.3114 -3.74383,0 0,-5.3114 z" />
    <path
       inkscape:connector-curvature="0"
       id="path3847"
       style="font-size:14px;font-style:normal;font-variant:normal;font-weight:normal;font-stretch:normal;line-height:125%;letter-spacing:0px;word-spacing:0px;fill:none;fill-opacity:1;stroke:#000000;font-family:Hanzel Extended;-inkscape-font-specification:Hanzel Extended;stroke-opacity:1"
       d="m 111.64637,317.54532 8.14638,0 c 1.36745,10e-6 2.47364,0.05 3.31859,0.15009 0.83935,0.11673 1.47583,0.27238 1.90943,0.46693 0.81712,0.3391 1.43414,0.78657 1.85107,1.34244 0.40577,0.56145 0.60867,1.21739 0.60869,1.9678 -2e-5,0.72822 -0.15845,1.34246 -0.47528,1.84274 -0.18346,0.25015 -0.40025,0.48362 -0.65038,0.70041 -0.26127,0.21679 -0.567,0.41135 -0.91719,0.58366 -0.60593,0.28351 -1.27854,0.48084 -2.01784,0.59201 -0.33909,0.05 -0.81715,0.0917 -1.43416,0.12507 -0.61704,0.0334 -1.29519,0.05 -2.03451,0.05 l -4.56096,0 0,4.20243 -3.74384,0 z m 8.09636,2.15958 -4.35252,0 0,3.52704 4.59432,0 c 1.16176,0 2.01226,-0.14731 2.55148,-0.44193 0.52807,-0.28904 0.79211,-0.72819 0.79212,-1.31743 -1e-5,-0.63925 -0.26684,-1.09506 -0.80047,-1.36745 -0.54477,-0.26681 -1.47308,-0.40023 -2.78493,-0.40023 z" />
    <path
       inkscape:connector-curvature="0"
       id="path3849"
       style="font-size:14px;font-style:normal;font-variant:normal;font-weight:normal;font-stretch:normal;line-height:125%;letter-spacing:0px;word-spacing:0px;fill:none;fill-opacity:1;stroke:#000000;font-family:Hanzel Extended;-inkscape-font-specification:Hanzel Extended;stroke-opacity:1"
       d="m 137.45296,319.64653 c -1.34523,1e-5 -2.36388,0.22792 -3.05593,0.68373 -0.69208,0.45583 -1.08536,1.15623 -1.17986,2.10122 l 10.39769,0.0167 0,2.08453 -10.41436,0 c 0,1.05617 0.33073,1.80661 0.99224,2.25131 0.65036,0.45582 1.7371,0.68373 3.26022,0.68372 l 6.1619,0 0,2.10122 -6.34534,0 c -0.74489,0 -1.37303,-0.0167 -1.88442,-0.05 -0.51142,-0.0389 -0.98391,-0.10283 -1.41749,-0.19177 -0.77267,-0.15009 -1.52311,-0.42247 -2.25131,-0.81714 -0.90051,-0.47805 -1.58564,-1.11592 -2.05535,-1.91361 -0.46972,-0.79768 -0.70457,-1.7385 -0.70457,-2.82247 0,-2.1012 0.68511,-3.6646 2.05536,-4.6902 1.37022,-1.02558 3.4895,-1.53838 6.35784,-1.53839 l 6.24528,0 0,2.10121 z" />
    <path
       inkscape:connector-curvature="0"
       id="path3851"
       style="font-size:14px;font-style:normal;font-variant:normal;font-weight:normal;font-stretch:normal;line-height:125%;letter-spacing:0px;word-spacing:0px;fill:none;fill-opacity:1;stroke:#000000;font-family:Hanzel Extended;-inkscape-font-specification:Hanzel Extended;stroke-opacity:1"
       d="m 155.22156,319.7049 -4.611,0 0,3.01842 4.611,0 c 1.22292,0 2.09008,-0.11393 2.6015,-0.34188 0.4836,-0.25569 0.72541,-0.65036 0.72542,-1.18401 -1e-5,-0.54475 -0.23905,-0.93109 -0.71708,-1.15901 -0.48918,-0.22234 -1.35913,-0.33352 -2.60984,-0.33352 z m -8.35483,-2.15958 9.25535,0 c 2.14011,10e-6 3.71185,0.29601 4.71522,0.88802 1.00334,0.59202 1.50503,1.50226 1.50504,2.73074 -1e-5,0.90052 -0.30853,1.6454 -0.92554,2.23462 -0.61147,0.59479 -1.50366,0.97834 -2.67654,1.15067 l 4.45257,5.01956 -4.23578,0 -3.91059,-4.71105 -4.4359,0 0,4.71105 -3.74383,0 z" />
    <path
       inkscape:connector-curvature="0"
       id="path3853"
       style="font-size:14px;font-style:normal;font-variant:normal;font-weight:normal;font-stretch:normal;line-height:125%;letter-spacing:0px;word-spacing:0px;fill:none;fill-opacity:1;stroke:#000000;font-family:Hanzel Extended;-inkscape-font-specification:Hanzel Extended;stroke-opacity:1"
       d="m 180.61123,319.7049 -9.27202,0 c -1.01171,0 -1.74547,0.11673 -2.20128,0.35021 -0.46694,0.25014 -0.7004,0.65315 -0.7004,1.20903 0,0.42247 0.19733,0.74766 0.592,0.97556 0.43359,0.21679 1.02003,0.32519 1.75936,0.32518 l 4.96953,0 c 2.0623,10e-6 3.52563,0.26127 4.39005,0.78379 0.86436,0.52253 1.29656,1.40081 1.29657,2.63486 -1e-5,1.23961 -0.49474,2.1429 -1.48418,2.7099 -0.98948,0.58366 -2.56539,0.8755 -4.72774,0.8755 l -9.99744,0 0,-2.13456 9.38876,0 c 1.08395,0 1.83437,-0.10844 2.2513,-0.32519 0.44468,-0.20567 0.66703,-0.5531 0.66704,-1.04227 -1e-5,-0.47805 -0.20012,-0.83659 -0.60033,-1.07562 -0.41137,-0.20568 -1.0951,-0.30852 -2.05119,-0.30852 l -4.42757,0 c -2.04562,0 -3.55761,-0.27237 -4.53595,-0.81713 -0.93943,-0.57255 -1.40914,-1.45084 -1.40914,-2.63486 0,-1.26182 0.50306,-2.1957 1.50921,-2.80162 1.00057,-0.58922 2.58203,-0.88383 4.7444,-0.88384 l 9.83902,0 z" />
    <path
       inkscape:connector-curvature="0"
       id="path3855"
       style="font-size:14px;font-style:normal;font-variant:normal;font-weight:normal;font-stretch:normal;line-height:125%;letter-spacing:0px;word-spacing:0px;fill:none;fill-opacity:1;stroke:#000000;font-family:Hanzel Extended;-inkscape-font-specification:Hanzel Extended;stroke-opacity:1"
       d="m 184.255,317.54532 8.14638,0 c 1.36744,10e-6 2.47364,0.05 3.31858,0.15009 0.83936,0.11673 1.47584,0.27238 1.90944,0.46693 0.81712,0.3391 1.43415,0.78657 1.85107,1.34244 0.40576,0.56145 0.60867,1.21739 0.60868,1.9678 -1e-5,0.72822 -0.15844,1.34246 -0.47527,1.84274 -0.18345,0.25015 -0.40025,0.48362 -0.65038,0.70041 -0.26128,0.21679 -0.56701,0.41135 -0.91719,0.58366 -0.60592,0.28351 -1.27853,0.48084 -2.01784,0.59201 -0.3391,0.05 -0.81714,0.0917 -1.43416,0.12507 -0.61703,0.0334 -1.2952,0.05 -2.03451,0.05 l -4.56097,0 0,4.20243 -3.74383,0 z m 8.09635,2.15958 -4.35252,0 0,3.52704 4.59432,0 c 1.16178,0 2.01226,-0.14731 2.55148,-0.44193 0.52807,-0.28904 0.79211,-0.72819 0.79212,-1.31743 -1e-5,-0.63925 -0.26683,-1.09506 -0.80046,-1.36745 -0.54477,-0.26681 -1.47309,-0.40023 -2.78494,-0.40023 z" />
    <path
       inkscape:connector-curvature="0"
       id="path3857"
       style="font-size:14px;font-style:normal;font-variant:normal;font-weight:normal;font-stretch:normal;line-height:125%;letter-spacing:0px;word-spacing:0px;fill:none;fill-opacity:1;stroke:#000000;font-family:Hanzel Extended;-inkscape-font-specification:Hanzel Extended;stroke-opacity:1"
       d="m 209.65301,319.95504 -2.6015,4.611 5.31975,0 z m -1.84273,-2.40972 3.99397,0 7.59606,12.02361 -4.16073,0 -1.64262,-2.85164 -7.77117,0 -1.58423,2.85164 -3.98564,0 z" />
    <path
       inkscape:connector-curvature="0"
       id="path3859"
       style="font-size:14px;font-style:normal;font-variant:normal;font-weight:normal;font-stretch:normal;line-height:125%;letter-spacing:0px;word-spacing:0px;fill:none;fill-opacity:1;stroke:#000000;font-family:Hanzel Extended;-inkscape-font-specification:Hanzel Extended;stroke-opacity:1"
       d="m 228.03863,319.61318 c -1.54534,10e-6 -2.65987,0.33076 -3.34359,0.99224 -0.69485,0.66706 -1.04227,1.75936 -1.04227,3.27689 0,1.30632 0.32519,2.22908 0.97556,2.76827 0.6337,0.54476 1.77047,0.81715 3.4103,0.81713 l 6.1619,0 0,2.10122 -6.34533,0 c -0.74488,0 -1.37303,-0.0167 -1.88442,-0.05 -0.51142,-0.0389 -0.98392,-0.10282 -1.41749,-0.19177 -0.77268,-0.15009 -1.52311,-0.42247 -2.2513,-0.81713 -0.90053,-0.47806 -1.58425,-1.11593 -2.05118,-1.91361 -0.46695,-0.79768 -0.70041,-1.7385 -0.70041,-2.82247 0,-2.10121 0.68372,-3.6646 2.05119,-4.69021 1.36745,-1.02558 3.48534,-1.53837 6.35366,-1.53839 l 6.24528,0 0,2.06786 z" />
    <path
       inkscape:connector-curvature="0"
       id="path3861"
       style="font-size:14px;font-style:normal;font-variant:normal;font-weight:normal;font-stretch:normal;line-height:125%;letter-spacing:0px;word-spacing:0px;fill:none;fill-opacity:1;stroke:#000000;font-family:Hanzel Extended;-inkscape-font-specification:Hanzel Extended;stroke-opacity:1"
       d="m 244.31471,319.64653 c -1.34523,1e-5 -2.36387,0.22792 -3.05593,0.68373 -0.69208,0.45583 -1.08535,1.15623 -1.17985,2.10122 l 10.39767,0.0167 0,2.08453 -10.41435,0 c 0,1.05617 0.33075,1.80661 0.99224,2.25131 0.65037,0.45582 1.73711,0.68373 3.26022,0.68372 l 6.16189,0 0,2.10122 -6.34533,0 c -0.74488,0 -1.37303,-0.0167 -1.88442,-0.05 -0.51142,-0.0389 -0.98392,-0.10283 -1.41749,-0.19177 -0.77267,-0.15009 -1.5231,-0.42247 -2.2513,-0.81714 -0.90053,-0.47805 -1.58564,-1.11592 -2.05535,-1.91361 -0.46972,-0.79768 -0.70458,-1.7385 -0.70458,-2.82247 0,-2.1012 0.68512,-3.6646 2.05536,-4.6902 1.37023,-1.02558 3.48951,-1.53838 6.35783,-1.53839 l 6.24528,0 0,2.10121 z" />
    <path
       inkscape:connector-curvature="0"
       id="path3863"
       style="font-size:14px;font-style:normal;font-variant:normal;font-weight:normal;font-stretch:normal;line-height:125%;letter-spacing:0px;word-spacing:0px;fill:none;fill-opacity:1;stroke:#000000;font-family:Hanzel Extended;-inkscape-font-specification:Hanzel Extended;stroke-opacity:1"
       d="m 93.227398,341.05057 -9.272025,0 c -1.011702,0 -1.745459,0.11673 -2.201272,0.35021 -0.466942,0.25014 -0.70041,0.65315 -0.700405,1.20903 -5e-6,0.42247 0.197332,0.74766 0.59201,0.97555 0.433578,0.2168 1.020027,0.3252 1.75935,0.32519 l 4.969537,0 c 2.06229,10e-6 3.525634,0.26127 4.390037,0.78379 0.864372,0.52253 1.296565,1.40081 1.296584,2.63486 -1.9e-5,1.23961 -0.494748,2.1429 -1.484191,2.7099 -0.989477,0.58366 -2.565385,0.8755 -4.727733,0.8755 l -9.997444,0 0,-2.13457 9.388759,0 c 1.083948,0 1.834381,-0.10843 2.251301,-0.32518 0.444688,-0.20568 0.667039,-0.5531 0.667052,-1.04227 -1.3e-5,-0.47806 -0.200129,-0.83659 -0.600347,-1.07562 -0.411362,-0.20568 -1.095089,-0.30852 -2.051185,-0.30852 l -4.427559,0 c -2.045631,0 -3.557614,-0.27237 -4.535954,-0.81713 -0.939433,-0.57255 -1.409149,-1.45084 -1.409147,-2.63486 -2e-6,-1.26183 0.503066,-2.1957 1.509204,-2.80162 1.000575,-0.58922 2.582043,-0.88383 4.744409,-0.88384 l 9.839019,0 z" />
    <path
       inkscape:connector-curvature="0"
       id="path3865"
       style="font-size:14px;font-style:normal;font-variant:normal;font-weight:normal;font-stretch:normal;line-height:125%;letter-spacing:0px;word-spacing:0px;fill:none;fill-opacity:1;stroke:#000000;font-family:Hanzel Extended;-inkscape-font-specification:Hanzel Extended;stroke-opacity:1"
       d="m 94.002846,338.89099 4.235781,0 4.410883,4.59432 4.45258,-4.59432 4.3525,0 -6.89564,6.71221 0,5.3114 -3.74383,0 0,-5.3114 z" />
    <path
       inkscape:connector-curvature="0"
       id="path3867"
       style="font-size:14px;font-style:normal;font-variant:normal;font-weight:normal;font-stretch:normal;line-height:125%;letter-spacing:0px;word-spacing:0px;fill:none;fill-opacity:1;stroke:#000000;font-family:Hanzel Extended;-inkscape-font-specification:Hanzel Extended;stroke-opacity:1"
       d="m 127.41382,341.05057 -9.27202,0 c -1.01171,0 -1.74547,0.11673 -2.20127,0.35021 -0.46695,0.25014 -0.70041,0.65315 -0.70041,1.20903 0,0.42247 0.19733,0.74766 0.59201,0.97555 0.43358,0.2168 1.02003,0.3252 1.75934,0.32519 l 4.96954,0 c 2.0623,10e-6 3.52564,0.26127 4.39004,0.78379 0.86438,0.52253 1.29657,1.40081 1.29658,2.63486 -10e-6,1.23961 -0.49474,2.1429 -1.48418,2.7099 -0.98948,0.58366 -2.5654,0.8755 -4.72774,0.8755 l -9.99744,0 0,-2.13457 9.38876,0 c 1.08395,0 1.83438,-0.10843 2.2513,-0.32518 0.44469,-0.20568 0.66703,-0.5531 0.66705,-1.04227 -2e-5,-0.47806 -0.20013,-0.83659 -0.60034,-1.07562 -0.41136,-0.20568 -1.0951,-0.30852 -2.05119,-0.30852 l -4.42756,0 c -2.04563,0 -3.55762,-0.27237 -4.53596,-0.81713 -0.93943,-0.57255 -1.40914,-1.45084 -1.40914,-2.63486 0,-1.26183 0.50306,-2.1957 1.5092,-2.80162 1.00057,-0.58922 2.58204,-0.88383 4.74441,-0.88384 l 9.83902,0 z" />
    <path
       inkscape:connector-curvature="0"
       id="path3869"
       style="font-size:14px;font-style:normal;font-variant:normal;font-weight:normal;font-stretch:normal;line-height:125%;letter-spacing:0px;word-spacing:0px;fill:none;fill-opacity:1;stroke:#000000;font-family:Hanzel Extended;-inkscape-font-specification:Hanzel Extended;stroke-opacity:1"
       d="m 134.94317,341.00888 -5.76166,0 0,-2.09287 15.45894,0 0,2.09287 -5.8117,0 0,9.90572 -3.88558,0 z" />
    <path
       inkscape:connector-curvature="0"
       id="path3871"
       style="font-size:14px;font-style:normal;font-variant:normal;font-weight:normal;font-stretch:normal;line-height:125%;letter-spacing:0px;word-spacing:0px;fill:none;fill-opacity:1;stroke:#000000;font-family:Hanzel Extended;-inkscape-font-specification:Hanzel Extended;stroke-opacity:1"
       d="m 153.82909,340.9922 c -1.34523,10e-6 -2.36388,0.22792 -3.05593,0.68373 -0.69208,0.45583 -1.08536,1.15623 -1.17986,2.10122 l 10.39768,0.0167 0,2.08453 -10.41435,0 c 0,1.05617 0.33075,1.80661 0.99224,2.25131 0.65036,0.45582 1.7371,0.68373 3.26022,0.68372 l 6.16189,0 0,2.10122 -6.34533,0 c -0.74489,0 -1.37303,-0.0167 -1.88442,-0.05 -0.51142,-0.0389 -0.98391,-0.10283 -1.41749,-0.19177 -0.77267,-0.15009 -1.5231,-0.42247 -2.25131,-0.81714 -0.90052,-0.47806 -1.58564,-1.11593 -2.05534,-1.91361 -0.46973,-0.79768 -0.70458,-1.7385 -0.70458,-2.82247 0,-2.1012 0.68511,-3.6646 2.05536,-4.6902 1.37023,-1.02558 3.4895,-1.53838 6.35784,-1.53839 l 6.24527,0 0,2.10121 z" />
    <path
       inkscape:connector-curvature="0"
       id="path3873"
       style="font-size:14px;font-style:normal;font-variant:normal;font-weight:normal;font-stretch:normal;line-height:125%;letter-spacing:0px;word-spacing:0px;fill:none;fill-opacity:1;stroke:#000000;font-family:Hanzel Extended;-inkscape-font-specification:Hanzel Extended;stroke-opacity:1"
       d="m 163.24286,338.89099 5.51985,0 4.56097,9.222 4.51928,-9.222 5.48651,0 0,12.02361 -3.65212,0 0.30851,-9.36375 -4.59432,9.36375 -3.96895,0 -4.71106,-9.4638 0.35854,9.4638 -3.82721,0 z" />
    <path
       inkscape:connector-curvature="0"
       id="path3875"
       style="font-size:14px;font-style:normal;font-variant:normal;font-weight:normal;font-stretch:normal;line-height:125%;letter-spacing:0px;word-spacing:0px;fill:none;fill-opacity:1;stroke:#000000;font-family:Hanzel Extended;-inkscape-font-specification:Hanzel Extended;stroke-opacity:1"
       d="m 85.489593,362.30452 c -1.545344,10e-6 -2.659876,0.33076 -3.343599,0.99224 -0.694851,0.66706 -1.042273,1.75936 -1.042268,3.27689 -5e-6,1.30632 0.325182,2.22907 0.975564,2.76826 0.633693,0.54477 1.77046,0.81715 3.410303,0.81714 l 6.161895,0 0,2.10122 -6.345334,0 c -0.744883,0 -1.373023,-0.0167 -1.884423,-0.05 -0.511413,-0.0389 -0.983907,-0.10282 -1.417485,-0.19177 -0.772673,-0.15009 -1.523106,-0.42247 -2.251301,-0.81714 -0.900523,-0.47805 -1.584251,-1.11592 -2.051186,-1.9136 -0.466937,-0.79769 -0.700405,-1.73851 -0.700404,-2.82248 -10e-7,-2.1012 0.683726,-3.6646 2.051185,-4.6902 1.367453,-1.02558 3.485341,-1.53838 6.353672,-1.53839 l 6.245276,0 0,2.06786 z" />
    <path
       inkscape:connector-curvature="0"
       id="path3877"
       style="font-size:14px;font-style:normal;font-variant:normal;font-weight:normal;font-stretch:normal;line-height:125%;letter-spacing:0px;word-spacing:0px;fill:none;fill-opacity:1;stroke:#000000;font-family:Hanzel Extended;-inkscape-font-specification:Hanzel Extended;stroke-opacity:1"
       d="m 98.146908,360.23666 0,4.88616 6.895652,0 0,-4.88616 3.74382,0 0,12.02361 -3.74382,0 0,-5.01956 -6.895652,0 0,5.01956 -3.743831,0 0,-12.02361 z" />
    <path
       inkscape:connector-curvature="0"
       id="path3879"
       style="font-size:14px;font-style:normal;font-variant:normal;font-weight:normal;font-stretch:normal;line-height:125%;letter-spacing:0px;word-spacing:0px;fill:none;fill-opacity:1;stroke:#000000;font-family:Hanzel Extended;-inkscape-font-specification:Hanzel Extended;stroke-opacity:1"
       d="m 119.43421,362.64638 -2.60151,4.611 5.31974,0 z m -1.84274,-2.40972 3.99398,0 7.59606,12.02361 -4.16074,0 -1.64261,-2.85165 -7.77116,0 -1.58425,2.85165 -3.98563,0 z" />
    <path
       inkscape:connector-curvature="0"
       id="path3881"
       style="font-size:14px;font-style:normal;font-variant:normal;font-weight:normal;font-stretch:normal;line-height:125%;letter-spacing:0px;word-spacing:0px;fill:none;fill-opacity:1;stroke:#000000;font-family:Hanzel Extended;-inkscape-font-specification:Hanzel Extended;stroke-opacity:1"
       d="m 138.81208,362.39624 -4.61101,0 0,3.01841 4.61101,0 c 1.22291,0 2.09008,-0.11392 2.6015,-0.34187 0.4836,-0.2557 0.7254,-0.65036 0.72541,-1.18401 -1e-5,-0.54476 -0.23903,-0.93109 -0.71708,-1.15901 -0.48918,-0.22234 -1.35912,-0.33352 -2.60983,-0.33352 z m -8.35483,-2.15958 9.25535,0 c 2.1401,1e-5 3.71185,0.29601 4.71522,0.88801 1.00334,0.59202 1.50502,1.50226 1.50504,2.73075 -2e-5,0.90052 -0.30854,1.6454 -0.92553,2.23462 -0.61149,0.59479 -1.50367,0.97834 -2.67656,1.15067 l 4.45258,5.01956 -4.23578,0 -3.9106,-4.71105 -4.4359,0 0,4.71105 -3.74382,0 z" />
    <path
       inkscape:connector-curvature="0"
       id="path3883"
       style="font-size:14px;font-style:normal;font-variant:normal;font-weight:normal;font-stretch:normal;line-height:125%;letter-spacing:0px;word-spacing:0px;fill:none;fill-opacity:1;stroke:#000000;font-family:Hanzel Extended;-inkscape-font-specification:Hanzel Extended;stroke-opacity:1"
       d="m 155.59678,367.25738 0,-2.11789 8.86345,0 0,7.12078 -8.07966,0 c -1.43418,0 -2.54871,-0.0806 -3.34361,-0.2418 -0.80603,-0.16121 -1.57591,-0.43359 -2.30967,-0.81714 -0.90052,-0.47806 -1.58564,-1.11593 -2.05535,-1.91361 -0.46972,-0.79768 -0.70458,-1.7385 -0.70458,-2.82247 0,-2.10121 0.69068,-3.6646 2.07204,-4.6902 1.38135,-1.02558 3.49507,-1.53838 6.34117,-1.53839 l 8.07966,0 0,2.06786 -8.07966,0 c -1.43418,10e-6 -2.49313,0.31685 -3.17685,0.95055 -0.69484,0.63926 -1.04227,1.67041 -1.04227,3.09345 0,1.31188 0.3363,2.26381 1.00892,2.85582 0.67261,0.59201 1.74266,0.88802 3.2102,0.88802 l 4.22744,0 0,-2.83498 z" />
    <path
       inkscape:connector-curvature="0"
       id="path3885"
       style="font-size:14px;font-style:normal;font-variant:normal;font-weight:normal;font-stretch:normal;line-height:125%;letter-spacing:0px;word-spacing:0px;fill:none;fill-opacity:1;stroke:#000000;font-family:Hanzel Extended;-inkscape-font-specification:Hanzel Extended;stroke-opacity:1"
       d="m 174.90794,362.33786 c -1.34523,2e-5 -2.36388,0.22793 -3.05594,0.68374 -0.69207,0.45583 -1.08536,1.15622 -1.17985,2.10122 l 10.39768,0.0167 0,2.08453 -10.41435,0 c 0,1.05617 0.33074,1.80661 0.99224,2.25131 0.65036,0.45582 1.7371,0.68373 3.26022,0.68372 l 6.16189,0 0,2.10122 -6.34533,0 c -0.74489,0 -1.37303,-0.0167 -1.88442,-0.05 -0.51142,-0.0389 -0.98392,-0.10283 -1.41749,-0.19177 -0.77268,-0.15009 -1.5231,-0.42248 -2.25131,-0.81714 -0.90052,-0.47806 -1.58564,-1.11593 -2.05534,-1.91361 -0.46973,-0.79768 -0.70458,-1.7385 -0.70458,-2.82247 0,-2.10121 0.68511,-3.6646 2.05536,-4.6902 1.37023,-1.02558 3.4895,-1.53838 6.35783,-1.53839 l 6.24528,0 0,2.10121 z" />
    <path
       style="font-size:medium;font-style:normal;font-variant:normal;font-weight:normal;font-stretch:normal;text-indent:0;text-align:start;text-decoration:none;line-height:normal;letter-spacing:normal;word-spacing:normal;text-transform:none;direction:ltr;block-progression:tb;writing-mode:lr-tb;text-anchor:start;baseline-shift:baseline;color:#000000;fill:none;stroke:#000000;stroke-width:1.25;stroke-miterlimit:4;stroke-opacity:1;stroke-dasharray:none;marker:none;visibility:visible;display:inline;overflow:visible;enable-background:accumulate;font-family:Sans;-inkscape-font-specification:Sans"
       d="m 58.8125,390.80688 0,4.09375 0,43.28125 0,4.09375 4.125,0 170.75,0 4.09375,0 0,-4.09375 0,-43.28125 0,-4.09375 -4.09375,0 -170.75,0 -4.125,0 z m 8.21875,8.1875 162.5625,0 0,35.0625 -162.5625,0 0,-35.0625 z"
       id="rect3799"
       inkscape:connector-curvature="0" />
    <path
       inkscape:connector-curvature="0"
       id="path3888"
       style="font-size:14px;font-style:normal;font-variant:normal;font-weight:normal;font-stretch:normal;line-height:125%;letter-spacing:0px;word-spacing:0px;fill:none;stroke:#000000;stroke-opacity:1;font-family:Hanzel Extended;-inkscape-font-specification:Hanzel Extended"
       d="m 72.241511,403.13473 3.262687,0 3.343579,7.19031 2.811034,-7.19031 3.579518,0 3.228981,7.19031 3.107641,-7.19031 3.134606,0 -4.476082,9.35779 -3.71434,0 -3.073935,-6.97616 -2.696435,6.97616 -3.687375,0 z" />
    <path
       inkscape:connector-curvature="0"
       id="path3890"
       style="font-size:14px;font-style:normal;font-variant:normal;font-weight:normal;font-stretch:normal;line-height:125%;letter-spacing:0px;word-spacing:0px;fill:none;stroke:#000000;stroke-opacity:1;font-family:Hanzel Extended;-inkscape-font-specification:Hanzel Extended"
       d="m 102.08431,404.77006 c -1.08757,10e-6 -1.91111,0.17739 -2.470609,0.53214 -0.559518,0.35477 -0.877474,0.89988 -0.953869,1.63535 l 8.406138,0.013 0,1.62236 -8.419618,0 c 0,0.822 0.267397,1.40606 0.802192,1.75216 0.525792,0.35476 1.404376,0.53214 2.635766,0.53213 l 4.98166,0 0,1.63534 -5.12997,0 c -0.60221,0 -1.11004,-0.013 -1.52348,-0.0389 -0.413462,-0.0303 -0.795457,-0.08 -1.145985,-0.14925 -0.62468,-0.11681 -1.231374,-0.3288 -1.8201,-0.63596 -0.728036,-0.37207 -1.281933,-0.86851 -1.66167,-1.48934 -0.379754,-0.62082 -0.569627,-1.35304 -0.569627,-2.19668 0,-1.63533 0.553889,-2.8521 1.661682,-3.65031 1.107783,-0.79819 2.821135,-1.19729 5.14008,-1.1973 l 5.04907,0 0,1.63533 z" />
    <path
       inkscape:connector-curvature="0"
       id="path3892"
       style="font-size:14px;font-style:normal;font-variant:normal;font-weight:normal;font-stretch:normal;line-height:125%;letter-spacing:0px;word-spacing:0px;fill:none;stroke:#000000;stroke-opacity:1;font-family:Hanzel Extended;-inkscape-font-specification:Hanzel Extended"
       d="m 115.31706,405.01017 -2.10322,3.58868 4.30082,0 z m -1.48978,-1.87544 3.22899,0 6.14113,9.35779 -3.36381,0 -1.328,-2.2194 -6.28269,0 -1.2808,2.2194 -3.22225,0 z" />
    <path
       inkscape:connector-curvature="0"
       id="path3894"
       style="font-size:14px;font-style:normal;font-variant:normal;font-weight:normal;font-stretch:normal;line-height:125%;letter-spacing:0px;word-spacing:0px;fill:none;stroke:#000000;stroke-opacity:1;font-family:Hanzel Extended;-inkscape-font-specification:Hanzel Extended"
       d="m 124.22878,403.13473 6.58604,0 c 1.10553,1e-5 1.99985,0.0389 2.68296,0.11681 0.67859,0.0908 1.19316,0.21199 1.54371,0.36341 0.66061,0.26391 1.15944,0.61217 1.49652,1.04479 0.32805,0.43697 0.49208,0.94748 0.4921,1.53151 -2e-5,0.56676 -0.1281,1.04482 -0.38425,1.43418 -0.14831,0.19469 -0.32358,0.37639 -0.5258,0.54512 -0.21124,0.16872 -0.45841,0.32014 -0.74152,0.45425 -0.48986,0.22065 -1.03364,0.37423 -1.63134,0.46075 -0.27415,0.0389 -0.66065,0.0714 -1.15947,0.0973 -0.49885,0.026 -1.04712,0.0389 -1.64482,0.0389 l -3.68738,0 0,3.27068 -3.02675,0 z m 6.5456,1.68077 -3.51885,0 0,2.74503 3.71434,0 c 0.93925,0 1.62684,-0.11464 2.06277,-0.34394 0.42693,-0.22496 0.64039,-0.56674 0.6404,-1.02534 -10e-6,-0.49751 -0.21572,-0.85226 -0.64714,-1.06426 -0.44043,-0.20766 -1.19094,-0.31149 -2.25152,-0.31149 z" />
    <path
       inkscape:connector-curvature="0"
       id="path3896"
       style="font-size:14px;font-style:normal;font-variant:normal;font-weight:normal;font-stretch:normal;line-height:125%;letter-spacing:0px;word-spacing:0px;fill:none;stroke:#000000;stroke-opacity:1;font-family:Hanzel Extended;-inkscape-font-specification:Hanzel Extended"
       d="m 138.21653,407.72277 c 0,-1.60505 0.58873,-2.80127 1.76617,-3.58867 1.18193,-0.78305 2.99529,-1.17458 5.44006,-1.17459 2.44026,10e-6 4.24912,0.4002 5.42657,1.20055 1.16844,0.79605 1.75267,2.0139 1.75268,3.65356 -1e-5,1.64832 -0.58873,2.8705 -1.76616,3.66654 -1.17745,0.80469 -2.98181,1.20704 -5.41309,1.20704 -2.49421,0 -4.31655,-0.40235 -5.46702,-1.20704 -1.15947,-0.79604 -1.73921,-2.0485 -1.73921,-3.75739 z m 7.20623,-3.16685 c -1.28531,10e-6 -2.26501,0.26174 -2.93912,0.78522 -0.63366,0.5408 -0.95049,1.339 -0.95049,2.39461 0,1.1508 0.31233,1.99226 0.93701,2.5244 0.61568,0.54078 1.59988,0.81118 2.9526,0.81118 0.6741,0 1.24934,-0.067 1.72572,-0.20117 0.47187,-0.12546 0.86734,-0.32448 1.18643,-0.59704 0.65163,-0.53212 0.97745,-1.35196 0.97746,-2.4595 -10e-6,-1.10752 -0.31684,-1.92736 -0.9505,-2.4595 -0.64265,-0.53213 -1.62236,-0.79819 -2.93911,-0.7982 z" />
    <path
       inkscape:connector-curvature="0"
       id="path3898"
       style="font-size:14px;font-style:normal;font-variant:normal;font-weight:normal;font-stretch:normal;line-height:125%;letter-spacing:0px;word-spacing:0px;fill:none;stroke:#000000;stroke-opacity:1;font-family:Hanzel Extended;-inkscape-font-specification:Hanzel Extended"
       d="m 154.67153,403.13473 3.84242,0 5.89846,6.72307 -0.14157,-6.72307 3.10764,0 0,9.35779 -3.51885,0 -6.21527,-7.0735 0.13481,7.0735 -3.10764,0 z" />
    <path
       inkscape:connector-curvature="0"
       id="path3900"
       style="font-size:14px;font-style:normal;font-variant:normal;font-weight:normal;font-stretch:normal;line-height:125%;letter-spacing:0px;word-spacing:0px;fill:none;stroke:#000000;stroke-opacity:1;font-family:Hanzel Extended;-inkscape-font-specification:Hanzel Extended"
       d="m 76.913085,419.74772 0,3.80282 5.574879,0 0,-3.80282 3.026749,0 0,9.35779 -3.026749,0 0,-3.90665 -5.574879,0 0,3.90665 -3.026748,0 0,-9.35779 z" />
    <path
       inkscape:connector-curvature="0"
       id="path3902"
       style="font-size:14px;font-style:normal;font-variant:normal;font-weight:normal;font-stretch:normal;line-height:125%;letter-spacing:0px;word-spacing:0px;fill:none;stroke:#000000;stroke-opacity:1;font-family:Hanzel Extended;-inkscape-font-specification:Hanzel Extended"
       d="m 94.123083,421.62317 -2.10322,3.58867 4.300812,0 z m -1.489781,-1.87545 3.228982,0 6.141136,9.35779 -3.363814,0 -1.327984,-2.21939 -6.282699,0 -1.280807,2.21939 -3.22224,0 z" />
    <path
       inkscape:connector-curvature="0"
       id="path3904"
       style="font-size:14px;font-style:normal;font-variant:normal;font-weight:normal;font-stretch:normal;line-height:125%;letter-spacing:0px;word-spacing:0px;fill:none;stroke:#000000;stroke-opacity:1;font-family:Hanzel Extended;-inkscape-font-specification:Hanzel Extended"
       d="m 109.78937,421.42849 -3.72782,0 0,2.34918 3.72782,0 c 0.98868,0 1.68976,-0.0887 2.10322,-0.26607 0.39097,-0.199 0.58646,-0.50616 0.58647,-0.9215 -1e-5,-0.42397 -0.19325,-0.72465 -0.57973,-0.90204 -0.39549,-0.17304 -1.0988,-0.25957 -2.10996,-0.25957 z m -6.75457,-1.68077 7.48261,0 c 1.7302,10e-6 3.0009,0.23038 3.81208,0.69113 0.81117,0.46076 1.21675,1.16919 1.21677,2.1253 -2e-5,0.70086 -0.24944,1.28058 -0.74826,1.73917 -0.49436,0.46291 -1.21565,0.76142 -2.16389,0.89554 l 3.59974,3.90665 -3.42447,0 -3.16157,-3.66654 -3.58626,0 0,3.66654 -3.02675,0 z" />
    <path
       inkscape:connector-curvature="0"
       id="path3906"
       style="font-size:14px;font-style:normal;font-variant:normal;font-weight:normal;font-stretch:normal;line-height:125%;letter-spacing:0px;word-spacing:0px;fill:none;stroke:#000000;stroke-opacity:1;font-family:Hanzel Extended;-inkscape-font-specification:Hanzel Extended"
       d="m 124.65347,421.38306 -3.51885,0 0,6.0871 3.52559,0 c 1.34371,10e-6 2.27173,-0.22279 2.78407,-0.66841 0.50332,-0.43262 0.75499,-1.22434 0.755,-2.37513 -10e-6,-1.13348 -0.25168,-1.92737 -0.755,-2.38163 -0.51682,-0.44128 -1.4471,-0.66192 -2.79081,-0.66193 z m -6.5456,-1.63534 6.61301,0 c 2.30095,10e-6 4.00869,0.39478 5.12323,1.18433 1.11451,0.78955 1.67177,2.01065 1.67178,3.66329 -1e-5,0.84363 -0.18876,1.57911 -0.56625,2.20641 -0.3865,0.63165 -0.93926,1.12484 -1.65831,1.4796 -0.58872,0.29851 -1.20441,0.51051 -1.84705,0.63597 -0.64266,0.12546 -1.52125,0.18819 -2.63577,0.18819 l -6.70064,0 z" />
    <path
       inkscape:connector-curvature="0"
       id="path3908"
       style="font-size:14px;font-style:normal;font-variant:normal;font-weight:normal;font-stretch:normal;line-height:125%;letter-spacing:0px;word-spacing:0px;fill:none;stroke:#000000;stroke-opacity:1;font-family:Hanzel Extended;-inkscape-font-specification:Hanzel Extended"
       d="m 133.61238,419.74772 6.58604,0 c 1.10552,10e-6 1.99984,0.0389 2.68295,0.11682 0.67859,0.0908 1.19316,0.21199 1.54371,0.3634 0.66061,0.26391 1.15945,0.61218 1.49652,1.0448 0.32805,0.43697 0.49209,0.94747 0.4921,1.53151 -1e-5,0.56676 -0.12809,1.04481 -0.38424,1.43417 -0.14832,0.19469 -0.32358,0.3764 -0.52581,0.54512 -0.21123,0.16872 -0.4584,0.32015 -0.74152,0.45426 -0.48986,0.22064 -1.03364,0.37422 -1.63134,0.46074 -0.27414,0.0389 -0.66064,0.0714 -1.15947,0.0974 -0.49885,0.026 -1.04712,0.0389 -1.64482,0.0389 l -3.68738,0 0,3.27068 -3.02674,0 z m 6.54559,1.68077 -3.51885,0 0,2.74504 3.71435,0 c 0.93924,0 1.62684,-0.11465 2.06276,-0.34395 0.42692,-0.22496 0.6404,-0.56674 0.64041,-1.02533 -10e-6,-0.49752 -0.21572,-0.85227 -0.64714,-1.06427 -0.44044,-0.20765 -1.19094,-0.31149 -2.25153,-0.31149 z" />
    <path
       inkscape:connector-curvature="0"
       id="path3910"
       style="font-size:14px;font-style:normal;font-variant:normal;font-weight:normal;font-stretch:normal;line-height:125%;letter-spacing:0px;word-spacing:0px;fill:none;stroke:#000000;stroke-opacity:1;font-family:Hanzel Extended;-inkscape-font-specification:Hanzel Extended"
       d="m 147.60013,424.33577 c 0,-1.60506 0.58872,-2.80128 1.76616,-3.58868 1.18194,-0.78305 2.99529,-1.17457 5.44007,-1.17458 2.44025,10e-6 4.24911,0.40019 5.42657,1.20055 1.16844,0.79605 1.75266,2.01389 1.75268,3.65356 -2e-5,1.64832 -0.58873,2.87049 -1.76617,3.66653 -1.17745,0.8047 -2.98181,1.20704 -5.41308,1.20704 -2.49422,0 -4.31656,-0.40234 -5.46703,-1.20704 -1.15946,-0.79604 -1.7392,-2.04849 -1.7392,-3.75738 z m 7.20623,-3.16686 c -1.28532,1e-5 -2.26501,0.26175 -2.93912,0.78523 -0.63367,0.54079 -0.95049,1.339 -0.95049,2.3946 0,1.1508 0.31233,1.99226 0.93701,2.5244 0.61568,0.54079 1.59987,0.81118 2.9526,0.81118 0.67409,0 1.24933,-0.067 1.72572,-0.20117 0.47186,-0.12546 0.86733,-0.32448 1.18642,-0.59703 0.65163,-0.53213 0.97745,-1.35197 0.97746,-2.4595 -1e-5,-1.10753 -0.31684,-1.92737 -0.9505,-2.45951 -0.64265,-0.53212 -1.62236,-0.79819 -2.9391,-0.7982 z" />
    <path
       inkscape:connector-curvature="0"
       id="path3912"
       style="font-size:14px;font-style:normal;font-variant:normal;font-weight:normal;font-stretch:normal;line-height:125%;letter-spacing:0px;word-spacing:0px;fill:none;stroke:#000000;stroke-opacity:1;font-family:Hanzel Extended;-inkscape-font-specification:Hanzel Extended"
       d="m 167.25041,429.10551 -3.16832,0 0,-9.35779 3.16832,0 z" />
    <path
       inkscape:connector-curvature="0"
       id="path3914"
       style="font-size:14px;font-style:normal;font-variant:normal;font-weight:normal;font-stretch:normal;line-height:125%;letter-spacing:0px;word-spacing:0px;fill:none;stroke:#000000;stroke-opacity:1;font-family:Hanzel Extended;-inkscape-font-specification:Hanzel Extended"
       d="m 170.25692,419.74772 3.84243,0 5.89844,6.72307 -0.14155,-6.72307 3.10764,0 0,9.35779 -3.51885,0 -6.21529,-7.0735 0.13483,7.0735 -3.10765,0 z" />
    <path
       inkscape:connector-curvature="0"
       id="path3916"
       style="font-size:14px;font-style:normal;font-variant:normal;font-weight:normal;font-stretch:normal;line-height:125%;letter-spacing:0px;word-spacing:0px;fill:none;stroke:#000000;stroke-opacity:1;font-family:Hanzel Extended;-inkscape-font-specification:Hanzel Extended"
       d="m 189.01063,421.39605 -4.65809,0 0,-1.62886 12.49798,0 0,1.62886 -4.69854,0 0,7.70946 -3.14135,0 z" />
    <path
       inkscape:connector-curvature="0"
       id="path3918"
       style="font-size:14px;font-style:normal;font-variant:normal;font-weight:normal;font-stretch:normal;line-height:125%;letter-spacing:0px;word-spacing:0px;fill:none;stroke:#000000;stroke-opacity:1;font-family:Hanzel Extended;-inkscape-font-specification:Hanzel Extended"
       d="m 210.53492,421.42849 -7.49608,0 c -0.81792,0 -1.41115,0.0909 -1.77965,0.27256 -0.37751,0.19469 -0.56625,0.50834 -0.56625,0.94097 0,0.3288 0.15953,0.58189 0.47861,0.75926 0.35054,0.16873 0.82466,0.2531 1.42238,0.25309 l 4.01769,0 c 1.66728,1e-5 2.85034,0.20334 3.54918,0.61001 0.69881,0.40667 1.04822,1.09023 1.04823,2.05067 -1e-5,0.96477 -0.39998,1.66778 -1.19991,2.10907 -0.79995,0.45426 -2.07401,0.68139 -3.8222,0.68139 l -8.08256,0 0,-1.6613 7.59047,0 c 0.87633,0 1.48302,-0.0844 1.82009,-0.25309 0.35951,-0.16007 0.53927,-0.43046 0.53929,-0.81118 -2e-5,-0.37206 -0.1618,-0.6511 -0.48536,-0.83714 -0.33257,-0.16007 -0.88534,-0.24011 -1.65831,-0.24011 l -3.57951,0 c -1.65382,0 -2.8762,-0.21198 -3.66715,-0.63596 -0.75951,-0.44561 -1.13926,-1.12917 -1.13926,-2.05067 0,-0.98206 0.40672,-1.70888 1.22015,-2.18045 0.80892,-0.45859 2.08748,-0.68788 3.83567,-0.68789 l 7.95448,0 z" />
    <path
       style="fill:none;stroke:#000000;stroke-width:1.25;stroke-linecap:round;stroke-linejoin:miter;stroke-miterlimit:4;stroke-dashoffset:0;stroke-opacity:1"
       d="m 54.788445,288.06042 231.482495,0 c 8.95399,0 16.16244,7.20845 16.16244,16.16245 l 0,136.97206 c 0,8.954 -7.20845,16.16245 -16.16244,16.16245 l -231.482495,0 c -8.953993,0 -16.162442,-7.20845 -16.162442,-16.16245 l 0,-136.97206 c 0,-8.954 7.208449,-16.16245 16.162442,-16.16245 z"
       id="rect3958" />
  </g>
</svg>
