<?xml version="1.0" encoding="UTF-8" standalone="no"?>
<!-- Created with Inkscape (http://www.inkscape.org/) -->

<svg
   xmlns:dc="http://purl.org/dc/elements/1.1/"
   xmlns:cc="http://creativecommons.org/ns#"
   xmlns:rdf="http://www.w3.org/1999/02/22-rdf-syntax-ns#"
   xmlns:svg="http://www.w3.org/2000/svg"
   xmlns="http://www.w3.org/2000/svg"
   xmlns:sodipodi="http://sodipodi.sourceforge.net/DTD/sodipodi-0.dtd"
   xmlns:inkscape="http://www.inkscape.org/namespaces/inkscape"
   width="744.09448819"
   height="1052.3622047"
   id="svg3077"
   version="1.1"
   inkscape:version="0.48.4 r9939"
   sodipodi:docname="New document 3">
  <defs
     id="defs3079" />
  <sodipodi:namedview
     id="base"
     pagecolor="#ffffff"
     bordercolor="#666666"
     borderopacity="1.0"
     inkscape:pageopacity="0.0"
     inkscape:pageshadow="2"
     inkscape:zoom="0.19106445"
     inkscape:cx="890.44918"
     inkscape:cy="89.536503"
     inkscape:document-units="px"
     inkscape:current-layer="layer1"
     showgrid="false"
     inkscape:window-width="1468"
     inkscape:window-height="726"
     inkscape:window-x="208"
     inkscape:window-y="208"
     inkscape:window-maximized="0" />
  <metadata
     id="metadata3082">
    <rdf:RDF>
      <cc:Work
         rdf:about="">
        <dc:format>image/svg+xml</dc:format>
        <dc:type
           rdf:resource="http://purl.org/dc/dcmitype/StillImage" />
        <dc:title></dc:title>
      </cc:Work>
    </rdf:RDF>
  </metadata>
  <g
     inkscape:label="Layer 1"
     inkscape:groupmode="layer"
     id="layer1">
    <g
       style="font-size:10px;stroke:#ff0000;stroke-width:1"
       transform="matrix(3.543307,0,0,3.543307,489.3982,-1523.9904)"
       id="text_annotations"
       font-size="10" />
    <path
       inkscape:connector-curvature="0"
       id="face0-cut"
       style="fill:none;stroke:#0000ff;stroke-width:3.54330707;stroke-linecap:round;stroke-linejoin:round;stroke-miterlimit:4;stroke-dasharray:none"
       d="m 645.20951,113.41512 0,850.3937 106.2992,141.73228 194.88189,0 106.2992,-141.73228 0,-850.3937 -106.2992,-141.732297 -194.88189,0 -106.2992,141.732297 m 209.05918,804.1499 -5.31903,0.70026 -5.31904,-0.70026 -4.95655,-2.05307 -4.25629,-3.26597 -3.26597,-4.25629 -2.05307,-4.95655 -0.70026,-5.31904 0.70026,-5.31903 2.05307,-4.95656 3.26597,-4.25629 4.25629,-3.26597 4.95655,-2.05307 5.31904,-0.70026 5.31903,0.70026 4.95656,2.05307 4.25628,3.26597 3.26597,4.25629 2.05307,4.95656 0.70027,5.31903 -0.70027,5.31904 -2.05307,4.95655 -3.26597,4.25629 -4.25628,3.26597 -4.95656,2.05307 m -25.87021,-257.25249 0.70026,-5.31903 2.05307,-4.95656 3.26597,-4.25629 4.25629,-3.26597 4.95655,-2.05307 5.31904,-0.70026 5.31903,0.70026 4.95656,2.05307 4.25628,3.26597 3.26597,4.25629 2.05307,4.95656 0.70027,5.31903 -0.70027,5.31904 -2.05307,4.95655 -3.26597,4.25629 -4.25628,3.26598 -4.95656,2.05306 -5.31903,0.70026 -5.31904,-0.70026 -4.95655,-2.05306 -4.25629,-3.26598 -3.26597,-4.25629 -2.05307,-4.95655 -0.70026,-5.31904 m 15.23214,-217.55061 -4.95655,-2.0531 -4.25629,-3.266 -3.26597,-4.2563 -2.05307,-4.9565 -0.70026,-5.3191 0.70026,-5.319 2.05307,-4.9565 3.26597,-4.2563 4.25629,-3.266 4.95655,-2.0531 5.31904,-0.7002 5.31903,0.7002 4.95656,2.0531 4.25628,3.266 3.26597,4.2563 2.05307,4.9565 0.70027,5.319 -0.70027,5.3191 -2.05307,4.9565 -3.26597,4.2563 -4.25628,3.266 -4.95656,2.0531 -5.31903,0.7002 -5.31904,-0.7002 m 0,-237.1973 -4.95655,-2.053 -4.25629,-3.266 -3.26597,-4.2563 -2.05307,-4.9565 -0.70026,-5.3191 0.70026,-5.319 2.05307,-4.9566 3.26597,-4.2563 4.25629,-3.2659 4.95655,-2.0531 5.31904,-0.7003 5.31903,0.7003 4.95656,2.0531 4.25628,3.2659 3.26597,4.2563 2.05307,4.9566 0.70027,5.319 -0.70027,5.3191 -2.05307,4.9565 -3.26597,4.2563 -4.25628,3.266 -4.95656,2.053 -5.31903,0.7003 -5.31904,-0.7003" />
    <path
       inkscape:connector-curvature="0"
       id="face1-cut"
       style="fill:none;stroke:#0000ff;stroke-width:3.54330707;stroke-linecap:round;stroke-linejoin:round;stroke-miterlimit:4;stroke-dasharray:none"
       d="m 74.450518,114.83306 14.73599,-12.9381 0,-28.867597 -38.06798,0 0,895.393597 36.239,0 0,-35.7745 -13.09023,-13.203 -9.22702,-16.1411 -4.73498,-17.9792 0.0797,-18.5921 4.88899,-17.938 9.36509,-16.0613 12.4661,-12.3597 0,-126.6274 -11.22459,-10.7863 -9.51919,-15.7547 -5.11721,-17.6817 -0.36649,-18.4036 4.40921,-17.8714 8.88443,-16.1213 12.75419,-13.2725 0.17964,-0.1084 0,-128.0786 -9.71024,-8.8258 -9.90298,-15.4065 -5.57803,-17.4447 -0.87295,-18.294 3.89161,-17.8965 8.39099,-16.2795 12.31851,-13.5531 1.46309,-0.9404 0,-122.4231 -5.64595,-3.7678 -12.93806,-14.736 -8.68326,-17.5825 -3.83669,-19.2307 1.27133,-19.5686 6.29271,-18.5726 10.88525,-16.3112" />
    <path
       inkscape:connector-curvature="0"
       id="face2-cut"
       style="fill:none;stroke:#0000ff;stroke-width:3.54330707;stroke-linecap:round;stroke-linejoin:round;stroke-miterlimit:4;stroke-dasharray:none"
       d="m 203.55908,73.027363 -54.22166,0 0,23.9117 16.31116,10.885297 12.93806,14.736 8.68326,17.5825 3.83669,19.2307 -1.27133,19.5685 -6.29271,18.5727 -10.88526,16.3112 -14.73598,12.938 -6.7261,3.3218 0,111.2499 4.96461,2.559 13.55305,12.3185 9.90298,15.4066 5.57803,17.4446 0.87295,18.294 -3.89161,17.8965 -8.39099,16.2795 -12.31851,13.5531 -10.27051,6.6016 0,116.7297 6.75952,3.7252 13.27248,12.7542 9.5192,15.7547 5.1172,17.6817 0.36649,18.4037 -4.40921,17.8714 -8.88443,16.1212 -12.75419,13.2725 -8.98706,5.4301 0,115.5915 8.55507,4.9883 13.09024,13.203 9.22701,16.1411 4.73499,17.9792 -0.0797,18.5921 -4.88899,17.938 -9.36508,16.0614 -13.20298,13.0902 -8.07054,4.6135 0,30.7892 52.36387,0 0,-895.393597" />
    <path
       inkscape:connector-curvature="0"
       id="face3-cut"
       style="fill:none;stroke:#0000ff;stroke-width:3.54330707;stroke-linecap:round;stroke-linejoin:round;stroke-miterlimit:4;stroke-dasharray:none"
       d="m 1473.0051,1099.8238 106.2992,-141.73227 0,-850.39371 -106.2992,-141.732301 -194.8819,0 -106.2992,141.732301 0,850.39371 106.2992,141.73227 194.8819,0 m -27.9627,-463.84527 2.4509,18.6167 -2.4509,18.6166 -7.1858,17.3479 -11.4309,14.8971 -14.897,11.4308 -17.3479,7.1858 -18.6166,2.4509 -18.6167,-2.4509 -17.3479,-7.1858 -14.897,-11.4308 -11.4309,-14.8971 -7.1857,-17.3479 -2.451,-18.6166 2.451,-18.6167 7.1857,-17.3479 11.4309,-14.897 14.897,-11.4309 17.3479,-7.1857 18.6167,-2.451 18.6166,2.451 17.3479,7.1857 14.897,11.4309 11.4309,14.897 7.1858,17.3479 m -33.5137,-393.68961 -17.3479,7.1857 -18.6166,2.4509 -18.6167,-2.4509 -17.3479,-7.1857 -14.897,-11.4309 -11.4309,-14.897 -7.1857,-17.348 -2.451,-18.6166 2.451,-18.6167 7.1857,-17.3479 11.4309,-14.897 14.897,-11.4309 17.3479,-7.1857 18.6167,-2.4509 18.6166,2.4509 17.3479,7.1857 14.897,11.4309 11.4309,14.897 7.1858,17.3479 2.4509,18.6167 -2.4509,18.6166 -7.1858,17.348 -11.4309,14.897 -14.897,11.4309 m -17.3479,244.38291 -18.6166,2.4509 -18.6167,-2.4509 -17.3479,-7.1858 -14.897,-11.4308 -11.4309,-14.897 -7.1857,-17.348 -2.451,-18.6166 2.451,-18.6166 7.1857,-17.348 11.4309,-14.897 14.897,-11.4309 17.3479,-7.18571 18.6167,-2.4509 18.6166,2.4509 17.3479,7.18571 14.897,11.4309 11.4309,14.897 7.1858,17.348 2.4509,18.6166 -2.4509,18.6166 -7.1858,17.348 -11.4309,14.897 -14.897,11.4308 -17.3479,7.1858 m 50.8616,423.9416 -7.1858,17.3479 -11.4309,14.897 -14.897,11.4309 -17.3479,7.1857 -18.6166,2.451 -18.6167,-2.451 -17.3479,-7.1857 -14.897,-11.4309 -11.4309,-14.897 -7.1857,-17.3479 -2.451,-18.6167 2.451,-18.6166 7.1857,-17.3479 11.4309,-14.897 14.897,-11.4309 17.3479,-7.1858 18.6167,-2.4509 18.6166,2.4509 17.3479,7.1858 14.897,11.4309 11.4309,14.897 7.1858,17.3479 2.4509,18.6166 -2.4509,18.6167" />
    <path
       inkscape:connector-curvature="0"
       id="face4-cut"
       style="fill:none;stroke:#0000ff;stroke-width:3.54330707;stroke-linecap:round;stroke-linejoin:round;stroke-miterlimit:4;stroke-dasharray:none"
       d="m 334.62038,908.01227 11.43088,14.897 14.89701,11.4309 17.34794,7.1857 18.61663,2.451 18.61663,-2.451 17.34793,-7.1857 14.89701,-11.4309 11.43088,-14.897 7.18575,-17.3479 2.45093,-18.6166 -2.45093,-18.6167 -7.18575,-17.3479 -11.43088,-14.897 -14.89701,-11.4309 -17.34793,-7.1857 -18.61663,-2.451 -18.61663,2.451 -17.34794,7.1857 -14.89701,11.4309 -11.43088,14.897 -7.18575,17.3479 -2.45092,18.6167 2.45092,18.6166 7.18575,17.3479 m 41.9546,-33.0111 -0.0714,-5.3645 1.31945,-5.2001 2.62038,-4.6815 3.74275,-3.8437 4.61005,-2.7441 5.16319,-1.4574 5.36446,-0.072 5.20015,1.3195 4.68147,2.6204 3.84374,3.7427 2.74408,4.6101 1.4574,5.1632 0.0714,5.3644 -1.31945,5.2002 -2.62038,4.6814 -3.74275,3.8438 -4.61005,2.7441 -5.16318,1.4574 -5.36447,0.072 -5.20015,-1.3194 -4.68146,-2.6204 -3.84375,-3.7428 -2.74407,-4.61 -1.45741,-5.1632" />
    <path
       d="m 312.41509,711.86558 11.43088,14.897 14.89701,11.4309 17.34794,7.1857 18.61663,2.451 18.61663,-2.451 17.34793,-7.1857 14.89701,-11.4309 11.43088,-14.897 7.18575,-17.3479 2.45093,-18.6166 -2.45093,-18.6167 -7.18575,-17.3479 -11.43088,-14.897 -14.89701,-11.4309 -17.34793,-7.1857 -18.61663,-2.451 -18.61663,2.451 -17.34794,7.1857 -14.89701,11.4309 -11.43088,14.897 -7.18575,17.3479 -2.45092,18.6167 2.45092,18.6166 7.18575,17.3479 m 41.9546,-33.0111 -0.0714,-5.3645 1.31945,-5.2001 2.62038,-4.6815 3.74275,-3.8437 4.61005,-2.7441 5.16319,-1.4574 5.36446,-0.072 5.20015,1.3195 4.68147,2.6204 3.84374,3.7427 2.74408,4.6101 1.4574,5.1632 0.0714,5.3644 -1.31945,5.2002 -2.62038,4.6814 -3.74275,3.8438 -4.61005,2.7441 -5.16318,1.4574 -5.36447,0.072 -5.20015,-1.3194 -4.68146,-2.6204 -3.84375,-3.7428 -2.74407,-4.61 -1.45741,-5.1632"
       style="fill:none;stroke:#0000ff;stroke-width:3.54330707;stroke-linecap:round;stroke-linejoin:round;stroke-miterlimit:4;stroke-dasharray:none"
       id="path3102"
       inkscape:connector-curvature="0" />
    <path
       inkscape:connector-curvature="0"
       id="path3104"
       style="fill:none;stroke:#0000ff;stroke-width:3.54330707;stroke-linecap:round;stroke-linejoin:round;stroke-miterlimit:4;stroke-dasharray:none"
       d="m 312.41509,526.82154 11.43088,14.897 14.89701,11.4309 17.34794,7.1857 18.61663,2.451 18.61663,-2.451 17.34793,-7.1857 14.89701,-11.4309 11.43088,-14.897 7.18575,-17.3479 2.45093,-18.6166 -2.45093,-18.6167 -7.18575,-17.3479 -11.43088,-14.897 -14.89701,-11.4309 -17.34793,-7.1857 -18.61663,-2.451 -18.61663,2.451 -17.34794,7.1857 -14.89701,11.4309 -11.43088,14.897 -7.18575,17.3479 -2.45092,18.6167 2.45092,18.6166 7.18575,17.3479 m 41.9546,-33.0111 -0.0714,-5.3645 1.31945,-5.2001 2.62038,-4.6815 3.74275,-3.8437 4.61005,-2.7441 5.16319,-1.4574 5.36446,-0.072 5.20015,1.3195 4.68147,2.6204 3.84374,3.7427 2.74408,4.6101 1.4574,5.1632 0.0714,5.3644 -1.31945,5.2002 -2.62038,4.6814 -3.74275,3.8438 -4.61005,2.7441 -5.16318,1.4574 -5.36447,0.072 -5.20015,-1.3194 -4.68146,-2.6204 -3.84375,-3.7428 -2.74407,-4.61 -1.45741,-5.1632" />
    <path
       d="m 290.2098,341.7775 11.43088,14.897 14.89701,11.4309 17.34794,7.1857 18.61663,2.451 18.61663,-2.451 17.34793,-7.1857 14.89701,-11.4309 11.43088,-14.897 7.18575,-17.3479 2.45093,-18.6166 -2.45093,-18.6167 -7.18575,-17.3479 -11.43088,-14.897 -14.89701,-11.4309 -17.34793,-7.1857 -18.61663,-2.451 -18.61663,2.451 -17.34794,7.1857 -14.89701,11.4309 -11.43088,14.897 -7.18575,17.3479 -2.45092,18.6167 2.45092,18.6166 7.18575,17.3479 m 41.9546,-33.0111 -0.0714,-5.3645 1.31945,-5.2001 2.62038,-4.6815 3.74275,-3.8437 4.61005,-2.7441 5.16319,-1.4574 5.36446,-0.072 5.20015,1.3195 4.68147,2.6204 3.84374,3.7427 2.74408,4.6101 1.4574,5.1632 0.0714,5.3644 -1.31945,5.2002 -2.62038,4.6814 -3.74275,3.8438 -4.61005,2.7441 -5.16318,1.4574 -5.36447,0.072 -5.20015,-1.3194 -4.68146,-2.6204 -3.84375,-3.7428 -2.74407,-4.61 -1.45741,-5.1632"
       style="fill:none;stroke:#0000ff;stroke-width:3.54330707;stroke-linecap:round;stroke-linejoin:round;stroke-miterlimit:4;stroke-dasharray:none"
       id="path3106"
       inkscape:connector-curvature="0" />
  </g>
</svg>
