  0
SECTION
  2
HEADER
  9
$ACADVER
  1
AC1014
  9
$HANDSEED
  5
FFFF
  9
$MEASUREMENT
 70
     1
  0
ENDSEC
  0
SECTION
  2
TABLES
  0
TABLE
  2
VPORT
  5
8
330
0
100
AcDbSymbolTable
 70
     4
  0
VPORT
  5
2E
330
8
100
AcDbSymbolTableRecord
100
AcDbViewportTableRecord
  2
*ACTIVE
 70
     0
 10
0.0
 20
0.0
 11
1.0
 21
1.0
 12
210.0
 22
148.5
 13
0.0
 23
0.0
 14
10.0
 24
10.0
 15
10.0
 25
10.0
 16
0.0
 26
0.0
 36
1.0
 17
0.0
 27
0.0
 37
0.0
 40
341.0
 41
1.24
 42
50.0
 43
0.0
 44
0.0
 50
0.0
 51
0.0
 71
     0
 72
   100
 73
     1
 74
     3
 75
     0
 76
     0
 77
     0
 78
     0
  0
ENDTAB
  0
TABLE
  2
LTYPE
  5
5
330
0
100
AcDbSymbolTable
 70
     1
  0
LTYPE
  5
14
330
5
100
AcDbSymbolTableRecord
100
AcDbLinetypeTableRecord
  2
BYBLOCK
 70
     0
  3

 72
    65
 73
     0
 40
0.0
  0
LTYPE
  5
15
330
5
100
AcDbSymbolTableRecord
100
AcDbLinetypeTableRecord
  2
BYLAYER
 70
     0
  3

 72
    65
 73
     0
 40
0.0
  0
LTYPE
  5
16
330
5
100
AcDbSymbolTableRecord
100
AcDbLinetypeTableRecord
  2
CONTINUOUS
 70
     0
  3
Solid line
 72
    65
 73
     0
 40
0.0
  0
ENDTAB
  0
TABLE
  2
LAYER
  5
2
100
AcDbSymbolTable
 70
2
  0
LAYER
  5
50
100
AcDbSymbolTableRecord
100
AcDbLayerTableRecord
  2
0
 70
0
  6
CONTINUOUS
  0
LAYER
  5
51
100
AcDbSymbolTableRecord
100
AcDbLayerTableRecord
  2
Layer_1
 70
0
  6
CONTINUOUS
  0
ENDTAB
  0
TABLE
  2
STYLE
  5
3
330
0
100
AcDbSymbolTable
 70
     1
  0
STYLE
  5
11
330
3
100
AcDbSymbolTableRecord
100
AcDbTextStyleTableRecord
  2
STANDARD
 70
     0
 40
0.0
 41
1.0
 50
0.0
 71
     0
 42
2.5
  3
txt
  4

  0
ENDTAB
  0
TABLE
  2
VIEW
  5
6
330
0
100
AcDbSymbolTable
 70
     0
  0
ENDTAB
  0
TABLE
  2
UCS
  5
7
330
0
100
AcDbSymbolTable
 70
     0
  0
ENDTAB
  0
TABLE
  2
APPID
  5
9
330
0
100
AcDbSymbolTable
 70
     2
  0
APPID
  5
12
330
9
100
AcDbSymbolTableRecord
100
AcDbRegAppTableRecord
  2
ACAD
 70
     0
  0
ENDTAB
  0
TABLE
  2
DIMSTYLE
  5
A
330
0
100
AcDbSymbolTable
 70
     1
  0
DIMSTYLE
105
27
330
A
100
AcDbSymbolTableRecord
100
AcDbDimStyleTableRecord
  2
ISO-25
 70
     0
  3

  4

  5

  6

  7

 40
1.0
 41
2.5
 42
0.625
 43
3.75
 44
1.25
 45
0.0
 46
0.0
 47
0.0
 48
0.0
140
2.5
141
2.5
142
0.0
143
0.03937007874016
144
1.0
145
0.0
146
1.0
147
0.625
 71
     0
 72
     0
 73
     0
 74
     0
 75
     0
 76
     0
 77
     1
 78
     8
170
     0
171
     3
172
     1
173
     0
174
     0
175
     0
176
     0
177
     0
178
     0
270
     2
271
     2
272
     2
273
     2
274
     3
340
11
275
     0
280
     0
281
     0
282
     0
283
     0
284
     8
285
     0
286
     0
287
     3
288
     0
  0
ENDTAB
  0
TABLE
  2
BLOCK_RECORD
  5
1
330
0
100
AcDbSymbolTable
 70
     1
  0
BLOCK_RECORD
  5
1F
330
1
100
AcDbSymbolTableRecord
100
AcDbBlockTableRecord
  2
*MODEL_SPACE
  0
BLOCK_RECORD
  5
1B
330
1
100
AcDbSymbolTableRecord
100
AcDbBlockTableRecord
  2
*PAPER_SPACE
  0
ENDTAB
  0
ENDSEC
  0
SECTION
  2
BLOCKS
  0
BLOCK
  5
20
330
1F
100
AcDbEntity
  8
0
100
AcDbBlockBegin
  2
*MODEL_SPACE
 70
     0
 10
0.0
 20
0.0
 30
0.0
  3
*MODEL_SPACE
  1

  0
ENDBLK
  5
21
330
1F
100
AcDbEntity
  8
0
100
AcDbBlockEnd
  0
BLOCK
  5
1C
330
1B
100
AcDbEntity
 67
     1
  8
0
100
AcDbBlockBegin
  2
*PAPER_SPACE
  1

  0
ENDBLK
  5
1D
330
1B
100
AcDbEntity
 67
     1
  8
0
100
AcDbBlockEnd
  0
ENDSEC
  0
SECTION
  2
ENTITIES
  0
LWPOLYLINE
  5
100
100
AcDbEntity
  8
Layer_1
 62
5
100
AcDbPolyline
 90
9
 70
0
 10
137.007872
 20
147.559084
 30
0.0
 10
222.047248
 20
34.173284
 30
0.0
 10
377.952760
 20
34.173284
 30
0.0
 10
462.992128
 20
147.559084
 30
0.0
 10
462.992128
 20
827.874047
 30
0.0
 10
377.952760
 20
941.259876
 30
0.0
 10
222.047248
 20
941.259876
 30
0.0
 10
137.007872
 20
827.874047
 30
0.0
 10
137.007872
 20
147.559084
 30
0.0
  0
LWPOLYLINE
  5
101
100
AcDbEntity
  8
Layer_1
 62
5
100
AcDbPolyline
 90
25
 70
0
 10
330.173392
 20
572.192460
 30
0.0
 10
327.052728
 20
564.658484
 30
0.0
 10
322.088456
 20
558.188916
 30
0.0
 10
315.618896
 20
553.224660
 30
0.0
 10
308.084936
 20
550.103996
 30
0.0
 10
300.000000
 20
549.039588
 30
0.0
 10
291.915064
 20
550.103996
 30
0.0
 10
284.381104
 20
553.224660
 30
0.0
 10
277.911544
 20
558.188916
 30
0.0
 10
272.947280
 20
564.658484
 30
0.0
 10
269.826608
 20
572.192460
 30
0.0
 10
268.762208
 20
580.277380
 30
0.0
 10
269.826608
 20
588.362332
 30
0.0
 10
272.947280
 20
595.896284
 30
0.0
 10
277.911544
 20
602.365852
 30
0.0
 10
284.381104
 20
607.330108
 30
0.0
 10
291.915064
 20
610.450772
 30
0.0
 10
300.000000
 20
611.515180
 30
0.0
 10
308.084936
 20
610.450772
 30
0.0
 10
315.618896
 20
607.330108
 30
0.0
 10
322.088456
 20
602.365852
 30
0.0
 10
327.052728
 20
595.896284
 30
0.0
 10
330.173392
 20
588.362332
 30
0.0
 10
331.237800
 20
580.277380
 30
0.0
 10
330.173392
 20
572.192460
 30
0.0
  0
LWPOLYLINE
  5
102
100
AcDbEntity
  8
Layer_1
 62
5
100
AcDbPolyline
 90
25
 70
0
 10
331.455824
 20
770.035167
 30
0.0
 10
330.383984
 20
761.893807
 30
0.0
 10
327.241536
 20
754.307260
 30
0.0
 10
322.242624
 20
747.792548
 30
0.0
 10
315.727912
 20
742.793628
 30
0.0
 10
308.141368
 20
739.651180
 30
0.0
 10
300.000000
 20
738.579348
 30
0.0
 10
291.858632
 20
739.651180
 30
0.0
 10
284.272088
 20
742.793628
 30
0.0
 10
277.757376
 20
747.792548
 30
0.0
 10
272.758464
 20
754.307260
 30
0.0
 10
269.616016
 20
761.893807
 30
0.0
 10
268.544184
 20
770.035167
 30
0.0
 10
269.616016
 20
778.176535
 30
0.0
 10
272.758464
 20
785.763079
 30
0.0
 10
277.757376
 20
792.277791
 30
0.0
 10
284.272088
 20
797.276711
 30
0.0
 10
291.858632
 20
800.419159
 30
0.0
 10
300.000000
 20
801.490991
 30
0.0
 10
308.141368
 20
800.419159
 30
0.0
 10
315.727912
 20
797.276711
 30
0.0
 10
322.242624
 20
792.277791
 30
0.0
 10
327.241536
 20
785.763079
 30
0.0
 10
330.383984
 20
778.176535
 30
0.0
 10
331.455824
 20
770.035167
 30
0.0
  0
LWPOLYLINE
  5
103
100
AcDbEntity
  8
Layer_1
 62
5
100
AcDbPolyline
 90
25
 70
0
 10
307.999832
 20
360.500356
 30
0.0
 10
300.000000
 20
359.447148
 30
0.0
 10
292.000168
 20
360.500356
 30
0.0
 10
284.545512
 20
363.588164
 30
0.0
 10
278.144056
 20
368.500180
 30
0.0
 10
273.232040
 20
374.901636
 30
0.0
 10
270.144224
 20
382.356300
 30
0.0
 10
269.091024
 20
390.356124
 30
0.0
 10
270.144224
 20
398.355948
 30
0.0
 10
273.232040
 20
405.810612
 30
0.0
 10
278.144056
 20
412.212060
 30
0.0
 10
284.545512
 20
417.124076
 30
0.0
 10
292.000168
 20
420.211916
 30
0.0
 10
300.000000
 20
421.265100
 30
0.0
 10
307.999832
 20
420.211916
 30
0.0
 10
315.454488
 20
417.124076
 30
0.0
 10
321.855944
 20
412.212060
 30
0.0
 10
326.767960
 20
405.810612
 30
0.0
 10
329.855776
 20
398.355948
 30
0.0
 10
330.908976
 20
390.356124
 30
0.0
 10
329.855776
 20
382.356300
 30
0.0
 10
326.767960
 20
374.901636
 30
0.0
 10
321.855944
 20
368.500180
 30
0.0
 10
315.454488
 20
363.588164
 30
0.0
 10
307.999832
 20
360.500356
 30
0.0
  0
LWPOLYLINE
  5
104
100
AcDbEntity
  8
Layer_1
 62
5
100
AcDbPolyline
 90
25
 70
0
 10
308.510464
 20
168.673396
 30
0.0
 10
300.000000
 20
167.552972
 30
0.0
 10
291.489544
 20
168.673396
 30
0.0
 10
283.559056
 20
171.958324
 30
0.0
 10
276.748992
 20
177.183852
 30
0.0
 10
271.523448
 20
183.993916
 30
0.0
 10
268.238536
 20
191.924404
 30
0.0
 10
267.118112
 20
200.434860
 30
0.0
 10
268.238536
 20
208.945316
 30
0.0
 10
271.523448
 20
216.875804
 30
0.0
 10
276.748992
 20
223.685876
 30
0.0
 10
283.559056
 20
228.911428
 30
0.0
 10
291.489544
 20
232.196332
 30
0.0
 10
300.000000
 20
233.316756
 30
0.0
 10
308.510464
 20
232.196332
 30
0.0
 10
316.440944
 20
228.911428
 30
0.0
 10
323.251008
 20
223.685876
 30
0.0
 10
328.476552
 20
216.875804
 30
0.0
 10
331.761472
 20
208.945316
 30
0.0
 10
332.881888
 20
200.434860
 30
0.0
 10
331.761472
 20
191.924404
 30
0.0
 10
328.476552
 20
183.993916
 30
0.0
 10
323.251008
 20
177.183852
 30
0.0
 10
316.440944
 20
171.958324
 30
0.0
 10
308.510464
 20
168.673396
 30
0.0
  0
LWPOLYLINE
  5
105
100
AcDbEntity
  8
Layer_1
 62
5
100
AcDbPolyline
 90
25
 70
0
 10
-24.505354
 20
122.207012
 30
0.0
 10
-15.360650
 20
110.289412
 30
0.0
 10
-3.443042
 20
101.144692
 30
0.0
 10
10.435310
 20
95.396132
 30
0.0
 10
25.328614
 20
93.435332
 30
0.0
 10
40.221918
 20
95.396132
 30
0.0
 10
54.100262
 20
101.144692
 30
0.0
 10
66.017878
 20
110.289412
 30
0.0
 10
75.162582
 20
122.207012
 30
0.0
 10
80.911184
 20
136.085332
 30
0.0
 10
82.871920
 20
150.978692
 30
0.0
 10
80.911184
 20
165.871972
 30
0.0
 10
75.162582
 20
179.750292
 30
0.0
 10
66.017878
 20
191.667972
 30
0.0
 10
54.100262
 20
200.812612
 30
0.0
 10
40.221918
 20
206.561252
 30
0.0
 10
25.328614
 20
208.521972
 30
0.0
 10
10.435310
 20
206.561252
 30
0.0
 10
-3.443042
 20
200.812612
 30
0.0
 10
-15.360650
 20
191.667972
 30
0.0
 10
-24.505354
 20
179.750292
 30
0.0
 10
-30.253954
 20
165.871972
 30
0.0
 10
-32.214698
 20
150.978692
 30
0.0
 10
-30.253954
 20
136.085332
 30
0.0
 10
-24.505354
 20
122.207012
 30
0.0
  0
LWPOLYLINE
  5
106
100
AcDbEntity
  8
Layer_1
 62
5
100
AcDbPolyline
 90
25
 70
0
 10
30.048294
 20
142.803972
 30
0.0
 10
27.771702
 20
141.860932
 30
0.0
 10
25.328614
 20
141.539332
 30
0.0
 10
22.885526
 20
141.860932
 30
0.0
 10
20.608926
 20
142.803972
 30
0.0
 10
18.653966
 20
144.304052
 30
0.0
 10
17.153878
 20
146.259012
 30
0.0
 10
16.210878
 20
148.535572
 30
0.0
 10
15.889238
 20
150.978692
 30
0.0
 10
16.210878
 20
153.421732
 30
0.0
 10
17.153878
 20
155.698372
 30
0.0
 10
18.653966
 20
157.653332
 30
0.0
 10
20.608926
 20
159.153412
 30
0.0
 10
22.885526
 20
160.096372
 30
0.0
 10
25.328614
 20
160.418052
 30
0.0
 10
27.771702
 20
160.096372
 30
0.0
 10
30.048294
 20
159.153412
 30
0.0
 10
32.003254
 20
157.653332
 30
0.0
 10
33.503350
 20
155.698372
 30
0.0
 10
34.446342
 20
153.421732
 30
0.0
 10
34.767982
 20
150.978692
 30
0.0
 10
34.446342
 20
148.535572
 30
0.0
 10
33.503350
 20
146.259012
 30
0.0
 10
32.003254
 20
144.304052
 30
0.0
 10
30.048294
 20
142.803972
 30
0.0
  0
ENDSEC
  0
SECTION
  2
OBJECTS
  0
DICTIONARY
  5
C
330
0
100
AcDbDictionary
  3
ACAD_GROUP
350
D
  3
ACAD_MLINESTYLE
350
17
  0
DICTIONARY
  5
D
330
C
100
AcDbDictionary
  0
DICTIONARY
  5
1A
330
C
100
AcDbDictionary
  0
DICTIONARY
  5
17
330
C
100
AcDbDictionary
  3
STANDARD
350
18
  0
DICTIONARY
  5
19
330
C
100
AcDbDictionary
  0
ENDSEC
  0
EOF
