<?xml version="1.0" standalone="no"?>
<!DOCTYPE svg PUBLIC "-//W3C//DTD SVG 1.1//EN" "http://www.w3.org/Graphics/SVG/1.1/DTD/svg11.dtd">
<svg width="135.0mm" height="390.6mm"
 viewBox="0 0 135.0 390.6"
 xmlns="http://www.w3.org/2000/svg" version="1.1"
 xmlns:xlink="http://www.w3.org/1999/xlink">
<desc>Output from Flights of Ideas SVG Sketchup Plugin</desc>

<g id="text_annotations" font-size="10" stroke="rgb(255,0,0)" stroke-width="1">
</g>
  <path id="face0-cut"
 style="fill:none;stroke:rgb(0,0,255);stroke-width:1;stroke-miterlimit:4;stroke-dasharray:none;stroke-linejoin:round;stroke-linecap:round"
        d="M 10.0,290.0 L 40.0,330.0 L 95.0,330.0 L 125.0,290.0 L 125.0,50.0000000000001 L 95.0,10.0000000000001 L 40.0,10.0 L 10.0,50.0000000000001 L 10.0,290.0 M 78.1445026057053,140.198784176874 L 77.043599949704,142.856598299844 L 75.2923167286754,145.13891502852 L 73.0099999999991,146.890198249549 L 70.3521858770295,147.99110090555 L 67.4999999999997,148.366598299844 L 64.64781412297,147.99110090555 L 61.9900000000002,146.890198249549 L 59.707683271324,145.13891502852 L 57.9564000502956,142.856598299844 L 56.8554973942936,140.198784176874 L 56.4799999999995,137.346598299844 L 56.8554973942936,134.494412422815 L 57.9564000502955,131.836598299844 L 59.7076832713237,129.554281571169 L 61.9900000000002,127.80299835014 L 64.64781412297,126.702095694139 L 67.4999999999997,126.326598299845 L 70.3521858770292,126.702095694139 L 73.0099999999991,127.80299835014 L 75.2923167286754,129.554281571169 L 77.043599949704,131.836598299844 L 78.1445026057053,134.494412422815 L 78.52,137.346598299844 L 78.1445026057053,140.198784176874 M 78.5969135345591,70.404270737777 L 78.2187953751277,73.2763633023769 L 77.1102090245274,75.9527275050567 L 75.3467028105276,78.2509735483048 L 73.0484567672794,80.0144797623048 L 70.3720925646,81.1230661129046 L 67.4999999999997,81.5011842723364 L 64.6279074354001,81.1230661129046 L 61.95154323272,80.0144797623049 L 59.6532971894721,78.2509735483048 L 57.8897909754718,75.9527275050567 L 56.7812046248723,73.276363302377 L 56.4030864654404,70.404270737777 L 56.7812046248723,67.5321781731771 L 57.8897909754718,64.8558139704973 L 59.6532971894721,62.5575679272493 L 61.95154323272,60.7940617132492 L 64.6279074353999,59.6854753626493 L 67.4999999999997,59.3073572032175 L 70.3720925646,59.6854753626494 L 73.0484567672794,60.7940617132492 L 75.3467028105276,62.5575679272493 L 77.1102090245275,64.8558139704973 L 78.2187953751277,67.532178173177 L 78.5969135345591,70.404270737777 M 70.3221628677989,214.8790535097 L 67.500000000001,215.250598299844 L 64.6778371322035,214.8790535097 L 62.048000000001,213.78973930271 L 59.789707657943,212.056890641903 L 58.0568589971354,209.798598299844 L 56.9675447901457,207.168761167642 L 56.5960000000014,204.346598299844 L 56.9675447901457,201.524435432047 L 58.0568589971354,198.894598299844 L 59.789707657943,196.636305957786 L 62.048000000001,194.903457296979 L 64.6778371322035,193.814143089988 L 67.500000000001,193.442598299844 L 70.3221628677989,193.814143089988 L 72.9520000000011,194.903457296979 L 75.2102923420595,196.636305957786 L 76.943141002867,198.894598299844 L 78.0324552098564,201.524435432047 L 78.4040000000012,204.346598299844 L 78.0324552098564,207.168761167642 L 76.943141002867,209.798598299844 L 75.2102923420595,212.056890641903 L 72.9520000000011,213.78973930271 L 70.3221628677989,214.8790535097 M 70.5023009231873,282.551337884797 L 67.4999999999982,282.946598299844 L 64.4976990768093,282.551337884797 L 61.6999999999983,281.392492983744 L 59.2975613382343,279.549036961608 L 57.4541053160986,277.146598299845 L 56.2952604150451,274.348899223034 L 55.8999999999983,271.346598299845 L 56.2952604150451,268.344297376655 L 57.4541053160986,265.546598299845 L 59.2975613382343,263.144159638081 L 61.6999999999983,261.300703615945 L 64.4976990768093,260.141858714891 L 67.4999999999982,259.746598299844 L 70.5023009231873,260.141858714891 L 73.2999999999982,261.300703615945 L 75.702438661762,263.144159638081 L 77.5458946838978,265.546598299845 L 78.7047395849514,268.344297376655 L 79.0999999999982,271.346598299844 L 78.7047395849514,274.348899223034 L 77.5458946838978,277.146598299844 L 75.702438661762,279.549036961608 L 73.2999999999982,281.392492983744 L 70.5023009231873,282.551337884797 "
  />
  <path id="face1-cut"
 style="fill:none;stroke:rgb(0,0,255);stroke-width:1;stroke-miterlimit:4;stroke-dasharray:none;stroke-linejoin:round;stroke-linecap:round"
        d="M 12.7196843031761,370.45 L 15.9457323419135,374.654267658087 L 20.1500000000002,377.880315696824 L 25.0459733844181,379.908294273669 L 30.3,380.6 L 35.5540266155814,379.908294273669 L 40.4500000000001,377.880315696824 L 44.6542676580867,374.654267658087 L 47.8803156968238,370.45 L 49.9082942736678,365.554026615582 L 50.6,360.3 L 49.9082942736678,355.045973384419 L 47.8803156968238,350.15 L 44.6542676580867,345.945732341913 L 40.4500000000001,342.719684303176 L 35.5540266155814,340.691705726333 L 30.3,340.0 L 25.0459733844181,340.691705726333 L 20.1500000000002,342.719684303176 L 15.9457323419135,345.945732341913 L 12.7196843031761,350.15 L 10.6917057263318,355.045973384419 L 10.0,360.3 L 10.6917057263318,365.554026615582 L 12.7196843031761,370.45 M 31.965,363.183864594602 L 31.1618674201914,363.516533001543 L 30.3,363.63 L 29.4381325798086,363.516533001543 L 28.635,363.183864594602 L 27.9453344186487,362.654665581351 L 27.4161354053978,361.965 L 27.0834669984573,361.161867420191 L 26.97,360.3 L 27.0834669984573,359.438132579809 L 27.4161354053978,358.635 L 27.9453344186487,357.945334418649 L 28.6349999999999,357.416135405398 L 29.4381325798086,357.083466998457 L 30.3,356.97 L 31.1618674201914,357.083466998457 L 31.9649999999999,357.416135405398 L 32.6546655813513,357.945334418649 L 33.1838645946021,358.635 L 33.5165330015426,359.438132579809 L 33.63,360.3 L 33.5165330015426,361.161867420191 L 33.1838645946021,361.965 L 32.6546655813513,362.654665581351 L 31.965,363.183864594602 "
  />
</svg>
