<?xml version="1.0" encoding="UTF-8" standalone="no"?>
<!-- Created with Inkscape (http://www.inkscape.org/) -->

<svg
   xmlns:dc="http://purl.org/dc/elements/1.1/"
   xmlns:cc="http://creativecommons.org/ns#"
   xmlns:rdf="http://www.w3.org/1999/02/22-rdf-syntax-ns#"
   xmlns:svg="http://www.w3.org/2000/svg"
   xmlns="http://www.w3.org/2000/svg"
   xmlns:xlink="http://www.w3.org/1999/xlink"
   xmlns:sodipodi="http://sodipodi.sourceforge.net/DTD/sodipodi-0.dtd"
   xmlns:inkscape="http://www.inkscape.org/namespaces/inkscape"
   width="1052.3622"
   height="1488.189"
   id="svg3041"
   version="1.1"
   inkscape:version="0.48.4 r9939"
   sodipodi:docname="poster3.svg">
  <defs
     id="defs3043">
    <linearGradient
       id="linearGradient4265">
      <stop
         style="stop-color:#64999a;stop-opacity:1;"
         offset="0"
         id="stop4267" />
      <stop
         style="stop-color:#446869;stop-opacity:1;"
         offset="1"
         id="stop4269" />
    </linearGradient>
    <linearGradient
       inkscape:collect="always"
       xlink:href="#linearGradient4265"
       id="linearGradient4273"
       x1="1167.1428"
       y1="-11.209254"
       x2="1167.1428"
       y2="642.68481"
       gradientUnits="userSpaceOnUse"
       gradientTransform="translate(-785.71429,-435.8268)" />
  </defs>
  <sodipodi:namedview
     id="base"
     pagecolor="#69959a"
     bordercolor="#666666"
     borderopacity="1.0"
     inkscape:pageopacity="1"
     inkscape:pageshadow="2"
     inkscape:zoom="0.30419922"
     inkscape:cx="1173.4301"
     inkscape:cy="874.38263"
     inkscape:document-units="px"
     inkscape:current-layer="layer3"
     showgrid="false"
     inkscape:window-width="1920"
     inkscape:window-height="1057"
     inkscape:window-x="-8"
     inkscape:window-y="-8"
     inkscape:window-maximized="1" />
  <metadata
     id="metadata3046">
    <rdf:RDF>
      <cc:Work
         rdf:about="">
        <dc:format>image/svg+xml</dc:format>
        <dc:type
           rdf:resource="http://purl.org/dc/dcmitype/StillImage" />
        <dc:title />
      </cc:Work>
    </rdf:RDF>
  </metadata>
  <g
     inkscape:groupmode="layer"
     id="layer2"
     inkscape:label="Layer"
     transform="translate(0,435.8268)">
    <rect
       style="fill:url(#linearGradient4273);fill-opacity:1;stroke:none"
       id="rect4245"
       width="1055.7219"
       height="1432.1963"
       x="9.9439707"
       y="-482.55591" />
    <path
       style="fill:#a5ad85;fill-opacity:1;stroke:none"
       d="m -0.0156332,834.25717 0,189.58793 470.8980432,0 642.57729,-50.71943 0,-50.98092 L -0.0156332,834.25717 z"
       id="rect3775"
       inkscape:connector-curvature="0" />
    <path
       style="fill:#cccccc;fill-opacity:1;stroke:none"
       d="M 1155.0536,785.3147 C 1026.4679,454.89587 633.13479,299.55155 276.51532,438.33336 120.31081,499.12177 -2.9321961,606.26714 -81.323949,735.25319 L 155.64834,1344.1871 1192.6577,940.62517 c -5.4429,-52.24715 -17.7799,-104.36925 -37.6041,-155.31047 z"
       id="path3804"
       inkscape:connector-curvature="0" />
  </g>
  <g
     inkscape:label="Layer 1"
     inkscape:groupmode="layer"
     id="layer1"
     transform="translate(0,435.8268)">
    <path
       style="fill:#1a1c28;fill-opacity:1;stroke:none"
       d="M 1134.9521,794.73057 C 1006.6589,477.8843 627.92694,329.32698 284.79829,462.8587 131.70236,522.43741 11.389294,628.24189 -64.338654,755.52894 L 162.87386,1339.3835 1173.7663,945.9855 c -5.7323,-48.36603 -17.5362,-96.57817 -35.8974,-143.76001 -0.9791,-2.51565 -1.9066,-5.00008 -2.9168,-7.49492 z"
       id="path3025"
       inkscape:connector-curvature="0" />
    <path
       style="font-size:medium;font-style:normal;font-variant:normal;font-weight:normal;font-stretch:normal;text-indent:0;text-align:start;text-decoration:none;line-height:normal;letter-spacing:normal;word-spacing:normal;text-transform:none;direction:ltr;block-progression:tb;writing-mode:lr-tb;text-anchor:start;baseline-shift:baseline;color:#000000;fill:#ffc800;fill-opacity:0.50196078;stroke:none;stroke-width:19.60000038;marker:none;visibility:visible;display:inline;overflow:visible;enable-background:accumulate;font-family:Sans;-inkscape-font-specification:Sans"
       d="M 753.03904,-95.288586 C 676.48819,-95.68349 603.2883,-66.706723 538.53949,-28.136527 482.05238,-0.35905939 421.68664,27.552532 382.50271,78.66528 c -49.92363,64.49889 -80.29051,145.71279 -82.27244,227.74056 6.21078,67.89718 15.87803,135.42163 22.52876,203.27547 3.08954,27.27671 6.21551,54.54935 9.22997,81.8345 99.9623,-55.01155 199.76708,-110.30917 299.39302,-165.92762 52.65082,-82.07713 82.68971,-175.90458 122.57205,-264.49072 26.03864,-73.828119 26.30515,-155.3388055 59.65203,-226.930405 1.31995,-3.939144 7.8854,-8.414847 6.27457,-11.285526 -19.70785,-12.812102 -43.4455,-18.613287 -66.84163,-18.170125 z"
       id="path3983"
       inkscape:connector-curvature="0" />
    <path
       style="font-size:medium;font-style:normal;font-variant:normal;font-weight:normal;font-stretch:normal;text-indent:0;text-align:start;text-decoration:none;line-height:normal;letter-spacing:normal;word-spacing:normal;text-transform:none;direction:ltr;block-progression:tb;writing-mode:lr-tb;text-anchor:start;baseline-shift:baseline;color:#000000;fill:#ff9b00;fill-opacity:0.50196078;stroke:none;stroke-width:19.60000038;marker:none;visibility:visible;display:inline;overflow:visible;enable-background:accumulate;font-family:Sans;-inkscape-font-specification:Sans"
       d="M 569.94974,-89.381263 C 500.4587,-46.276194 432.69454,-31.04864 370.34606,33.321514 270.68364,136.21552 258.98483,295.79541 258.98483,295.79541 l 40.67269,358.56263 359.38119,-199.17727 c 0,0 49.07752,-67.90953 105.03064,-222.27428 69.42805,-106.76419 59.83768,-394.91864 126.51227,-247.304113 14.76686,38.00257 21.12914,84.581506 18.68053,131.411243 -4.89725,93.65946 -47.91906,248.84935 -47.91906,248.84935 0,0 59.07273,-149.57424 64.24048,-248.4074 2.58387,-49.416574 -1.76679,-98.633034 -18.51878,-141.744362 -16.75186,-43.11133 -51.24986,-85.200698 -94.67255,-100.318488 -77.12236,-26.85044 -195.18016,9.04088 -242.4425,35.226017 z"
       id="path3967"
       inkscape:connector-curvature="0"
       sodipodi:nodetypes="cscccccscssac" />
    <path
       style="fill:#243542;fill-opacity:1;stroke:none"
       d="M 1154.5077,861.86934 C 1043.3737,576.29456 642.06635,441.19242 335.36214,560.54923 174.25887,623.24406 31.691223,690.37814 -51.289029,781.38577 L 165.46813,1338.374 1174.285,945.78346 c -3.8714,-30.4464 -10.4514,-59.95019 -19.7773,-83.91412 z"
       id="path3076"
       inkscape:connector-curvature="0" />
    <path
       id="path3863"
       d="M 568.41842,-90.669788 C 188.70968,83.977431 -3.8140377,420.32005 235.60457,687.24663 567.24737,1001.1766 812.16818,90.203508 812.16818,90.203508 539.51604,760.1075 63.578799,378.4779 568.41842,-90.669788 z"
       style="fill:#ffcf00;fill-opacity:0.50210972;stroke:none"
       inkscape:connector-curvature="0"
       sodipodi:nodetypes="cccc" />
    <path
       style="fill:#ffff00;fill-opacity:0.50210972;stroke:none"
       d="m 429.28847,-15.113537 c 0.1466,0.225536 0.28981,0.467595 0.43572,0.697175 C 145.78536,170.71482 27.468626,455.19694 235.60457,687.24663 567.24737,1001.1766 812.16818,90.203508 812.16818,90.203508 c 0,0 -126.59641,264.296392 -234.59935,380.831772 -13.20178,14.24475 -25.55941,27.09116 -37.29884,38.73677 -9.61463,17.17809 -19.23254,34.36847 -28.84562,51.54737 -12.56504,23.01997 -24.32451,50.2738 -50.19659,60.95922 -40.62038,-2.50865 -81.16723,-10.6517 -121.74416,-15.64285 -13.044,0.52944 -24.75357,-6.00204 -34.42301,-14.33565 -19.04228,-16.21177 -43.11241,-26.6143 -59.78274,-45.70854 -16.83975,-21.59333 -19.69894,-50.28546 -20.91525,-76.81995 0.90218,-24.65022 -5.31824,-51.19406 6.92818,-74.07483 0.34085,-0.8831 0.91435,-1.669 1.3072,-2.52726 10.28493,-8.68266 20.88351,-16.99643 31.63431,-25.14186 C 282.979,239.13498 377.428,109.68118 456.17326,21.313918 486.25137,-9.0738838 574.56849,-93.321549 574.56849,-93.321549 c 0,0 -73.85739,26.075202 -145.28002,78.208012 z"
       id="path3044"
       inkscape:connector-curvature="0"
       sodipodi:nodetypes="ccccsccccccccccccc" />
    <g
       id="g3036"
       transform="matrix(1.0953275,-0.8628261,0.8628261,1.0953275,-370.07858,220.92968)">
      <path
         style="fill:#cccccc;fill-opacity:1;stroke:none"
         d="m 351.97435,511.08643 c -1.42571,4.58909 -0.96191,16.9393 -3.12563,21.25306 -6.8765,5.65153 -10.69822,16.18818 -6.56971,24.17189 -27.59893,8.5792 -57.08122,16.02209 -79.26002,35.66299 -26.17518,20.09818 -53.8908,38.41393 -79.06248,59.66416 -0.28173,0.61554 -0.67811,1.1766 -0.92256,1.80993 l 5e-5,3e-5 0,0 c -8.78288,16.40963 -4.31005,35.4454 -4.95707,53.12405 0.87232,19.03003 2.91766,39.6246 14.99478,55.11091 11.95563,13.69401 29.19526,21.15275 42.85202,32.77949 6.93473,5.97671 15.3435,10.65404 24.6984,10.27433 29.10097,3.57956 58.19605,9.42907 87.32817,11.22824 18.55495,-7.66339 26.98859,-27.22832 35.99999,-43.73778 29.7359,-53.13908 59.47487,-106.2767 89.27875,-159.37754 -6.58664,-26.03388 -9.73561,-53.11071 -18.21822,-78.48068 -7.39959,-8.48958 -19.89573,-4.60447 -28.75739,-1.112 -2.55814,0.25264 -7.6902,4.23106 -6.69673,-0.57415 -0.66347,-9.90999 -10.83181,-26.38419 -20.62725,-27.64549 -2.9753,-3.10447 -2.3573,-8.22976 -4.07667,-12.21864 l -11.35096,9.8201 -10.08825,-0.7865 -6.80527,7.7998 z"
         id="path3945"
         transform="matrix(0.78554716,0.61880179,-0.61880179,0.78554716,521.94246,-261.39461)"
         inkscape:connector-curvature="0"
         sodipodi:nodetypes="cccccccccccccccccccccccc" />
      <path
         style="fill:#4d4d4d;stroke:none"
         d="m 227.32143,570.21932 14.82143,-8.92857 13.03571,-11.42857 0.17857,10 -22.32143,16.78572 z"
         id="path4116"
         inkscape:connector-curvature="0"
         transform="matrix(0.78554716,0.61880179,-0.61880179,0.78554716,507.1209,-214.87585)" />
      <path
         style="fill:#4d4d4d;stroke:none"
         d="m 187.88837,714.21362 c 1.01016,0.50507 17.93021,13.63706 17.93021,13.63706 l 12.87945,7.82868 17.67767,11.11168 24.49619,5.55584 24.4962,4.54568 27.52666,2.52538 c 0,0 -6.31345,-11.61675 -7.3236,-11.86929 -1.01016,-0.25254 -90.40866,-27.77919 -90.40866,-27.77919 z"
         id="path4121"
         inkscape:connector-curvature="0"
         transform="matrix(0.78554716,0.61880179,-0.61880179,0.78554716,507.1209,-214.87585)" />
      <path
         style="fill:#666666;fill-opacity:1;stroke:none"
         d="m 372.34375,458.71875 -5.0625,6.78125 -8.09375,-1.28125 -5.5625,5.40625 -7.5625,0.0937 -5.03125,18.21875 c 0,0 -1.4901,2.81858 -7.375,8.59375 -5.8849,5.77517 2.59375,18.75 2.59375,18.75 0,0 -46.83781,15.23784 -55.0625,18.5625 -8.22471,3.32467 -14.875,7.46875 -14.875,7.46875 l -12.125,8.96875 c -0.77101,4.03676 -1.65625,8.375 -1.65625,8.375 l -13.625,8.0625 -8.09375,3.8125 -2.6875,-0.9687 L 174,609.625 c 0,0 -4.23436,9.49529 -5.125,13.46875 -0.89069,3.97347 0.41877,23.67147 0.0312,40.4375 -0.3875,16.76604 8.3125,40.75 8.3125,40.75 0,0 8.20573,12.03619 12.625,14.375 0.58926,0.31186 1.87851,1.12672 3.53125,2.25 l 18.0625,1.8125 c 0,0 2.47768,10.37054 3.90625,12.15625 1.42857,1.78572 17.15625,11.78125 17.15625,11.78125 l 8.21875,-0.71875 27.5,5 19.28125,3.5625 21.4375,2.875 3.1875,3.4375 c 8.21742,1.16835 14.16427,2.04724 15.03125,2.21875 3.6578,0.72359 17.40625,-13 17.40625,-13 l 97.46875,-174.0625 c -5.87299,-2.1606 -11.69788,-4.71264 -11.84375,-6.4375 -0.29589,-3.49912 -3.0625,-4.1875 -3.0625,-4.1875 l 10.65625,-0.5625 7.3125,-10.15625 C 441.73735,538.89139 433.09895,498.47087 432.25,495 c -1.02179,-4.17742 -9.1875,-3.25 -9.1875,-3.25 0,0 -32.68057,11.37707 -30.15625,5.84375 2.52432,-5.53332 1.36106,-10.9853 -0.125,-15.8125 C 391.29521,476.95405 377,473.40625 377,473.40625 l -4.65625,-14.6875 z"
         transform="matrix(0.78554716,0.61880179,-0.61880179,0.78554716,507.1209,-214.87585)"
         id="path3938"
         inkscape:connector-curvature="0" />
      <path
         style="fill:#4d4d4d;stroke:none"
         d="m 445.351,554.23071 -2.77792,11.11168 0.75762,7.3236 0.25254,4.29315 c 0,0 -19.69798,-4.67196 -19.69798,-5.3033 0,-0.63135 -0.25254,-11.49049 -0.25254,-11.49049 z"
         id="path4111"
         inkscape:connector-curvature="0"
         transform="matrix(0.78554716,0.61880179,-0.61880179,0.78554716,507.1209,-214.87585)" />
      <path
         style="fill:#808080;stroke:none"
         d="m 424.5625,492.09375 c -4.9615,0.19109 -11.81448,2.78415 -24.03125,7.125 -11.07262,3.93431 -34.12497,22.70075 -56.96875,42.75 l 0,17.53125 -19.625,0 c -1.92063,1.74043 -3.8972,3.52979 -5.75,5.21875 -28.88644,26.33212 -26.92569,37.89735 -26.90625,43.96875 0.0194,6.0714 7.91839,85.79052 12.84375,121.53125 4.15874,30.17773 18.75898,33.35202 25.03125,34.8125 0.74592,-0.30221 6.65421,-2.78759 11.71875,-8.0625 5.40219,-5.62656 8.0625,-9.875 8.0625,-9.875 l 49.875,-91.1875 44.65625,-79.4375 c -6.32638,-2.25738 -13.12328,-5.06949 -13.28125,-6.9375 -0.29589,-3.49912 -3.0625,-4.1875 -3.0625,-4.1875 l 10.65625,-0.5625 8.03125,-11.125 c -0.24242,-1.08869 -0.49296,-2.17935 -0.78125,-3.40625 -5.96363,-25.38019 -10.14322,-54.53619 -14.5625,-56.875 -1.79954,-0.95236 -3.65102,-1.36811 -5.90625,-1.28125 z m -95.40625,272.9375 c -0.0497,0.0201 -0.28125,0.125 -0.28125,0.125 l 2.875,0.6875 c -0.46532,-0.30915 -1.43752,-0.54327 -2.59375,-0.8125 z"
         transform="matrix(0.78554716,0.61880179,-0.61880179,0.78554716,507.1209,-214.87585)"
         id="path3021"
         inkscape:connector-curvature="0" />
      <g
         id="g3951"
         transform="matrix(0.72517411,0.68856554,-0.68856554,0.72517411,425.48026,-284.60261)">
        <path
           style="fill:#cccccc;fill-opacity:1;stroke:none"
           d="m 552.57231,341.80571 c -10.17424,7.43698 -20.27675,15.0041 -30.4375,22.5 8.09985,1.27709 17.46002,-0.82378 24.28125,4.75 6.10627,-2.33509 10.96985,3.94259 16.9375,3.875 2.76271,-7.39234 5.56455,-14.77007 8.34375,-22.15625 -6.06078,-3.18961 -12.10636,-6.40146 -18.09375,-9.71875 l -0.80874,0.58817 -0.22251,0.16183 z"
           id="path3947"
           inkscape:connector-curvature="0" />
        <path
           sodipodi:nodetypes="cccccccc"
           inkscape:connector-curvature="0"
           id="path3019"
           d="m 533.18252,361.0736 20.73884,-15.26838 12.79106,6.83523 -6.05253,16.03988 -5.06726,-3.32363 -8.67142,-0.47973 -5.37329,-3.22373 z"
           style="fill:#666666;fill-opacity:1;stroke:none" />
      </g>
      <path
         inkscape:connector-curvature="0"
         id="path3023"
         d="m 222.28456,442.84477 c 0,0 12.28048,34.79284 14.09034,37.11618 1.80987,2.32332 40.02366,33.05483 43.21454,33.20435 3.19088,0.14952 6.52636,0.6256 9.14872,-7.56603 2.62237,-8.19163 27.69015,-41.55418 27.69015,-41.55418 0,0 2.94401,-4.81878 -3.03151,-10.3753 -5.97551,-5.55652 -40.60695,-30.84364 -40.60695,-30.84364 0,0 -14.77303,-15.72232 -16.36847,-15.79708 -1.59545,-0.0748 -9.89428,-3.82141 -9.89428,-3.82141 0,0 -17.25778,23.65517 -18.06042,27.13524"
         style="fill:#4d4d4d;stroke:none" />
      <path
         style="fill:#4d4d4d;stroke:none"
         d="m 323.75389,559.40774 19.95051,0.25254 -12.2481,-4.16688 z"
         id="path4109"
         inkscape:connector-curvature="0"
         transform="matrix(0.78554716,0.61880179,-0.61880179,0.78554716,507.1209,-214.87585)"
         sodipodi:nodetypes="cccc" />
    </g>
    <g
       transform="matrix(0.46776125,-0.88385485,0.88385485,0.46776125,-244.08816,636.8429)"
       id="g3062-9-4" />
    <path
       style="fill:#ffae00;fill-opacity:0.50210972;stroke:none"
       d="m 483.36309,-30.88705 c -117.82412,67.910535 -225.7847,160.4191 -291.4191,281.31006 -42.06113,78.62378 -60.91919,173.12916 -38.0396,260.69982 18.46141,72.14583 58.9745,139.68942 116.16676,187.58362 39.01355,30.42538 91.11954,49.77476 140.39093,35.89699 56.5713,-14.71012 101.07509,-57.2356 137.28804,-101.10107 73.63309,-89.64277 122.32682,-195.95892 166.99867,-302.20246 12.33423,-30.31915 23.98841,-60.91765 35.02223,-91.77026 -47.56358,85.32118 -98.72249,169.80073 -163.70536,242.92186 -20.06116,20.21981 -40.60201,40.80405 -52.32113,67.17547 -15.04026,27.67065 -28.47668,58.37493 -53.56231,78.3598 -11.41147,8.39806 -26.3067,9.81061 -39.80195,6.47919 -40.71836,-4.84259 -81.56555,-10.54524 -121.92251,-17.73456 -22.75841,-10.0856 -39.41025,-29.55418 -61.54579,-40.81489 -24.06397,-16.63411 -40.83708,-43.73169 -43.31199,-73.15978 -4.7842,-31.41368 -4.65753,-63.7125 -1.69936,-95.2951 3.75017,-19.22764 18.46286,-33.80785 34.94589,-43.22483 8.62153,-5.74949 5.41025,-17.25066 8.83779,-25.65229 23.26208,-102.51549 81.61636,-192.6794 145.87348,-274.231753 27.37705,-34.266772 56.36514,-66.8506605 86.94697,-98.159236 -1.71389,0.973144 -3.42776,1.946275 -5.14166,2.919419 z"
       id="path3869"
       inkscape:connector-curvature="0" />
    <path
       style="fill:#ff8800;fill-opacity:0.50210972;stroke:none"
       d="M 388.54729,52.163906 C 302.88978,117.964 227.79816,201.45781 186.33606,302.2224 c -31.78335,79.44637 -35.33598,171.95337 -0.75379,251.16666 25.75019,62.81313 69.00901,121.64946 129.57726,154.11987 37.51596,18.80439 84.61048,20.31115 121.61592,-0.6498 59.45616,-29.59661 100.491,-84.28444 137.87397,-137.65291 32.01476,-47.3504 58.81973,-97.75475 82.9638,-149.41329 -28.14198,39.14358 -60.45546,75.39019 -92.89778,110.75327 -26.52529,37.24391 -38.85206,86.10297 -77.95363,112.9527 -23.2378,15.55372 -52.64101,7.2826 -78.17074,3.4423 -35.26634,-5.23178 -71.9114,-6.47482 -105.50229,-19.42377 -24.87295,-15.68475 -48.35868,-33.61047 -71.9287,-51.07802 -28.91421,-28.1543 -38.13411,-70.27118 -37.45887,-109.5817 -1.0611,-29.03721 -2.94555,-60.48971 11.40196,-86.7166 8.01893,-12.18593 19.69775,-21.08454 31.02428,-30.10924 21.1961,-108.60906 80.51514,-205.02449 148.28037,-290.634775 1.70907,-2.724406 13.2162,-15.137088 4.13947,-7.233189 z"
       id="path3881"
       inkscape:connector-curvature="0" />
    <g
       id="g4035"
       transform="matrix(1.1270889,0,0,0.89229879,97.558529,-229.87994)">
      <path
         inkscape:connector-curvature="0"
         id="path4015"
         d="m 522.5625,462.96875 c -2.00335,5.75904 -5.40337,10.607 -8.5,15.625 -1.16583,4.06665 -1.42441,8.18453 -1.71875,12.40625 9.92197,-5.73519 19.8614,-11.44049 29.8125,-17.125 -5.32306,-3.14536 -14.25898,-2.53254 -15.48558,-9.86538 -1.84038,-3.71944 -1.84965,-7.9905 -4.10817,-1.04087 z"
         style="fill:#cccccc;stroke:none" />
      <path
         sodipodi:nodetypes="ccsccc"
         inkscape:connector-curvature="0"
         id="path3975"
         d="m 537.53117,474.22953 -22.89796,13.13265 c 0,0 0.58886,-8.9237 2.60927,-10.27064 2.0204,-1.34693 7.15603,-13.30079 7.15603,-13.30079 l 2.69388,6.39796 z"
         style="fill:#666666;stroke:none" />
    </g>
    <g
       id="g4039"
       transform="matrix(1.8668581,-1.8668581,1.423733,1.423733,-979.23543,457.78689)">
      <path
         inkscape:connector-curvature="0"
         id="path4017"
         d="m 487.03125,494.59375 c -3.27468,4.66951 -5.03288,11.70825 -9.1851,15.00678 -5.50909,0.33629 -13.76632,0.0272 -4.4399,3.93072 0.95736,2.07916 1.88914,4.77893 4.65625,5.6875 4.00514,2.36561 8.33228,3.93827 12.625,5.71875 -0.003,-12.33337 0.13811,-24.66669 0.0625,-37 -1.23958,2.21875 -2.47917,4.4375 -3.71875,6.65625 z"
         style="fill:#cccccc;stroke:none" />
      <path
         sodipodi:nodetypes="ccsccc"
         style="fill:#666666;stroke:none"
         d="m 488.76788,495.57781 -0.0758,26.39654 c 0,0 -12.50683,-4.82562 -12.66311,-7.24883 -0.15627,-2.42319 -1.60501,-2.89235 -1.60501,-2.89235 l 5.62505,-0.39669 z"
         id="path3977"
         inkscape:connector-curvature="0" />
      <path
         style="fill:#4d4d4d;stroke:none"
         d="m 466.125,469 -10.59375,0.59375 c 0,0 2.73536,0.65713 3.03125,4.15625 0.26109,3.08737 17.90738,8.61797 22.25,9.9375 L 466.125,469 z"
         transform="matrix(0.52813552,0,0,0.69251339,233.84147,186.63854)"
         id="path4123"
         inkscape:connector-curvature="0" />
    </g>
    <g
       id="g4050"
       transform="matrix(1.0498979,0,0,0.7881107,210.43329,-171.94704)">
      <path
         inkscape:connector-curvature="0"
         id="path4019"
         d="m 444.4375,368.71875 c 2.72705,7.32076 0.72711,11.45557 -7.39534,11.46385 -6.15683,1.89029 -12.99059,2.09956 -18.32341,6.03615 12.31514,2.95224 25.41324,-0.83824 37.875,1.34375 5.96229,-0.54499 11.45366,-3.19374 17.0625,-5.15625 -9.94332,-5.93818 -19.87826,-11.89039 -29.8125,-17.84375 0.19792,1.38542 0.39583,2.77083 0.59375,4.15625 z"
         style="fill:#cccccc;stroke:none" />
      <path
         sodipodi:nodetypes="ccsccc"
         inkscape:connector-curvature="0"
         id="path3979"
         d="m 446.41771,368.44795 22.6474,13.56017 c 0,0 -11.50239,4.50048 -13.66489,3.39595 -2.16247,-1.10453 -31.62295,0.10795 -31.62295,0.10795 l 24.21609,-5.98191 z"
         style="fill:#666666;stroke:none" />
    </g>
    <g
       id="g4046"
       transform="matrix(1.0664744,0,0,1.1552123,72.493791,-267.66575)">
      <path
         inkscape:connector-curvature="0"
         id="path4021"
         d="m 502.875,385.65625 c -2.93124,4.10955 -9.14865,1.27383 -6.09375,8.21875 -0.50978,3.49691 1.44088,7.15685 5.34375,6.15625 2.61235,-0.33202 7.55715,0.58473 5.4917,-3.58483 -1.64882,-3.36116 0.45898,-18.16127 -4.58889,-10.95119 l -0.15281,0.16102 z"
         style="fill:#cccccc;stroke:none" />
      <path
         style="fill:#666666;stroke:none"
         d="m 504.34831,387.02248 1.42365,10.69252 c 0,0 -6.29278,0.84494 -6.48956,-0.12764 -0.19679,-0.97257 -0.91437,-7.21325 -0.91437,-7.21325 l 2.83666,-0.0288 z"
         id="path3981"
         inkscape:connector-curvature="0" />
    </g>
    <g
       id="g4054"
       transform="matrix(0.90763423,0,0,1.0718614,123.52566,-258.33722)">
      <path
         inkscape:connector-curvature="0"
         id="path4023"
         d="m 560.875,342.28125 c -4.60216,0.92366 -9.34338,1.05797 -12.9687,4.68963 2.3957,2.55939 10.69162,4.53336 15.41038,6.86204 0.10548,-0.83089 -0.92197,-11.42169 0.95999,-12.35349 -1.13389,0.26727 -2.26778,0.53455 -3.40167,0.80182 z"
         style="fill:#cccccc;stroke:none" />
      <g
         id="g4043">
        <path
           sodipodi:nodetypes="ccsccc"
           inkscape:connector-curvature="0"
           id="path4013"
           d="m 561.28034,350.88629 -9.74915,-3.90489 c 0,0 2.93016,-2.01845 3.8491,-1.72034 0.91894,0.29811 5.91679,-1.04921 5.91679,-1.04921 l -1.33182,2.41959 z"
           style="fill:#666666;stroke:none" />
      </g>
    </g>
    <text
       xml:space="preserve"
       style="font-size:12.54914761px;font-style:normal;font-variant:normal;font-weight:normal;font-stretch:normal;line-height:125%;letter-spacing:0px;word-spacing:0px;fill:#000000;fill-opacity:1;stroke:none;font-family:Hanzel Extended;-inkscape-font-specification:Hanzel Extended"
       x="592.96539"
       y="875.93188"
       id="text4128"
       sodipodi:linespacing="125%"><tspan
         sodipodi:role="line"
         id="tspan4130"
         x="592.96539"
         y="875.93188"> </tspan></text>
  </g>
  <g
     inkscape:groupmode="layer"
     id="layer3"
     inkscape:label="top"
     style="display:inline"
     transform="translate(0,435.8268)">
    <path
       style="fill:#000000;fill-opacity:1;stroke:none"
       d="m -3.9808161,-456.64924 0,1509.48454 1065.6753161,0 0,-1509.48454 -1065.6753161,0 z M 522.86551,-415.7544 c 146.40672,0 292.81344,59.32881 439.22016,59.32881 l 0,1313.10889 -878.440319,0 0,-1313.10889 c 146.406719,0 292.813439,-59.32881 439.220159,-59.32881 z"
       id="rect3021"
       inkscape:connector-curvature="0" />
    <g
       id="g3019"
       transform="matrix(1.3943498,0,0,1.3943498,1385.9542,-522.25345)">
      <path
         sodipodi:nodetypes="ccccccccsc"
         inkscape:connector-curvature="0"
         id="path3798"
         d="m -861.4186,142.375 -103.98319,0 0,147.46875 345.46875,0 1,0 345.46875,0 0,-147.46875 -94.89181,0 c -127.4698,-17.57498 -190.65781,-37.98773 -254.29002,-36.98183 -63.63221,1.0059 -124.17309,21.41015 -238.77248,36.98183 z"
         style="fill:#cccccc;fill-opacity:1;stroke:#999999;stroke-width:7.315238;stroke-miterlimit:4;stroke-dasharray:none" />
      <text
         sodipodi:linespacing="125%"
         id="text3764"
         y="145.02693"
         x="-715.79144"
         style="font-size:23.87162209px;font-style:normal;font-variant:normal;font-weight:normal;font-stretch:normal;line-height:125%;letter-spacing:0px;word-spacing:0px;fill:#422424;fill-opacity:1;stroke:none;font-family:Hanzel Extended;-inkscape-font-specification:Hanzel Extended"
         xml:space="preserve"><tspan
           y="145.02693"
           x="-715.79144"
           id="tspan3766"
           sodipodi:role="line">VISIT NEW</tspan></text>
      <text
         transform="scale(0.69402774,1.4408646)"
         sodipodi:linespacing="125%"
         id="text3768"
         y="191.52675"
         x="-1344.1901"
         style="font-size:118.2228241px;font-style:normal;font-variant:normal;font-weight:normal;font-stretch:normal;line-height:125%;letter-spacing:10.489995px;word-spacing:0px;fill:#723e3e;fill-opacity:1;stroke:none;font-family:Hanzel Extended;-inkscape-font-specification:Hanzel Extended"
         xml:space="preserve"><tspan
           y="191.52675"
           x="-1344.1901"
           id="tspan3770"
           sodipodi:role="line">PLANETS</tspan></text>
    </g>
    <g
       style="display:inline"
       id="g3873"
       transform="matrix(0.86190379,0,0,0.86190379,396.57488,103.1188)">
      <rect
         y="856.73547"
         x="24.243662"
         height="85.547562"
         width="675.79205"
         id="rect3871"
         style="fill:#cccccc;fill-opacity:1;stroke:#999999;stroke-width:10.84662724;stroke-linecap:round;stroke-linejoin:miter;stroke-miterlimit:4;stroke-opacity:1;stroke-dasharray:none" />
      <text
         xml:space="preserve"
         style="font-size:28.78552628px;font-style:normal;font-variant:normal;font-weight:normal;font-stretch:normal;line-height:125%;letter-spacing:0px;word-spacing:0px;fill:#422424;fill-opacity:1;stroke:none;font-family:Hanzel Extended;-inkscape-font-specification:Hanzel Extended"
         x="33.88475"
         y="889.52905"
         id="text3859"
         sodipodi:linespacing="125%"><tspan
           sodipodi:role="line"
           id="tspan3861"
           x="33.88475"
           y="889.52905">NEW CREWS NEEDED..</tspan></text>
      <text
         sodipodi:linespacing="125%"
         id="text3863"
         y="929.2746"
         x="472.99634"
         style="font-size:39.85388565px;font-style:oblique;font-variant:normal;font-weight:normal;font-stretch:normal;line-height:125%;letter-spacing:0px;word-spacing:0px;fill:#422424;fill-opacity:1;stroke:none;font-family:Hanzel Extended;-inkscape-font-specification:Hanzel Extended Oblique"
         xml:space="preserve"><tspan
           y="929.2746"
           x="472.99634"
           id="tspan3865"
           sodipodi:role="line">TODAY</tspan></text>
    </g>
    <text
       xml:space="preserve"
       style="font-size:37.64614487px;font-style:normal;font-variant:normal;font-weight:normal;font-stretch:normal;line-height:125%;letter-spacing:0px;word-spacing:0px;fill:#ffffff;fill-opacity:1;stroke:none;font-family:Hanzel Extended;-inkscape-font-specification:Hanzel Extended"
       x="597.43658"
       y="983.3653"
       id="text3867"
       sodipodi:linespacing="125%"
       transform="matrix(0.9999416,0.01080764,-0.01080764,0.9999416,0,0)"><tspan
         sodipodi:role="line"
         id="tspan3869"
         x="597.43658"
         y="983.3653">@LHSBIKESHED</tspan></text>
  </g>
</svg>
