<?xml version="1.0" encoding="UTF-8" standalone="no"?>
<!-- Created with Inkscape (http://www.inkscape.org/) -->

<svg
   xmlns:dc="http://purl.org/dc/elements/1.1/"
   xmlns:cc="http://creativecommons.org/ns#"
   xmlns:rdf="http://www.w3.org/1999/02/22-rdf-syntax-ns#"
   xmlns:svg="http://www.w3.org/2000/svg"
   xmlns="http://www.w3.org/2000/svg"
   xmlns:xlink="http://www.w3.org/1999/xlink"
   xmlns:sodipodi="http://sodipodi.sourceforge.net/DTD/sodipodi-0.dtd"
   xmlns:inkscape="http://www.inkscape.org/namespaces/inkscape"
   width="744.09448819"
   height="1052.3622047"
   id="svg3041"
   version="1.1"
   inkscape:version="0.48.4 r9939"
   sodipodi:docname="poster3.svg">
  <defs
     id="defs3043">
    <linearGradient
       id="linearGradient4265">
      <stop
         style="stop-color:#64999a;stop-opacity:1;"
         offset="0"
         id="stop4267" />
      <stop
         style="stop-color:#446869;stop-opacity:1;"
         offset="1"
         id="stop4269" />
    </linearGradient>
    <linearGradient
       inkscape:collect="always"
       xlink:href="#linearGradient4265"
       id="linearGradient4273"
       x1="1167.1428"
       y1="-11.209254"
       x2="1167.1428"
       y2="642.68481"
       gradientUnits="userSpaceOnUse"
       gradientTransform="translate(-785.71429,0)" />
  </defs>
  <sodipodi:namedview
     id="base"
     pagecolor="#69959a"
     bordercolor="#666666"
     borderopacity="1.0"
     inkscape:pageopacity="1"
     inkscape:pageshadow="2"
     inkscape:zoom="0.7"
     inkscape:cx="315.96797"
     inkscape:cy="589.62176"
     inkscape:document-units="px"
     inkscape:current-layer="layer3"
     showgrid="false"
     inkscape:window-width="1920"
     inkscape:window-height="1017"
     inkscape:window-x="-5"
     inkscape:window-y="-5"
     inkscape:window-maximized="1" />
  <metadata
     id="metadata3046">
    <rdf:RDF>
      <cc:Work
         rdf:about="">
        <dc:format>image/svg+xml</dc:format>
        <dc:type
           rdf:resource="http://purl.org/dc/dcmitype/StillImage" />
        <dc:title />
      </cc:Work>
    </rdf:RDF>
  </metadata>
  <g
     inkscape:groupmode="layer"
     id="layer2"
     inkscape:label="Layer">
    <rect
       style="fill:url(#linearGradient4273);fill-opacity:1;stroke:none"
       id="rect4245"
       width="757.14288"
       height="1027.1428"
       x="7.1428308"
       y="-21.923489" />
    <path
       style="fill:#a5ad85;fill-opacity:1;stroke:none"
       d="M 0 922.46875 L 0 1058.4375 L 337.71875 1058.4375 L 798.5625 1022.0625 L 798.5625 985.5 L 0 922.46875 z "
       id="rect3775" />
    <path
       style="fill:#cccccc;fill-opacity:1;stroke:none"
       d="M 828.39272,887.36818 C 736.17371,650.39835 454.08294,538.98848 198.32252,638.52004 86.295739,682.11629 -2.0917014,758.95882 -58.312713,851.46506 L 111.63912,1288.1804 855.36173,998.75378 c -3.90362,-37.47062 -12.75144,-74.85156 -26.96901,-111.3856 z"
       id="path3804"
       inkscape:connector-curvature="0" />
  </g>
  <g
     inkscape:label="Layer 1"
     inkscape:groupmode="layer"
     id="layer1">
    <path
       style="fill:#1a1c28;fill-opacity:1;stroke:none"
       d="M 813.9764,894.12106 C 721.96707,666.88519 450.34797,560.34283 204.2629,656.10913 94.465539,698.8378 8.1793886,774.71867 -46.131196,866.00643 l 162.952306,418.72897 724.992,-282.1373 c -4.11103,-34.68716 -12.57656,-69.26395 -25.74489,-103.10183 -0.70212,-1.80418 -1.36733,-3.58595 -2.09182,-5.37521 z"
       id="path3025"
       inkscape:connector-curvature="0" />
    <path
       style="font-size:medium;font-style:normal;font-variant:normal;font-weight:normal;font-stretch:normal;text-indent:0;text-align:start;text-decoration:none;line-height:normal;letter-spacing:normal;word-spacing:normal;text-transform:none;direction:ltr;block-progression:tb;writing-mode:lr-tb;text-anchor:start;baseline-shift:baseline;color:#000000;fill:#ffc800;fill-opacity:0.50196078;stroke:none;stroke-width:19.60000038;marker:none;visibility:visible;display:inline;overflow:visible;enable-background:accumulate;font-family:Sans;-inkscape-font-specification:Sans"
       d="m 540.07589,255.81696 c -54.90075,-0.28323 -107.39826,20.49834 -153.83483,48.16012 -40.51143,19.92145 -83.80455,39.93909 -111.90648,76.59614 -35.80424,46.25733 -57.58276,104.50233 -59.00417,163.33102 4.45426,48.69451 11.38741,97.12171 16.15719,145.78514 2.21575,19.56232 4.45764,39.12171 6.61954,58.69008 71.69098,-39.45319 143.269,-79.11156 214.71875,-119 37.76012,-58.86409 59.30342,-126.15528 87.90625,-189.6875 18.67439,-52.94807 18.86552,-111.40592 42.78125,-162.75 0.94664,-2.82507 5.65525,-6.03496 4.5,-8.09375 -14.13408,-9.18859 -31.15826,-13.34908 -47.9375,-13.03125 z"
       id="path3983"
       inkscape:connector-curvature="0" />
    <path
       style="font-size:medium;font-style:normal;font-variant:normal;font-weight:normal;font-stretch:normal;text-indent:0;text-align:start;text-decoration:none;line-height:normal;letter-spacing:normal;word-spacing:normal;text-transform:none;direction:ltr;block-progression:tb;writing-mode:lr-tb;text-anchor:start;baseline-shift:baseline;color:#000000;fill:#ff9b00;fill-opacity:0.50196078;stroke:none;stroke-width:19.60000038;marker:none;visibility:visible;display:inline;overflow:visible;enable-background:accumulate;font-family:Sans;-inkscape-font-specification:Sans"
       d="m 408.76787,260.05357 c -49.8376,30.9141 -98.4367,41.835 -143.1518,88 C 194.14015,421.84711 185.75,536.29464 185.75,536.29464 l 29.16965,257.15402 257.74107,-142.84599 c 0,0 35.19743,-48.70337 75.32589,-159.41071 49.79243,-76.56916 42.9144,-283.22783 90.7321,-177.36161 10.5905,27.25469 15.1534,60.66018 13.3973,94.24554 -3.5122,67.17071 -34.3666,178.46982 -34.3666,178.46982 0,0 42.3658,-107.27168 46.072,-178.15286 1.8531,-35.44059 -1.2671,-70.73766 -13.2813,-101.65625 -12.0141,-30.91859 -36.75538,-61.10426 -67.89727,-71.94643 -55.31063,-19.25661 -139.97935,6.48394 -173.87497,25.2634 z"
       id="path3967"
       inkscape:connector-curvature="0"
       sodipodi:nodetypes="cscccccscssac" />
    <path
       style="fill:#243542;fill-opacity:1;stroke:none"
       d="M 828.0013,942.27166 C 748.29812,737.46308 460.48848,640.57051 240.5263,726.17084 124.98622,771.13434 22.739529,819.28157 -36.772263,884.55044 L 118.68168,1284.0113 842.18524,1002.4532 c -2.77659,-21.83555 -7.49567,-42.99508 -14.18394,-60.18154 z"
       id="path3076"
       inkscape:connector-curvature="0" />
    <path
       id="path3863"
       d="M 407.66964,259.12946 C 135.35006,384.38299 -2.7241401,625.60125 168.98214,817.03571 c 237.84765,225.14439 413.5,-428.1875 413.5,-428.1875 C 386.94143,869.29008 45.608668,595.59289 407.66964,259.12946 z"
       style="fill:#ffcf00;fill-opacity:0.50210972;stroke:none"
       inkscape:connector-curvature="0"
       sodipodi:nodetypes="cccc" />
    <path
       style="fill:#ffff00;fill-opacity:0.50210972;stroke:none"
       d="m 307.88839,313.31691 c 0.10515,0.16175 0.20786,0.33535 0.3125,0.5 -203.63531,132.77242 -288.489723,336.79735 -139.21875,503.2188 237.84765,225.14439 413.5,-428.1875 413.5,-428.1875 0,0 -90.79243,189.54814 -168.25,273.125 -9.46806,10.21606 -18.33071,19.42925 -26.75,27.78125 -6.89541,12.31978 -13.79319,24.64838 -20.6875,36.96875 -9.0114,16.50946 -17.44506,36.05537 -36,43.71875 -29.13213,-1.79916 -58.21153,-7.63919 -87.3125,-11.21875 -9.3549,0.37971 -17.75277,-4.30454 -24.6875,-10.28125 -13.65675,-11.62675 -30.91936,-19.08724 -42.875,-32.78125 -12.07713,-15.48631 -14.12768,-36.06373 -15,-55.09375 0.64702,-17.67865 -3.81413,-36.71536 4.96875,-53.125 0.24445,-0.63334 0.65576,-1.19697 0.9375,-1.8125 7.37614,-6.22703 14.97724,-12.18949 22.6875,-18.03125 13.44475,-92.4393 81.1817,-185.281 137.65625,-248.65625 21.57142,-21.79353 84.91071,-82.21429 84.91071,-82.21429 0,0 -52.96906,18.70062 -104.19196,56.08924 z"
       id="path3044"
       inkscape:connector-curvature="0"
       sodipodi:nodetypes="ccccsccccccccccccc" />
    <g
       id="g3036"
       transform="matrix(0.78554716,-0.61880179,0.61880179,0.78554716,-265.40182,482.60243)">
      <path
         style="fill:#cccccc;fill-opacity:1;stroke:none"
         d="m 351.97435,511.08643 c -1.42571,4.58909 -0.96191,16.9393 -3.12563,21.25306 -6.8765,5.65153 -10.69822,16.18818 -6.56971,24.17189 -27.59893,8.5792 -57.08122,16.02209 -79.26002,35.66299 -26.17518,20.09818 -53.8908,38.41393 -79.06248,59.66416 -0.28173,0.61554 -0.67811,1.1766 -0.92256,1.80993 l 5e-5,3e-5 0,0 c -8.78288,16.40963 -4.31005,35.4454 -4.95707,53.12405 0.87232,19.03003 2.91766,39.6246 14.99478,55.11091 11.95563,13.69401 29.19526,21.15275 42.85202,32.77949 6.93473,5.97671 15.3435,10.65404 24.6984,10.27433 29.10097,3.57956 58.19605,9.42907 87.32817,11.22824 18.55495,-7.66339 26.98859,-27.22832 35.99999,-43.73778 29.7359,-53.13908 59.47487,-106.2767 89.27875,-159.37754 -6.58664,-26.03388 -9.73561,-53.11071 -18.21822,-78.48068 -7.39959,-8.48958 -19.89573,-4.60447 -28.75739,-1.112 -2.55814,0.25264 -7.6902,4.23106 -6.69673,-0.57415 -0.66347,-9.90999 -10.83181,-26.38419 -20.62725,-27.64549 -2.9753,-3.10447 -2.3573,-8.22976 -4.07667,-12.21864 l -11.35096,9.8201 -10.08825,-0.7865 -6.80527,7.7998 z"
         id="path3945"
         transform="matrix(0.78554716,0.61880179,-0.61880179,0.78554716,521.94246,-261.39461)"
         inkscape:connector-curvature="0"
         sodipodi:nodetypes="cccccccccccccccccccccccc" />
      <path
         style="fill:#4d4d4d;stroke:none;stroke-width:1px;stroke-linecap:butt;stroke-linejoin:miter;stroke-opacity:1"
         d="m 227.32143,570.21932 14.82143,-8.92857 13.03571,-11.42857 0.17857,10 -22.32143,16.78572 z"
         id="path4116"
         inkscape:connector-curvature="0"
         transform="matrix(0.78554716,0.61880179,-0.61880179,0.78554716,507.1209,-214.87585)" />
      <path
         style="fill:#4d4d4d;stroke:none;stroke-width:1px;stroke-linecap:butt;stroke-linejoin:miter;stroke-opacity:1"
         d="m 187.88837,714.21362 c 1.01016,0.50507 17.93021,13.63706 17.93021,13.63706 l 12.87945,7.82868 17.67767,11.11168 24.49619,5.55584 24.4962,4.54568 27.52666,2.52538 c 0,0 -6.31345,-11.61675 -7.3236,-11.86929 -1.01016,-0.25254 -90.40866,-27.77919 -90.40866,-27.77919 z"
         id="path4121"
         inkscape:connector-curvature="0"
         transform="matrix(0.78554716,0.61880179,-0.61880179,0.78554716,507.1209,-214.87585)" />
      <path
         style="fill:#666666;fill-opacity:1;stroke:none"
         d="M 372.34375 458.71875 L 367.28125 465.5 L 359.1875 464.21875 L 353.625 469.625 L 346.0625 469.71875 L 341.03125 487.9375 C 341.03125 487.9375 339.54115 490.75608 333.65625 496.53125 C 327.77135 502.30642 336.25 515.28125 336.25 515.28125 C 336.25 515.28125 289.41219 530.51909 281.1875 533.84375 C 272.96279 537.16842 266.3125 541.3125 266.3125 541.3125 L 254.1875 550.28125 C 253.41649 554.31801 252.53125 558.65625 252.53125 558.65625 L 238.90625 566.71875 L 230.8125 570.53125 L 228.125 569.5625 L 174 609.625 C 174 609.625 169.76564 619.12029 168.875 623.09375 C 167.98431 627.06722 169.29377 646.76522 168.90625 663.53125 C 168.51875 680.29729 177.21875 704.28125 177.21875 704.28125 C 177.21875 704.28125 185.42448 716.31744 189.84375 718.65625 C 190.43301 718.96811 191.72226 719.78297 193.375 720.90625 L 211.4375 722.71875 C 211.4375 722.71875 213.91518 733.08929 215.34375 734.875 C 216.77232 736.66072 232.5 746.65625 232.5 746.65625 L 240.71875 745.9375 L 268.21875 750.9375 L 287.5 754.5 L 308.9375 757.375 L 312.125 760.8125 C 320.34242 761.98085 326.28927 762.85974 327.15625 763.03125 C 330.81405 763.75484 344.5625 750.03125 344.5625 750.03125 L 442.03125 575.96875 C 436.15826 573.80815 430.33337 571.25611 430.1875 569.53125 C 429.89161 566.03213 427.125 565.34375 427.125 565.34375 L 437.78125 564.78125 L 445.09375 554.625 C 441.73735 538.89139 433.09895 498.47087 432.25 495 C 431.22821 490.82258 423.0625 491.75 423.0625 491.75 C 423.0625 491.75 390.38193 503.12707 392.90625 497.59375 C 395.43057 492.06043 394.26731 486.60845 392.78125 481.78125 C 391.29521 476.95405 377 473.40625 377 473.40625 L 372.34375 458.71875 z "
         transform="matrix(0.78554716,0.61880179,-0.61880179,0.78554716,507.1209,-214.87585)"
         id="path3938" />
      <path
         style="fill:#4d4d4d;stroke:none;stroke-width:1px;stroke-linecap:butt;stroke-linejoin:miter;stroke-opacity:1"
         d="m 445.351,554.23071 -2.77792,11.11168 0.75762,7.3236 0.25254,4.29315 c 0,0 -19.69798,-4.67196 -19.69798,-5.3033 0,-0.63135 -0.25254,-11.49049 -0.25254,-11.49049 z"
         id="path4111"
         inkscape:connector-curvature="0"
         transform="matrix(0.78554716,0.61880179,-0.61880179,0.78554716,507.1209,-214.87585)" />
      <path
         style="fill:#808080;stroke:none"
         d="M 424.5625 492.09375 C 419.601 492.28484 412.74802 494.8779 400.53125 499.21875 C 389.45863 503.15306 366.40628 521.9195 343.5625 541.96875 L 343.5625 559.5 L 323.9375 559.5 C 322.01687 561.24043 320.0403 563.02979 318.1875 564.71875 C 289.30106 591.05087 291.26181 602.6161 291.28125 608.6875 C 291.30068 614.7589 299.19964 694.47802 304.125 730.21875 C 308.28374 760.39648 322.88398 763.57077 329.15625 765.03125 C 329.90217 764.72904 335.81046 762.24366 340.875 756.96875 C 346.27719 751.34219 348.9375 747.09375 348.9375 747.09375 L 398.8125 655.90625 L 443.46875 576.46875 C 437.14237 574.21137 430.34547 571.39926 430.1875 569.53125 C 429.89161 566.03213 427.125 565.34375 427.125 565.34375 L 437.78125 564.78125 L 445.8125 553.65625 C 445.57008 552.56756 445.31954 551.4769 445.03125 550.25 C 439.06762 524.86981 434.88803 495.71381 430.46875 493.375 C 428.66921 492.42264 426.81773 492.00689 424.5625 492.09375 z M 329.15625 765.03125 C 329.10652 765.0514 328.875 765.15625 328.875 765.15625 L 331.75 765.84375 C 331.28468 765.5346 330.31248 765.30048 329.15625 765.03125 z "
         transform="matrix(0.78554716,0.61880179,-0.61880179,0.78554716,507.1209,-214.87585)"
         id="path3021" />
      <g
         id="g3951"
         transform="matrix(0.72517411,0.68856554,-0.68856554,0.72517411,425.48026,-284.60261)">
        <path
           style="fill:#cccccc;fill-opacity:1;stroke:none"
           d="m 552.57231,341.80571 c -10.17424,7.43698 -20.27675,15.0041 -30.4375,22.5 8.09985,1.27709 17.46002,-0.82378 24.28125,4.75 6.10627,-2.33509 10.96985,3.94259 16.9375,3.875 2.76271,-7.39234 5.56455,-14.77007 8.34375,-22.15625 -6.06078,-3.18961 -12.10636,-6.40146 -18.09375,-9.71875 l -0.80874,0.58817 -0.22251,0.16183 z"
           id="path3947"
           inkscape:connector-curvature="0" />
        <path
           sodipodi:nodetypes="cccccccc"
           inkscape:connector-curvature="0"
           id="path3019"
           d="m 533.18252,361.0736 20.73884,-15.26838 12.79106,6.83523 -6.05253,16.03988 -5.06726,-3.32363 -8.67142,-0.47973 -5.37329,-3.22373 z"
           style="fill:#666666;fill-opacity:1;stroke:none" />
      </g>
      <path
         inkscape:connector-curvature="0"
         id="path3023"
         d="m 222.28456,442.84477 c 0,0 12.28048,34.79284 14.09034,37.11618 1.80987,2.32332 40.02366,33.05483 43.21454,33.20435 3.19088,0.14952 6.52636,0.6256 9.14872,-7.56603 2.62237,-8.19163 27.69015,-41.55418 27.69015,-41.55418 0,0 2.94401,-4.81878 -3.03151,-10.3753 -5.97551,-5.55652 -40.60695,-30.84364 -40.60695,-30.84364 0,0 -14.77303,-15.72232 -16.36847,-15.79708 -1.59545,-0.0748 -9.89428,-3.82141 -9.89428,-3.82141 0,0 -17.25778,23.65517 -18.06042,27.13524"
         style="fill:#4d4d4d;stroke:none" />
      <path
         style="fill:#4d4d4d;stroke:none"
         d="m 323.75389,559.40774 19.95051,0.25254 -12.2481,-4.16688 z"
         id="path4109"
         inkscape:connector-curvature="0"
         transform="matrix(0.78554716,0.61880179,-0.61880179,0.78554716,507.1209,-214.87585)"
         sodipodi:nodetypes="cccc" />
    </g>
    <g
       transform="matrix(0.46776125,-0.88385485,0.88385485,0.46776125,-244.08816,636.8429)"
       id="g3062-9-4" />
    <path
       style="fill:#ffae00;fill-opacity:0.50210972;stroke:none"
       d="m 346.66964,302.00446 c -84.50112,48.70409 -161.92831,115.0494 -209,201.75 -30.16541,56.38742 -43.690037,124.1648 -27.28125,186.96875 13.24016,51.74156 42.29535,100.18248 83.3125,134.53125 27.97975,21.82048 65.34913,35.69748 100.68559,25.74461 40.57183,-10.5498 72.48906,-41.04823 98.46026,-72.50768 52.8082,-64.29002 87.73038,-140.53785 119.76815,-216.73361 8.84586,-21.74431 17.20401,-43.68894 25.11725,-65.81582 -34.11166,61.19066 -70.80182,121.77772 -117.40625,174.21875 -14.38747,14.50125 -29.11896,29.26386 -37.52367,48.17691 -10.78658,19.84484 -20.42292,41.86535 -38.41383,56.19809 -8.18408,6.02293 -18.86665,7.03598 -28.54517,4.64676 -29.2024,-3.47301 -58.4972,-7.56284 -87.44041,-12.71888 -16.32188,-7.2332 -28.26425,-21.19567 -44.13942,-29.27163 -17.2582,-11.92966 -29.28755,-31.3635 -31.0625,-52.46875 -3.43114,-22.52927 -3.34029,-45.69334 -1.21875,-68.34375 2.68954,-13.78968 13.2412,-24.24633 25.0625,-31 6.18319,-4.12342 3.88012,-12.37183 6.33829,-18.39731 16.6831,-73.52208 58.53363,-138.18585 104.61757,-196.67358 19.63428,-24.57545 40.42396,-47.94397 62.35664,-70.39786 -1.22917,0.69792 -2.45833,1.39583 -3.6875,2.09375 z"
       id="path3869"
       inkscape:connector-curvature="0" />
    <path
       style="fill:#ff8800;fill-opacity:0.50210972;stroke:none"
       d="m 278.66964,361.56696 c -61.43188,47.19052 -115.2861,107.07063 -145.0219,179.337 -22.79439,56.97736 -25.34226,123.32155 -0.5406,180.13175 18.46752,45.04833 49.49189,87.24458 92.93024,110.53172 26.90571,13.48613 60.68096,14.56676 87.22053,-0.46602 42.64078,-21.22611 72.07015,-60.44713 98.88048,-98.72195 22.96036,-33.95876 42.18435,-70.10777 59.5,-107.15625 -20.18287,28.07301 -43.35746,54.06835 -66.62445,79.43006 -19.02342,26.71059 -27.86393,61.75134 -55.9068,81.00744 -16.6657,11.15481 -37.75309,5.22292 -56.0625,2.46875 -25.29233,-3.75214 -51.57345,-4.64362 -75.66416,-13.93035 -17.83838,-11.24879 -34.68189,-24.10476 -51.58584,-36.63215 -20.73669,-20.1917 -27.34903,-50.39709 -26.86475,-78.58982 -0.76101,-20.82492 -2.1125,-43.38202 8.17725,-62.19143 5.75102,-8.7395 14.12684,-15.12141 22.25,-21.59375 15.20142,-77.89226 57.74386,-147.0395 106.34375,-208.4375 1.22571,-1.95389 9.4784,-10.85602 2.96875,-5.1875 z"
       id="path3881"
       inkscape:connector-curvature="0" />
    <g
       id="g4035"
       transform="matrix(0.80832585,0,0,0.63993901,69.978257,159.2907)">
      <path
         inkscape:connector-curvature="0"
         id="path4015"
         d="m 522.5625,462.96875 c -2.00335,5.75904 -5.40337,10.607 -8.5,15.625 -1.16583,4.06665 -1.42441,8.18453 -1.71875,12.40625 9.92197,-5.73519 19.8614,-11.44049 29.8125,-17.125 -5.32306,-3.14536 -14.25898,-2.53254 -15.48558,-9.86538 -1.84038,-3.71944 -1.84965,-7.9905 -4.10817,-1.04087 z"
         style="fill:#cccccc;stroke:none" />
      <path
         sodipodi:nodetypes="ccsccc"
         inkscape:connector-curvature="0"
         id="path3975"
         d="m 537.53117,474.22953 -22.89796,13.13265 c 0,0 0.58886,-8.9237 2.60927,-10.27064 2.0204,-1.34693 7.15603,-13.30079 7.15603,-13.30079 l 2.69388,6.39796 z"
         style="fill:#666666;stroke:none" />
    </g>
    <g
       id="g4039"
       transform="matrix(1.3388737,-1.3388737,1.0210731,1.0210731,-702.27704,652.47173)">
      <path
         inkscape:connector-curvature="0"
         id="path4017"
         d="m 487.03125,494.59375 c -3.27468,4.66951 -5.03288,11.70825 -9.1851,15.00678 -5.50909,0.33629 -13.76632,0.0272 -4.4399,3.93072 0.95736,2.07916 1.88914,4.77893 4.65625,5.6875 4.00514,2.36561 8.33228,3.93827 12.625,5.71875 -0.003,-12.33337 0.13811,-24.66669 0.0625,-37 -1.23958,2.21875 -2.47917,4.4375 -3.71875,6.65625 z"
         style="fill:#cccccc;stroke:none" />
      <path
         sodipodi:nodetypes="ccsccc"
         style="fill:#666666;stroke:none"
         d="m 488.76788,495.57781 -0.0758,26.39654 c 0,0 -12.50683,-4.82562 -12.66311,-7.24883 -0.15627,-2.42319 -1.60501,-2.89235 -1.60501,-2.89235 l 5.62505,-0.39669 z"
         id="path3977"
         inkscape:connector-curvature="0" />
      <path
         style="fill:#4d4d4d;stroke:none"
         d="m 466.125,469 -10.59375,0.59375 c 0,0 2.73536,0.65713 3.03125,4.15625 0.26109,3.08737 17.90738,8.61797 22.25,9.9375 L 466.125,469 z"
         transform="matrix(0.52813552,0,0,0.69251339,233.84147,186.63854)"
         id="path4123"
         inkscape:connector-curvature="0" />
    </g>
    <g
       id="g4050"
       transform="matrix(0.75296603,0,0,0.56521739,150.92979,200.83903)">
      <path
         inkscape:connector-curvature="0"
         id="path4019"
         d="m 444.4375,368.71875 c 2.72705,7.32076 0.72711,11.45557 -7.39534,11.46385 -6.15683,1.89029 -12.99059,2.09956 -18.32341,6.03615 12.31514,2.95224 25.41324,-0.83824 37.875,1.34375 5.96229,-0.54499 11.45366,-3.19374 17.0625,-5.15625 -9.94332,-5.93818 -19.87826,-11.89039 -29.8125,-17.84375 0.19792,1.38542 0.39583,2.77083 0.59375,4.15625 z"
         style="fill:#cccccc;stroke:none" />
      <path
         sodipodi:nodetypes="ccsccc"
         inkscape:connector-curvature="0"
         id="path3979"
         d="m 446.41771,368.44795 22.6474,13.56017 c 0,0 -11.50239,4.50048 -13.66489,3.39595 -2.16247,-1.10453 -31.62295,0.10795 -31.62295,0.10795 l 24.21609,-5.98191 z"
         style="fill:#666666;stroke:none" />
    </g>
    <g
       id="g4046"
       transform="matrix(0.76485438,0,0,0.82849536,52.002323,132.19147)">
      <path
         inkscape:connector-curvature="0"
         id="path4021"
         d="m 502.875,385.65625 c -2.93124,4.10955 -9.14865,1.27383 -6.09375,8.21875 -0.50978,3.49691 1.44088,7.15685 5.34375,6.15625 2.61235,-0.33202 7.55715,0.58473 5.4917,-3.58483 -1.64882,-3.36116 0.45898,-18.16127 -4.58889,-10.95119 l -0.15281,0.16102 z"
         style="fill:#cccccc;stroke:none" />
      <path
         style="fill:#666666;stroke:none"
         d="m 504.34831,387.02248 1.42365,10.69252 c 0,0 -6.29278,0.84494 -6.48956,-0.12764 -0.19679,-0.97257 -0.91437,-7.21325 -0.91437,-7.21325 l 2.83666,-0.0288 z"
         id="path3981"
         inkscape:connector-curvature="0" />
    </g>
    <g
       id="g4054"
       transform="matrix(0.65093729,0,0,0.76871776,88.601372,138.8817)">
      <path
         inkscape:connector-curvature="0"
         id="path4023"
         d="m 560.875,342.28125 c -4.60216,0.92366 -9.34338,1.05797 -12.9687,4.68963 2.3957,2.55939 10.69162,4.53336 15.41038,6.86204 0.10548,-0.83089 -0.92197,-11.42169 0.95999,-12.35349 -1.13389,0.26727 -2.26778,0.53455 -3.40167,0.80182 z"
         style="fill:#cccccc;stroke:none" />
      <g
         id="g4043">
        <path
           sodipodi:nodetypes="ccsccc"
           inkscape:connector-curvature="0"
           id="path4013"
           d="m 561.28034,350.88629 -9.74915,-3.90489 c 0,0 2.93016,-2.01845 3.8491,-1.72034 0.91894,0.29811 5.91679,-1.04921 5.91679,-1.04921 l -1.33182,2.41959 z"
           style="fill:#666666;stroke:none" />
      </g>
    </g>
    <text
       xml:space="preserve"
       style="font-size:9px;font-style:normal;font-variant:normal;font-weight:normal;font-stretch:normal;line-height:125%;letter-spacing:0px;word-spacing:0px;fill:#000000;fill-opacity:1;stroke:none;font-family:Hanzel Extended;-inkscape-font-specification:Hanzel Extended"
       x="425.27423"
       y="952.35706"
       id="text4128"
       sodipodi:linespacing="125%"><tspan
         sodipodi:role="line"
         id="tspan4130"
         x="425.27423"
         y="952.35706"> </tspan></text>
  </g>
  <g
     inkscape:groupmode="layer"
     id="layer3"
     inkscape:label="top"
     style="display:inline">
    <path
       style="fill:#000000;fill-opacity:1;stroke:none"
       d="m -2.84375,-3.34375 0,1054.28125 764.28125,0 0,-1054.28125 -764.28125,0 z M 375,25.21875 c 105,0 210,41.4375 315,41.4375 l 0,917.125 -630,0 0,-917.125 c 105,0 210,-41.4375 315,-41.4375 z"
       id="rect3021"
       inkscape:connector-curvature="0" />
    <g
       id="g3019"
       transform="translate(993.9901,-50.393785)">
      <path
         sodipodi:nodetypes="ccccccccsc"
         inkscape:connector-curvature="0"
         id="path3798"
         d="m -861.4186,142.375 -103.98319,0 0,147.46875 345.46875,0 1,0 345.46875,0 0,-147.46875 -94.89181,0 c -127.4698,-17.57498 -190.65781,-37.98773 -254.29002,-36.98183 -63.63221,1.0059 -124.17309,21.41015 -238.77248,36.98183 z"
         style="fill:#cccccc;fill-opacity:1;stroke:#999999;stroke-width:10.19999981;stroke-miterlimit:4;stroke-dasharray:none" />
      <text
         sodipodi:linespacing="125%"
         id="text3764"
         y="145.02693"
         x="-715.79144"
         style="font-size:23.87162209px;font-style:normal;font-variant:normal;font-weight:normal;font-stretch:normal;line-height:125%;letter-spacing:0px;word-spacing:0px;fill:#422424;fill-opacity:1;stroke:none;font-family:Hanzel Extended;-inkscape-font-specification:Hanzel Extended"
         xml:space="preserve"><tspan
           y="145.02693"
           x="-715.79144"
           id="tspan3766"
           sodipodi:role="line">VISIT NEW</tspan></text>
      <text
         transform="scale(0.69402774,1.4408646)"
         sodipodi:linespacing="125%"
         id="text3768"
         y="191.52675"
         x="-1344.1901"
         style="font-size:118.2228241px;font-style:normal;font-variant:normal;font-weight:normal;font-stretch:normal;line-height:125%;letter-spacing:10.489995px;word-spacing:0px;fill:#723e3e;fill-opacity:1;stroke:none;font-family:Hanzel Extended;-inkscape-font-specification:Hanzel Extended"
         xml:space="preserve"><tspan
           y="191.52675"
           x="-1344.1901"
           id="tspan3770"
           sodipodi:role="line">PLANETS</tspan></text>
    </g>
    <g
       style="display:inline"
       id="g3873"
       transform="matrix(0.61814032,0,0,0.61814032,284.42686,398.1108)">
      <rect
         y="856.73547"
         x="24.243662"
         height="85.547562"
         width="675.79205"
         id="rect3871"
         style="fill:#cccccc;fill-opacity:1;stroke:#999999;stroke-width:15.12399197;stroke-linecap:round;stroke-linejoin:miter;stroke-miterlimit:4;stroke-opacity:1;stroke-dasharray:none" />
      <text
         xml:space="preserve"
         style="font-size:28.78552628px;font-style:normal;font-variant:normal;font-weight:normal;font-stretch:normal;line-height:125%;letter-spacing:0px;word-spacing:0px;fill:#422424;fill-opacity:1;stroke:none;font-family:Hanzel Extended;-inkscape-font-specification:Hanzel Extended"
         x="33.88475"
         y="889.52905"
         id="text3859"
         sodipodi:linespacing="125%"><tspan
           sodipodi:role="line"
           id="tspan3861"
           x="33.88475"
           y="889.52905">NEW CREWS NEEDED..</tspan></text>
      <text
         sodipodi:linespacing="125%"
         id="text3863"
         y="929.2746"
         x="472.99634"
         style="font-size:39.85388565px;font-style:oblique;font-variant:normal;font-weight:normal;font-stretch:normal;line-height:125%;letter-spacing:0px;word-spacing:0px;fill:#422424;fill-opacity:1;stroke:none;font-family:Hanzel Extended;-inkscape-font-specification:Hanzel Extended Oblique"
         xml:space="preserve"><tspan
           y="929.2746"
           x="472.99634"
           id="tspan3865"
           sodipodi:role="line">TODAY</tspan></text>
    </g>
    <text
       xml:space="preserve"
       style="font-size:26.99906921px;font-style:normal;font-variant:normal;font-weight:normal;font-stretch:normal;line-height:125%;letter-spacing:0px;word-spacing:0px;fill:#ffffff;fill-opacity:1;stroke:none;font-family:Hanzel Extended;-inkscape-font-specification:Hanzel Extended"
       x="431.98425"
       y="1029.3871"
       id="text3867"
       sodipodi:linespacing="125%"
       transform="matrix(0.9999416,0.01080764,-0.01080764,0.9999416,0,0)"><tspan
         sodipodi:role="line"
         id="tspan3869"
         x="431.98425"
         y="1029.3871">@LHSBIKESHED</tspan></text>
  </g>
</svg>
