<?xml version="1.0" encoding="UTF-8" standalone="no"?>
<!-- Created with Inkscape (http://www.inkscape.org/) -->

<svg
   xmlns:dc="http://purl.org/dc/elements/1.1/"
   xmlns:cc="http://creativecommons.org/ns#"
   xmlns:rdf="http://www.w3.org/1999/02/22-rdf-syntax-ns#"
   xmlns:svg="http://www.w3.org/2000/svg"
   xmlns="http://www.w3.org/2000/svg"
   xmlns:sodipodi="http://sodipodi.sourceforge.net/DTD/sodipodi-0.dtd"
   xmlns:inkscape="http://www.inkscape.org/namespaces/inkscape"
   width="744.09448819"
   height="1052.3622047"
   id="svg2"
   version="1.1"
   inkscape:version="0.48.4 r9939"
   sodipodi:docname="New document 1">
  <defs
     id="defs4" />
  <sodipodi:namedview
     id="base"
     pagecolor="#ffffff"
     bordercolor="#666666"
     borderopacity="1.0"
     inkscape:pageopacity="0.0"
     inkscape:pageshadow="2"
     inkscape:zoom="0.86040532"
     inkscape:cx="365.73322"
     inkscape:cy="449.33647"
     inkscape:document-units="px"
     inkscape:current-layer="layer2"
     showgrid="false"
     inkscape:window-width="1920"
     inkscape:window-height="1057"
     inkscape:window-x="-8"
     inkscape:window-y="-8"
     inkscape:window-maximized="1" />
  <metadata
     id="metadata7">
    <rdf:RDF>
      <cc:Work
         rdf:about="">
        <dc:format>image/svg+xml</dc:format>
        <dc:type
           rdf:resource="http://purl.org/dc/dcmitype/StillImage" />
        <dc:title></dc:title>
      </cc:Work>
    </rdf:RDF>
  </metadata>
  <g
     inkscape:label="Layer 1"
     inkscape:groupmode="layer"
     id="layer1"
     sodipodi:insensitive="true">
    <rect
       style="fill:#000000;fill-opacity:1;stroke:#000000"
       id="rect2985"
       width="1024"
       height="768"
       x="-139.95276"
       y="142.18109" />
  </g>
  <g
     inkscape:groupmode="layer"
     id="layer3"
     inkscape:label="Layer#1">
    <g
       id="g4191"
       transform="translate(163.87625,94.141677)">
      <rect
         y="46.866802"
         x="-305.32397"
         height="768"
         width="1024"
         id="rect5966"
         style="fill:#808000;fill-opacity:1;stroke:none" />
      <g
         transform="matrix(-0.70710678,-0.70710678,0.70710678,-0.70710678,-1212.0433,1697.2875)"
         id="g5927">
        <path
           inkscape:connector-curvature="0"
           id="use5925"
           d="m 443.73007,1891.1787 -1086.11602,0 -98.72978,98.7298 46.44808,46.4481 993.21986,0 145.17786,-145.1779 z m -275.77165,275.7717 -732.03229,0 145.13367,145.1336 441.764956,0 145.133664,-145.1336 z m -275.72745,275.7274 -180.57739,0 90.2887,90.2887 90.28869,-90.2887 z m 585.48442,-682.0929 -145.13367,-145.1336 -699.24022,0 -145.13366,145.1336 989.50755,0 z M 201.98794,1484.8575 56.810076,1339.6796 l -147.696929,0 -145.177857,145.1779 438.05265,0 z"
           style="fill:#800000;fill-opacity:1;stroke:none" />
      </g>
    </g>
    <rect
       style="fill:#000000;fill-opacity:1;stroke:none"
       id="rect4201"
       width="790.3252"
       height="579.71667"
       x="-27.893829"
       y="234.38574" />
  </g>
  <g
     inkscape:groupmode="layer"
     id="layer2"
     inkscape:label="Layer">
    <flowRoot
       xml:space="preserve"
       id="flowRoot3758"
       style="font-size:40px;font-style:normal;font-variant:normal;font-weight:normal;font-stretch:normal;text-align:center;line-height:125%;letter-spacing:0px;word-spacing:0px;text-anchor:middle;fill:#ffff00;fill-opacity:1;stroke:none;font-family:Hanzel Extended;-inkscape-font-specification:Hanzel Extended"
       transform="translate(-6.9734576,118.54878)"><flowRegion
         id="flowRegion3760"><rect
           id="rect3762"
           width="739.18652"
           height="175.49869"
           x="13.946915"
           y="129.54131"
           style="font-style:normal;font-variant:normal;font-weight:normal;font-stretch:normal;text-align:center;text-anchor:middle;fill:#ffff00;font-family:Hanzel Extended;-inkscape-font-specification:Hanzel Extended" /></flowRegion><flowPara
         id="flowPara3764">ENTERING RESTRICTED AREA</flowPara></flowRoot>    <g
       id="g4203"
       transform="translate(0,53.463175)">
      <path
         transform="matrix(1.1236748,0,0,1.1236748,-98.745473,-165.53144)"
         d="m 582.28369,610.12872 c 0,90.8273 -73.63007,164.45737 -164.45737,164.45737 -90.82729,0 -164.45736,-73.63007 -164.45736,-164.45737 0,-90.82729 73.63007,-164.45736 164.45736,-164.45736 90.8273,0 164.45737,73.63007 164.45737,164.45736 z"
         sodipodi:ry="164.45737"
         sodipodi:rx="164.45737"
         sodipodi:cy="610.12872"
         sodipodi:cx="417.82632"
         id="path2988"
         style="fill:#1a1a1a;stroke:#ff0000;stroke-width:33.19465637;stroke-linecap:round;stroke-linejoin:miter;stroke-miterlimit:4;stroke-opacity:1;stroke-dasharray:none;stroke-dashoffset:0"
         sodipodi:type="arc" />
      <path
         inkscape:connector-curvature="0"
         id="rect2985-1"
         d="m 265.0455,428.24984 28.99776,0.53717 36.87903,43.94551 27.46805,0 c 8.42191,0 15.19722,6.84003 15.19722,15.34233 l 0,7.68795 56.10004,0 c 5.82509,0 8.5318,5.23023 11.83852,10.07156 l 39.67242,58.11284 c 8.59318,12.5811 -4.68328,10.60869 -10.50837,10.60869 l -182.79896,0 c -5.82508,0 -10.50836,-4.72794 -10.50836,-10.60869 l 0,-50.52562 -4.68887,0 c -8.42188,0 -15.1972,-6.84002 -15.1972,-15.34232 l 0,-10.00441 c 0,-6.29625 3.73017,-11.66264 9.0784,-14.03302 l -1.52968,-45.79199 z"
         style="fill:#000000;fill-opacity:1;stroke:#cdcdcd;stroke-width:7.42616749;stroke-miterlimit:4;stroke-opacity:1" />
      <path
         inkscape:connector-curvature="0"
         id="path3766"
         d="M 244.73352,650.72587 506.07541,389.38397"
         style="fill:none;stroke:#ff0000;stroke-width:37.29999924;stroke-linecap:butt;stroke-linejoin:miter;stroke-miterlimit:4;stroke-opacity:1;stroke-dasharray:none" />
    </g>
  </g>
</svg>
