<?xml version="1.0" encoding="UTF-8" standalone="no"?>
<!-- Created with Inkscape (http://www.inkscape.org/) -->

<svg
   xmlns:dc="http://purl.org/dc/elements/1.1/"
   xmlns:cc="http://creativecommons.org/ns#"
   xmlns:rdf="http://www.w3.org/1999/02/22-rdf-syntax-ns#"
   xmlns:svg="http://www.w3.org/2000/svg"
   xmlns="http://www.w3.org/2000/svg"
   xmlns:sodipodi="http://sodipodi.sourceforge.net/DTD/sodipodi-0.dtd"
   xmlns:inkscape="http://www.inkscape.org/namespaces/inkscape"
   width="744.09448819"
   height="1052.3622047"
   id="svg3384"
   version="1.1"
   inkscape:version="0.48.4 r9939"
   sodipodi:docname="New document 3">
  <defs
     id="defs3386" />
  <sodipodi:namedview
     id="base"
     pagecolor="#ffffff"
     bordercolor="#666666"
     borderopacity="1.0"
     inkscape:pageopacity="0.0"
     inkscape:pageshadow="2"
     inkscape:zoom="1.7208106"
     inkscape:cx="275.76422"
     inkscape:cy="539.41121"
     inkscape:document-units="px"
     inkscape:current-layer="layer1"
     showgrid="false"
     inkscape:window-width="1920"
     inkscape:window-height="1057"
     inkscape:window-x="-8"
     inkscape:window-y="-8"
     inkscape:window-maximized="1" />
  <metadata
     id="metadata3389">
    <rdf:RDF>
      <cc:Work
         rdf:about="">
        <dc:format>image/svg+xml</dc:format>
        <dc:type
           rdf:resource="http://purl.org/dc/dcmitype/StillImage" />
        <dc:title></dc:title>
      </cc:Work>
    </rdf:RDF>
  </metadata>
  <g
     inkscape:label="Layer 1"
     inkscape:groupmode="layer"
     id="layer1">
    <path
       transform="matrix(1.4405225,0,0,1.4405225,-153.0035,-185.6646)"
       style="fill:none;stroke:#000000;stroke-width:0.69419259;stroke-linecap:square;stroke-linejoin:miter;stroke-miterlimit:4;stroke-dashoffset:0;stroke-opacity:1"
       d="m 526.79292,498.44885 c 0,88.5074 -71.74942,160.25682 -160.25682,160.25682 -88.5074,0 -160.25682,-71.74942 -160.25682,-160.25682 0,-88.5074 71.74942,-160.25682 160.25682,-160.25682 88.5074,0 160.25682,71.74942 160.25682,160.25682 z"
       id="path5949" />
    <path
       transform="matrix(0.0964879,0,0,0.0964879,339.6337,484.2679)"
       style="fill:none;stroke:#000000;stroke-width:10.36399555;stroke-linecap:square;stroke-linejoin:miter;stroke-miterlimit:4;stroke-dashoffset:0;stroke-opacity:1"
       d="m 526.79292,498.44885 c 0,88.5074 -71.74942,160.25682 -160.25682,160.25682 -88.5074,0 -160.25682,-71.74942 -160.25682,-160.25682 0,-88.5074 71.74942,-160.25682 160.25682,-160.25682 88.5074,0 160.25682,71.74942 160.25682,160.25682 z"
       id="path5951" />
    <path
       transform="matrix(0.331254,0,0,0.331254,253.58346,367.24899)"
       style="fill:none;stroke:#000000;stroke-width:3.01883173;stroke-linecap:square;stroke-linejoin:miter;stroke-miterlimit:4;stroke-dashoffset:0;stroke-opacity:1"
       d="m 505.32258,418.32044 c 28.62712,49.58363 28.62712,110.67319 0,160.25683"
       id="path6475" />
    <path
       transform="matrix(0.331254,0,0,0.331254,253.58346,367.24899)"
       style="fill:none;stroke:#000000;stroke-width:3.01883173;stroke-linecap:square;stroke-linejoin:miter;stroke-miterlimit:4;stroke-dashoffset:0;stroke-opacity:1"
       d="m 645.48867,337.3955 c 57.53883,99.66016 57.53883,222.44654 1e-5,322.1067"
       id="path6498" />
    <path
       transform="matrix(0.331254,0,0,0.331254,253.58346,367.24899)"
       style="fill:none;stroke:#000000;stroke-width:3.01883173;stroke-linecap:square;stroke-linejoin:miter;stroke-miterlimit:4;stroke-dashoffset:0;stroke-opacity:1"
       d="m 816.23649,238.81419 c 92.75853,160.66249 92.75853,358.60683 0,519.26931"
       id="path6502" />
    <path
       transform="matrix(-0.331254,0,0,0.331254,490.68598,367.24899)"
       style="fill:none;stroke:#000000;stroke-width:3.01883173;stroke-linecap:square;stroke-linejoin:miter;stroke-miterlimit:4;stroke-dashoffset:0;stroke-opacity:1"
       d="m 505.32258,418.32044 c 28.62712,49.58363 28.62712,110.67319 0,160.25683"
       id="path6504" />
    <path
       transform="matrix(-0.331254,0,0,0.331254,490.68598,367.24899)"
       style="fill:none;stroke:#000000;stroke-width:3.01883173;stroke-linecap:square;stroke-linejoin:miter;stroke-miterlimit:4;stroke-dashoffset:0;stroke-opacity:1"
       d="m 645.48867,337.3955 c 57.53883,99.66016 57.53883,222.44654 1e-5,322.1067"
       id="path6506" />
    <path
       transform="matrix(-0.331254,0,0,0.331254,490.68598,367.24899)"
       style="fill:none;stroke:#000000;stroke-width:3.01883173;stroke-linecap:square;stroke-linejoin:miter;stroke-miterlimit:4;stroke-dashoffset:0;stroke-opacity:1"
       d="m 816.23649,238.81419 c 92.75853,160.66249 92.75853,358.60683 0,519.26931"
       id="path6508" />
    <path
       transform="matrix(0,0.331254,-0.331254,0,537.24789,413.8109)"
       style="fill:none;stroke:#000000;stroke-width:3.01883173;stroke-linecap:square;stroke-linejoin:miter;stroke-miterlimit:4;stroke-dashoffset:0;stroke-opacity:1"
       d="m 505.32258,418.32044 c 28.62712,49.58363 28.62712,110.67319 0,160.25683"
       id="path6510" />
    <path
       transform="matrix(0,0.331254,-0.331254,0,537.24789,413.8109)"
       style="fill:none;stroke:#000000;stroke-width:3.01883173;stroke-linecap:square;stroke-linejoin:miter;stroke-miterlimit:4;stroke-dashoffset:0;stroke-opacity:1"
       d="m 645.48867,337.3955 c 57.53883,99.66016 57.53883,222.44654 1e-5,322.1067"
       id="path6512" />
    <path
       transform="matrix(0,0.331254,-0.331254,0,537.24789,413.8109)"
       style="fill:none;stroke:#000000;stroke-width:3.01883173;stroke-linecap:square;stroke-linejoin:miter;stroke-miterlimit:4;stroke-dashoffset:0;stroke-opacity:1"
       d="m 816.23649,238.81419 c 92.75853,160.66249 92.75853,358.60683 0,519.26931"
       id="path6514" />
    <path
       transform="matrix(0,-0.331254,-0.331254,0,537.24789,650.91342)"
       style="fill:none;stroke:#000000;stroke-width:3.01883173;stroke-linecap:square;stroke-linejoin:miter;stroke-miterlimit:4;stroke-dashoffset:0;stroke-opacity:1"
       d="m 505.32258,418.32044 c 28.62712,49.58363 28.62712,110.67319 0,160.25683"
       id="path6516" />
    <path
       transform="matrix(0,-0.331254,-0.331254,0,537.24789,650.91342)"
       style="fill:none;stroke:#000000;stroke-width:3.01883173;stroke-linecap:square;stroke-linejoin:miter;stroke-miterlimit:4;stroke-dashoffset:0;stroke-opacity:1"
       d="m 645.48867,337.3955 c 57.53883,99.66016 57.53883,222.44654 1e-5,322.1067"
       id="path6518" />
    <path
       transform="matrix(0,-0.331254,-0.331254,0,537.24789,650.91342)"
       style="fill:none;stroke:#000000;stroke-width:3.01883173;stroke-linecap:square;stroke-linejoin:miter;stroke-miterlimit:4;stroke-dashoffset:0;stroke-opacity:1"
       d="m 816.23649,238.81419 c 92.75853,160.66249 92.75853,358.60683 0,519.26931"
       id="path6520" />
    <path
       inkscape:connector-curvature="0"
       id="path2993-4"
       d="m 145.06298,532.61387 459.46891,0"
       style="fill:none;stroke:#000000;stroke-width:1px;stroke-linecap:butt;stroke-linejoin:miter;stroke-opacity:1;display:inline" />
    <path
       inkscape:connector-curvature="0"
       id="path2995-0"
       d="m 374.79736,341.16338 0,375.3464"
       style="fill:none;stroke:#000000;stroke-width:1px;stroke-linecap:butt;stroke-linejoin:miter;stroke-opacity:1;display:inline" />
    <path
       inkscape:connector-curvature="0"
       id="path3499"
       style="font-size:40px;font-style:normal;font-variant:normal;font-weight:normal;font-stretch:normal;line-height:125%;letter-spacing:0px;word-spacing:0px;fill:none;stroke:#000000;stroke-opacity:1;font-family:Hanzel Extended;-inkscape-font-specification:Hanzel Extended"
       d="m 592.38347,540.8554 -1.89403,12.79021 -22.93354,7.40401 19.81784,13.63608 -1.88259,12.71293 -27.86024,-4.12566 1.25315,-8.4624 21.59112,3.92784 -20.12054,-13.85861 1.36187,-9.19659 23.54534,-7.6688 -22.05186,-2.41653 1.31323,-8.86814 z" />
    <path
       inkscape:connector-curvature="0"
       id="path3501"
       style="font-size:40px;font-style:normal;font-variant:normal;font-weight:normal;font-stretch:normal;line-height:125%;letter-spacing:0px;word-spacing:0px;fill:none;stroke:#000000;stroke-opacity:1;font-family:Hanzel Extended;-inkscape-font-specification:Hanzel Extended"
       d="m 568.57441,615.4384 -7.4961,-9.87922 -4.94449,11.43796 z m 6.89389,-1.72231 -3.71224,8.58744 -32.91218,5.1568 3.86724,-8.94599 7.65807,-0.8813 7.22298,-16.70875 -4.65883,-6.05678 3.70449,-8.56951 z" />
    <path
       inkscape:connector-curvature="0"
       id="path3503"
       style="font-size:40px;font-style:normal;font-variant:normal;font-weight:normal;font-stretch:normal;line-height:125%;letter-spacing:0px;word-spacing:0px;fill:none;stroke:#000000;stroke-opacity:1;font-family:Hanzel Extended;-inkscape-font-specification:Hanzel Extended"
       d="m 542.55345,645.6216 19.72256,-3.39076 -6.03707,8.45689 -12.23503,1.77664 2.26024,12.19629 -5.8782,8.23433 -3.30879,-18.89613 -20.16986,3.31142 6.09381,-8.53637 13.10923,-1.48854 -2.58975,-13.24742 6.10516,-8.55226 z" />
    <path
       inkscape:connector-curvature="0"
       id="path3505"
       style="font-size:40px;font-style:normal;font-variant:normal;font-weight:normal;font-stretch:normal;line-height:125%;letter-spacing:0px;word-spacing:0px;fill:none;stroke:#000000;stroke-opacity:1;font-family:Hanzel Extended;-inkscape-font-specification:Hanzel Extended"
       d="m 495.37085,705.93852 8.80849,-6.25038 -4.09157,-5.76614 -8.80849,6.25038 c -2.33618,1.6577 -3.83828,3.05087 -4.50631,4.17951 -0.57722,1.144 -0.50416,2.22573 0.2192,3.24519 0.73846,1.04063 1.71877,1.45464 2.94093,1.24204 1.23589,-0.23837 3.04847,-1.20523 5.43775,-2.9006 z m 18.88781,-7.19979 -17.6807,12.54598 c -4.08833,2.90098 -7.4921,4.46607 -10.21134,4.69527 -2.71921,0.22912 -4.91145,-0.8297 -6.57673,-3.17647 -1.22067,-1.72032 -1.64102,-3.56147 -1.26105,-5.52345 0.36186,-1.96513 1.54629,-3.90723 3.5533,-5.8263 l -15.31007,-3.55337 8.09171,-5.74176 13.85651,3.69868 8.474,-6.01302 -6.38602,-8.99964 7.15193,-5.07491 z" />
    <path
       inkscape:connector-curvature="0"
       id="path3507"
       style="font-size:40px;font-style:normal;font-variant:normal;font-weight:normal;font-stretch:normal;line-height:125%;letter-spacing:0px;word-spacing:0px;fill:none;stroke:#000000;stroke-opacity:1;font-family:Hanzel Extended;-inkscape-font-specification:Hanzel Extended"
       d="m 455.1358,727.21697 1.54328,-12.30483 -11.5304,4.72491 z m 6.13436,3.58634 -8.65684,3.54738 -27.14344,-19.31418 9.01829,-3.69551 6.09312,4.72193 16.84378,-6.90221 0.90104,-7.58798 8.63876,-3.53998 z" />
    <path
       inkscape:connector-curvature="0"
       id="path3509"
       style="font-size:40px;font-style:normal;font-variant:normal;font-weight:normal;font-stretch:normal;line-height:125%;letter-spacing:0px;word-spacing:0px;fill:none;stroke:#000000;stroke-opacity:1;font-family:Hanzel Extended;-inkscape-font-specification:Hanzel Extended"
       d="m 426.65879,743.24742 -10.99816,1.72625 -20.02068,-17.33969 3.54273,19.92604 -8.895,1.39615 -4.36712,-27.82343 10.072,-1.58088 21.09109,18.23929 -3.68698,-20.97101 8.89501,-1.39614 z" />
    <path
       inkscape:connector-curvature="0"
       id="path3511"
       style="font-size:40px;font-style:normal;font-variant:normal;font-weight:normal;font-stretch:normal;line-height:125%;letter-spacing:0px;word-spacing:0px;fill:none;stroke:#000000;stroke-opacity:1;font-family:Hanzel Extended;-inkscape-font-specification:Hanzel Extended"
       d="m 361.28404,731.82039 -0.38345,4.94609 -20.69961,-1.60477 1.28926,-16.62979 18.86916,1.46287 c 3.34934,0.25966 5.93761,0.64969 7.76482,1.17009 1.85319,0.52241 3.60187,1.29791 5.24602,2.32651 2.01652,1.27948 3.50104,2.8932 4.45358,4.84114 0.95255,1.94794 1.33069,4.18764 1.13443,6.71912 -0.38043,4.90713 -2.27649,8.43323 -5.68818,10.57831 -3.41167,2.14503 -8.44087,2.9599 -15.08761,2.44463 l -18.86916,-1.46286 0.3744,-4.82926 18.86916,1.46286 c 3.34934,0.25964 5.87975,-0.28859 7.59124,-1.64471 1.73849,-1.36713 2.73655,-3.71237 2.99419,-7.03571 0.23753,-3.06374 -0.37552,-5.34777 -1.83915,-6.85211 -1.46361,-1.50436 -3.90902,-2.38938 -7.33626,-2.65508 l -9.87272,-0.7654 -0.51328,6.62076 z" />
    <path
       inkscape:connector-curvature="0"
       id="path3513"
       style="font-size:40px;font-style:normal;font-variant:normal;font-weight:normal;font-stretch:normal;line-height:125%;letter-spacing:0px;word-spacing:0px;fill:none;stroke:#000000;stroke-opacity:1;font-family:Hanzel Extended;-inkscape-font-specification:Hanzel Extended"
       d="m 311.04518,734.00203 c 3.01325,0.92168 5.45111,1.10911 7.3136,0.56229 1.86252,-0.54685 3.22334,-1.84625 4.08247,-3.89822 l -23.27884,-7.16145 1.42825,-4.66925 23.32761,7.13551 c 0.72366,-2.36576 0.49698,-4.27331 -0.68006,-5.72264 -1.14448,-1.46663 -3.42256,-2.72172 -6.83425,-3.7653 l -13.80233,-4.22189 1.43967,-4.70661 14.21322,4.34758 c 1.6685,0.51036 3.06408,0.9781 4.18674,1.40319 1.11887,0.43756 2.13344,0.90449 3.04369,1.40078 1.62792,0.8656 3.12223,1.98988 4.48293,3.37286 1.68958,1.68782 2.78717,3.58602 3.29276,5.69463 0.5056,2.10859 0.38706,4.3769 -0.35564,6.80492 -1.43966,4.7066 -4.04547,7.73912 -7.81744,9.09758 -3.77194,1.35842 -8.87036,1.05501 -15.29528,-0.91024 l -13.9891,-4.27902 1.43967,-4.70661 z" />
    <path
       style="font-size:40px;font-style:normal;font-variant:normal;font-weight:normal;font-stretch:normal;line-height:125%;letter-spacing:0px;word-spacing:0px;fill:none;stroke:#000000;stroke-opacity:1;font-family:Hanzel Extended;-inkscape-font-specification:Hanzel Extended"
       inkscape:connector-curvature="0"
       d="m 152.26618,516.4498 1.89403,-12.79021 22.93354,-7.40401 -19.81784,-13.63608 1.88259,-12.71293 27.86024,4.12566 -1.25315,8.4624 -21.59112,-3.92784 20.12054,13.85861 -1.36187,9.19659 -23.54534,7.6688 22.05186,2.41653 -1.31323,8.86814 z"
       id="path3517" />
    <path
       style="font-size:40px;font-style:normal;font-variant:normal;font-weight:normal;font-stretch:normal;line-height:125%;letter-spacing:0px;word-spacing:0px;fill:none;stroke:#000000;stroke-opacity:1;font-family:Hanzel Extended;-inkscape-font-specification:Hanzel Extended"
       inkscape:connector-curvature="0"
       d="m 176.07524,441.8668 7.4961,9.87922 4.94449,-11.43796 z m -6.89389,1.72231 3.71224,-8.58744 32.91218,-5.1568 -3.86724,8.94599 -7.65807,0.8813 -7.22298,16.70875 4.65883,6.05678 -3.70449,8.56951 z"
       id="path3519" />
    <path
       style="font-size:40px;font-style:normal;font-variant:normal;font-weight:normal;font-stretch:normal;line-height:125%;letter-spacing:0px;word-spacing:0px;fill:none;stroke:#000000;stroke-opacity:1;font-family:Hanzel Extended;-inkscape-font-specification:Hanzel Extended"
       inkscape:connector-curvature="0"
       d="m 202.0962,411.6836 -19.72256,3.39076 6.03707,-8.45689 12.23503,-1.77664 -2.26024,-12.19629 5.8782,-8.23433 3.30879,18.89613 20.16986,-3.31142 -6.09381,8.53637 -13.10923,1.48854 2.58975,13.24742 -6.10516,8.55226 z"
       id="path3521" />
    <path
       style="font-size:40px;font-style:normal;font-variant:normal;font-weight:normal;font-stretch:normal;line-height:125%;letter-spacing:0px;word-spacing:0px;fill:none;stroke:#000000;stroke-opacity:1;font-family:Hanzel Extended;-inkscape-font-specification:Hanzel Extended"
       inkscape:connector-curvature="0"
       d="m 249.2788,351.36668 -8.80849,6.25038 4.09157,5.76614 8.80849,-6.25038 c 2.33618,-1.6577 3.83828,-3.05087 4.50631,-4.17951 0.57722,-1.144 0.50416,-2.22573 -0.2192,-3.24519 -0.73846,-1.04063 -1.71877,-1.45464 -2.94093,-1.24204 -1.23589,0.23837 -3.04847,1.20523 -5.43775,2.9006 z m -18.88781,7.19979 17.6807,-12.54598 c 4.08833,-2.90098 7.4921,-4.46607 10.21134,-4.69527 2.71921,-0.22912 4.91145,0.8297 6.57673,3.17647 1.22067,1.72032 1.64102,3.56147 1.26105,5.52345 -0.36186,1.96513 -1.54629,3.90723 -3.5533,5.8263 l 15.31007,3.55337 -8.09171,5.74176 -13.85651,-3.69868 -8.474,6.01302 6.38602,8.99964 -7.15193,5.07491 z"
       id="path3523" />
    <path
       style="font-size:40px;font-style:normal;font-variant:normal;font-weight:normal;font-stretch:normal;line-height:125%;letter-spacing:0px;word-spacing:0px;fill:none;stroke:#000000;stroke-opacity:1;font-family:Hanzel Extended;-inkscape-font-specification:Hanzel Extended"
       inkscape:connector-curvature="0"
       d="m 289.51385,330.08823 -1.54328,12.30483 11.5304,-4.72491 z m -6.13436,-3.58634 8.65684,-3.54738 27.14344,19.31418 -9.01829,3.69551 -6.09312,-4.72193 -16.84378,6.90221 -0.90104,7.58798 -8.63876,3.53998 z"
       id="path3525" />
    <path
       style="font-size:40px;font-style:normal;font-variant:normal;font-weight:normal;font-stretch:normal;line-height:125%;letter-spacing:0px;word-spacing:0px;fill:none;stroke:#000000;stroke-opacity:1;font-family:Hanzel Extended;-inkscape-font-specification:Hanzel Extended"
       inkscape:connector-curvature="0"
       d="m 317.99086,314.05778 10.99816,-1.72625 20.02068,17.33969 -3.54273,-19.92604 8.895,-1.39615 4.36712,27.82343 -10.072,1.58088 -21.09109,-18.23929 3.68698,20.97101 -8.89501,1.39614 z"
       id="path3527" />
    <path
       style="font-size:40px;font-style:normal;font-variant:normal;font-weight:normal;font-stretch:normal;line-height:125%;letter-spacing:0px;word-spacing:0px;fill:none;stroke:#000000;stroke-opacity:1;font-family:Hanzel Extended;-inkscape-font-specification:Hanzel Extended"
       inkscape:connector-curvature="0"
       d="m 383.36561,325.48481 0.38345,-4.94609 20.69961,1.60477 -1.28926,16.62979 -18.86916,-1.46287 c -3.34934,-0.25966 -5.93761,-0.64969 -7.76482,-1.17009 -1.85319,-0.52241 -3.60187,-1.29791 -5.24602,-2.32651 -2.01652,-1.27948 -3.50104,-2.8932 -4.45358,-4.84114 -0.95255,-1.94794 -1.33069,-4.18764 -1.13443,-6.71912 0.38043,-4.90713 2.27649,-8.43323 5.68818,-10.57831 3.41167,-2.14503 8.44087,-2.9599 15.08761,-2.44463 l 18.86916,1.46286 -0.3744,4.82926 -18.86916,-1.46286 c -3.34934,-0.25964 -5.87975,0.28859 -7.59124,1.64471 -1.73849,1.36713 -2.73655,3.71237 -2.99419,7.03571 -0.23753,3.06374 0.37552,5.34777 1.83915,6.85211 1.46361,1.50436 3.90902,2.38938 7.33626,2.65508 l 9.87272,0.7654 0.51328,-6.62076 z"
       id="path3529" />
    <path
       style="font-size:40px;font-style:normal;font-variant:normal;font-weight:normal;font-stretch:normal;line-height:125%;letter-spacing:0px;word-spacing:0px;fill:none;stroke:#000000;stroke-opacity:1;font-family:Hanzel Extended;-inkscape-font-specification:Hanzel Extended"
       inkscape:connector-curvature="0"
       d="m 433.60447,323.30317 c -3.01325,-0.92168 -5.45111,-1.10911 -7.3136,-0.56229 -1.86252,0.54685 -3.22334,1.84625 -4.08247,3.89822 l 23.27884,7.16145 -1.42825,4.66925 -23.32761,-7.13551 c -0.72366,2.36576 -0.49698,4.27331 0.68006,5.72264 1.14448,1.46663 3.42256,2.72172 6.83425,3.7653 l 13.80233,4.22189 -1.43967,4.70661 -14.21322,-4.34758 c -1.6685,-0.51036 -3.06408,-0.9781 -4.18674,-1.40319 -1.11887,-0.43756 -2.13344,-0.90449 -3.04369,-1.40078 -1.62792,-0.8656 -3.12223,-1.98988 -4.48293,-3.37286 -1.68958,-1.68782 -2.78717,-3.58602 -3.29276,-5.69463 -0.5056,-2.10859 -0.38706,-4.3769 0.35564,-6.80492 1.43966,-4.7066 4.04547,-7.73912 7.81744,-9.09758 3.77194,-1.35842 8.87036,-1.05501 15.29528,0.91024 l 13.9891,4.27902 -1.43967,4.70661 z"
       id="path3531" />
  </g>
</svg>
