<?xml version="1.0" encoding="UTF-8" standalone="no"?>
<!-- Created with Inkscape (http://www.inkscape.org/) -->

<svg
   xmlns:dc="http://purl.org/dc/elements/1.1/"
   xmlns:cc="http://creativecommons.org/ns#"
   xmlns:rdf="http://www.w3.org/1999/02/22-rdf-syntax-ns#"
   xmlns:svg="http://www.w3.org/2000/svg"
   xmlns="http://www.w3.org/2000/svg"
   xmlns:sodipodi="http://sodipodi.sourceforge.net/DTD/sodipodi-0.dtd"
   xmlns:inkscape="http://www.inkscape.org/namespaces/inkscape"
   width="744.09448819"
   height="1052.3622047"
   id="svg2"
   version="1.1"
   inkscape:version="0.48.2 r9819"
   sodipodi:docname="dropscene3.svg"
   inkscape:export-filename="C:\Users\tom\Dropbox\starship\engineerconsole\dropscene3.png"
   inkscape:export-xdpi="90"
   inkscape:export-ydpi="90">
  <defs
     id="defs4" />
  <sodipodi:namedview
     id="base"
     pagecolor="#ffffff"
     bordercolor="#666666"
     borderopacity="1.0"
     inkscape:pageopacity="0.0"
     inkscape:pageshadow="2"
     inkscape:zoom="1.1383913"
     inkscape:cx="408.40734"
     inkscape:cy="549.01082"
     inkscape:document-units="px"
     inkscape:current-layer="layer1"
     showgrid="false"
     inkscape:window-width="1307"
     inkscape:window-height="749"
     inkscape:window-x="55"
     inkscape:window-y="-4"
     inkscape:window-maximized="1" />
  <metadata
     id="metadata7">
    <rdf:RDF>
      <cc:Work
         rdf:about="">
        <dc:format>image/svg+xml</dc:format>
        <dc:type
           rdf:resource="http://purl.org/dc/dcmitype/StillImage" />
        <dc:title></dc:title>
      </cc:Work>
    </rdf:RDF>
  </metadata>
  <g
     inkscape:label="Layer 1"
     inkscape:groupmode="layer"
     id="layer1">
    <rect
       style="color:#000000;fill:#000000;fill-opacity:1;stroke:none;stroke-width:5.30433083;marker:none;visibility:visible;display:inline;overflow:visible;enable-background:accumulate"
       id="rect2985"
       width="800"
       height="600"
       x="-18.539585"
       y="84.399925"
       ry="0" />
    <g
       style="font-size:37.88477325px;font-style:normal;font-variant:normal;font-weight:normal;font-stretch:normal;line-height:125%;letter-spacing:0px;word-spacing:0px;fill:#ff0000;fill-opacity:1;stroke:none;font-family:Hanzel Extended;-inkscape-font-specification:Hanzel Extended"
       id="text3026">
      <path
         d="m -4.2833415,99.068116 18.0729605,0 c 3.033717,2.6e-5 5.487838,0.111017 7.362373,0.332971 1.862143,0.259004 3.274188,0.604303 4.236139,1.035913 1.81281,0.75229 3.181692,1.74504 4.10665,2.97825 0.900218,1.24558 1.350346,2.70078 1.350385,4.36562 -3.9e-5,1.61555 -0.351508,2.97826 -1.05441,4.08816 -0.407003,0.55496 -0.887961,1.07292 -1.442877,1.55386 -0.579653,0.48097 -1.257928,0.9126 -2.034827,1.29489 -1.344252,0.62896 -2.836456,1.06676 -4.476618,1.31339 -0.752299,0.111 -1.812874,0.20349 -3.181729,0.27748 -1.368909,0.074 -2.873446,0.111 -4.513616,0.11099 l -10.118638,0 0,9.3232 -8.3057925,0 z m 17.9619705,4.791094 -9.656178,0 0,7.82483 10.192632,0 c 2.577422,2e-5 4.464259,-0.32679 5.660518,-0.98042 1.171537,-0.64126 1.75732,-1.61551 1.75735,-2.92275 -3e-5,-1.41819 -0.591979,-2.42944 -1.775849,-3.03374 -1.20859,-0.59193 -3.26808,-0.8879 -6.178473,-0.88792 z"
         style=""
         id="path3548" />
      <path
         d="m 34.100889,112.1465 c -2e-6,-4.57526 1.615525,-7.98513 4.846587,-10.22963 3.243381,-2.232114 8.219452,-3.348185 14.928228,-3.348212 6.696402,2.7e-5 11.660141,1.140762 14.891232,3.422212 3.206354,2.26916 4.809549,5.74069 4.80959,10.41461 -4.1e-5,4.69861 -1.615568,8.18247 -4.846587,10.45161 -3.231091,2.2938 -8.182498,3.44071 -14.854235,3.44071 -6.844431,0 -11.845167,-1.14691 -15.002222,-3.44071 -3.181732,-2.26914 -4.772595,-5.83933 -4.772593,-10.71059 z m 19.774815,-9.02723 c -3.52705,2e-5 -6.215485,0.74613 -8.065313,2.23831 -1.738863,1.54155 -2.608288,3.81686 -2.608278,6.82592 -10e-6,3.2804 0.857083,5.67902 2.571281,7.19589 1.689508,1.54154 4.390276,2.3123 8.10231,2.3123 1.84982,0 3.42835,-0.19115 4.735597,-0.57345 1.294862,-0.35763 2.380102,-0.92492 3.255723,-1.70186 1.78815,-1.51686 2.682239,-3.85383 2.682271,-7.0109 -3.2e-5,-3.15705 -0.869457,-5.49401 -2.608278,-7.0109 -1.763544,-1.51685 -4.451979,-2.27529 -8.065313,-2.27531 z"
         style=""
         id="path3550" />
      <path
         d="m 74.741922,99.068116 8.953238,0 9.175218,20.496254 7.713842,-20.496254 9.82266,0 8.86075,20.496254 8.52777,-20.496254 8.60177,0 -12.28295,26.674724 -10.19263,0 -8.43529,-19.8858 -7.399366,19.8858 -10.118638,0 z"
         style=""
         id="path3552" />
      <path
         d="m 156.63445,103.72972 c -2.98443,2e-5 -5.24432,0.50564 -6.77968,1.51687 -1.53538,1.01127 -2.40789,2.56513 -2.61752,4.6616 l 23.06753,0.037 0,4.62461 -23.10453,0 c -1e-5,2.34314 0.73376,4.00799 2.20131,4.99457 1.44286,1.01125 3.85382,1.51688 7.23289,1.51687 l 13.67033,0 0,4.6616 -14.0773,0 c -1.65254,0 -3.04609,-0.037 -4.18064,-0.11099 -1.13459,-0.0863 -2.18283,-0.22814 -3.14473,-0.42546 -1.7142,-0.33297 -3.37906,-0.93725 -4.99458,-1.81285 -1.99784,-1.06057 -3.51779,-2.4757 -4.55986,-4.24538 -1.04208,-1.76968 -1.56312,-3.85692 -1.56312,-6.26172 0,-4.66159 1.51995,-8.13004 4.55986,-10.40537 3.0399,-2.27528 7.74158,-3.412928 14.10505,-3.412954 l 13.85532,0 0,4.661604 z"
         style=""
         id="path3554" />
      <path
         d="m 196.0546,103.85921 -10.22963,0 0,6.69643 10.22963,0 c 2.71308,1e-5 4.63691,-0.2528 5.77151,-0.75844 1.07288,-0.56727 1.60933,-1.44286 1.60936,-2.62677 -3e-5,-1.20855 -0.53032,-2.06564 -1.59086,-2.57129 -1.08527,-0.49327 -3.01527,-0.73991 -5.79001,-0.73993 z m -18.53542,-4.791094 20.53325,0 c 4.7479,2.6e-5 8.23485,0.65672 10.46086,1.970084 2.22594,1.31341 3.33893,3.33282 3.33896,6.05823 -3e-5,1.99785 -0.68447,3.65037 -2.05332,4.95758 -1.35659,1.31957 -3.33592,2.17049 -5.93799,2.55278 l 9.87815,11.13605 -9.3972,0 -8.67576,-10.45161 -9.84116,0 0,10.45161 -8.30579,0 z"
         style=""
         id="path3556" />
      <path
         d="m 256.52594,103.65572 c -3.42839,3e-5 -5.90101,0.7338 -7.41787,2.20132 -1.54154,1.47989 -2.31231,3.90318 -2.3123,7.26988 -1e-5,2.89809 0.72143,4.94525 2.16432,6.14148 1.40586,1.20856 3.92781,1.81285 7.56585,1.81284 l 13.67034,0 0,4.6616 -14.0773,0 c -1.65255,0 -3.0461,-0.037 -4.18065,-0.11099 -1.13458,-0.0863 -2.18283,-0.22814 -3.14473,-0.42546 -1.7142,-0.33297 -3.37906,-0.93725 -4.99457,-1.81285 -1.99784,-1.06057 -3.51471,-2.4757 -4.55062,-4.24538 -1.03591,-1.76968 -1.55387,-3.85692 -1.55386,-6.26172 -1e-5,-4.66159 1.51686,-8.13004 4.55061,-10.40537 3.03373,-2.27528 7.73233,-3.412928 14.0958,-3.412954 l 13.85532,0 0,4.587604 z"
         style=""
         id="path3558" />
      <path
         d="m 273.76648,112.1465 c 0,-4.57526 1.61553,-7.98513 4.84659,-10.22963 3.24338,-2.232114 8.21945,-3.348185 14.92823,-3.348212 6.6964,2.7e-5 11.66014,1.140762 14.89123,3.422212 3.20635,2.26916 4.80955,5.74069 4.80959,10.41461 -4e-5,4.69861 -1.61557,8.18247 -4.84659,10.45161 -3.23109,2.2938 -8.1825,3.44071 -14.85423,3.44071 -6.84444,0 -11.84517,-1.14691 -15.00223,-3.44071 -3.18173,-2.26914 -4.77259,-5.83933 -4.77259,-10.71059 z m 19.77482,-9.02723 c -3.52705,2e-5 -6.21549,0.74613 -8.06532,2.23831 -1.73886,1.54155 -2.60829,3.81686 -2.60827,6.82592 -2e-5,3.2804 0.85708,5.67902 2.57128,7.19589 1.6895,1.54154 4.39027,2.3123 8.10231,2.3123 1.84982,0 3.42835,-0.19115 4.73559,-0.57345 1.29487,-0.35763 2.38011,-0.92492 3.25573,-1.70186 1.78815,-1.51686 2.68224,-3.85383 2.68227,-7.0109 -3e-5,-3.15705 -0.86946,-5.49401 -2.60828,-7.0109 -1.76354,-1.51685 -4.45198,-2.27529 -8.06531,-2.27531 z"
         style=""
         id="path3560" />
      <path
         d="m 318.92113,99.068116 10.5441,0 16.18612,19.164364 -0.38847,-19.164364 8.52778,0 0,26.674724 -9.65618,0 -17.05555,-20.16328 0.36997,20.16328 -8.52777,0 z"
         style=""
         id="path3562" />
      <path
         d="m 379.72544,103.72972 -9.65617,0 0,17.35152 9.67467,0 c 3.68733,1e-5 6.23394,-0.63511 7.63985,-1.90534 1.38118,-1.23322 2.07179,-3.49002 2.07182,-6.77042 -3e-5,-3.23104 -0.69064,-5.49401 -2.07182,-6.78892 -1.41824,-1.25787 -3.97102,-1.88682 -7.65835,-1.88684 z m -17.96197,-4.661604 18.14696,0 c 6.3141,2.6e-5 11.00036,1.125344 14.0588,3.375964 3.05837,2.25066 4.58757,5.73144 4.58761,10.44236 -4e-5,2.4048 -0.518,4.50129 -1.55387,6.28946 -1.06061,1.80052 -2.57748,3.2064 -4.55061,4.21764 -1.61556,0.85093 -3.30508,1.45521 -5.06857,1.81285 -1.76354,0.35764 -4.1745,0.53645 -7.23288,0.53645 l -18.38744,0 z"
         style=""
         id="path3564" />
      <path
         d="m 412.46766,99.068116 0,15.982634 c -1e-5,2.45414 0.66593,4.17449 1.99783,5.16106 1.34421,1.01126 3.64418,1.51688 6.89992,1.51688 3.25569,0 5.568,-0.49329 6.93691,-1.47988 1.33185,-0.96191 1.9978,-2.69459 1.99783,-5.19806 l 0,-15.982634 8.30579,0 0,16.130624 c -4e-5,0.93726 -0.0494,1.77586 -0.14799,2.51579 -0.0987,0.72761 -0.23435,1.39355 -0.40696,1.99783 -0.37001,1.15924 -0.96813,2.04099 -1.79435,2.64527 -1.49224,1.2209 -3.45307,2.13349 -5.8825,2.73777 -2.44182,0.62895 -5.44473,0.94342 -9.00873,0.94342 -3.51472,0 -6.47138,-0.28981 -8.87,-0.86943 -2.39864,-0.57961 -4.41805,-1.51687 -6.05823,-2.81176 -0.75228,-0.65361 -1.31956,-1.5107 -1.70186,-2.57128 -0.35764,-1.13456 -0.53646,-2.66376 -0.53645,-4.58761 l 0,-16.130624 z"
         style=""
         id="path3566" />
      <path
         d="m 455.47649,125.74284 -8.69426,0 0,-26.674724 8.69426,0 z"
         style=""
         id="path3568" />
      <path
         d="m 472.34706,103.76672 -12.78242,0 0,-4.643109 34.29608,0 0,4.643109 -12.8934,0 0,21.97612 -8.62026,0 z"
         style=""
         id="path3570" />
      <path
         d="m 534.22431,110.35215 -2.38629,4.43963 6.78892,0 2.3123,-4.43963 z m 0,-11.173044 5.9195,0 -3.92167,7.547354 6.52995,0 3.97716,-7.547354 5.99349,0 -3.97716,7.547354 7.60285,0 -2.03483,3.62569 -7.51036,0 -2.2753,4.40263 7.84333,0 -1.92384,3.62569 -7.84333,0 -3.97716,7.54736 -5.99349,0 3.97716,-7.54736 -6.51145,0 -4.05115,7.54736 -5.9195,0 3.94017,-7.54736 -7.73234,0 2.05332,-3.64419 7.62135,0 2.25681,-4.38413 -8.02832,0 2.01633,-3.64419 7.99132,0.0185 z"
         style=""
         id="path3572" />
      <path
         d="m 560.47356,99.068116 8.73126,0 0,26.674724 -8.73126,0 z"
         style=""
         id="path3574" />
      <path
         d="m 597.47038,103.65572 -25.36134,0 0,-4.587604 35.09151,0 0,4.587604 -23.75198,22.08712 -10.5811,0 z"
         style=""
         id="path3576" />
      <path
         d="m 626.6239,104.41416 -5.77151,10.22963 11.80199,0 z m -4.08815,-5.346044 8.86074,0 16.85207,26.674724 -9.23072,0 -3.64419,-6.32646 -17.24053,0 -3.5147,6.32646 -8.84225,0 z"
         style=""
         id="path3578" />
      <path
         d="m 14.25208,151.21517 -10.229629,0 0,6.69643 10.229629,0 c 2.713077,2e-5 4.636911,-0.25279 5.771508,-0.75843 1.072879,-0.56727 1.609333,-1.44286 1.609363,-2.62678 -3e-5,-1.20854 -0.530318,-2.06563 -1.590864,-2.57128 -1.085269,-0.49327 -3.015269,-0.73991 -5.790007,-0.73994 z m -18.5354215,-4.79109 20.5332515,0 c 4.747899,3e-5 8.234849,0.65672 10.460859,1.97008 2.225939,1.31342 3.338927,3.33283 3.338965,6.05824 -3.8e-5,1.99784 -0.684479,3.65037 -2.053325,4.95758 -1.356586,1.31956 -3.335915,2.17049 -5.937994,2.55278 l 9.878159,11.13605 -9.3972,0 -8.675761,-10.45161 -9.841162,0 0,10.45161 -8.3057925,0 z"
         style="fill:#00ff00"
         id="path3580" />
      <path
         d="m 53.413244,151.08569 c -2.98443,2e-5 -5.244319,0.50564 -6.779673,1.51687 -1.535381,1.01126 -2.407889,2.56513 -2.617527,4.6616 l 23.067535,0.037 0,4.6246 -23.104532,0 c -1.1e-5,2.34314 0.733759,4.008 2.201313,4.99458 1.442862,1.01125 3.853821,1.51687 7.232884,1.51687 l 13.670335,0 0,4.6616 -14.077301,0 c -1.652544,0 -3.046091,-0.037 -4.180644,-0.11099 -1.134584,-0.0863 -2.182827,-0.22815 -3.144732,-0.42546 -1.714198,-0.33297 -3.379055,-0.93726 -4.994574,-1.81285 -1.997836,-1.06057 -3.517788,-2.4757 -4.559862,-4.24539 -1.04208,-1.76967 -1.563118,-3.85691 -1.563117,-6.26171 -1e-6,-4.66159 1.519951,-8.13004 4.559862,-10.40537 3.039898,-2.27528 7.741576,-3.41293 14.105048,-3.41296 l 13.85532,0 0,4.66161 z"
         style="fill:#00ff00"
         id="path3582" />
      <path
         d="m 74.297965,146.42408 18.072961,0 c 3.033716,3e-5 5.487838,0.11102 7.362373,0.33297 1.862141,0.25901 3.274191,0.60431 4.236141,1.03592 1.81281,0.75229 3.18169,1.74504 4.10665,2.97824 0.90022,1.24558 1.35034,2.70079 1.35038,4.36563 -4e-5,1.61555 -0.35151,2.97826 -1.05441,4.08815 -0.407,0.55497 -0.88796,1.07292 -1.44287,1.55387 -0.57966,0.48097 -1.25793,0.9126 -2.03483,1.29489 -1.34425,0.62896 -2.83646,1.06675 -4.47662,1.31339 -0.752298,0.111 -1.812874,0.20349 -3.181729,0.27747 -1.368909,0.074 -2.873446,0.111 -4.513615,0.11099 l -10.118639,0 0,9.32321 -8.305792,0 z m 17.96197,4.79109 -9.656178,0 0,7.82484 10.192632,0 c 2.577422,1e-5 4.46426,-0.32679 5.660518,-0.98042 1.171538,-0.64126 1.757323,-1.61551 1.757353,-2.92275 -3e-5,-1.41819 -0.591981,-2.42944 -1.775851,-3.03374 -1.208591,-0.59193 -3.26808,-0.8879 -6.178474,-0.88793 z"
         style="fill:#00ff00"
         id="path3584" />
      <path
         d="m 130.64416,151.77013 -5.77151,10.22963 11.802,0 z m -4.08815,-5.34605 8.86074,0 16.85207,26.67473 -9.23071,0 -3.64419,-6.32646 -17.24054,0 -3.5147,6.32646 -8.84224,0 z"
         style="fill:#00ff00"
         id="path3586" />
      <path
         d="m 163.86733,173.09881 -8.69426,0 0,-26.67473 8.69426,0 z"
         style="fill:#00ff00"
         id="path3588" />
      <path
         d="m 190.65305,151.21517 -10.22963,0 0,6.69643 10.22963,0 c 2.71308,2e-5 4.63691,-0.25279 5.77151,-0.75843 1.07288,-0.56727 1.60933,-1.44286 1.60936,-2.62678 -3e-5,-1.20854 -0.53032,-2.06563 -1.59086,-2.57128 -1.08527,-0.49327 -3.01527,-0.73991 -5.79001,-0.73994 z m -18.53542,-4.79109 20.53325,0 c 4.7479,3e-5 8.23485,0.65672 10.46086,1.97008 2.22594,1.31342 3.33893,3.33283 3.33896,6.05824 -3e-5,1.99784 -0.68447,3.65037 -2.05332,4.95758 -1.35659,1.31956 -3.33592,2.17049 -5.93799,2.55278 l 9.87815,11.13605 -9.3972,0 -8.67576,-10.45161 -9.84116,0 0,10.45161 -8.30579,0 z"
         style="fill:#00ff00"
         id="path3590" />
      <path
         d="m 229.81423,151.08569 c -2.98443,2e-5 -5.24432,0.50564 -6.77968,1.51687 -1.53538,1.01126 -2.40789,2.56513 -2.61752,4.6616 l 23.06753,0.037 0,4.6246 -23.10453,0 c -1e-5,2.34314 0.73376,4.008 2.20131,4.99458 1.44286,1.01125 3.85382,1.51687 7.23289,1.51687 l 13.67033,0 0,4.6616 -14.0773,0 c -1.65254,0 -3.04609,-0.037 -4.18064,-0.11099 -1.13459,-0.0863 -2.18283,-0.22815 -3.14474,-0.42546 -1.71419,-0.33297 -3.37905,-0.93726 -4.99457,-1.81285 -1.99784,-1.06057 -3.51779,-2.4757 -4.55986,-4.24539 -1.04208,-1.76967 -1.56312,-3.85691 -1.56312,-6.26171 0,-4.66159 1.51995,-8.13004 4.55986,-10.40537 3.0399,-2.27528 7.74158,-3.41293 14.10505,-3.41296 l 13.85532,0 0,4.66161 z"
         style="fill:#00ff00"
         id="path3592" />
      <path
         d="m 268.66091,151.08569 -9.65617,0 0,17.35152 9.67467,0 c 3.68733,0 6.23394,-0.63511 7.63985,-1.90534 1.38119,-1.23322 2.07179,-3.49003 2.07182,-6.77042 -3e-5,-3.23105 -0.69063,-5.49402 -2.07182,-6.78893 -1.41824,-1.25787 -3.97102,-1.88681 -7.65835,-1.88683 z m -17.96197,-4.66161 18.14696,0 c 6.3141,3e-5 11.00036,1.12535 14.0588,3.37596 3.05837,2.25067 4.58757,5.73145 4.58761,10.44237 -4e-5,2.4048 -0.518,4.50129 -1.55387,6.28946 -1.06061,1.80052 -2.57748,3.2064 -4.55061,4.21764 -1.61556,0.85093 -3.30508,1.45521 -5.06857,1.81285 -1.76354,0.35763 -4.1745,0.53645 -7.23288,0.53645 l -18.38744,0 z"
         style="fill:#00ff00"
         id="path3594" />
    </g>
    <text
       sodipodi:linespacing="125%"
       id="text3094"
       y="204.543"
       x="-9.1625061"
       style="font-size:22.27055359px;font-style:normal;font-variant:normal;font-weight:normal;font-stretch:normal;line-height:125%;letter-spacing:0px;word-spacing:0px;fill:#ff0000;fill-opacity:1;stroke:none;font-family:Hanzel Extended;-inkscape-font-specification:Hanzel Extended"
       xml:space="preserve"><tspan
         id="tspan3098"
         y="204.543"
         x="-9.1625061"
         sodipodi:role="line">PREP FOR EMERGENCY JUMP</tspan></text>
    <text
       xml:space="preserve"
       style="font-size:22.27055359px;font-style:normal;font-variant:normal;font-weight:normal;font-stretch:normal;line-height:125%;letter-spacing:0px;word-spacing:0px;fill:#ffff00;fill-opacity:1;stroke:none;font-family:Hanzel Extended;-inkscape-font-specification:Hanzel Extended"
       x="130.50827"
       y="375.83734"
       id="text3535"
       sodipodi:linespacing="125%"><tspan
         sodipodi:role="line"
         x="130.50827"
         y="375.83734"
         id="tspan3539">JUMP AUTHORISATION CODE:</tspan></text>
    <rect
       style="color:#000000;fill:none;stroke:#ffff00;stroke-width:6.52719021;marker:none;visibility:visible;display:inline;overflow:visible;enable-background:accumulate"
       id="rect3541"
       width="691.13434"
       height="117.70996"
       x="34.258869"
       y="347.85928"
       ry="42.857143" />
    <rect
       ry="19.328499"
       y="391.15118"
       x="163.41508"
       height="53.086994"
       width="443.3631"
       id="rect3545"
       style="color:#000000;fill:#6c5353;stroke:#ffff00;stroke-width:3.51084994999999990;marker:none;visibility:visible;display:inline;overflow:visible;enable-background:accumulate" />
    <text
       xml:space="preserve"
       style="font-size:12.28980541px;font-style:normal;font-variant:normal;font-weight:normal;font-stretch:normal;line-height:125%;letter-spacing:0px;word-spacing:0px;fill:#ff0000;fill-opacity:1;stroke:none;font-family:Hanzel Extended;-inkscape-font-specification:Hanzel Extended"
       x="-7.7894239"
       y="637.61023"
       id="text3596"
       sodipodi:linespacing="125%"><tspan
         sodipodi:role="line"
         x="-7.7894239"
         y="637.61023"
         id="tspan3598">WARNING: </tspan></text>
    <text
       sodipodi:linespacing="125%"
       id="text3600"
       y="637.61023"
       x="93.230316"
       style="font-size:12.28980541px;font-style:normal;font-variant:normal;font-weight:normal;font-stretch:normal;line-height:125%;letter-spacing:0px;word-spacing:0px;fill:#ffff00;fill-opacity:1;stroke:none;font-family:Hanzel Extended;-inkscape-font-specification:Hanzel Extended"
       xml:space="preserve"><tspan
         id="tspan3602"
         y="637.61023"
         x="93.230316"
         sodipodi:role="line">EMERGENCY JUMP VOIDS SHIP WARRANTY AND MAY RESULT</tspan><tspan
         y="652.97247"
         x="93.230316"
         sodipodi:role="line"
         id="tspan3604">IN INJURY, DEATH, HUMILIATION OR SPONTANEOUS COMBUSTION</tspan><tspan
         y="668.33472"
         x="93.230316"
         sodipodi:role="line"
         id="tspan3606">AS SUCH ALL JUMPS REQUIRE AUTHORISATION OF THE CAPTAIN </tspan></text>
  </g>
</svg>
