<?xml version="1.0" encoding="UTF-8" standalone="no"?>
<!-- Created with Inkscape (http://www.inkscape.org/) -->

<svg
   xmlns:dc="http://purl.org/dc/elements/1.1/"
   xmlns:cc="http://creativecommons.org/ns#"
   xmlns:rdf="http://www.w3.org/1999/02/22-rdf-syntax-ns#"
   xmlns:svg="http://www.w3.org/2000/svg"
   xmlns="http://www.w3.org/2000/svg"
   xmlns:xlink="http://www.w3.org/1999/xlink"
   xmlns:sodipodi="http://sodipodi.sourceforge.net/DTD/sodipodi-0.dtd"
   xmlns:inkscape="http://www.inkscape.org/namespaces/inkscape"
   width="800"
   height="600"
   id="svg2"
   version="1.1"
   inkscape:version="0.48.2 r9819"
   sodipodi:docname="engineerwarp.svg"
   inkscape:export-filename="C:\Users\tom\Dropbox\starship\engineerconsole\inwarp.png"
   inkscape:export-xdpi="90"
   inkscape:export-ydpi="90">
  <defs
     id="defs4">
    <linearGradient
       id="linearGradient4790">
      <stop
         style="stop-color:#00443f;stop-opacity:1"
         offset="0"
         id="stop4792" />
      <stop
         style="stop-color:#000000;stop-opacity:1;"
         offset="1"
         id="stop4794" />
    </linearGradient>
    <radialGradient
       inkscape:collect="always"
       xlink:href="#linearGradient4790"
       id="radialGradient4796"
       cx="129.33684"
       cy="303.21844"
       fx="129.33684"
       fy="303.21844"
       r="276.53125"
       gradientTransform="matrix(1.2495327,-4.8811776e-8,1.001545e-7,2.5638551,-32.311119,-471.36255)"
       gradientUnits="userSpaceOnUse" />
  </defs>
  <sodipodi:namedview
     id="base"
     pagecolor="#000000"
     bordercolor="#666666"
     borderopacity="1.0"
     inkscape:pageopacity="0"
     inkscape:pageshadow="2"
     inkscape:zoom="0.98994949"
     inkscape:cx="363.26472"
     inkscape:cy="302.50565"
     inkscape:document-units="px"
     inkscape:current-layer="layer2"
     showgrid="false"
     inkscape:window-width="1307"
     inkscape:window-height="749"
     inkscape:window-x="55"
     inkscape:window-y="-4"
     inkscape:window-maximized="1" />
  <metadata
     id="metadata7">
    <rdf:RDF>
      <cc:Work
         rdf:about="">
        <dc:format>image/svg+xml</dc:format>
        <dc:type
           rdf:resource="http://purl.org/dc/dcmitype/StillImage" />
        <dc:title></dc:title>
      </cc:Work>
    </rdf:RDF>
  </metadata>
  <g
     inkscape:groupmode="layer"
     id="layer2"
     inkscape:label="bg">
    <path
       style="color:#000000;fill:#000000;fill-opacity:1;stroke:none;stroke-width:5.8499999;marker:none;visibility:visible;display:inline;overflow:visible;enable-background:accumulate"
       d="m 0,0 0,600 800,0 0,-600 z"
       id="rect4039"
       inkscape:connector-curvature="0"
       sodipodi:nodetypes="ccccc" />
    <path
       inkscape:connector-curvature="0"
       style="color:#000000;fill:url(#radialGradient4796);stroke:#ff0000;stroke-width:3.87500000000000000;stroke-linecap:butt;stroke-linejoin:miter;stroke-miterlimit:4;stroke-opacity:1;stroke-dashoffset:0;marker:none;visibility:visible;display:inline;overflow:visible;enable-background:accumulate;fill-opacity:1"
       d="m 154.22663,165.8403 c -11.45666,0.40791 -20.71875,13.92752 -20.71875,26.40625 l 0,113.59375 0,4.46875 0,113.59375 c 0,14.26141 12.10498,29.86625 25.75,25.71875 164.41661,-49.9756 335.24336,-65.30427 509.15625,-64 7.91406,0.0593 14.28125,-6.36697 14.28125,-14.28125 l 0,-61.03125 0,-4.46875 0,-61.03125 c 0,-7.91428 -6.36719,-14.3718 -14.28125,-14.3125 -173.91289,1.30427 -344.73964,-14.0244 -509.15625,-64 -1.70563,-0.51844 -3.39458,-0.71452 -5.03125,-0.65625 z"
       id="rect3067" />
    <path
       inkscape:connector-curvature="0"
       style="font-size:medium;font-style:normal;font-variant:normal;font-weight:normal;font-stretch:normal;text-indent:0;text-align:start;text-decoration:none;line-height:normal;letter-spacing:normal;word-spacing:normal;text-transform:none;direction:ltr;block-progression:tb;writing-mode:lr-tb;text-anchor:start;baseline-shift:baseline;color:#000000;fill:#ff1212;fill-opacity:1;stroke:none;stroke-width:1.10000002;marker:none;visibility:visible;display:inline;overflow:visible;enable-background:accumulate;font-family:Sans;-inkscape-font-specification:Sans"
       d="m 155.41413,165.8403 0,284.4375 c 0.26941,-0.0117 0.54108,-0.036 0.8125,-0.0625 l 0,-284.3125 c -0.27141,-0.0253 -0.54324,-0.0517 -0.8125,-0.0625 z m 24.78125,6.84375 0,270.75 c 0.26999,-0.077 0.54247,-0.14189 0.8125,-0.21875 l 0,-270.3125 c -0.27003,-0.0769 -0.54251,-0.14171 -0.8125,-0.21875 z m 24.78125,6.78125 0,257.1875 c 0.27121,-0.0716 0.54125,-0.1473 0.8125,-0.21875 l 0,-256.75 c -0.27125,-0.0714 -0.54129,-0.14712 -0.8125,-0.21875 z m 24.78125,6.28125 0,244.625 c 0.26971,-0.0657 0.54275,-0.12195 0.8125,-0.1875 l 0,-244.25 c -0.26975,-0.0656 -0.54279,-0.12178 -0.8125,-0.1875 z m 24.78125,5.78125 0,233.0625 c 0.27107,-0.0607 0.5414,-0.12695 0.8125,-0.1875 l 0,-232.6875 c -0.2711,-0.0606 -0.54143,-0.12679 -0.8125,-0.1875 z m 24.78125,5.34375 0,222.375 c 0.26989,-0.0553 0.54258,-0.10107 0.8125,-0.15625 l 0,-222.0625 c -0.26992,-0.0552 -0.54261,-0.10091 -0.8125,-0.15625 z m 24.78125,4.84375 0,212.6875 c 0.26964,-0.0504 0.54283,-0.0748 0.8125,-0.125 l 0,-212.4375 c -0.26967,-0.0502 -0.54286,-0.0746 -0.8125,-0.125 z m 24.78125,4.40625 0,203.875 c 0.27175,-0.046 0.54072,-0.11038 0.8125,-0.15625 l 0,-203.5625 c -0.27178,-0.0459 -0.54075,-0.11023 -0.8125,-0.15625 z m 24.78125,4 0,195.875 c 0.27075,-0.0413 0.54173,-0.0838 0.8125,-0.125 l 0,-195.625 c -0.27077,-0.0412 -0.54175,-0.0837 -0.8125,-0.125 z m 24.78125,3.59375 0,188.6875 c 0.2699,-0.0368 0.54258,-0.0571 0.8125,-0.0937 l 0,-188.5 c -0.26992,-0.0367 -0.5426,-0.0569 -0.8125,-0.0937 z m 24.78125,3.15625 0,182.375 c 0.27042,-0.0327 0.54206,-0.0612 0.8125,-0.0937 l 0,-182.1875 c -0.27044,-0.0326 -0.54208,-0.061 -0.8125,-0.0937 z m 24.78125,2.8125 0,176.75 c 0.27114,-0.0288 0.54134,-0.0651 0.8125,-0.0937 l 0,-176.5625 c -0.27116,-0.0286 -0.54136,-0.065 -0.8125,-0.0937 z m 24.78125,2.46875 0,171.8125 c 0.27056,-0.0249 0.54192,-0.0378 0.8125,-0.0625 l 0,-171.6875 c -0.27058,-0.0247 -0.54194,-0.0376 -0.8125,-0.0625 z m 24.78125,2.09375 0,167.625 c 0.27062,-0.0212 0.54185,-0.0414 0.8125,-0.0625 l 0,-167.5 c -0.27065,-0.0211 -0.54188,-0.0413 -0.8125,-0.0625 z m 24.78125,1.78125 0,164.0625 c 0.27088,-0.0177 0.5416,-0.0449 0.8125,-0.0625 l 0,-163.9375 c -0.2709,-0.0176 -0.54162,-0.0448 -0.8125,-0.0625 z m 24.78125,1.46875 0,161.125 c 0.27065,-0.0143 0.54183,-0.0171 0.8125,-0.0312 l 0,-161.0625 c -0.27067,-0.0142 -0.54185,-0.017 -0.8125,-0.0312 z m 24.78125,1.15625 0,158.8125 c 0.27081,-0.0111 0.54168,-0.0203 0.8125,-0.0312 l 0,-158.75 c -0.27082,-0.011 -0.54169,-0.0202 -0.8125,-0.0312 z m 24.78125,0.875 0,157.0625 c 0.271,-0.008 0.54148,-0.0233 0.8125,-0.0312 l 0,-157 c -0.27102,-0.008 -0.5415,-0.0232 -0.8125,-0.0312 z m 24.78125,0.625 0,155.8125 c 0.27079,-0.005 0.54169,0.005 0.8125,0 l 0,-155.8125 c -0.27081,-0.005 -0.54171,0.005 -0.8125,0 z m 24.78125,0.3125 0,155.1875 c 0.27039,-0.002 0.5421,0.002 0.8125,0 l 0,-155.1875 c -0.2704,-0.002 -0.54211,0.002 -0.8125,0 z m 24.78125,0.0937 0,155 c 0.27089,2.7e-4 0.54159,-3.6e-4 0.8125,0 l 0,-155 c -0.27091,3.6e-4 -0.54161,-2.7e-4 -0.8125,0 z"
       id="use4113" />
    <path
       style="fill:#ffff00;stroke:#ffff00;stroke-width:1.00076067px;stroke-linecap:butt;stroke-linejoin:miter;stroke-opacity:1"
       d="m 131.31983,246.44661 551.371,0"
       id="path4758"
       inkscape:connector-curvature="0"
       sodipodi:nodetypes="cc" />
    <path
       sodipodi:nodetypes="cc"
       inkscape:connector-curvature="0"
       id="path4760"
       d="m 131.31983,276.44624 495.4012,0"
       style="fill:#ffff00;stroke:#ffff00;stroke-width:0.94860804px;stroke-linecap:butt;stroke-linejoin:miter;stroke-opacity:1" />
    <path
       style="fill:#ffff00;stroke:#ffff00;stroke-width:0.94860804px;stroke-linecap:butt;stroke-linejoin:miter;stroke-opacity:1"
       d="m 131.31983,306.44624 495.4012,0"
       id="path4762"
       inkscape:connector-curvature="0"
       sodipodi:nodetypes="cc" />
    <path
       sodipodi:nodetypes="cc"
       inkscape:connector-curvature="0"
       id="path4764"
       d="m 131.31983,336.44624 495.4012,0"
       style="fill:#ffff00;stroke:#ffff00;stroke-width:0.94860804px;stroke-linecap:butt;stroke-linejoin:miter;stroke-opacity:1" />
    <path
       style="fill:#000000;fill-opacity:1;stroke:#cdcdcd;stroke-width:5.79879951;stroke-miterlimit:4;stroke-opacity:1"
       d="m 634.57802,266.00874 -15.23071,0.27947 -19.37024,22.86352 -14.42725,0 c -4.4235,0 -7.98215,3.55866 -7.98215,7.98215 l 0,3.99981 -29.46583,0 c -3.05956,0 -4.48122,2.72112 -6.21804,5.23992 l -20.83743,30.23435 c -4.51346,6.54557 2.45983,5.51939 5.51939,5.51939 l 96.01284,0 c 3.05955,0 5.51938,-2.45982 5.51938,-5.51939 l 0,-26.28694 2.46277,0 c 4.42349,0 7.98214,-3.55866 7.98214,-7.98215 l 0,-5.20499 c 0,-3.27575 -1.95922,-6.06772 -4.76832,-7.30096 l 0.80345,-23.82418 z"
       id="rect2985"
       inkscape:connector-curvature="0" />
    <path
       style="fill:#ffff00;stroke:#ffff00;stroke-width:1.00076067px;stroke-linecap:butt;stroke-linejoin:miter;stroke-opacity:1"
       d="m 131.31983,366.44624 551.371,0"
       id="path4766"
       inkscape:connector-curvature="0"
       sodipodi:nodetypes="cc" />
  </g>
  <g
     inkscape:label="Layer 1"
     inkscape:groupmode="layer"
     id="layer1"
     transform="translate(0,-452.36218)"
     style="display:inline">
    <text
       xml:space="preserve"
       style="font-size:40px;font-style:normal;font-variant:normal;font-weight:normal;font-stretch:normal;line-height:125%;letter-spacing:0px;word-spacing:0px;fill:#ff0000;fill-opacity:1;stroke:none;font-family:Hanzel Extended;-inkscape-font-specification:Hanzel Extended"
       x="21.45829"
       y="500.43533"
       id="text3806"
       sodipodi:linespacing="125%"><tspan
         sodipodi:role="line"
         id="tspan3808"
         x="21.45829"
         y="500.43533">IN HYPERSPACE</tspan></text>
    <rect
       style="color:#000000;fill:none;stroke:#ffff00;stroke-width:3.875;stroke-linecap:butt;stroke-linejoin:miter;stroke-miterlimit:4;stroke-opacity:1;stroke-dasharray:none;stroke-dashoffset:0;marker:none;visibility:visible;display:inline;overflow:visible;enable-background:accumulate"
       id="rect3866"
       width="774.78699"
       height="578.81738"
       x="11.111678"
       y="9.0607605"
       transform="translate(0,452.36218)"
       ry="14.285714" />
    <rect
       style="color:#000000;fill:none;stroke:#ffff00;stroke-width:6.26255989;stroke-linecap:butt;stroke-linejoin:miter;stroke-miterlimit:4;stroke-opacity:1;stroke-dasharray:none;stroke-dashoffset:0;marker:none;visibility:visible;display:inline;overflow:visible;enable-background:accumulate"
       id="rect3868"
       width="653.44672"
       height="120.41975"
       x="12.137031"
       y="460.9111"
       ry="13.519601"
       rx="12.549628" />
    <text
       sodipodi:linespacing="125%"
       id="text4034"
       y="516.98187"
       x="19.455505"
       style="font-size:13.77781487px;font-style:normal;font-variant:normal;font-weight:normal;font-stretch:normal;line-height:125%;letter-spacing:0px;word-spacing:0px;fill:#ff0000;fill-opacity:1;stroke:none;font-family:Hanzel Extended;-inkscape-font-specification:Hanzel Extended"
       xml:space="preserve"><tspan
         y="516.98187"
         x="19.455505"
         sodipodi:role="line"
         id="tspan4072">PRESS THE HYPERSPACE BUTTONS AS HYPERSPACE</tspan><tspan
         y="534.20416"
         x="19.455505"
         sodipodi:role="line"
         id="tspan4230">ENERY REACHES THE COLLECTOR LINE. MISSING CAUSES</tspan><tspan
         y="551.42639"
         x="19.455505"
         sodipodi:role="line"
         id="tspan4238">SHIP TO LOSE ENERGY, WHEN THE SHIP IS OUT OF ENERGY</tspan><tspan
         y="568.64868"
         x="19.455505"
         sodipodi:role="line"
         id="tspan4240">IT WILL DAMAGE ITSELF AND FALL OUT OF HYPERSPACE</tspan></text>
    <text
       sodipodi:linespacing="125%"
       id="text4232"
       y="957.02429"
       x="89.130806"
       style="font-size:21.34930611px;font-style:normal;font-variant:normal;font-weight:normal;font-stretch:normal;line-height:125%;letter-spacing:0px;word-spacing:0px;fill:#ff0000;fill-opacity:1;stroke:none;font-family:Hanzel Extended;-inkscape-font-specification:Hanzel Extended"
       xml:space="preserve"><tspan
         y="957.02429"
         x="89.130806"
         id="tspan4234"
         sodipodi:role="line">HYPERSPACE ENERGY:</tspan></text>
    <rect
       rx="21.641001"
       ry="24.631279"
       y="927.60156"
       x="69.715729"
       height="87.084717"
       width="656.47717"
       id="rect4236"
       style="color:#000000;fill:none;stroke:#ffff00;stroke-width:6.26255989;stroke-linecap:butt;stroke-linejoin:miter;stroke-miterlimit:4;stroke-opacity:1;stroke-dasharray:none;stroke-dashoffset:0;marker:none;visibility:visible;display:inline;overflow:visible;enable-background:accumulate" />
    <path
       style="fill:none;stroke:#ffff00;stroke-width:4.5;stroke-linecap:butt;stroke-linejoin:miter;stroke-opacity:1;stroke-miterlimit:4;stroke-dasharray:none"
       d="m 503.05597,388.87812 -1.01015,-165.66502 44.44671,-44.44671 31.31473,0"
       id="path4242"
       inkscape:connector-curvature="0"
       transform="translate(0,452.36218)" />
    <text
       xml:space="preserve"
       style="font-size:15.18760109px;font-style:normal;font-variant:normal;font-weight:normal;font-stretch:normal;line-height:125%;letter-spacing:0px;word-spacing:0px;fill:#ffff00;fill-opacity:1;stroke:none;font-family:Hanzel Extended;-inkscape-font-specification:Hanzel Extended"
       x="582.34393"
       y="628.34564"
       id="text4752"
       sodipodi:linespacing="125%"><tspan
         sodipodi:role="line"
         id="tspan4754"
         x="582.34393"
         y="628.34564">COLLECTOR</tspan><tspan
         sodipodi:role="line"
         x="582.34393"
         y="647.33014"
         id="tspan4756">LINE</tspan></text>
    <text
       xml:space="preserve"
       style="font-size:21.34930611px;font-style:normal;font-variant:normal;font-weight:normal;font-stretch:normal;line-height:125%;letter-spacing:0px;word-spacing:0px;fill:#ff0000;fill-opacity:1;stroke:none;font-family:Hanzel Extended;-inkscape-font-specification:Hanzel Extended"
       x="89.130806"
       y="983.02429"
       id="text4768"
       sodipodi:linespacing="125%"><tspan
         sodipodi:role="line"
         id="tspan4770"
         x="89.130806"
         y="983.02429">TIME TO DESTINATION:</tspan></text>
  </g>
</svg>
